<?xml version="1.0" standalone="yes"?>

<svg version="1.1" viewBox="0.0 0.0 327.34645669291336 323.5564304461942" fill="none" stroke="none" stroke-linecap="square" stroke-miterlimit="10" xmlns="http://www.w3.org/2000/svg" xmlns:xlink="http://www.w3.org/1999/xlink"><clipPath id="p.0"><path d="m0 0l327.34647 0l0 323.55643l-327.34647 0l0 -323.55643z" clip-rule="nonzero"></path></clipPath><g clip-path="url(#p.0)"><path fill="#000000" fill-opacity="0.0" d="m0 0l327.34647 0l0 323.55643l-327.34647 0z" fill-rule="evenodd"></path><path fill="#d9d9d9" fill-opacity="0.8314" d="m92.485565 184.88583l43.866135 0l0 43.866135l-43.866135 0z" fill-rule="evenodd"></path><path fill="#adadad" fill-opacity="0.8314" d="m136.3517 184.88583l14.622055 -14.622055l0 43.86615l-14.622055 14.62204z" fill-rule="evenodd"></path><path fill="#e0e0e0" fill-opacity="0.8314" d="m92.485565 184.88583l14.622047 -14.622055l43.866142 0l-14.622055 14.622055z" fill-rule="evenodd"></path><path fill="#000000" fill-opacity="0.0" d="m92.485565 184.88583l14.622047 -14.622055l43.866142 0l0 43.86615l-14.622055 14.62204l-43.866135 0zm0 0l43.866135 0l14.622055 -14.622055m-14.622055 14.622055l0 43.866135" fill-rule="evenodd"></path><path stroke="#000000" stroke-width="1.0" stroke-linejoin="round" stroke-linecap="butt" stroke-dasharray="1.0,3.0" d="m92.485565 184.88583l14.622047 -14.622055l43.866142 0l0 43.86615l-14.622055 14.62204l-43.866135 0zm0 0l43.866135 0l14.622055 -14.622055m-14.622055 14.622055l0 43.866135" fill-rule="evenodd"></path><path fill="#d9d9d9" fill-opacity="0.8314" d="m77.89764 199.47375l43.866142 0l0 43.866135l-43.866142 0z" fill-rule="evenodd"></path><path fill="#adadad" fill-opacity="0.8314" d="m121.76378 199.47375l14.622055 -14.622055l0 43.86615l-14.622055 14.62204z" fill-rule="evenodd"></path><path fill="#e0e0e0" fill-opacity="0.8314" d="m77.89764 199.47375l14.622047 -14.622055l43.86615 0l-14.622055 14.622055z" fill-rule="evenodd"></path><path fill="#000000" fill-opacity="0.0" d="m77.89764 199.47375l14.622047 -14.622055l43.86615 0l0 43.86615l-14.622055 14.62204l-43.866142 0zm0 0l43.866142 0l14.622055 -14.622055m-14.622055 14.622055l0 43.866135" fill-rule="evenodd"></path><path stroke="#000000" stroke-width="1.0" stroke-linejoin="round" stroke-linecap="butt" stroke-dasharray="1.0,3.0" d="m77.89764 199.47375l14.622047 -14.622055l43.86615 0l0 43.86615l-14.622055 14.62204l-43.866142 0zm0 0l43.866142 0l14.622055 -14.622055m-14.622055 14.622055l0 43.866135" fill-rule="evenodd"></path><path fill="#d9d9d9" fill-opacity="0.8314" d="m63.711285 213.78346l43.866146 0l0 43.866135l-43.866146 0z" fill-rule="evenodd"></path><path fill="#adadad" fill-opacity="0.8314" d="m107.57743 213.78346l14.622047 -14.62204l0 43.866135l-14.622047 14.62204z" fill-rule="evenodd"></path><path fill="#e0e0e0" fill-opacity="0.8314" d="m63.711285 213.78346l14.622051 -14.62204l43.866142 0l-14.622047 14.62204z" fill-rule="evenodd"></path><path fill="#000000" fill-opacity="0.0" d="m63.711285 213.78346l14.622051 -14.62204l43.866142 0l0 43.866135l-14.622047 14.62204l-43.866146 0zm0 0l43.866146 0l14.622047 -14.62204m-14.622047 14.62204l0 43.866135" fill-rule="evenodd"></path><path stroke="#000000" stroke-width="1.0" stroke-linejoin="round" stroke-linecap="butt" stroke-dasharray="1.0,3.0" d="m63.711285 213.78346l14.622051 -14.62204l43.866142 0l0 43.866135l-14.622047 14.62204l-43.866146 0zm0 0l43.866146 0l14.622047 -14.62204m-14.622047 14.62204l0 43.866135" fill-rule="evenodd"></path><path fill="#d9d9d9" fill-opacity="0.8314" d="m48.958004 228.37401l43.866146 0l0 43.866135l-43.866146 0z" fill-rule="evenodd"></path><path fill="#adadad" fill-opacity="0.8314" d="m92.82415 228.37401l14.622047 -14.62204l0 43.866135l-14.622047 14.62204z" fill-rule="evenodd"></path><path fill="#e0e0e0" fill-opacity="0.8314" d="m48.958004 228.37401l14.622047 -14.62204l43.866146 0l-14.622047 14.62204z" fill-rule="evenodd"></path><path fill="#000000" fill-opacity="0.0" d="m48.958004 228.37401l14.622047 -14.62204l43.866146 0l0 43.866135l-14.622047 14.62204l-43.866146 0zm0 0l43.866146 0l14.622047 -14.62204m-14.622047 14.62204l0 43.866135" fill-rule="evenodd"></path><path stroke="#000000" stroke-width="1.0" stroke-linejoin="round" stroke-linecap="butt" stroke-dasharray="1.0,3.0" d="m48.958004 228.37401l14.622047 -14.62204l43.866146 0l0 43.866135l-14.622047 14.62204l-43.866146 0zm0 0l43.866146 0l14.622047 -14.62204m-14.622047 14.62204l0 43.866135" fill-rule="evenodd"></path><path fill="#d9d9d9" fill-opacity="0.8314" d="m136.4147 184.88583l43.866135 0l0 43.866135l-43.866135 0z" fill-rule="evenodd"></path><path fill="#adadad" fill-opacity="0.8314" d="m180.28084 184.88583l14.622055 -14.622055l0 43.86615l-14.622055 14.62204z" fill-rule="evenodd"></path><path fill="#e0e0e0" fill-opacity="0.8314" d="m136.4147 184.88583l14.62204 -14.622055l43.86615 0l-14.622055 14.622055z" fill-rule="evenodd"></path><path fill="#000000" fill-opacity="0.0" d="m136.4147 184.88583l14.62204 -14.622055l43.86615 0l0 43.86615l-14.622055 14.62204l-43.866135 0zm0 0l43.866135 0l14.622055 -14.622055m-14.622055 14.622055l0 43.866135" fill-rule="evenodd"></path><path stroke="#000000" stroke-width="1.0" stroke-linejoin="round" stroke-linecap="butt" stroke-dasharray="1.0,3.0" d="m136.4147 184.88583l14.62204 -14.622055l43.86615 0l0 43.86615l-14.622055 14.62204l-43.866135 0zm0 0l43.866135 0l14.622055 -14.622055m-14.622055 14.622055l0 43.866135" fill-rule="evenodd"></path><path fill="#d9d9d9" fill-opacity="0.8314" d="m121.826775 199.47375l43.866142 0l0 43.866135l-43.866142 0z" fill-rule="evenodd"></path><path fill="#adadad" fill-opacity="0.8314" d="m165.69292 199.47375l14.62204 -14.622055l0 43.86615l-14.62204 14.62204z" fill-rule="evenodd"></path><path fill="#e0e0e0" fill-opacity="0.8314" d="m121.826775 199.47375l14.622047 -14.622055l43.866135 0l-14.62204 14.622055z" fill-rule="evenodd"></path><path fill="#000000" fill-opacity="0.0" d="m121.826775 199.47375l14.622047 -14.622055l43.866135 0l0 43.86615l-14.62204 14.62204l-43.866142 0zm0 0l43.866142 0l14.62204 -14.622055m-14.62204 14.622055l0 43.866135" fill-rule="evenodd"></path><path stroke="#000000" stroke-width="1.0" stroke-linejoin="round" stroke-linecap="butt" stroke-dasharray="1.0,3.0" d="m121.826775 199.47375l14.622047 -14.622055l43.866135 0l0 43.86615l-14.62204 14.62204l-43.866142 0zm0 0l43.866142 0l14.62204 -14.622055m-14.62204 14.622055l0 43.866135" fill-rule="evenodd"></path><path fill="#d9d9d9" fill-opacity="0.8314" d="m107.64042 213.78346l43.866142 0l0 43.866135l-43.866142 0z" fill-rule="evenodd"></path><path fill="#adadad" fill-opacity="0.8314" d="m151.50656 213.78346l14.622055 -14.62204l0 43.866135l-14.622055 14.62204z" fill-rule="evenodd"></path><path fill="#e0e0e0" fill-opacity="0.8314" d="m107.64042 213.78346l14.622047 -14.62204l43.86615 0l-14.622055 14.62204z" fill-rule="evenodd"></path><path fill="#000000" fill-opacity="0.0" d="m107.64042 213.78346l14.622047 -14.62204l43.86615 0l0 43.866135l-14.622055 14.62204l-43.866142 0zm0 0l43.866142 0l14.622055 -14.62204m-14.622055 14.62204l0 43.866135" fill-rule="evenodd"></path><path stroke="#000000" stroke-width="1.0" stroke-linejoin="round" stroke-linecap="butt" stroke-dasharray="1.0,3.0" d="m107.64042 213.78346l14.622047 -14.62204l43.86615 0l0 43.866135l-14.622055 14.62204l-43.866142 0zm0 0l43.866142 0l14.622055 -14.62204m-14.622055 14.62204l0 43.866135" fill-rule="evenodd"></path><path fill="#d9d9d9" fill-opacity="0.8314" d="m92.88714 228.37401l43.866142 0l0 43.866135l-43.866142 0z" fill-rule="evenodd"></path><path fill="#adadad" fill-opacity="0.8314" d="m136.75328 228.37401l14.622055 -14.62204l0 43.866135l-14.622055 14.62204z" fill-rule="evenodd"></path><path fill="#e0e0e0" fill-opacity="0.8314" d="m92.88714 228.37401l14.622047 -14.62204l43.86615 0l-14.622055 14.62204z" fill-rule="evenodd"></path><path fill="#000000" fill-opacity="0.0" d="m92.88714 228.37401l14.622047 -14.62204l43.86615 0l0 43.866135l-14.622055 14.62204l-43.866142 0zm0 0l43.866142 0l14.622055 -14.62204m-14.622055 14.62204l0 43.866135" fill-rule="evenodd"></path><path stroke="#000000" stroke-width="1.0" stroke-linejoin="round" stroke-linecap="butt" stroke-dasharray="1.0,3.0" d="m92.88714 228.37401l14.622047 -14.62204l43.86615 0l0 43.866135l-14.622055 14.62204l-43.866142 0zm0 0l43.866142 0l14.622055 -14.62204m-14.622055 14.62204l0 43.866135" fill-rule="evenodd"></path><path fill="#d9d9d9" fill-opacity="0.8314" d="m180.3937 184.88583l43.866135 0l0 43.866135l-43.866135 0z" fill-rule="evenodd"></path><path fill="#adadad" fill-opacity="0.8314" d="m224.25984 184.88583l14.622055 -14.622055l0 43.86615l-14.622055 14.62204z" fill-rule="evenodd"></path><path fill="#e0e0e0" fill-opacity="0.8314" d="m180.3937 184.88583l14.62204 -14.622055l43.86615 0l-14.622055 14.622055z" fill-rule="evenodd"></path><path fill="#000000" fill-opacity="0.0" d="m180.3937 184.88583l14.62204 -14.622055l43.86615 0l0 43.86615l-14.622055 14.62204l-43.866135 0zm0 0l43.866135 0l14.622055 -14.622055m-14.622055 14.622055l0 43.866135" fill-rule="evenodd"></path><path stroke="#000000" stroke-width="1.0" stroke-linejoin="round" stroke-linecap="butt" stroke-dasharray="1.0,3.0" d="m180.3937 184.88583l14.62204 -14.622055l43.86615 0l0 43.86615l-14.622055 14.62204l-43.866135 0zm0 0l43.866135 0l14.622055 -14.622055m-14.622055 14.622055l0 43.866135" fill-rule="evenodd"></path><path fill="#d9d9d9" fill-opacity="0.8314" d="m165.80577 199.47375l43.86615 0l0 43.866135l-43.86615 0z" fill-rule="evenodd"></path><path fill="#adadad" fill-opacity="0.8314" d="m209.67192 199.47375l14.62204 -14.622055l0 43.86615l-14.62204 14.62204z" fill-rule="evenodd"></path><path fill="#e0e0e0" fill-opacity="0.8314" d="m165.80577 199.47375l14.622055 -14.622055l43.866135 0l-14.62204 14.622055z" fill-rule="evenodd"></path><path fill="#000000" fill-opacity="0.0" d="m165.80577 199.47375l14.622055 -14.622055l43.866135 0l0 43.86615l-14.62204 14.62204l-43.86615 0zm0 0l43.86615 0l14.62204 -14.622055m-14.62204 14.622055l0 43.866135" fill-rule="evenodd"></path><path stroke="#000000" stroke-width="1.0" stroke-linejoin="round" stroke-linecap="butt" stroke-dasharray="1.0,3.0" d="m165.80577 199.47375l14.622055 -14.622055l43.866135 0l0 43.86615l-14.62204 14.62204l-43.86615 0zm0 0l43.86615 0l14.62204 -14.622055m-14.62204 14.622055l0 43.866135" fill-rule="evenodd"></path><path fill="#d9d9d9" fill-opacity="0.8314" d="m151.61942 213.78346l43.86615 0l0 43.866135l-43.86615 0z" fill-rule="evenodd"></path><path fill="#adadad" fill-opacity="0.8314" d="m195.48557 213.78346l14.62204 -14.62204l0 43.866135l-14.62204 14.62204z" fill-rule="evenodd"></path><path fill="#e0e0e0" fill-opacity="0.8314" d="m151.61942 213.78346l14.622055 -14.62204l43.866135 0l-14.62204 14.62204z" fill-rule="evenodd"></path><path fill="#000000" fill-opacity="0.0" d="m151.61942 213.78346l14.622055 -14.62204l43.866135 0l0 43.866135l-14.62204 14.62204l-43.86615 0zm0 0l43.86615 0l14.62204 -14.62204m-14.62204 14.62204l0 43.866135" fill-rule="evenodd"></path><path stroke="#000000" stroke-width="1.0" stroke-linejoin="round" stroke-linecap="butt" stroke-dasharray="1.0,3.0" d="m151.61942 213.78346l14.622055 -14.62204l43.866135 0l0 43.866135l-14.62204 14.62204l-43.86615 0zm0 0l43.86615 0l14.62204 -14.62204m-14.62204 14.62204l0 43.866135" fill-rule="evenodd"></path><path fill="#d9d9d9" fill-opacity="0.8314" d="m136.86613 228.37401l43.86615 0l0 43.866135l-43.86615 0z" fill-rule="evenodd"></path><path fill="#adadad" fill-opacity="0.8314" d="m180.73228 228.37401l14.62204 -14.62204l0 43.866135l-14.62204 14.62204z" fill-rule="evenodd"></path><path fill="#e0e0e0" fill-opacity="0.8314" d="m136.86613 228.37401l14.622055 -14.62204l43.866135 0l-14.62204 14.62204z" fill-rule="evenodd"></path><path fill="#000000" fill-opacity="0.0" d="m136.86613 228.37401l14.622055 -14.62204l43.866135 0l0 43.866135l-14.62204 14.62204l-43.86615 0zm0 0l43.86615 0l14.62204 -14.62204m-14.62204 14.62204l0 43.866135" fill-rule="evenodd"></path><path stroke="#000000" stroke-width="1.0" stroke-linejoin="round" stroke-linecap="butt" stroke-dasharray="1.0,3.0" d="m136.86613 228.37401l14.622055 -14.62204l43.866135 0l0 43.866135l-14.62204 14.62204l-43.86615 0zm0 0l43.86615 0l14.62204 -14.62204m-14.62204 14.62204l0 43.866135" fill-rule="evenodd"></path><path fill="#d9d9d9" fill-opacity="0.8314" d="m224.32283 184.88583l43.866135 0l0 43.866135l-43.866135 0z" fill-rule="evenodd"></path><path fill="#adadad" fill-opacity="0.8314" d="m268.18896 184.88583l14.62207 -14.622055l0 43.86615l-14.62207 14.62204z" fill-rule="evenodd"></path><path fill="#e0e0e0" fill-opacity="0.8314" d="m224.32283 184.88583l14.622055 -14.622055l43.86615 0l-14.62207 14.622055z" fill-rule="evenodd"></path><path fill="#000000" fill-opacity="0.0" d="m224.32283 184.88583l14.622055 -14.622055l43.86615 0l0 43.86615l-14.62207 14.62204l-43.866135 0zm0 0l43.866135 0l14.62207 -14.622055m-14.62207 14.622055l0 43.866135" fill-rule="evenodd"></path><path stroke="#000000" stroke-width="1.0" stroke-linejoin="round" stroke-linecap="butt" stroke-dasharray="1.0,3.0" d="m224.32283 184.88583l14.622055 -14.622055l43.86615 0l0 43.86615l-14.62207 14.62204l-43.866135 0zm0 0l43.866135 0l14.62207 -14.622055m-14.62207 14.622055l0 43.866135" fill-rule="evenodd"></path><path fill="#d9d9d9" fill-opacity="0.8314" d="m209.73491 199.47375l43.866135 0l0 43.866135l-43.866135 0z" fill-rule="evenodd"></path><path fill="#adadad" fill-opacity="0.8314" d="m253.60104 199.47375l14.62204 -14.622055l0 43.86615l-14.62204 14.62204z" fill-rule="evenodd"></path><path fill="#e0e0e0" fill-opacity="0.8314" d="m209.73491 199.47375l14.62204 -14.622055l43.866135 0l-14.62204 14.622055z" fill-rule="evenodd"></path><path fill="#000000" fill-opacity="0.0" d="m209.73491 199.47375l14.62204 -14.622055l43.866135 0l0 43.86615l-14.62204 14.62204l-43.866135 0zm0 0l43.866135 0l14.62204 -14.622055m-14.62204 14.622055l0 43.866135" fill-rule="evenodd"></path><path stroke="#000000" stroke-width="1.0" stroke-linejoin="round" stroke-linecap="butt" stroke-dasharray="1.0,3.0" d="m209.73491 199.47375l14.62204 -14.622055l43.866135 0l0 43.86615l-14.62204 14.62204l-43.866135 0zm0 0l43.866135 0l14.62204 -14.622055m-14.62204 14.622055l0 43.866135" fill-rule="evenodd"></path><path fill="#d9d9d9" fill-opacity="0.8314" d="m195.54855 213.78346l43.86615 0l0 43.866135l-43.86615 0z" fill-rule="evenodd"></path><path fill="#adadad" fill-opacity="0.8314" d="m239.4147 213.78346l14.62204 -14.62204l0 43.866135l-14.62204 14.62204z" fill-rule="evenodd"></path><path fill="#e0e0e0" fill-opacity="0.8314" d="m195.54855 213.78346l14.622055 -14.62204l43.866135 0l-14.62204 14.62204z" fill-rule="evenodd"></path><path fill="#000000" fill-opacity="0.0" d="m195.54855 213.78346l14.622055 -14.62204l43.866135 0l0 43.866135l-14.62204 14.62204l-43.86615 0zm0 0l43.86615 0l14.62204 -14.62204m-14.62204 14.62204l0 43.866135" fill-rule="evenodd"></path><path stroke="#000000" stroke-width="1.0" stroke-linejoin="round" stroke-linecap="butt" stroke-dasharray="1.0,3.0" d="m195.54855 213.78346l14.622055 -14.62204l43.866135 0l0 43.866135l-14.62204 14.62204l-43.86615 0zm0 0l43.86615 0l14.62204 -14.62204m-14.62204 14.62204l0 43.866135" fill-rule="evenodd"></path><path fill="#d9d9d9" fill-opacity="0.8314" d="m180.79527 228.37401l43.86615 0l0 43.866135l-43.86615 0z" fill-rule="evenodd"></path><path fill="#adadad" fill-opacity="0.8314" d="m224.66142 228.37401l14.62204 -14.62204l0 43.866135l-14.62204 14.62204z" fill-rule="evenodd"></path><path fill="#e0e0e0" fill-opacity="0.8314" d="m180.79527 228.37401l14.622055 -14.62204l43.866135 0l-14.62204 14.62204z" fill-rule="evenodd"></path><path fill="#000000" fill-opacity="0.0" d="m180.79527 228.37401l14.622055 -14.62204l43.866135 0l0 43.866135l-14.62204 14.62204l-43.86615 0zm0 0l43.86615 0l14.62204 -14.62204m-14.62204 14.62204l0 43.866135" fill-rule="evenodd"></path><path stroke="#000000" stroke-width="1.0" stroke-linejoin="round" stroke-linecap="butt" stroke-dasharray="1.0,3.0" d="m180.79527 228.37401l14.622055 -14.62204l43.866135 0l0 43.866135l-14.62204 14.62204l-43.86615 0zm0 0l43.86615 0l14.62204 -14.62204m-14.62204 14.62204l0 43.866135" fill-rule="evenodd"></path><path fill="#d9d9d9" fill-opacity="0.8314" d="m48.958004 184.38452l43.866146 0l0 43.866135l-43.866146 0z" fill-rule="evenodd"></path><path fill="#adadad" fill-opacity="0.8314" d="m92.82415 184.38452l14.622047 -14.622055l0 43.86615l-14.622047 14.62204z" fill-rule="evenodd"></path><path fill="#e0e0e0" fill-opacity="0.8314" d="m48.958004 184.38452l14.622047 -14.622055l43.866146 0l-14.622047 14.622055z" fill-rule="evenodd"></path><path fill="#000000" fill-opacity="0.0" d="m48.958004 184.38452l14.622047 -14.622055l43.866146 0l0 43.86615l-14.622047 14.62204l-43.866146 0zm0 0l43.866146 0l14.622047 -14.622055m-14.622047 14.622055l0 43.866135" fill-rule="evenodd"></path><path stroke="#000000" stroke-width="1.0" stroke-linejoin="round" stroke-linecap="butt" stroke-dasharray="1.0,3.0" d="m48.958004 184.38452l14.622047 -14.622055l43.866146 0l0 43.86615l-14.622047 14.62204l-43.866146 0zm0 0l43.866146 0l14.622047 -14.622055m-14.622047 14.622055l0 43.866135" fill-rule="evenodd"></path><path fill="#d9d9d9" fill-opacity="0.8314" d="m136.4147 140.89633l43.866135 0l0 43.866135l-43.866135 0z" fill-rule="evenodd"></path><path fill="#adadad" fill-opacity="0.8314" d="m180.28084 140.89633l14.622055 -14.622055l0 43.86615l-14.622055 14.62204z" fill-rule="evenodd"></path><path fill="#e0e0e0" fill-opacity="0.8314" d="m136.4147 140.89633l14.62204 -14.622055l43.86615 0l-14.622055 14.622055z" fill-rule="evenodd"></path><path fill="#000000" fill-opacity="0.0" d="m136.4147 140.89633l14.62204 -14.622055l43.86615 0l0 43.86615l-14.622055 14.62204l-43.866135 0zm0 0l43.866135 0l14.622055 -14.622055m-14.622055 14.622055l0 43.866135" fill-rule="evenodd"></path><path stroke="#000000" stroke-width="1.0" stroke-linejoin="round" stroke-linecap="butt" stroke-dasharray="1.0,3.0" d="m136.4147 140.89633l14.62204 -14.622055l43.86615 0l0 43.86615l-14.622055 14.62204l-43.866135 0zm0 0l43.866135 0l14.622055 -14.622055m-14.622055 14.622055l0 43.866135" fill-rule="evenodd"></path><path fill="#d9d9d9" fill-opacity="0.8314" d="m121.826775 155.48425l43.866142 0l0 43.866135l-43.866142 0z" fill-rule="evenodd"></path><path fill="#adadad" fill-opacity="0.8314" d="m165.69292 155.48425l14.62204 -14.622055l0 43.86615l-14.62204 14.62204z" fill-rule="evenodd"></path><path fill="#e0e0e0" fill-opacity="0.8314" d="m121.826775 155.48425l14.622047 -14.622055l43.866135 0l-14.62204 14.622055z" fill-rule="evenodd"></path><path fill="#000000" fill-opacity="0.0" d="m121.826775 155.48425l14.622047 -14.622055l43.866135 0l0 43.86615l-14.62204 14.62204l-43.866142 0zm0 0l43.866142 0l14.62204 -14.622055m-14.62204 14.622055l0 43.866135" fill-rule="evenodd"></path><path stroke="#000000" stroke-width="1.0" stroke-linejoin="round" stroke-linecap="butt" stroke-dasharray="1.0,3.0" d="m121.826775 155.48425l14.622047 -14.622055l43.866135 0l0 43.86615l-14.62204 14.62204l-43.866142 0zm0 0l43.866142 0l14.62204 -14.622055m-14.62204 14.622055l0 43.866135" fill-rule="evenodd"></path><path fill="#d9d9d9" fill-opacity="0.8314" d="m107.64042 169.79396l43.866142 0l0 43.86615l-43.866142 0z" fill-rule="evenodd"></path><path fill="#adadad" fill-opacity="0.8314" d="m151.50656 169.79396l14.622055 -14.62204l0 43.866135l-14.622055 14.622055z" fill-rule="evenodd"></path><path fill="#e0e0e0" fill-opacity="0.8314" d="m107.64042 169.79396l14.622047 -14.62204l43.86615 0l-14.622055 14.62204z" fill-rule="evenodd"></path><path fill="#000000" fill-opacity="0.0" d="m107.64042 169.79396l14.622047 -14.62204l43.86615 0l0 43.866135l-14.622055 14.622055l-43.866142 0zm0 0l43.866142 0l14.622055 -14.62204m-14.622055 14.62204l0 43.86615" fill-rule="evenodd"></path><path stroke="#000000" stroke-width="1.0" stroke-linejoin="round" stroke-linecap="butt" stroke-dasharray="1.0,3.0" d="m107.64042 169.79396l14.622047 -14.62204l43.86615 0l0 43.866135l-14.622055 14.622055l-43.866142 0zm0 0l43.866142 0l14.622055 -14.62204m-14.622055 14.62204l0 43.86615" fill-rule="evenodd"></path><path fill="#d9d9d9" fill-opacity="0.8314" d="m92.88714 184.38452l43.866142 0l0 43.866135l-43.866142 0z" fill-rule="evenodd"></path><path fill="#adadad" fill-opacity="0.8314" d="m136.75328 184.38452l14.622055 -14.622055l0 43.86615l-14.622055 14.62204z" fill-rule="evenodd"></path><path fill="#e0e0e0" fill-opacity="0.8314" d="m92.88714 184.38452l14.622047 -14.622055l43.86615 0l-14.622055 14.622055z" fill-rule="evenodd"></path><path fill="#000000" fill-opacity="0.0" d="m92.88714 184.38452l14.622047 -14.622055l43.86615 0l0 43.86615l-14.622055 14.62204l-43.866142 0zm0 0l43.866142 0l14.622055 -14.622055m-14.622055 14.622055l0 43.866135" fill-rule="evenodd"></path><path stroke="#000000" stroke-width="1.0" stroke-linejoin="round" stroke-linecap="butt" stroke-dasharray="1.0,3.0" d="m92.88714 184.38452l14.622047 -14.622055l43.86615 0l0 43.86615l-14.622055 14.62204l-43.866142 0zm0 0l43.866142 0l14.622055 -14.622055m-14.622055 14.622055l0 43.866135" fill-rule="evenodd"></path><path fill="#d9d9d9" fill-opacity="0.8314" d="m180.3937 140.89633l43.866135 0l0 43.866135l-43.866135 0z" fill-rule="evenodd"></path><path fill="#adadad" fill-opacity="0.8314" d="m224.25984 140.89633l14.622055 -14.622055l0 43.86615l-14.622055 14.62204z" fill-rule="evenodd"></path><path fill="#e0e0e0" fill-opacity="0.8314" d="m180.3937 140.89633l14.62204 -14.622055l43.86615 0l-14.622055 14.622055z" fill-rule="evenodd"></path><path fill="#000000" fill-opacity="0.0" d="m180.3937 140.89633l14.62204 -14.622055l43.86615 0l0 43.86615l-14.622055 14.62204l-43.866135 0zm0 0l43.866135 0l14.622055 -14.622055m-14.622055 14.622055l0 43.866135" fill-rule="evenodd"></path><path stroke="#000000" stroke-width="1.0" stroke-linejoin="round" stroke-linecap="butt" stroke-dasharray="1.0,3.0" d="m180.3937 140.89633l14.62204 -14.622055l43.86615 0l0 43.86615l-14.622055 14.62204l-43.866135 0zm0 0l43.866135 0l14.622055 -14.622055m-14.622055 14.622055l0 43.866135" fill-rule="evenodd"></path><path fill="#d9d9d9" fill-opacity="0.8314" d="m165.80577 155.48425l43.86615 0l0 43.866135l-43.86615 0z" fill-rule="evenodd"></path><path fill="#adadad" fill-opacity="0.8314" d="m209.67192 155.48425l14.62204 -14.622055l0 43.86615l-14.62204 14.62204z" fill-rule="evenodd"></path><path fill="#e0e0e0" fill-opacity="0.8314" d="m165.80577 155.48425l14.622055 -14.622055l43.866135 0l-14.62204 14.622055z" fill-rule="evenodd"></path><path fill="#000000" fill-opacity="0.0" d="m165.80577 155.48425l14.622055 -14.622055l43.866135 0l0 43.86615l-14.62204 14.62204l-43.86615 0zm0 0l43.86615 0l14.62204 -14.622055m-14.62204 14.622055l0 43.866135" fill-rule="evenodd"></path><path stroke="#000000" stroke-width="1.0" stroke-linejoin="round" stroke-linecap="butt" stroke-dasharray="1.0,3.0" d="m165.80577 155.48425l14.622055 -14.622055l43.866135 0l0 43.86615l-14.62204 14.62204l-43.86615 0zm0 0l43.86615 0l14.62204 -14.622055m-14.62204 14.622055l0 43.866135" fill-rule="evenodd"></path><path fill="#d9d9d9" fill-opacity="0.8314" d="m151.61942 169.79396l43.86615 0l0 43.86615l-43.86615 0z" fill-rule="evenodd"></path><path fill="#adadad" fill-opacity="0.8314" d="m195.48557 169.79396l14.62204 -14.62204l0 43.866135l-14.62204 14.622055z" fill-rule="evenodd"></path><path fill="#e0e0e0" fill-opacity="0.8314" d="m151.61942 169.79396l14.622055 -14.62204l43.866135 0l-14.62204 14.62204z" fill-rule="evenodd"></path><path fill="#000000" fill-opacity="0.0" d="m151.61942 169.79396l14.622055 -14.62204l43.866135 0l0 43.866135l-14.62204 14.622055l-43.86615 0zm0 0l43.86615 0l14.62204 -14.62204m-14.62204 14.62204l0 43.86615" fill-rule="evenodd"></path><path stroke="#000000" stroke-width="1.0" stroke-linejoin="round" stroke-linecap="butt" stroke-dasharray="1.0,3.0" d="m151.61942 169.79396l14.622055 -14.62204l43.866135 0l0 43.866135l-14.62204 14.622055l-43.86615 0zm0 0l43.86615 0l14.62204 -14.62204m-14.62204 14.62204l0 43.86615" fill-rule="evenodd"></path><path fill="#d9d9d9" fill-opacity="0.8314" d="m136.86613 184.38452l43.86615 0l0 43.866135l-43.86615 0z" fill-rule="evenodd"></path><path fill="#adadad" fill-opacity="0.8314" d="m180.73228 184.38452l14.62204 -14.622055l0 43.86615l-14.62204 14.62204z" fill-rule="evenodd"></path><path fill="#e0e0e0" fill-opacity="0.8314" d="m136.86613 184.38452l14.622055 -14.622055l43.866135 0l-14.62204 14.622055z" fill-rule="evenodd"></path><path fill="#000000" fill-opacity="0.0" d="m136.86613 184.38452l14.622055 -14.622055l43.866135 0l0 43.86615l-14.62204 14.62204l-43.86615 0zm0 0l43.86615 0l14.62204 -14.622055m-14.62204 14.622055l0 43.866135" fill-rule="evenodd"></path><path stroke="#000000" stroke-width="1.0" stroke-linejoin="round" stroke-linecap="butt" stroke-dasharray="1.0,3.0" d="m136.86613 184.38452l14.622055 -14.622055l43.866135 0l0 43.86615l-14.62204 14.62204l-43.86615 0zm0 0l43.86615 0l14.62204 -14.622055m-14.62204 14.622055l0 43.866135" fill-rule="evenodd"></path><path fill="#d9d9d9" fill-opacity="0.8314" d="m224.32283 140.89633l43.866135 0l0 43.866135l-43.866135 0z" fill-rule="evenodd"></path><path fill="#adadad" fill-opacity="0.8314" d="m268.18896 140.89633l14.62207 -14.622055l0 43.86615l-14.62207 14.62204z" fill-rule="evenodd"></path><path fill="#e0e0e0" fill-opacity="0.8314" d="m224.32283 140.89633l14.622055 -14.622055l43.86615 0l-14.62207 14.622055z" fill-rule="evenodd"></path><path fill="#000000" fill-opacity="0.0" d="m224.32283 140.89633l14.622055 -14.622055l43.86615 0l0 43.86615l-14.62207 14.62204l-43.866135 0zm0 0l43.866135 0l14.62207 -14.622055m-14.62207 14.622055l0 43.866135" fill-rule="evenodd"></path><path stroke="#000000" stroke-width="1.0" stroke-linejoin="round" stroke-linecap="butt" stroke-dasharray="1.0,3.0" d="m224.32283 140.89633l14.622055 -14.622055l43.86615 0l0 43.86615l-14.62207 14.62204l-43.866135 0zm0 0l43.866135 0l14.62207 -14.622055m-14.62207 14.622055l0 43.866135" fill-rule="evenodd"></path><path fill="#d9d9d9" fill-opacity="0.8314" d="m209.73491 155.48425l43.866135 0l0 43.866135l-43.866135 0z" fill-rule="evenodd"></path><path fill="#adadad" fill-opacity="0.8314" d="m253.60104 155.48425l14.62204 -14.622055l0 43.86615l-14.62204 14.62204z" fill-rule="evenodd"></path><path fill="#e0e0e0" fill-opacity="0.8314" d="m209.73491 155.48425l14.62204 -14.622055l43.866135 0l-14.62204 14.622055z" fill-rule="evenodd"></path><path fill="#000000" fill-opacity="0.0" d="m209.73491 155.48425l14.62204 -14.622055l43.866135 0l0 43.86615l-14.62204 14.62204l-43.866135 0zm0 0l43.866135 0l14.62204 -14.622055m-14.62204 14.622055l0 43.866135" fill-rule="evenodd"></path><path stroke="#000000" stroke-width="1.0" stroke-linejoin="round" stroke-linecap="butt" stroke-dasharray="1.0,3.0" d="m209.73491 155.48425l14.62204 -14.622055l43.866135 0l0 43.86615l-14.62204 14.62204l-43.866135 0zm0 0l43.866135 0l14.62204 -14.622055m-14.62204 14.622055l0 43.866135" fill-rule="evenodd"></path><path fill="#d9d9d9" fill-opacity="0.8314" d="m195.54855 169.79396l43.86615 0l0 43.86615l-43.86615 0z" fill-rule="evenodd"></path><path fill="#adadad" fill-opacity="0.8314" d="m239.4147 169.79396l14.62204 -14.62204l0 43.866135l-14.62204 14.622055z" fill-rule="evenodd"></path><path fill="#e0e0e0" fill-opacity="0.8314" d="m195.54855 169.79396l14.622055 -14.62204l43.866135 0l-14.62204 14.62204z" fill-rule="evenodd"></path><path fill="#000000" fill-opacity="0.0" d="m195.54855 169.79396l14.622055 -14.62204l43.866135 0l0 43.866135l-14.62204 14.622055l-43.86615 0zm0 0l43.86615 0l14.62204 -14.62204m-14.62204 14.62204l0 43.86615" fill-rule="evenodd"></path><path stroke="#000000" stroke-width="1.0" stroke-linejoin="round" stroke-linecap="butt" stroke-dasharray="1.0,3.0" d="m195.54855 169.79396l14.622055 -14.62204l43.866135 0l0 43.866135l-14.62204 14.622055l-43.86615 0zm0 0l43.86615 0l14.62204 -14.62204m-14.62204 14.62204l0 43.86615" fill-rule="evenodd"></path><path fill="#d9d9d9" fill-opacity="0.8314" d="m180.79527 184.38452l43.86615 0l0 43.866135l-43.86615 0z" fill-rule="evenodd"></path><path fill="#adadad" fill-opacity="0.8314" d="m224.66142 184.38452l14.62204 -14.622055l0 43.86615l-14.62204 14.62204z" fill-rule="evenodd"></path><path fill="#e0e0e0" fill-opacity="0.8314" d="m180.79527 184.38452l14.622055 -14.622055l43.866135 0l-14.62204 14.622055z" fill-rule="evenodd"></path><path fill="#000000" fill-opacity="0.0" d="m180.79527 184.38452l14.622055 -14.622055l43.866135 0l0 43.86615l-14.62204 14.62204l-43.86615 0zm0 0l43.86615 0l14.62204 -14.622055m-14.62204 14.622055l0 43.866135" fill-rule="evenodd"></path><path stroke="#000000" stroke-width="1.0" stroke-linejoin="round" stroke-linecap="butt" stroke-dasharray="1.0,3.0" d="m180.79527 184.38452l14.622055 -14.622055l43.866135 0l0 43.86615l-14.62204 14.62204l-43.86615 0zm0 0l43.86615 0l14.62204 -14.622055m-14.62204 14.622055l0 43.866135" fill-rule="evenodd"></path><path fill="#d9d9d9" fill-opacity="0.8314" d="m92.485565 96.31759l43.866135 0l0 43.866142l-43.866135 0z" fill-rule="evenodd"></path><path fill="#adadad" fill-opacity="0.8314" d="m136.3517 96.31759l14.622055 -14.622047l0 43.866135l-14.622055 14.622055z" fill-rule="evenodd"></path><path fill="#e0e0e0" fill-opacity="0.8314" d="m92.485565 96.31759l14.622047 -14.622047l43.866142 0l-14.622055 14.622047z" fill-rule="evenodd"></path><path fill="#000000" fill-opacity="0.0" d="m92.485565 96.31759l14.622047 -14.622047l43.866142 0l0 43.866135l-14.622055 14.622055l-43.866135 0zm0 0l43.866135 0l14.622055 -14.622047m-14.622055 14.622047l0 43.866142" fill-rule="evenodd"></path><path stroke="#000000" stroke-width="1.0" stroke-linejoin="round" stroke-linecap="butt" stroke-dasharray="1.0,3.0" d="m92.485565 96.31759l14.622047 -14.622047l43.866142 0l0 43.866135l-14.622055 14.622055l-43.866135 0zm0 0l43.866135 0l14.622055 -14.622047m-14.622055 14.622047l0 43.866142" fill-rule="evenodd"></path><path fill="#d9d9d9" fill-opacity="0.8314" d="m77.89764 110.90551l43.866142 0l0 43.866142l-43.866142 0z" fill-rule="evenodd"></path><path fill="#adadad" fill-opacity="0.8314" d="m121.76378 110.90551l14.622055 -14.622047l0 43.86615l-14.622055 14.62204z" fill-rule="evenodd"></path><path fill="#e0e0e0" fill-opacity="0.8314" d="m77.89764 110.90551l14.622047 -14.622047l43.86615 0l-14.622055 14.622047z" fill-rule="evenodd"></path><path fill="#000000" fill-opacity="0.0" d="m77.89764 110.90551l14.622047 -14.622047l43.86615 0l0 43.86615l-14.622055 14.62204l-43.866142 0zm0 0l43.866142 0l14.622055 -14.622047m-14.622055 14.622047l0 43.866142" fill-rule="evenodd"></path><path stroke="#000000" stroke-width="1.0" stroke-linejoin="round" stroke-linecap="butt" stroke-dasharray="1.0,3.0" d="m77.89764 110.90551l14.622047 -14.622047l43.86615 0l0 43.86615l-14.622055 14.62204l-43.866142 0zm0 0l43.866142 0l14.622055 -14.622047m-14.622055 14.622047l0 43.866142" fill-rule="evenodd"></path><path fill="#d9d9d9" fill-opacity="0.8314" d="m63.711285 125.215225l43.866146 0l0 43.866135l-43.866146 0z" fill-rule="evenodd"></path><path fill="#adadad" fill-opacity="0.8314" d="m107.57743 125.215225l14.622047 -14.622047l0 43.866142l-14.622047 14.62204z" fill-rule="evenodd"></path><path fill="#e0e0e0" fill-opacity="0.8314" d="m63.711285 125.215225l14.622051 -14.622047l43.866142 0l-14.622047 14.622047z" fill-rule="evenodd"></path><path fill="#000000" fill-opacity="0.0" d="m63.711285 125.215225l14.622051 -14.622047l43.866142 0l0 43.866142l-14.622047 14.62204l-43.866146 0zm0 0l43.866146 0l14.622047 -14.622047m-14.622047 14.622047l0 43.866135" fill-rule="evenodd"></path><path stroke="#000000" stroke-width="1.0" stroke-linejoin="round" stroke-linecap="butt" stroke-dasharray="1.0,3.0" d="m63.711285 125.215225l14.622051 -14.622047l43.866142 0l0 43.866142l-14.622047 14.62204l-43.866146 0zm0 0l43.866146 0l14.622047 -14.622047m-14.622047 14.622047l0 43.866135" fill-rule="evenodd"></path><path fill="#d9d9d9" fill-opacity="0.8314" d="m48.958004 139.80577l43.866146 0l0 43.86615l-43.866146 0z" fill-rule="evenodd"></path><path fill="#adadad" fill-opacity="0.8314" d="m92.82415 139.80577l14.622047 -14.622047l0 43.866142l-14.622047 14.622055z" fill-rule="evenodd"></path><path fill="#e0e0e0" fill-opacity="0.8314" d="m48.958004 139.80577l14.622047 -14.622047l43.866146 0l-14.622047 14.622047z" fill-rule="evenodd"></path><path fill="#000000" fill-opacity="0.0" d="m48.958004 139.80577l14.622047 -14.622047l43.866146 0l0 43.866142l-14.622047 14.622055l-43.866146 0zm0 0l43.866146 0l14.622047 -14.622047m-14.622047 14.622047l0 43.86615" fill-rule="evenodd"></path><path stroke="#000000" stroke-width="1.0" stroke-linejoin="round" stroke-linecap="butt" stroke-dasharray="1.0,3.0" d="m48.958004 139.80577l14.622047 -14.622047l43.866146 0l0 43.866142l-14.622047 14.622055l-43.866146 0zm0 0l43.866146 0l14.622047 -14.622047m-14.622047 14.622047l0 43.86615" fill-rule="evenodd"></path><path fill="#d9d9d9" fill-opacity="0.8314" d="m136.4147 96.31759l43.866135 0l0 43.866142l-43.866135 0z" fill-rule="evenodd"></path><path fill="#adadad" fill-opacity="0.8314" d="m180.28084 96.31759l14.622055 -14.622047l0 43.866135l-14.622055 14.622055z" fill-rule="evenodd"></path><path fill="#e0e0e0" fill-opacity="0.8314" d="m136.4147 96.31759l14.62204 -14.622047l43.86615 0l-14.622055 14.622047z" fill-rule="evenodd"></path><path fill="#000000" fill-opacity="0.0" d="m136.4147 96.31759l14.62204 -14.622047l43.86615 0l0 43.866135l-14.622055 14.622055l-43.866135 0zm0 0l43.866135 0l14.622055 -14.622047m-14.622055 14.622047l0 43.866142" fill-rule="evenodd"></path><path stroke="#000000" stroke-width="1.0" stroke-linejoin="round" stroke-linecap="butt" stroke-dasharray="1.0,3.0" d="m136.4147 96.31759l14.62204 -14.622047l43.86615 0l0 43.866135l-14.622055 14.622055l-43.866135 0zm0 0l43.866135 0l14.622055 -14.622047m-14.622055 14.622047l0 43.866142" fill-rule="evenodd"></path><path fill="#d9d9d9" fill-opacity="0.8314" d="m121.826775 110.90551l43.866142 0l0 43.866142l-43.866142 0z" fill-rule="evenodd"></path><path fill="#adadad" fill-opacity="0.8314" d="m165.69292 110.90551l14.62204 -14.622047l0 43.86615l-14.62204 14.62204z" fill-rule="evenodd"></path><path fill="#e0e0e0" fill-opacity="0.8314" d="m121.826775 110.90551l14.622047 -14.622047l43.866135 0l-14.62204 14.622047z" fill-rule="evenodd"></path><path fill="#000000" fill-opacity="0.0" d="m121.826775 110.90551l14.622047 -14.622047l43.866135 0l0 43.86615l-14.62204 14.62204l-43.866142 0zm0 0l43.866142 0l14.62204 -14.622047m-14.62204 14.622047l0 43.866142" fill-rule="evenodd"></path><path stroke="#000000" stroke-width="1.0" stroke-linejoin="round" stroke-linecap="butt" stroke-dasharray="1.0,3.0" d="m121.826775 110.90551l14.622047 -14.622047l43.866135 0l0 43.86615l-14.62204 14.62204l-43.866142 0zm0 0l43.866142 0l14.62204 -14.622047m-14.62204 14.622047l0 43.866142" fill-rule="evenodd"></path><path fill="#d9d9d9" fill-opacity="0.8314" d="m107.64042 125.215225l43.866142 0l0 43.866135l-43.866142 0z" fill-rule="evenodd"></path><path fill="#adadad" fill-opacity="0.8314" d="m151.50656 125.215225l14.622055 -14.622047l0 43.866142l-14.622055 14.62204z" fill-rule="evenodd"></path><path fill="#e0e0e0" fill-opacity="0.8314" d="m107.64042 125.215225l14.622047 -14.622047l43.86615 0l-14.622055 14.622047z" fill-rule="evenodd"></path><path fill="#000000" fill-opacity="0.0" d="m107.64042 125.215225l14.622047 -14.622047l43.86615 0l0 43.866142l-14.622055 14.62204l-43.866142 0zm0 0l43.866142 0l14.622055 -14.622047m-14.622055 14.622047l0 43.866135" fill-rule="evenodd"></path><path stroke="#000000" stroke-width="1.0" stroke-linejoin="round" stroke-linecap="butt" stroke-dasharray="1.0,3.0" d="m107.64042 125.215225l14.622047 -14.622047l43.86615 0l0 43.866142l-14.622055 14.62204l-43.866142 0zm0 0l43.866142 0l14.622055 -14.622047m-14.622055 14.622047l0 43.866135" fill-rule="evenodd"></path><path fill="#d9d9d9" fill-opacity="0.8314" d="m92.88714 139.80577l43.866142 0l0 43.86615l-43.866142 0z" fill-rule="evenodd"></path><path fill="#adadad" fill-opacity="0.8314" d="m136.75328 139.80577l14.622055 -14.622047l0 43.866142l-14.622055 14.622055z" fill-rule="evenodd"></path><path fill="#e0e0e0" fill-opacity="0.8314" d="m92.88714 139.80577l14.622047 -14.622047l43.86615 0l-14.622055 14.622047z" fill-rule="evenodd"></path><path fill="#000000" fill-opacity="0.0" d="m92.88714 139.80577l14.622047 -14.622047l43.86615 0l0 43.866142l-14.622055 14.622055l-43.866142 0zm0 0l43.866142 0l14.622055 -14.622047m-14.622055 14.622047l0 43.86615" fill-rule="evenodd"></path><path stroke="#000000" stroke-width="1.0" stroke-linejoin="round" stroke-linecap="butt" stroke-dasharray="1.0,3.0" d="m92.88714 139.80577l14.622047 -14.622047l43.86615 0l0 43.866142l-14.622055 14.622055l-43.866142 0zm0 0l43.866142 0l14.622055 -14.622047m-14.622055 14.622047l0 43.86615" fill-rule="evenodd"></path><path fill="#d9d9d9" fill-opacity="0.8314" d="m180.3937 96.31759l43.866135 0l0 43.866142l-43.866135 0z" fill-rule="evenodd"></path><path fill="#adadad" fill-opacity="0.8314" d="m224.25984 96.31759l14.622055 -14.622047l0 43.866135l-14.622055 14.622055z" fill-rule="evenodd"></path><path fill="#e0e0e0" fill-opacity="0.8314" d="m180.3937 96.31759l14.62204 -14.622047l43.86615 0l-14.622055 14.622047z" fill-rule="evenodd"></path><path fill="#000000" fill-opacity="0.0" d="m180.3937 96.31759l14.62204 -14.622047l43.86615 0l0 43.866135l-14.622055 14.622055l-43.866135 0zm0 0l43.866135 0l14.622055 -14.622047m-14.622055 14.622047l0 43.866142" fill-rule="evenodd"></path><path stroke="#000000" stroke-width="1.0" stroke-linejoin="round" stroke-linecap="butt" stroke-dasharray="1.0,3.0" d="m180.3937 96.31759l14.62204 -14.622047l43.86615 0l0 43.866135l-14.622055 14.622055l-43.866135 0zm0 0l43.866135 0l14.622055 -14.622047m-14.622055 14.622047l0 43.866142" fill-rule="evenodd"></path><path fill="#d9d9d9" fill-opacity="0.8314" d="m165.80577 110.90551l43.86615 0l0 43.866142l-43.86615 0z" fill-rule="evenodd"></path><path fill="#adadad" fill-opacity="0.8314" d="m209.67192 110.90551l14.62204 -14.622047l0 43.86615l-14.62204 14.62204z" fill-rule="evenodd"></path><path fill="#e0e0e0" fill-opacity="0.8314" d="m165.80577 110.90551l14.622055 -14.622047l43.866135 0l-14.62204 14.622047z" fill-rule="evenodd"></path><path fill="#000000" fill-opacity="0.0" d="m165.80577 110.90551l14.622055 -14.622047l43.866135 0l0 43.86615l-14.62204 14.62204l-43.86615 0zm0 0l43.86615 0l14.62204 -14.622047m-14.62204 14.622047l0 43.866142" fill-rule="evenodd"></path><path stroke="#000000" stroke-width="1.0" stroke-linejoin="round" stroke-linecap="butt" stroke-dasharray="1.0,3.0" d="m165.80577 110.90551l14.622055 -14.622047l43.866135 0l0 43.86615l-14.62204 14.62204l-43.86615 0zm0 0l43.86615 0l14.62204 -14.622047m-14.62204 14.622047l0 43.866142" fill-rule="evenodd"></path><path fill="#d9d9d9" fill-opacity="0.8314" d="m151.61942 125.215225l43.86615 0l0 43.866135l-43.86615 0z" fill-rule="evenodd"></path><path fill="#adadad" fill-opacity="0.8314" d="m195.48557 125.215225l14.62204 -14.622047l0 43.866142l-14.62204 14.62204z" fill-rule="evenodd"></path><path fill="#e0e0e0" fill-opacity="0.8314" d="m151.61942 125.215225l14.622055 -14.622047l43.866135 0l-14.62204 14.622047z" fill-rule="evenodd"></path><path fill="#000000" fill-opacity="0.0" d="m151.61942 125.215225l14.622055 -14.622047l43.866135 0l0 43.866142l-14.62204 14.62204l-43.86615 0zm0 0l43.86615 0l14.62204 -14.622047m-14.62204 14.622047l0 43.866135" fill-rule="evenodd"></path><path stroke="#000000" stroke-width="1.0" stroke-linejoin="round" stroke-linecap="butt" stroke-dasharray="1.0,3.0" d="m151.61942 125.215225l14.622055 -14.622047l43.866135 0l0 43.866142l-14.62204 14.62204l-43.86615 0zm0 0l43.86615 0l14.62204 -14.622047m-14.62204 14.622047l0 43.866135" fill-rule="evenodd"></path><path fill="#d9d9d9" fill-opacity="0.8314" d="m136.86613 139.80577l43.86615 0l0 43.86615l-43.86615 0z" fill-rule="evenodd"></path><path fill="#adadad" fill-opacity="0.8314" d="m180.73228 139.80577l14.62204 -14.622047l0 43.866142l-14.62204 14.622055z" fill-rule="evenodd"></path><path fill="#e0e0e0" fill-opacity="0.8314" d="m136.86613 139.80577l14.622055 -14.622047l43.866135 0l-14.62204 14.622047z" fill-rule="evenodd"></path><path fill="#000000" fill-opacity="0.0" d="m136.86613 139.80577l14.622055 -14.622047l43.866135 0l0 43.866142l-14.62204 14.622055l-43.86615 0zm0 0l43.86615 0l14.62204 -14.622047m-14.62204 14.622047l0 43.86615" fill-rule="evenodd"></path><path stroke="#000000" stroke-width="1.0" stroke-linejoin="round" stroke-linecap="butt" stroke-dasharray="1.0,3.0" d="m136.86613 139.80577l14.622055 -14.622047l43.866135 0l0 43.866142l-14.62204 14.622055l-43.86615 0zm0 0l43.86615 0l14.62204 -14.622047m-14.62204 14.622047l0 43.86615" fill-rule="evenodd"></path><path fill="#d9d9d9" fill-opacity="0.8314" d="m224.32283 96.31759l43.866135 0l0 43.866142l-43.866135 0z" fill-rule="evenodd"></path><path fill="#adadad" fill-opacity="0.8314" d="m268.18896 96.31759l14.62207 -14.622047l0 43.866135l-14.62207 14.622055z" fill-rule="evenodd"></path><path fill="#e0e0e0" fill-opacity="0.8314" d="m224.32283 96.31759l14.622055 -14.622047l43.86615 0l-14.62207 14.622047z" fill-rule="evenodd"></path><path fill="#000000" fill-opacity="0.0" d="m224.32283 96.31759l14.622055 -14.622047l43.86615 0l0 43.866135l-14.62207 14.622055l-43.866135 0zm0 0l43.866135 0l14.62207 -14.622047m-14.62207 14.622047l0 43.866142" fill-rule="evenodd"></path><path stroke="#000000" stroke-width="1.0" stroke-linejoin="round" stroke-linecap="butt" stroke-dasharray="1.0,3.0" d="m224.32283 96.31759l14.622055 -14.622047l43.86615 0l0 43.866135l-14.62207 14.622055l-43.866135 0zm0 0l43.866135 0l14.62207 -14.622047m-14.62207 14.622047l0 43.866142" fill-rule="evenodd"></path><path fill="#d9d9d9" fill-opacity="0.8314" d="m209.73491 110.90551l43.866135 0l0 43.866142l-43.866135 0z" fill-rule="evenodd"></path><path fill="#adadad" fill-opacity="0.8314" d="m253.60104 110.90551l14.62204 -14.622047l0 43.86615l-14.62204 14.62204z" fill-rule="evenodd"></path><path fill="#e0e0e0" fill-opacity="0.8314" d="m209.73491 110.90551l14.62204 -14.622047l43.866135 0l-14.62204 14.622047z" fill-rule="evenodd"></path><path fill="#000000" fill-opacity="0.0" d="m209.73491 110.90551l14.62204 -14.622047l43.866135 0l0 43.86615l-14.62204 14.62204l-43.866135 0zm0 0l43.866135 0l14.62204 -14.622047m-14.62204 14.622047l0 43.866142" fill-rule="evenodd"></path><path stroke="#000000" stroke-width="1.0" stroke-linejoin="round" stroke-linecap="butt" stroke-dasharray="1.0,3.0" d="m209.73491 110.90551l14.62204 -14.622047l43.866135 0l0 43.86615l-14.62204 14.62204l-43.866135 0zm0 0l43.866135 0l14.62204 -14.622047m-14.62204 14.622047l0 43.866142" fill-rule="evenodd"></path><path fill="#d9d9d9" fill-opacity="0.8314" d="m195.54855 125.215225l43.86615 0l0 43.866135l-43.86615 0z" fill-rule="evenodd"></path><path fill="#adadad" fill-opacity="0.8314" d="m239.4147 125.215225l14.62204 -14.622047l0 43.866142l-14.62204 14.62204z" fill-rule="evenodd"></path><path fill="#e0e0e0" fill-opacity="0.8314" d="m195.54855 125.215225l14.622055 -14.622047l43.866135 0l-14.62204 14.622047z" fill-rule="evenodd"></path><path fill="#000000" fill-opacity="0.0" d="m195.54855 125.215225l14.622055 -14.622047l43.866135 0l0 43.866142l-14.62204 14.62204l-43.86615 0zm0 0l43.86615 0l14.62204 -14.622047m-14.62204 14.622047l0 43.866135" fill-rule="evenodd"></path><path stroke="#000000" stroke-width="1.0" stroke-linejoin="round" stroke-linecap="butt" stroke-dasharray="1.0,3.0" d="m195.54855 125.215225l14.622055 -14.622047l43.866135 0l0 43.866142l-14.62204 14.62204l-43.86615 0zm0 0l43.86615 0l14.62204 -14.622047m-14.62204 14.622047l0 43.866135" fill-rule="evenodd"></path><path fill="#d9d9d9" fill-opacity="0.8314" d="m180.79527 139.80577l43.86615 0l0 43.86615l-43.86615 0z" fill-rule="evenodd"></path><path fill="#adadad" fill-opacity="0.8314" d="m224.66142 139.80577l14.62204 -14.622047l0 43.866142l-14.62204 14.622055z" fill-rule="evenodd"></path><path fill="#e0e0e0" fill-opacity="0.8314" d="m180.79527 139.80577l14.622055 -14.622047l43.866135 0l-14.62204 14.622047z" fill-rule="evenodd"></path><path fill="#000000" fill-opacity="0.0" d="m180.79527 139.80577l14.622055 -14.622047l43.866135 0l0 43.866142l-14.62204 14.622055l-43.86615 0zm0 0l43.86615 0l14.62204 -14.622047m-14.62204 14.622047l0 43.86615" fill-rule="evenodd"></path><path stroke="#000000" stroke-width="1.0" stroke-linejoin="round" stroke-linecap="butt" stroke-dasharray="1.0,3.0" d="m180.79527 139.80577l14.622055 -14.622047l43.866135 0l0 43.866142l-14.62204 14.622055l-43.86615 0zm0 0l43.86615 0l14.62204 -14.622047m-14.62204 14.622047l0 43.86615" fill-rule="evenodd"></path><path fill="#ff0000" d="m92.485565 52.328083l43.866135 0l0 43.866146l-43.866135 0z" fill-rule="evenodd"></path><path fill="#cb0000" d="m136.3517 52.328083l14.622055 -14.622047l0 43.866146l-14.622055 14.622047z" fill-rule="evenodd"></path><path fill="#ff3333" d="m92.485565 52.328083l14.622047 -14.622047l43.866142 0l-14.622055 14.622047z" fill-rule="evenodd"></path><path fill="#000000" fill-opacity="0.0" d="m92.485565 52.328083l14.622047 -14.622047l43.866142 0l0 43.866146l-14.622055 14.622047l-43.866135 0zm0 0l43.866135 0l14.622055 -14.622047m-14.622055 14.622047l0 43.866146" fill-rule="evenodd"></path><path stroke="#000000" stroke-width="1.0" stroke-linejoin="round" stroke-linecap="butt" stroke-dasharray="1.0,3.0" d="m92.485565 52.328083l14.622047 -14.622047l43.866142 0l0 43.866146l-14.622055 14.622047l-43.866135 0zm0 0l43.866135 0l14.622055 -14.622047m-14.622055 14.622047l0 43.866146" fill-rule="evenodd"></path><path fill="#d9d9d9" fill-opacity="0.8314" d="m77.89764 66.91601l43.866142 0l0 43.866142l-43.866142 0z" fill-rule="evenodd"></path><path fill="#adadad" fill-opacity="0.8314" d="m121.76378 66.91601l14.622055 -14.622044l0 43.86614l-14.622055 14.622047z" fill-rule="evenodd"></path><path fill="#e0e0e0" fill-opacity="0.8314" d="m77.89764 66.91601l14.622047 -14.622044l43.86615 0l-14.622055 14.622044z" fill-rule="evenodd"></path><path fill="#000000" fill-opacity="0.0" d="m77.89764 66.91601l14.622047 -14.622044l43.86615 0l0 43.86614l-14.622055 14.622047l-43.866142 0zm0 0l43.866142 0l14.622055 -14.622044m-14.622055 14.622044l0 43.866142" fill-rule="evenodd"></path><path stroke="#000000" stroke-width="1.0" stroke-linejoin="round" stroke-linecap="butt" stroke-dasharray="1.0,3.0" d="m77.89764 66.91601l14.622047 -14.622044l43.86615 0l0 43.86614l-14.622055 14.622047l-43.866142 0zm0 0l43.866142 0l14.622055 -14.622044m-14.622055 14.622044l0 43.866142" fill-rule="evenodd"></path><path fill="#d9d9d9" fill-opacity="0.8314" d="m63.711285 81.22572l43.866146 0l0 43.866142l-43.866146 0z" fill-rule="evenodd"></path><path fill="#adadad" fill-opacity="0.8314" d="m107.57743 81.22572l14.622047 -14.622047l0 43.866142l-14.622047 14.622047z" fill-rule="evenodd"></path><path fill="#e0e0e0" fill-opacity="0.8314" d="m63.711285 81.22572l14.622051 -14.622047l43.866142 0l-14.622047 14.622047z" fill-rule="evenodd"></path><path fill="#000000" fill-opacity="0.0" d="m63.711285 81.22572l14.622051 -14.622047l43.866142 0l0 43.866142l-14.622047 14.622047l-43.866146 0zm0 0l43.866146 0l14.622047 -14.622047m-14.622047 14.622047l0 43.866142" fill-rule="evenodd"></path><path stroke="#000000" stroke-width="1.0" stroke-linejoin="round" stroke-linecap="butt" stroke-dasharray="1.0,3.0" d="m63.711285 81.22572l14.622051 -14.622047l43.866142 0l0 43.866142l-14.622047 14.622047l-43.866146 0zm0 0l43.866146 0l14.622047 -14.622047m-14.622047 14.622047l0 43.866142" fill-rule="evenodd"></path><path fill="#d9d9d9" fill-opacity="0.8314" d="m48.958004 95.81628l43.866146 0l0 43.866142l-43.866146 0z" fill-rule="evenodd"></path><path fill="#adadad" fill-opacity="0.8314" d="m92.82415 95.81628l14.622047 -14.622047l0 43.866135l-14.622047 14.622055z" fill-rule="evenodd"></path><path fill="#e0e0e0" fill-opacity="0.8314" d="m48.958004 95.81628l14.622047 -14.622047l43.866146 0l-14.622047 14.622047z" fill-rule="evenodd"></path><path fill="#000000" fill-opacity="0.0" d="m48.958004 95.81628l14.622047 -14.622047l43.866146 0l0 43.866135l-14.622047 14.622055l-43.866146 0zm0 0l43.866146 0l14.622047 -14.622047m-14.622047 14.622047l0 43.866142" fill-rule="evenodd"></path><path stroke="#000000" stroke-width="1.0" stroke-linejoin="round" stroke-linecap="butt" stroke-dasharray="1.0,3.0" d="m48.958004 95.81628l14.622047 -14.622047l43.866146 0l0 43.866135l-14.622047 14.622055l-43.866146 0zm0 0l43.866146 0l14.622047 -14.622047m-14.622047 14.622047l0 43.866142" fill-rule="evenodd"></path><path fill="#4a86e8" d="m136.4147 52.328083l43.866135 0l0 43.866146l-43.866135 0z" fill-rule="evenodd"></path><path fill="#3b6bb9" d="m180.28084 52.328083l14.622055 -14.622047l0 43.866146l-14.622055 14.622047z" fill-rule="evenodd"></path><path fill="#6e9eec" d="m136.4147 52.328083l14.62204 -14.622047l43.86615 0l-14.622055 14.622047z" fill-rule="evenodd"></path><path fill="#000000" fill-opacity="0.0" d="m136.4147 52.328083l14.62204 -14.622047l43.86615 0l0 43.866146l-14.622055 14.622047l-43.866135 0zm0 0l43.866135 0l14.622055 -14.622047m-14.622055 14.622047l0 43.866146" fill-rule="evenodd"></path><path stroke="#000000" stroke-width="1.0" stroke-linejoin="round" stroke-linecap="butt" stroke-dasharray="1.0,3.0" d="m136.4147 52.328083l14.62204 -14.622047l43.86615 0l0 43.866146l-14.622055 14.622047l-43.866135 0zm0 0l43.866135 0l14.622055 -14.622047m-14.622055 14.622047l0 43.866146" fill-rule="evenodd"></path><path fill="#d9d9d9" fill-opacity="0.8314" d="m121.826775 66.91601l43.866142 0l0 43.866142l-43.866142 0z" fill-rule="evenodd"></path><path fill="#adadad" fill-opacity="0.8314" d="m165.69292 66.91601l14.62204 -14.622044l0 43.86614l-14.62204 14.622047z" fill-rule="evenodd"></path><path fill="#e0e0e0" fill-opacity="0.8314" d="m121.826775 66.91601l14.622047 -14.622044l43.866135 0l-14.62204 14.622044z" fill-rule="evenodd"></path><path fill="#000000" fill-opacity="0.0" d="m121.826775 66.91601l14.622047 -14.622044l43.866135 0l0 43.86614l-14.62204 14.622047l-43.866142 0zm0 0l43.866142 0l14.62204 -14.622044m-14.62204 14.622044l0 43.866142" fill-rule="evenodd"></path><path stroke="#000000" stroke-width="1.0" stroke-linejoin="round" stroke-linecap="butt" stroke-dasharray="1.0,3.0" d="m121.826775 66.91601l14.622047 -14.622044l43.866135 0l0 43.86614l-14.62204 14.622047l-43.866142 0zm0 0l43.866142 0l14.62204 -14.622044m-14.62204 14.622044l0 43.866142" fill-rule="evenodd"></path><path fill="#d9d9d9" fill-opacity="0.8314" d="m107.64042 81.22572l43.866142 0l0 43.866142l-43.866142 0z" fill-rule="evenodd"></path><path fill="#adadad" fill-opacity="0.8314" d="m151.50656 81.22572l14.622055 -14.622047l0 43.866142l-14.622055 14.622047z" fill-rule="evenodd"></path><path fill="#e0e0e0" fill-opacity="0.8314" d="m107.64042 81.22572l14.622047 -14.622047l43.86615 0l-14.622055 14.622047z" fill-rule="evenodd"></path><path fill="#000000" fill-opacity="0.0" d="m107.64042 81.22572l14.622047 -14.622047l43.86615 0l0 43.866142l-14.622055 14.622047l-43.866142 0zm0 0l43.866142 0l14.622055 -14.622047m-14.622055 14.622047l0 43.866142" fill-rule="evenodd"></path><path stroke="#000000" stroke-width="1.0" stroke-linejoin="round" stroke-linecap="butt" stroke-dasharray="1.0,3.0" d="m107.64042 81.22572l14.622047 -14.622047l43.86615 0l0 43.866142l-14.622055 14.622047l-43.866142 0zm0 0l43.866142 0l14.622055 -14.622047m-14.622055 14.622047l0 43.866142" fill-rule="evenodd"></path><path fill="#d9d9d9" fill-opacity="0.8314" d="m92.88714 95.81628l43.866142 0l0 43.866142l-43.866142 0z" fill-rule="evenodd"></path><path fill="#adadad" fill-opacity="0.8314" d="m136.75328 95.81628l14.622055 -14.622047l0 43.866135l-14.622055 14.622055z" fill-rule="evenodd"></path><path fill="#e0e0e0" fill-opacity="0.8314" d="m92.88714 95.81628l14.622047 -14.622047l43.86615 0l-14.622055 14.622047z" fill-rule="evenodd"></path><path fill="#000000" fill-opacity="0.0" d="m92.88714 95.81628l14.622047 -14.622047l43.86615 0l0 43.866135l-14.622055 14.622055l-43.866142 0zm0 0l43.866142 0l14.622055 -14.622047m-14.622055 14.622047l0 43.866142" fill-rule="evenodd"></path><path stroke="#000000" stroke-width="1.0" stroke-linejoin="round" stroke-linecap="butt" stroke-dasharray="1.0,3.0" d="m92.88714 95.81628l14.622047 -14.622047l43.86615 0l0 43.866135l-14.622055 14.622055l-43.866142 0zm0 0l43.866142 0l14.622055 -14.622047m-14.622055 14.622047l0 43.866142" fill-rule="evenodd"></path><path fill="#d9d9d9" fill-opacity="0.8314" d="m180.3937 52.328083l43.866135 0l0 43.866146l-43.866135 0z" fill-rule="evenodd"></path><path fill="#adadad" fill-opacity="0.8314" d="m224.25984 52.328083l14.622055 -14.622047l0 43.866146l-14.622055 14.622047z" fill-rule="evenodd"></path><path fill="#e0e0e0" fill-opacity="0.8314" d="m180.3937 52.328083l14.62204 -14.622047l43.86615 0l-14.622055 14.622047z" fill-rule="evenodd"></path><path fill="#000000" fill-opacity="0.0" d="m180.3937 52.328083l14.62204 -14.622047l43.86615 0l0 43.866146l-14.622055 14.622047l-43.866135 0zm0 0l43.866135 0l14.622055 -14.622047m-14.622055 14.622047l0 43.866146" fill-rule="evenodd"></path><path stroke="#000000" stroke-width="1.0" stroke-linejoin="round" stroke-linecap="butt" stroke-dasharray="1.0,3.0" d="m180.3937 52.328083l14.62204 -14.622047l43.86615 0l0 43.866146l-14.622055 14.622047l-43.866135 0zm0 0l43.866135 0l14.622055 -14.622047m-14.622055 14.622047l0 43.866146" fill-rule="evenodd"></path><path fill="#d9d9d9" fill-opacity="0.8314" d="m165.80577 66.91601l43.86615 0l0 43.866142l-43.86615 0z" fill-rule="evenodd"></path><path fill="#adadad" fill-opacity="0.8314" d="m209.67192 66.91601l14.62204 -14.622044l0 43.86614l-14.62204 14.622047z" fill-rule="evenodd"></path><path fill="#e0e0e0" fill-opacity="0.8314" d="m165.80577 66.91601l14.622055 -14.622044l43.866135 0l-14.62204 14.622044z" fill-rule="evenodd"></path><path fill="#000000" fill-opacity="0.0" d="m165.80577 66.91601l14.622055 -14.622044l43.866135 0l0 43.86614l-14.62204 14.622047l-43.86615 0zm0 0l43.86615 0l14.62204 -14.622044m-14.62204 14.622044l0 43.866142" fill-rule="evenodd"></path><path stroke="#000000" stroke-width="1.0" stroke-linejoin="round" stroke-linecap="butt" stroke-dasharray="1.0,3.0" d="m165.80577 66.91601l14.622055 -14.622044l43.866135 0l0 43.86614l-14.62204 14.622047l-43.86615 0zm0 0l43.86615 0l14.62204 -14.622044m-14.62204 14.622044l0 43.866142" fill-rule="evenodd"></path><path fill="#d9d9d9" fill-opacity="0.8314" d="m224.32283 52.328083l43.866135 0l0 43.866146l-43.866135 0z" fill-rule="evenodd"></path><path fill="#adadad" fill-opacity="0.8314" d="m268.18896 52.328083l14.62207 -14.622047l0 43.866146l-14.62207 14.622047z" fill-rule="evenodd"></path><path fill="#e0e0e0" fill-opacity="0.8314" d="m224.32283 52.328083l14.622055 -14.622047l43.86615 0l-14.62207 14.622047z" fill-rule="evenodd"></path><path fill="#000000" fill-opacity="0.0" d="m224.32283 52.328083l14.622055 -14.622047l43.86615 0l0 43.866146l-14.62207 14.622047l-43.866135 0zm0 0l43.866135 0l14.62207 -14.622047m-14.62207 14.622047l0 43.866146" fill-rule="evenodd"></path><path stroke="#000000" stroke-width="1.0" stroke-linejoin="round" stroke-linecap="butt" stroke-dasharray="1.0,3.0" d="m224.32283 52.328083l14.622055 -14.622047l43.86615 0l0 43.866146l-14.62207 14.622047l-43.866135 0zm0 0l43.866135 0l14.62207 -14.622047m-14.62207 14.622047l0 43.866146" fill-rule="evenodd"></path><path fill="#d9d9d9" fill-opacity="0.8314" d="m151.61942 81.22572l43.86615 0l0 43.866142l-43.86615 0z" fill-rule="evenodd"></path><path fill="#adadad" fill-opacity="0.8314" d="m195.48557 81.22572l14.62204 -14.622047l0 43.866142l-14.62204 14.622047z" fill-rule="evenodd"></path><path fill="#e0e0e0" fill-opacity="0.8314" d="m151.61942 81.22572l14.622055 -14.622047l43.866135 0l-14.62204 14.622047z" fill-rule="evenodd"></path><path fill="#000000" fill-opacity="0.0" d="m151.61942 81.22572l14.622055 -14.622047l43.866135 0l0 43.866142l-14.62204 14.622047l-43.86615 0zm0 0l43.86615 0l14.62204 -14.622047m-14.62204 14.622047l0 43.866142" fill-rule="evenodd"></path><path stroke="#000000" stroke-width="1.0" stroke-linejoin="round" stroke-linecap="butt" stroke-dasharray="1.0,3.0" d="m151.61942 81.22572l14.622055 -14.622047l43.866135 0l0 43.866142l-14.62204 14.622047l-43.86615 0zm0 0l43.86615 0l14.62204 -14.622047m-14.62204 14.622047l0 43.866142" fill-rule="evenodd"></path><path fill="#d9d9d9" fill-opacity="0.8314" d="m136.86613 95.81628l43.86615 0l0 43.866142l-43.86615 0z" fill-rule="evenodd"></path><path fill="#adadad" fill-opacity="0.8314" d="m180.73228 95.81628l14.62204 -14.622047l0 43.866135l-14.62204 14.622055z" fill-rule="evenodd"></path><path fill="#e0e0e0" fill-opacity="0.8314" d="m136.86613 95.81628l14.622055 -14.622047l43.866135 0l-14.62204 14.622047z" fill-rule="evenodd"></path><path fill="#000000" fill-opacity="0.0" d="m136.86613 95.81628l14.622055 -14.622047l43.866135 0l0 43.866135l-14.62204 14.622055l-43.86615 0zm0 0l43.86615 0l14.62204 -14.622047m-14.62204 14.622047l0 43.866142" fill-rule="evenodd"></path><path stroke="#000000" stroke-width="1.0" stroke-linejoin="round" stroke-linecap="butt" stroke-dasharray="1.0,3.0" d="m136.86613 95.81628l14.622055 -14.622047l43.866135 0l0 43.866135l-14.62204 14.622055l-43.86615 0zm0 0l43.86615 0l14.62204 -14.622047m-14.62204 14.622047l0 43.866142" fill-rule="evenodd"></path><path fill="#d9d9d9" fill-opacity="0.8314" d="m209.73491 66.91601l43.866135 0l0 43.866142l-43.866135 0z" fill-rule="evenodd"></path><path fill="#adadad" fill-opacity="0.8314" d="m253.60104 66.91601l14.62204 -14.622044l0 43.86614l-14.62204 14.622047z" fill-rule="evenodd"></path><path fill="#e0e0e0" fill-opacity="0.8314" d="m209.73491 66.91601l14.62204 -14.622044l43.866135 0l-14.62204 14.622044z" fill-rule="evenodd"></path><path fill="#000000" fill-opacity="0.0" d="m209.73491 66.91601l14.62204 -14.622044l43.866135 0l0 43.86614l-14.62204 14.622047l-43.866135 0zm0 0l43.866135 0l14.62204 -14.622044m-14.62204 14.622044l0 43.866142" fill-rule="evenodd"></path><path stroke="#000000" stroke-width="1.0" stroke-linejoin="round" stroke-linecap="butt" stroke-dasharray="1.0,3.0" d="m209.73491 66.91601l14.62204 -14.622044l43.866135 0l0 43.86614l-14.62204 14.622047l-43.866135 0zm0 0l43.866135 0l14.62204 -14.622044m-14.62204 14.622044l0 43.866142" fill-rule="evenodd"></path><path fill="#d9d9d9" fill-opacity="0.8314" d="m195.54855 81.22572l43.86615 0l0 43.866142l-43.86615 0z" fill-rule="evenodd"></path><path fill="#adadad" fill-opacity="0.8314" d="m239.4147 81.22572l14.62204 -14.622047l0 43.866142l-14.62204 14.622047z" fill-rule="evenodd"></path><path fill="#e0e0e0" fill-opacity="0.8314" d="m195.54855 81.22572l14.622055 -14.622047l43.866135 0l-14.62204 14.622047z" fill-rule="evenodd"></path><path fill="#000000" fill-opacity="0.0" d="m195.54855 81.22572l14.622055 -14.622047l43.866135 0l0 43.866142l-14.62204 14.622047l-43.86615 0zm0 0l43.86615 0l14.62204 -14.622047m-14.62204 14.622047l0 43.866142" fill-rule="evenodd"></path><path stroke="#000000" stroke-width="1.0" stroke-linejoin="round" stroke-linecap="butt" stroke-dasharray="1.0,3.0" d="m195.54855 81.22572l14.622055 -14.622047l43.866135 0l0 43.866142l-14.62204 14.622047l-43.86615 0zm0 0l43.86615 0l14.62204 -14.622047m-14.62204 14.622047l0 43.866142" fill-rule="evenodd"></path><path fill="#d9d9d9" fill-opacity="0.8314" d="m180.79527 95.81628l43.86615 0l0 43.866142l-43.86615 0z" fill-rule="evenodd"></path><path fill="#adadad" fill-opacity="0.8314" d="m224.66142 95.81628l14.62204 -14.622047l0 43.866135l-14.62204 14.622055z" fill-rule="evenodd"></path><path fill="#e0e0e0" fill-opacity="0.8314" d="m180.79527 95.81628l14.622055 -14.622047l43.866135 0l-14.62204 14.622047z" fill-rule="evenodd"></path><path fill="#000000" fill-opacity="0.0" d="m180.79527 95.81628l14.622055 -14.622047l43.866135 0l0 43.866135l-14.62204 14.622055l-43.86615 0zm0 0l43.86615 0l14.62204 -14.622047m-14.62204 14.622047l0 43.866142" fill-rule="evenodd"></path><path stroke="#000000" stroke-width="1.0" stroke-linejoin="round" stroke-linecap="butt" stroke-dasharray="1.0,3.0" d="m180.79527 95.81628l14.622055 -14.622047l43.866135 0l0 43.866135l-14.62204 14.622055l-43.86615 0zm0 0l43.86615 0l14.62204 -14.622047m-14.62204 14.622047l0 43.866142" fill-rule="evenodd"></path><path fill="#000000" fill-opacity="0.0" d="m108.77165 37.71391l71.11812 0" fill-rule="evenodd"></path><path stroke="#000000" stroke-width="1.0" stroke-linejoin="round" stroke-linecap="butt" d="m108.77165 37.71391l65.11812 0" fill-rule="evenodd"></path><path fill="#000000" stroke="#000000" stroke-width="1.0" stroke-linecap="butt" d="m173.88977 39.365643l4.538086 -1.6517334l-4.538086 -1.6517296z" fill-rule="evenodd"></path><path fill="#000000" fill-opacity="0.0" d="m88.0 57.05512l-13.039368 13.070866" fill-rule="evenodd"></path><path stroke="#000000" stroke-width="1.0" stroke-linejoin="round" stroke-linecap="butt" d="m88.0 57.05512l-8.801849 8.823109" fill-rule="evenodd"></path><path fill="#000000" stroke="#000000" stroke-width="1.0" stroke-linecap="butt" d="m78.02879 64.711685l-2.0356903 4.3793335l4.374405 -2.0462494z" fill-rule="evenodd"></path><path fill="#000000" fill-opacity="0.0" d="m48.99475 130.04987l0 26.86615" fill-rule="evenodd"></path><path stroke="#000000" stroke-width="1.0" stroke-linejoin="round" stroke-linecap="butt" d="m48.99475 130.04987l0 20.86615" fill-rule="evenodd"></path><path fill="#000000" stroke="#000000" stroke-width="1.0" stroke-linecap="butt" d="m47.343018 150.91602l1.6517334 4.538086l1.6517334 -4.538086z" fill-rule="evenodd"></path><path fill="#000000" fill-opacity="0.0" d="m27.627296 122.98425l24.850395 0l0 28.97638l-24.850395 0z" fill-rule="evenodd"></path><path fill="#000000" d="m37.36167 142.22426l0 -7.875l0.96875 0l0 4.484375l2.28125 -2.3125l1.25 0l-2.171875 2.109375l2.390625 3.59375l-1.1875 0l-1.890625 -2.921875l-0.671875 0.65625l0 2.265625l-0.96875 0z" fill-rule="nonzero"></path><path fill="#000000" fill-opacity="0.0" d="m61.031498 41.149605l24.850391 0l0 28.97638l-24.850391 0z" fill-rule="evenodd"></path><path fill="#000000" d="m70.750244 53.639606l0 -1.125l0.96875 0l0 1.125l-0.96875 0zm-1.21875 8.96875l0.171875 -0.828125q0.296875 0.078125 0.46875 0.078125q0.296875 0 0.4375 -0.203125q0.140625 -0.1875 0.140625 -0.96875l0 -6.0l0.96875 0l0 6.015625q0 1.046875 -0.28125 1.46875q-0.34375 0.53125 -1.15625 0.53125q-0.390625 0 -0.75 -0.09375z" fill-rule="nonzero"></path><path fill="#000000" fill-opacity="0.0" d="m149.63255 12.07874l24.850388 0l0 28.97638l-24.850388 0z" fill-rule="evenodd"></path><path fill="#000000" d="m159.36693 24.553116l0 -1.109375l0.96875 0l0 1.109375l-0.96875 0zm0 6.765625l0 -5.703125l0.96875 0l0 5.703125l-0.96875 0z" fill-rule="nonzero"></path><path fill="#000000" fill-opacity="0.0" d="m118.79002 44.67454l40.283463 0" fill-rule="evenodd"></path><path stroke="#000000" stroke-width="1.0" stroke-linejoin="round" stroke-linecap="butt" d="m118.79002 44.67454l34.283463 0" fill-rule="evenodd"></path><path fill="#000000" stroke="#000000" stroke-width="1.0" stroke-linecap="butt" d="m153.07349 46.326275l4.538101 -1.6517334l-4.538101 -1.6517334z" fill-rule="evenodd"></path><path fill="#000000" fill-opacity="0.0" d="m-2.0104988 272.23358l259.68503 0l0 30.299225l-259.68503 0z" fill-rule="evenodd"></path><path fill="#000000" d="m8.380126 299.1536l0 -13.59375l5.109375 0q1.546875 0 2.484375 0.40625q0.95312595 0.40625 1.484376 1.265625q0.53125 0.859375 0.53125 1.796875q0 0.875 -0.46875 1.65625q-0.46875 0.765625 -1.4375 1.234375q1.234375 0.359375 1.890625 1.234375q0.671875 0.875 0.671875 2.0625q0 0.953125 -0.40625 1.78125q-0.390625 0.8125 -0.984375 1.265625q-0.59375 0.4375 -1.500001 0.671875q-0.890625 0.21875 -2.1875 0.21875l-5.1875 0zm1.796875 -7.890625l2.9375 0q1.203125 0 1.71875 -0.15625q0.6875 -0.203125 1.03125 -0.671875q0.35937595 -0.46875 0.35937595 -1.1875q0 -0.671875 -0.32812595 -1.1875q-0.328125 -0.515625 -0.9375 -0.703125q-0.59375 -0.203125 -2.0625 -0.203125l-2.71875 0l0 4.109375zm0 6.28125l3.390625 0q0.875 0 1.21875 -0.0625q0.625 -0.109375 1.046875 -0.359375q0.42187595 -0.265625 0.68750095 -0.765625q0.265625 -0.5 0.265625 -1.140625q0 -0.765625 -0.390625 -1.328125q-0.390625 -0.5625 -1.078126 -0.78125q-0.6875 -0.234375 -1.984375 -0.234375l-3.15625 0l0 4.671875zm16.959198 1.609375l0 -1.453125q-1.140625 1.671875 -3.125 1.671875q-0.859375 0 -1.625 -0.328125q-0.75 -0.34375 -1.125 -0.84375q-0.359375 -0.5 -0.515625 -1.234375q-0.09375 -0.5 -0.09375 -1.5625l0 -6.109375l1.671875 0l0 5.46875q0 1.3125 0.09375 1.765625q0.15625 0.65625 0.671875 1.03125q0.515625 0.375 1.265625 0.375q0.75 0 1.40625 -0.375q0.65625 -0.390625 0.921875 -1.046875q0.28125 -0.671875 0.28125 -1.9375l0 -5.28125l1.671875 0l0 9.859375l-1.5 0zm4.328842 0l0 -8.546875l-1.484375 0l0 -1.3125l1.484375 0l0 -1.046875q0 -0.984375 0.171875 -1.46875q0.234375 -0.65625 0.84375 -1.046875q0.609375 -0.40625 1.703125 -0.40625q0.703125 0 1.5625 0.15625l-0.25 1.46875q-0.515625 -0.09375 -0.984375 -0.09375q-0.765625 0 -1.078125 0.328125q-0.3125 0.3125 -0.3125 1.203125l0 0.90625l1.921875 0l0 1.3125l-1.921875 0l0 8.546875l-1.65625 0zm5.183304 0l0 -8.546875l-1.484375 0l0 -1.3125l1.484375 0l0 -1.046875q0 -0.984375 0.171875 -1.46875q0.234375 -0.65625 0.84375 -1.046875q0.609375 -0.40625 1.703125 -0.40625q0.703125 0 1.5625 0.15625l-0.25 1.46875q-0.515625 -0.09375 -0.984375 -0.09375q-0.765625 0 -1.078125 0.328125q-0.3125 0.3125 -0.3125 1.203125l0 0.90625l1.921875 0l0 1.3125l-1.921875 0l0 8.546875l-1.65625 0zm11.527054 -3.171875l1.71875 0.21875q-0.40625 1.5 -1.515625 2.34375q-1.09375 0.828125 -2.8125 0.828125q-2.15625 0 -3.421875 -1.328125q-1.265625 -1.328125 -1.265625 -3.734375q0 -2.484375 1.265625 -3.859375q1.28125 -1.375 3.328125 -1.375q1.984375 0 3.234375 1.34375q1.25 1.34375 1.25 3.796875q0 0.140625 -0.015625 0.4375l-7.34375 0q0.09375 1.625 0.921875 2.484375q0.828125 0.859375 2.0625 0.859375q0.90625 0 1.546875 -0.46875q0.65625 -0.484375 1.046875 -1.546875zm-5.484375 -2.703125l5.5 0q-0.109375 -1.234375 -0.625 -1.859375q-0.796875 -0.96875 -2.078125 -0.96875q-1.140625 0 -1.9375 0.78125q-0.78125 0.765625 -0.859375 2.046875zm9.094467 5.875l0 -9.859375l1.5 0l0 1.5q0.578125 -1.046875 1.0625 -1.375q0.484375 -0.34375 1.078125 -0.34375q0.84375 0 1.71875 0.546875l-0.578125 1.546875q-0.609375 -0.359375 -1.234375 -0.359375q-0.546875 0 -0.984375 0.328125q-0.421875 0.328125 -0.609375 0.90625q-0.28125 0.890625 -0.28125 1.953125l0 5.15625l-1.671875 0z" fill-rule="nonzero"></path><path fill="#000000" fill-opacity="0.0" d="m9.091864 306.76904l297.7323 0l0 7.685028l-297.7323 0z" fill-rule="evenodd"></path><path stroke="#000000" stroke-width="1.0" stroke-linejoin="round" stroke-linecap="butt" d="m9.091864 306.76904l297.7323 0l0 7.685028l-297.7323 0z" fill-rule="evenodd"></path><path fill="#ff0000" d="m9.091864 306.76904l17.82677 0l0 7.685028l-17.82677 0z" fill-rule="evenodd"></path><path stroke="#000000" stroke-width="1.0" stroke-linejoin="round" stroke-linecap="butt" d="m9.091864 306.76904l17.82677 0l0 7.685028l-17.82677 0z" fill-rule="evenodd"></path><path fill="#4a86e8" d="m26.918634 306.76904l17.826773 0l0 7.685028l-17.826773 0z" fill-rule="evenodd"></path><path stroke="#000000" stroke-width="1.0" stroke-linejoin="round" stroke-linecap="butt" d="m26.918634 306.76904l17.826773 0l0 7.685028l-17.826773 0z" fill-rule="evenodd"></path><path fill="#ff0000" d="m80.41732 306.76904l17.826775 0l0 7.685028l-17.826775 0z" fill-rule="evenodd"></path><path stroke="#000000" stroke-width="1.0" stroke-linejoin="round" stroke-linecap="butt" d="m80.41732 306.76904l17.826775 0l0 7.685028l-17.826775 0z" fill-rule="evenodd"></path><path fill="#4a86e8" d="m98.244095 306.76904l17.826775 0l0 7.685028l-17.826775 0z" fill-rule="evenodd"></path><path stroke="#000000" stroke-width="1.0" stroke-linejoin="round" stroke-linecap="butt" d="m98.244095 306.76904l17.826775 0l0 7.685028l-17.826775 0z" fill-rule="evenodd"></path><path fill="#ff0000" d="m151.74278 306.76904l17.826767 0l0 7.685028l-17.826767 0z" fill-rule="evenodd"></path><path stroke="#000000" stroke-width="1.0" stroke-linejoin="round" stroke-linecap="butt" d="m151.74278 306.76904l17.826767 0l0 7.685028l-17.826767 0z" fill-rule="evenodd"></path><path fill="#4a86e8" d="m169.56955 306.76904l17.826782 0l0 7.685028l-17.826782 0z" fill-rule="evenodd"></path><path stroke="#000000" stroke-width="1.0" stroke-linejoin="round" stroke-linecap="butt" d="m169.56955 306.76904l17.826782 0l0 7.685028l-17.826782 0z" fill-rule="evenodd"></path><path fill="#ff0000" d="m223.06824 306.76904l17.826782 0l0 7.685028l-17.826782 0z" fill-rule="evenodd"></path><path stroke="#000000" stroke-width="1.0" stroke-linejoin="round" stroke-linecap="butt" d="m223.06824 306.76904l17.826782 0l0 7.685028l-17.826782 0z" fill-rule="evenodd"></path><path fill="#4a86e8" d="m240.89502 306.76904l17.826752 0l0 7.685028l-17.826752 0z" fill-rule="evenodd"></path><path stroke="#000000" stroke-width="1.0" stroke-linejoin="round" stroke-linecap="butt" d="m240.89502 306.76904l17.826752 0l0 7.685028l-17.826752 0z" fill-rule="evenodd"></path><path fill="#000000" fill-opacity="0.0" d="m48.95538 96.1784l175.39369 0l0 176.05511l-175.39369 0z" fill-rule="evenodd"></path><path fill="#000000" fill-opacity="0.0" d="m224.34908 96.1784l58.464584 -58.46457l0 176.05511l-58.464584 58.46457z" fill-rule="evenodd"></path><path fill="#000000" fill-opacity="0.0" d="m48.95538 96.1784l58.464565 -58.46457l175.3937 0l-58.464584 58.46457z" fill-rule="evenodd"></path><path fill="#000000" fill-opacity="0.0" d="m48.95538 96.1784l58.464565 -58.46457l175.3937 0l0 176.05511l-58.464584 58.46457l-175.39369 0zm0 0l175.39369 0l58.464584 -58.46457m-58.464584 58.46457l0 176.05511" fill-rule="evenodd"></path><path fill="#000000" fill-opacity="0.2" d="m224.34908 96.1784l58.464584 -58.46457l0 176.05511l-58.464584 58.46457z" fill-rule="evenodd"></path><path fill="#ffffff" fill-opacity="0.2" d="m48.95538 96.1784l58.464565 -58.46457l175.3937 0l-58.464584 58.46457z" fill-rule="evenodd"></path><path stroke="#000000" stroke-width="1.0" stroke-linejoin="round" stroke-linecap="butt" d="m48.95538 96.1784l58.464565 -58.46457l175.3937 0l0 176.05511l-58.464584 58.46457l-175.39369 0zm0 0l175.39369 0l58.464584 -58.46457m-58.464584 58.46457l0 176.05511" fill-rule="evenodd"></path></g></svg>

