<?xml version="1.0" standalone="yes"?>

<svg version="1.1" viewBox="0.0 0.0 309.3307086614173 256.09448818897636" fill="none" stroke="none" stroke-linecap="square" stroke-miterlimit="10" xmlns="http://www.w3.org/2000/svg" xmlns:xlink="http://www.w3.org/1999/xlink"><clipPath id="p.0"><path d="m0 0l309.33072 0l0 256.09448l-309.33072 0l0 -256.09448z" clip-rule="nonzero"></path></clipPath><g clip-path="url(#p.0)"><path fill="#000000" fill-opacity="0.0" d="m0 0l309.33072 0l0 256.09448l-309.33072 0z" fill-rule="evenodd"></path><path fill="#d9d9d9" fill-opacity="0.8346" d="m113.396324 123.65354l43.866142 0l0 43.866142l-43.866142 0z" fill-rule="evenodd"></path><path fill="#adadad" fill-opacity="0.8346" d="m157.26247 123.65354l14.622055 -14.622047l0 43.86615l-14.622055 14.62204z" fill-rule="evenodd"></path><path fill="#e0e0e0" fill-opacity="0.8346" d="m113.396324 123.65354l14.622047 -14.622047l43.86615 0l-14.622055 14.622047z" fill-rule="evenodd"></path><path fill="#000000" fill-opacity="0.0" d="m113.396324 123.65354l14.622047 -14.622047l43.86615 0l0 43.86615l-14.622055 14.62204l-43.866142 0zm0 0l43.866142 0l14.622055 -14.622047m-14.622055 14.622047l0 43.866142" fill-rule="evenodd"></path><path stroke="#000000" stroke-width="1.0" stroke-linejoin="round" stroke-linecap="butt" stroke-dasharray="1.0,3.0" d="m113.396324 123.65354l14.622047 -14.622047l43.86615 0l0 43.86615l-14.622055 14.62204l-43.866142 0zm0 0l43.866142 0l14.622055 -14.622047m-14.622055 14.622047l0 43.866142" fill-rule="evenodd"></path><path fill="#d9d9d9" fill-opacity="0.8346" d="m157.39108 123.65354l43.866135 0l0 43.866142l-43.866135 0z" fill-rule="evenodd"></path><path fill="#adadad" fill-opacity="0.8346" d="m201.25722 123.65354l14.622055 -14.622047l0 43.86615l-14.622055 14.62204z" fill-rule="evenodd"></path><path fill="#e0e0e0" fill-opacity="0.8346" d="m157.39108 123.65354l14.62204 -14.622047l43.86615 0l-14.622055 14.622047z" fill-rule="evenodd"></path><path fill="#000000" fill-opacity="0.0" d="m157.39108 123.65354l14.62204 -14.622047l43.86615 0l0 43.86615l-14.622055 14.62204l-43.866135 0zm0 0l43.866135 0l14.622055 -14.622047m-14.622055 14.622047l0 43.866142" fill-rule="evenodd"></path><path stroke="#000000" stroke-width="1.0" stroke-linejoin="round" stroke-linecap="butt" stroke-dasharray="1.0,3.0" d="m157.39108 123.65354l14.62204 -14.622047l43.86615 0l0 43.86615l-14.622055 14.62204l-43.866135 0zm0 0l43.866135 0l14.622055 -14.622047m-14.622055 14.622047l0 43.866142" fill-rule="evenodd"></path><path fill="#d9d9d9" fill-opacity="0.8346" d="m201.39633 123.65354l43.866135 0l0 43.866142l-43.866135 0z" fill-rule="evenodd"></path><path fill="#adadad" fill-opacity="0.8346" d="m245.26247 123.65354l14.622055 -14.622047l0 43.86615l-14.622055 14.62204z" fill-rule="evenodd"></path><path fill="#e0e0e0" fill-opacity="0.8346" d="m201.39633 123.65354l14.62204 -14.622047l43.86615 0l-14.622055 14.622047z" fill-rule="evenodd"></path><path fill="#000000" fill-opacity="0.0" d="m201.39633 123.65354l14.62204 -14.622047l43.86615 0l0 43.86615l-14.622055 14.62204l-43.866135 0zm0 0l43.866135 0l14.622055 -14.622047m-14.622055 14.622047l0 43.866142" fill-rule="evenodd"></path><path stroke="#000000" stroke-width="1.0" stroke-linejoin="round" stroke-linecap="butt" stroke-dasharray="1.0,3.0" d="m201.39633 123.65354l14.62204 -14.622047l43.86615 0l0 43.86615l-14.622055 14.62204l-43.866135 0zm0 0l43.866135 0l14.622055 -14.622047m-14.622055 14.622047l0 43.866142" fill-rule="evenodd"></path><path fill="#d9d9d9" fill-opacity="0.8346" d="m245.41208 123.65354l43.86615 0l0 43.866142l-43.86615 0z" fill-rule="evenodd"></path><path fill="#adadad" fill-opacity="0.8346" d="m289.27823 123.65354l14.62204 -14.622047l0 43.86615l-14.62204 14.62204z" fill-rule="evenodd"></path><path fill="#e0e0e0" fill-opacity="0.8346" d="m245.41208 123.65354l14.62204 -14.622047l43.86615 0l-14.62204 14.622047z" fill-rule="evenodd"></path><path fill="#000000" fill-opacity="0.0" d="m245.41208 123.65354l14.62204 -14.622047l43.86615 0l0 43.86615l-14.62204 14.62204l-43.86615 0zm0 0l43.86615 0l14.62204 -14.622047m-14.62204 14.622047l0 43.866142" fill-rule="evenodd"></path><path stroke="#000000" stroke-width="1.0" stroke-linejoin="round" stroke-linecap="butt" stroke-dasharray="1.0,3.0" d="m245.41208 123.65354l14.62204 -14.622047l43.86615 0l0 43.86615l-14.62204 14.62204l-43.86615 0zm0 0l43.86615 0l14.62204 -14.622047m-14.62204 14.622047l0 43.866142" fill-rule="evenodd"></path><path fill="#d9d9d9" fill-opacity="0.8346" d="m98.808395 138.65355l43.86615 0l0 43.866135l-43.86615 0z" fill-rule="evenodd"></path><path fill="#adadad" fill-opacity="0.8346" d="m142.67455 138.65355l14.62204 -14.622055l0 43.86615l-14.62204 14.62204z" fill-rule="evenodd"></path><path fill="#e0e0e0" fill-opacity="0.8346" d="m98.808395 138.65355l14.622047 -14.622055l43.866142 0l-14.62204 14.622055z" fill-rule="evenodd"></path><path fill="#000000" fill-opacity="0.0" d="m98.808395 138.65355l14.622047 -14.622055l43.866142 0l0 43.86615l-14.62204 14.62204l-43.86615 0zm0 0l43.86615 0l14.62204 -14.622055m-14.62204 14.622055l0 43.866135" fill-rule="evenodd"></path><path stroke="#000000" stroke-width="1.0" stroke-linejoin="round" stroke-linecap="butt" stroke-dasharray="1.0,3.0" d="m98.808395 138.65355l14.622047 -14.622055l43.866142 0l0 43.86615l-14.62204 14.62204l-43.86615 0zm0 0l43.86615 0l14.62204 -14.622055m-14.62204 14.622055l0 43.866135" fill-rule="evenodd"></path><path fill="#d9d9d9" fill-opacity="0.8346" d="m142.80315 138.65355l43.86615 0l0 43.866135l-43.86615 0z" fill-rule="evenodd"></path><path fill="#adadad" fill-opacity="0.8346" d="m186.6693 138.65355l14.62204 -14.622055l0 43.86615l-14.62204 14.62204z" fill-rule="evenodd"></path><path fill="#e0e0e0" fill-opacity="0.8346" d="m142.80315 138.65355l14.622055 -14.622055l43.866135 0l-14.62204 14.622055z" fill-rule="evenodd"></path><path fill="#000000" fill-opacity="0.0" d="m142.80315 138.65355l14.622055 -14.622055l43.866135 0l0 43.86615l-14.62204 14.62204l-43.86615 0zm0 0l43.86615 0l14.62204 -14.622055m-14.62204 14.622055l0 43.866135" fill-rule="evenodd"></path><path stroke="#000000" stroke-width="1.0" stroke-linejoin="round" stroke-linecap="butt" stroke-dasharray="1.0,3.0" d="m142.80315 138.65355l14.622055 -14.622055l43.866135 0l0 43.86615l-14.62204 14.62204l-43.86615 0zm0 0l43.86615 0l14.62204 -14.622055m-14.62204 14.622055l0 43.866135" fill-rule="evenodd"></path><path fill="#d9d9d9" fill-opacity="0.8346" d="m186.8084 138.65355l43.86615 0l0 43.866135l-43.86615 0z" fill-rule="evenodd"></path><path fill="#adadad" fill-opacity="0.8346" d="m230.67455 138.65355l14.62204 -14.622055l0 43.86615l-14.62204 14.62204z" fill-rule="evenodd"></path><path fill="#e0e0e0" fill-opacity="0.8346" d="m186.8084 138.65355l14.622055 -14.622055l43.866135 0l-14.62204 14.622055z" fill-rule="evenodd"></path><path fill="#000000" fill-opacity="0.0" d="m186.8084 138.65355l14.622055 -14.622055l43.866135 0l0 43.86615l-14.62204 14.62204l-43.86615 0zm0 0l43.86615 0l14.62204 -14.622055m-14.62204 14.622055l0 43.866135" fill-rule="evenodd"></path><path stroke="#000000" stroke-width="1.0" stroke-linejoin="round" stroke-linecap="butt" stroke-dasharray="1.0,3.0" d="m186.8084 138.65355l14.622055 -14.622055l43.866135 0l0 43.86615l-14.62204 14.62204l-43.86615 0zm0 0l43.86615 0l14.62204 -14.622055m-14.62204 14.622055l0 43.866135" fill-rule="evenodd"></path><path fill="#d9d9d9" fill-opacity="0.8346" d="m230.82414 138.65355l43.866135 0l0 43.866135l-43.866135 0z" fill-rule="evenodd"></path><path fill="#adadad" fill-opacity="0.8346" d="m274.69028 138.65355l14.62207 -14.622055l0 43.86615l-14.62207 14.62204z" fill-rule="evenodd"></path><path fill="#e0e0e0" fill-opacity="0.8346" d="m230.82414 138.65355l14.622055 -14.622055l43.86615 0l-14.62207 14.622055z" fill-rule="evenodd"></path><path fill="#000000" fill-opacity="0.0" d="m230.82414 138.65355l14.622055 -14.622055l43.86615 0l0 43.86615l-14.62207 14.62204l-43.866135 0zm0 0l43.866135 0l14.62207 -14.622055m-14.62207 14.622055l0 43.866135" fill-rule="evenodd"></path><path stroke="#000000" stroke-width="1.0" stroke-linejoin="round" stroke-linecap="butt" stroke-dasharray="1.0,3.0" d="m230.82414 138.65355l14.622055 -14.622055l43.86615 0l0 43.86615l-14.62207 14.62204l-43.866135 0zm0 0l43.866135 0l14.62207 -14.622055m-14.62207 14.622055l0 43.866135" fill-rule="evenodd"></path><path fill="#d9d9d9" fill-opacity="0.8346" d="m113.396324 80.16535l43.866142 0l0 43.866142l-43.866142 0z" fill-rule="evenodd"></path><path fill="#adadad" fill-opacity="0.8346" d="m157.26247 80.16535l14.622055 -14.622047l0 43.866142l-14.622055 14.622047z" fill-rule="evenodd"></path><path fill="#e0e0e0" fill-opacity="0.8346" d="m113.396324 80.16535l14.622047 -14.622047l43.86615 0l-14.622055 14.622047z" fill-rule="evenodd"></path><path fill="#000000" fill-opacity="0.0" d="m113.396324 80.16535l14.622047 -14.622047l43.86615 0l0 43.866142l-14.622055 14.622047l-43.866142 0zm0 0l43.866142 0l14.622055 -14.622047m-14.622055 14.622047l0 43.866142" fill-rule="evenodd"></path><path stroke="#000000" stroke-width="1.0" stroke-linejoin="round" stroke-linecap="butt" stroke-dasharray="1.0,3.0" d="m113.396324 80.16535l14.622047 -14.622047l43.86615 0l0 43.866142l-14.622055 14.622047l-43.866142 0zm0 0l43.866142 0l14.622055 -14.622047m-14.622055 14.622047l0 43.866142" fill-rule="evenodd"></path><path fill="#d9d9d9" fill-opacity="0.8346" d="m157.39108 80.16535l43.866135 0l0 43.866142l-43.866135 0z" fill-rule="evenodd"></path><path fill="#adadad" fill-opacity="0.8346" d="m201.25722 80.16535l14.622055 -14.622047l0 43.866142l-14.622055 14.622047z" fill-rule="evenodd"></path><path fill="#e0e0e0" fill-opacity="0.8346" d="m157.39108 80.16535l14.62204 -14.622047l43.86615 0l-14.622055 14.622047z" fill-rule="evenodd"></path><path fill="#000000" fill-opacity="0.0" d="m157.39108 80.16535l14.62204 -14.622047l43.86615 0l0 43.866142l-14.622055 14.622047l-43.866135 0zm0 0l43.866135 0l14.622055 -14.622047m-14.622055 14.622047l0 43.866142" fill-rule="evenodd"></path><path stroke="#000000" stroke-width="1.0" stroke-linejoin="round" stroke-linecap="butt" stroke-dasharray="1.0,3.0" d="m157.39108 80.16535l14.62204 -14.622047l43.86615 0l0 43.866142l-14.622055 14.622047l-43.866135 0zm0 0l43.866135 0l14.622055 -14.622047m-14.622055 14.622047l0 43.866142" fill-rule="evenodd"></path><path fill="#d9d9d9" fill-opacity="0.8346" d="m201.39633 80.16535l43.866135 0l0 43.866142l-43.866135 0z" fill-rule="evenodd"></path><path fill="#adadad" fill-opacity="0.8346" d="m245.26247 80.16535l14.622055 -14.622047l0 43.866142l-14.622055 14.622047z" fill-rule="evenodd"></path><path fill="#e0e0e0" fill-opacity="0.8346" d="m201.39633 80.16535l14.62204 -14.622047l43.86615 0l-14.622055 14.622047z" fill-rule="evenodd"></path><path fill="#000000" fill-opacity="0.0" d="m201.39633 80.16535l14.62204 -14.622047l43.86615 0l0 43.866142l-14.622055 14.622047l-43.866135 0zm0 0l43.866135 0l14.622055 -14.622047m-14.622055 14.622047l0 43.866142" fill-rule="evenodd"></path><path stroke="#000000" stroke-width="1.0" stroke-linejoin="round" stroke-linecap="butt" stroke-dasharray="1.0,3.0" d="m201.39633 80.16535l14.62204 -14.622047l43.86615 0l0 43.866142l-14.622055 14.622047l-43.866135 0zm0 0l43.866135 0l14.622055 -14.622047m-14.622055 14.622047l0 43.866142" fill-rule="evenodd"></path><path fill="#d9d9d9" fill-opacity="0.8346" d="m245.41208 80.16535l43.86615 0l0 43.866142l-43.86615 0z" fill-rule="evenodd"></path><path fill="#adadad" fill-opacity="0.8346" d="m289.27823 80.16535l14.62204 -14.622047l0 43.866142l-14.62204 14.622047z" fill-rule="evenodd"></path><path fill="#e0e0e0" fill-opacity="0.8346" d="m245.41208 80.16535l14.62204 -14.622047l43.86615 0l-14.62204 14.622047z" fill-rule="evenodd"></path><path fill="#000000" fill-opacity="0.0" d="m245.41208 80.16535l14.62204 -14.622047l43.86615 0l0 43.866142l-14.62204 14.622047l-43.86615 0zm0 0l43.86615 0l14.62204 -14.622047m-14.62204 14.622047l0 43.866142" fill-rule="evenodd"></path><path stroke="#000000" stroke-width="1.0" stroke-linejoin="round" stroke-linecap="butt" stroke-dasharray="1.0,3.0" d="m245.41208 80.16535l14.62204 -14.622047l43.86615 0l0 43.866142l-14.62204 14.622047l-43.86615 0zm0 0l43.86615 0l14.62204 -14.622047m-14.62204 14.622047l0 43.866142" fill-rule="evenodd"></path><path fill="#000000" fill-opacity="0.0" d="m-4.023622 -12.853019l313.35434 0l0 26.96063l-313.35434 0z" fill-rule="evenodd"></path><path fill="#000000" d="m73.01596 9.301354l1.796875 0.453125q-0.5625 2.21875 -2.03125 3.390625q-1.46875 1.15625 -3.59375 1.15625q-2.203125 0 -3.578125 -0.890625q-1.375 -0.90625 -2.09375 -2.59375q-0.71875 -1.703125 -0.71875 -3.6562495q0 -2.125 0.796875 -3.703125q0.8125 -1.5781251 2.3125 -2.390625q1.5 -0.828125 3.296875 -0.828125q2.046875 0 3.4375 1.046875q1.390625 1.0312501 1.9375 2.90625l-1.765625 0.421875q-0.46875 -1.484375 -1.375 -2.15625q-0.90625 -0.6875001 -2.265625 -0.6875001q-1.5625 0 -2.625 0.7500001q-1.046875 0.75 -1.484375 2.03125q-0.421875 1.265625 -0.421875 2.609375q0 1.7343745 0.5 3.0312495q0.515625 1.28125 1.578125 1.921875q1.078125 0.640625 2.3125 0.640625q1.515625 0 2.5625 -0.859375q1.046875 -0.875 1.421875 -2.59375zm9.988571 3.546875q-0.9375 0.796875 -1.796875 1.125q-0.859375 0.3125 -1.84375 0.3125q-1.609375 0 -2.484375 -0.78125q-0.875 -0.796875 -0.875 -2.03125q0 -0.734375 0.328125 -1.328125q0.328125 -0.59375 0.859375 -0.953125q0.53125 -0.359375 1.203125 -0.546875q0.5 -0.140625 1.484375 -0.25q2.03125 -0.25 2.984375 -0.5781245q0 -0.34375 0 -0.4375q0 -1.015625 -0.46875 -1.4375q-0.640625 -0.5625 -1.90625 -0.5625q-1.171875 0 -1.734375 0.40625q-0.5625 0.40625 -0.828125 1.46875l-1.640625 -0.234375q0.234375 -1.046875 0.734375 -1.6875q0.515625 -0.640625 1.46875 -0.984375q0.96875 -0.359375 2.25 -0.359375q1.265625 0 2.046875 0.296875q0.78125 0.296875 1.15625 0.75q0.375 0.453125 0.515625 1.140625q0.09375 0.421875 0.09375 1.53125l0 2.2343745q0 2.328125 0.09375 2.953125q0.109375 0.609375 0.4375 1.171875l-1.75 0q-0.265625 -0.515625 -0.328125 -1.21875zm-0.140625 -3.71875q-0.90625 0.359375 -2.734375 0.625q-1.03125 0.140625 -1.453125 0.328125q-0.421875 0.1875 -0.65625 0.546875q-0.234375 0.359375 -0.234375 0.796875q0 0.671875 0.5 1.125q0.515625 0.4375 1.484375 0.4375q0.96875 0 1.71875 -0.421875q0.75 -0.4375 1.109375 -1.15625q0.265625 -0.578125 0.265625 -1.671875l0 -0.609375zm3.4069672 2.0l1.65625 -0.265625q0.140625 1.0 0.765625 1.53125q0.640625 0.515625 1.78125 0.515625q1.15625 0 1.703125 -0.46875q0.5625 -0.46875 0.5625 -1.09375q0 -0.5625 -0.484375 -0.890625q-0.34375 -0.21875 -1.703125 -0.5625q-1.84375 -0.46875 -2.5625 -0.796875q-0.703125 -0.34375 -1.078125 -0.9375q-0.359375 -0.6093745 -0.359375 -1.3281245q0 -0.65625 0.296875 -1.21875q0.3125 -0.5625 0.828125 -0.9375q0.390625 -0.28125 1.0625 -0.484375q0.671875 -0.203125 1.4375 -0.203125q1.171875 0 2.046875 0.34375q0.875 0.328125 1.28125 0.90625q0.421875 0.5625 0.578125 1.515625l-1.625 0.21875q-0.109375 -0.75 -0.65625 -1.171875q-0.53125 -0.4375 -1.5 -0.4375q-1.15625 0 -1.640625 0.390625q-0.484375 0.375 -0.484375 0.875q0 0.328125 0.203125 0.59375q0.203125 0.265625 0.640625 0.4375q0.25 0.09375 1.46875 0.43749952q1.765625 0.46875 2.46875 0.765625q0.703125 0.296875 1.09375 0.875q0.40625 0.578125 0.40625 1.4375q0 0.828125 -0.484375 1.578125q-0.484375 0.734375 -1.40625 1.140625q-0.921875 0.390625 -2.078125 0.390625q-1.921875 0 -2.9375 -0.796875q-1.0 -0.796875 -1.28125 -2.359375zm16.75 -0.234375l1.71875 0.21875q-0.40625 1.5 -1.515625 2.34375q-1.09375 0.828125 -2.8125 0.828125q-2.15625 0 -3.421875 -1.328125q-1.265625 -1.328125 -1.265625 -3.734375q0 -2.4843745 1.265625 -3.8593745q1.28125 -1.375 3.328125 -1.375q1.984375 0 3.234375 1.34375q1.25 1.34375 1.25 3.7968745q0 0.140625 -0.015625 0.4375l-7.34375 0q0.09375 1.625 0.921875 2.484375q0.828125 0.859375 2.0625 0.859375q0.90625 0 1.546875 -0.46875q0.65625 -0.484375 1.046875 -1.546875zm-5.484375 -2.703125l5.5 0q-0.109375 -1.2343745 -0.625 -1.8593745q-0.796875 -0.96875 -2.078125 -0.96875q-1.140625 0 -1.9375 0.78125q-0.78125 0.765625 -0.859375 2.0468745zm22.605896 4.265625l0 1.609375l-8.984375 0q-0.015625 -0.609375 0.1875 -1.15625q0.34375 -0.921875 1.09375 -1.8125q0.765625 -0.890625 2.1875 -2.0625q2.21875 -1.8124995 3.0 -2.8749995q0.78125 -1.0625 0.78125 -2.015625q0 -0.984375 -0.71875 -1.671875q-0.703125 -0.6875001 -1.84375 -0.6875001q-1.203125 0 -1.9375 0.7343751q-0.71875 0.71875 -0.71875 2.0l-1.71875 -0.171875q0.171875 -1.921875 1.328125 -2.921875q1.15625 -1.015625 3.09375 -1.015625q1.953125 0 3.09375 1.09375q1.140625 1.0781251 1.140625 2.6875q0 0.8125 -0.34375 1.609375q-0.328125 0.78125 -1.109375 1.65625q-0.765625 0.8593745 -2.5625 2.3906245q-1.5 1.265625 -1.9375 1.71875q-0.421875 0.4375 -0.703125 0.890625l6.671875 0zm2.5319672 -6.3437495l0 -1.90625l1.90625 0l0 1.90625l-1.90625 0zm0 7.9531245l0 -1.90625l1.90625 0l0 1.90625l-1.90625 0zm16.335358 -3.609375l1.640625 0.21875q-0.265625 1.6875 -1.375 2.65625q-1.109375 0.953125 -2.734375 0.953125q-2.015625 0 -3.25 -1.3125q-1.21875 -1.328125 -1.21875 -3.796875q0 -1.5937495 0.515625 -2.7812495q0.53125 -1.203125 1.609375 -1.796875q1.09375 -0.609375 2.359375 -0.609375q1.609375 0 2.625 0.8125q1.015625 0.8125 1.3125 2.3125l-1.625 0.25q-0.234375 -1.0 -0.828125 -1.5q-0.59375 -0.5 -1.421875 -0.5q-1.265625 0 -2.0625 0.90625q-0.78125 0.90625 -0.78125 2.8593745q0 1.984375 0.765625 2.890625q0.765625 0.890625 1.984375 0.890625q0.984375 0 1.640625 -0.59375q0.65625 -0.609375 0.84375 -1.859375zm2.265625 -1.3125q0 -2.7343745 1.53125 -4.0624995q1.265625 -1.09375 3.09375 -1.09375q2.03125 0 3.3125 1.34375q1.296875 1.328125 1.296875 3.6718745q0 1.90625 -0.578125 3.0q-0.5625 1.078125 -1.65625 1.6875q-1.078125 0.59375 -2.375 0.59375q-2.0625 0 -3.34375 -1.328125q-1.28125 -1.328125 -1.28125 -3.8125zm1.71875 0q0 1.890625 0.828125 2.828125q0.828125 0.9375 2.078125 0.9375q1.25 0 2.0625 -0.9375q0.828125 -0.953125 0.828125 -2.890625q0 -1.8281245 -0.828125 -2.7656245q-0.828125 -0.9375 -2.0625 -0.9375q-1.25 0 -2.078125 0.9375q-0.828125 0.9375 -0.828125 2.8281245zm9.281967 4.921875l0 -9.859375l1.5 0l0 1.390625q0.453125 -0.71875 1.21875 -1.15625q0.78125 -0.453125 1.765625 -0.453125q1.09375 0 1.796875 0.453125q0.703125 0.453125 0.984375 1.28125q1.171875 -1.734375 3.046875 -1.734375q1.46875 0 2.25 0.8125q0.796875 0.8125 0.796875 2.5l0 6.7656245l-1.671875 0l0 -6.2031245q0 -1.0 -0.15625 -1.4375q-0.15625 -0.453125 -0.59375 -0.71875q-0.421875 -0.265625 -1.0 -0.265625q-1.03125 0 -1.71875 0.6875q-0.6875 0.6875 -0.6875 2.2187495l0 5.71875l-1.671875 0l0 -6.4062495q0 -1.109375 -0.40625 -1.65625q-0.40625 -0.5625 -1.34375 -0.5625q-0.703125 0 -1.3125 0.375q-0.59375 0.359375 -0.859375 1.078125q-0.265625 0.71875 -0.265625 2.0624995l0 5.109375l-1.671875 0zm15.540802 3.781251l0 -13.640625l1.53125 0l0 1.28125q0.53125 -0.75 1.203125 -1.125q0.6875 -0.375 1.640625 -0.375q1.265625 0 2.234375 0.65625q0.96875 0.640625 1.453125 1.828125q0.5 1.1875 0.5 2.5937495q0 1.515625 -0.546875 2.734375q-0.546875 1.203125 -1.578125 1.84375q-1.03125 0.640625 -2.171875 0.640625q-0.84375 0 -1.515625 -0.34375q-0.65625 -0.359375 -1.078125 -0.890625l0 4.796876l-1.671875 0zm1.515625 -8.656251q0 1.90625 0.765625 2.8125q0.78125 0.90625 1.875 0.90625q1.109375 0 1.890625 -0.9375q0.796875 -0.9375 0.796875 -2.921875q0 -1.8749995 -0.78125 -2.8124995q-0.765625 -0.9375 -1.84375 -0.9375q-1.0625 0 -1.890625 1.0q-0.8125 1.0 -0.8125 2.8906245zm8.828842 4.875l0 -13.59375l1.671875 0l0 13.59375l-1.671875 0zm10.926071 -3.171875l1.71875 0.21875q-0.40625 1.5 -1.515625 2.34375q-1.09375 0.828125 -2.8125 0.828125q-2.15625 0 -3.421875 -1.328125q-1.265625 -1.328125 -1.265625 -3.734375q0 -2.4843745 1.265625 -3.8593745q1.28125 -1.375 3.328125 -1.375q1.984375 0 3.234375 1.34375q1.25 1.34375 1.25 3.7968745q0 0.140625 -0.015625 0.4375l-7.34375 0q0.09375 1.625 0.921875 2.484375q0.828125 0.859375 2.0625 0.859375q0.90625 0 1.546875 -0.46875q0.65625 -0.484375 1.046875 -1.546875zm-5.484375 -2.703125l5.5 0q-0.109375 -1.2343745 -0.625 -1.8593745q-0.796875 -0.96875 -2.078125 -0.96875q-1.140625 0 -1.9375 0.78125q-0.78125 0.765625 -0.859375 2.0468745zm12.766342 4.375l0.234375 1.484375q-0.703125 0.140625 -1.265625 0.140625q-0.90625 0 -1.40625 -0.28125q-0.5 -0.296875 -0.703125 -0.75q-0.203125 -0.46875 -0.203125 -1.984375l0 -5.6562495l-1.234375 0l0 -1.3125l1.234375 0l0 -2.4375l1.65625 -0.99999994l0 3.4375l1.6875 0l0 1.3125l-1.6875 0l0 5.7499995q0 0.71875 0.078125 0.921875q0.09375 0.203125 0.296875 0.328125q0.203125 0.125 0.578125 0.125q0.265625 0 0.734375 -0.078125zm8.277054 -1.671875l1.71875 0.21875q-0.40625 1.5 -1.515625 2.34375q-1.09375 0.828125 -2.8125 0.828125q-2.15625 0 -3.421875 -1.328125q-1.265625 -1.328125 -1.265625 -3.734375q0 -2.4843745 1.265625 -3.8593745q1.28125 -1.375 3.328125 -1.375q1.984375 0 3.234375 1.34375q1.25 1.34375 1.25 3.7968745q0 0.140625 -0.015625 0.4375l-7.34375 0q0.09375 1.625 0.921875 2.484375q0.828125 0.859375 2.0625 0.859375q0.90625 0 1.546875 -0.46875q0.65625 -0.484375 1.046875 -1.546875zm-5.484375 -2.703125l5.5 0q-0.109375 -1.2343745 -0.625 -1.8593745q-0.796875 -0.96875 -2.078125 -0.96875q-1.140625 0 -1.9375 0.78125q-0.78125 0.765625 -0.859375 2.0468745zm15.840271 5.875l-1.546875 0l0 -13.59375l1.65625 0l0 4.84375q1.0625 -1.328125 2.703125 -1.328125q0.90625 0 1.71875 0.375q0.8125 0.359375 1.328125 1.03125q0.53125 0.65625 0.828125 1.59375q0.296875 0.9375 0.296875 1.9999995q0 2.53125 -1.25 3.921875q-1.25 1.375 -3.0 1.375q-1.75 0 -2.734375 -1.453125l0 1.234375zm-0.015625 -5.0q0 1.765625 0.46875 2.5625q0.796875 1.28125 2.140625 1.28125q1.09375 0 1.890625 -0.9375q0.796875 -0.953125 0.796875 -2.84375q0 -1.9218745 -0.765625 -2.8437495q-0.765625 -0.921875 -1.84375 -0.921875q-1.09375 0 -1.890625 0.953125q-0.796875 0.953125 -0.796875 2.7499995zm8.813217 5.0l0 -13.59375l1.671875 0l0 13.59375l-1.671875 0zm3.5510712 -4.921875q0 -2.7343745 1.53125 -4.0624995q1.265625 -1.09375 3.09375 -1.09375q2.03125 0 3.3125 1.34375q1.296875 1.328125 1.296875 3.6718745q0 1.90625 -0.578125 3.0q-0.5625 1.078125 -1.65625 1.6875q-1.078125 0.59375 -2.375 0.59375q-2.0625 0 -3.34375 -1.328125q-1.28125 -1.328125 -1.28125 -3.8125zm1.71875 0q0 1.890625 0.828125 2.828125q0.828125 0.9375 2.078125 0.9375q1.25 0 2.0625 -0.9375q0.828125 -0.953125 0.828125 -2.890625q0 -1.8281245 -0.828125 -2.7656245q-0.828125 -0.9375 -2.0625 -0.9375q-1.25 0 -2.078125 0.9375q-0.828125 0.9375 -0.828125 2.8281245zm15.719467 1.3125l1.640625 0.21875q-0.265625 1.6875 -1.375 2.65625q-1.109375 0.953125 -2.734375 0.953125q-2.015625 0 -3.25 -1.3125q-1.21875 -1.328125 -1.21875 -3.796875q0 -1.5937495 0.515625 -2.7812495q0.53125 -1.203125 1.609375 -1.796875q1.09375 -0.609375 2.359375 -0.609375q1.609375 0 2.625 0.8125q1.015625 0.8125 1.3125 2.3125l-1.625 0.25q-0.234375 -1.0 -0.828125 -1.5q-0.59375 -0.5 -1.421875 -0.5q-1.265625 0 -2.0625 0.90625q-0.78125 0.90625 -0.78125 2.8593745q0 1.984375 0.765625 2.890625q0.765625 0.890625 1.984375 0.890625q0.984375 0 1.640625 -0.59375q0.65625 -0.609375 0.84375 -1.859375zm2.90625 3.609375l0 -13.59375l1.671875 0l0 7.7499995l3.9531097 -4.0156245l2.15625 0l-3.7656097 3.65625l4.1406097 6.2031245l-2.0625 0l-3.2499847 -5.03125l-1.171875 1.125l0 3.90625l-1.671875 0zm14.480179 0l0 -9.859375l1.5 0l0 1.5q0.578125 -1.046875 1.0625 -1.375q0.484375 -0.34375 1.078125 -0.34375q0.84375 0 1.71875 0.546875l-0.578125 1.546875q-0.609375 -0.359375 -1.234375 -0.359375q-0.546875 0 -0.984375 0.328125q-0.421875 0.328125 -0.609375 0.90625q-0.28125 0.890625 -0.28125 1.9531245l0 5.15625l-1.671875 0zm5.603302 -4.921875q0 -2.7343745 1.53125 -4.0624995q1.265625 -1.09375 3.09375 -1.09375q2.03125 0 3.3125 1.34375q1.296875 1.328125 1.296875 3.6718745q0 1.90625 -0.578125 3.0q-0.5625 1.078125 -1.65625 1.6875q-1.078125 0.59375 -2.375 0.59375q-2.0625 0 -3.34375 -1.328125q-1.28125 -1.328125 -1.28125 -3.8125zm1.71875 0q0 1.890625 0.828125 2.828125q0.828125 0.9375 2.078125 0.9375q1.25 0 2.0625 -0.9375q0.828125 -0.953125 0.828125 -2.890625q0 -1.8281245 -0.828125 -2.7656245q-0.828125 -0.9375 -2.0625 -0.9375q-1.25 0 -2.078125 0.9375q-0.828125 0.9375 -0.828125 2.8281245zm11.110107 4.921875l-3.015625 -9.859375l1.71875 0l1.5625 5.6874995l0.59375 2.125q0.03125 -0.15625 0.5 -2.03125l1.578125 -5.7812495l1.71875 0l1.46875 5.7187495l0.484375 1.890625l0.578125 -1.90625l1.6875 -5.7031245l1.625 0l-3.078125 9.859375l-1.734375 0l-1.578125 -5.90625l-0.375 -1.6718745l-2.0 7.5781245l-1.734375 0zm10.972931 -2.9375l1.65625 -0.265625q0.140625 1.0 0.765625 1.53125q0.640625 0.515625 1.78125 0.515625q1.15625 0 1.703125 -0.46875q0.5625 -0.46875 0.5625 -1.09375q0 -0.5625 -0.484375 -0.890625q-0.34375 -0.21875 -1.703125 -0.5625q-1.84375 -0.46875 -2.5625 -0.796875q-0.703125 -0.34375 -1.078125 -0.9375q-0.359375 -0.6093745 -0.359375 -1.3281245q0 -0.65625 0.296875 -1.21875q0.3125 -0.5625 0.828125 -0.9375q0.390625 -0.28125 1.0625 -0.484375q0.671875 -0.203125 1.4375 -0.203125q1.171875 0 2.046875 0.34375q0.875 0.328125 1.28125 0.90625q0.421875 0.5625 0.578125 1.515625l-1.625 0.21875q-0.109375 -0.75 -0.65625 -1.171875q-0.53125 -0.4375 -1.5 -0.4375q-1.15625 0 -1.640625 0.390625q-0.484375 0.375 -0.484375 0.875q0 0.328125 0.203125 0.59375q0.203125 0.265625 0.640625 0.4375q0.25 0.09375 1.46875 0.43749952q1.765625 0.46875 2.46875 0.765625q0.703125 0.296875 1.09375 0.875q0.40625 0.578125 0.40625 1.4375q0 0.828125 -0.484375 1.578125q-0.484375 0.734375 -1.40625 1.140625q-0.921875 0.390625 -2.078125 0.390625q-1.921875 0 -2.9375 -0.796875q-1.0 -0.796875 -1.28125 -2.359375z" fill-rule="nonzero"></path><path fill="#000000" d="m7.773253 36.06698l-1.546875 0l0 -13.593748l1.65625 0l0 4.84375q1.0624995 -1.328125 2.7031245 -1.328125q0.90625 0 1.71875 0.375q0.8125 0.359375 1.328125 1.03125q0.53125 0.65625 0.828125 1.59375q0.296875 0.9375 0.296875 2.0q0 2.531248 -1.25 3.921873q-1.25 1.375 -3.0 1.375q-1.75 0 -2.7343745 -1.453125l0 1.234375zm-0.015625 -4.999998q0 1.7656231 0.46874952 2.562498q0.796875 1.28125 2.140625 1.28125q1.09375 0 1.890625 -0.9375q0.796875 -0.953125 0.796875 -2.843748q0 -1.921875 -0.765625 -2.84375q-0.765625 -0.921875 -1.84375 -0.921875q-1.09375 0 -1.890625 0.953125q-0.7968745 0.953125 -0.7968745 2.75z" fill-rule="nonzero"></path><path fill="#000000" d="m21.39897 42.051353l0 1.015625l-5.6875 0q0 -0.375 0.125 -0.734375q0.21875 -0.578125 0.6875 -1.140625q0.484375 -0.5625 1.390625 -1.296875q1.40625 -1.15625 1.890625 -1.828125q0.5 -0.671875 0.5 -1.265625q0 -0.625 -0.453125 -1.046875q-0.453125 -0.4375 -1.171875 -0.4375q-0.765625 0 -1.21875 0.453125q-0.453125 0.453125 -0.46875 1.265625l-1.078125 -0.109375q0.109375 -1.21875 0.828125 -1.84375q0.734375 -0.640625 1.96875 -0.640625q1.234375 0 1.953125 0.6875q0.71875 0.6875 0.71875 1.703125q0 0.515625 -0.21875 1.015625q-0.203125 0.484375 -0.703125 1.046875q-0.484375 0.546875 -1.609375 1.5q-0.953125 0.796875 -1.234375 1.09375q-0.265625 0.28125 -0.4375 0.5625l4.21875 0z" fill-rule="nonzero"></path><path fill="#000000" d="m32.300385 28.06698l-8.96875 0l0 -1.5625l8.96875 0l0 1.5625zm0 4.124998l-8.96875 0l0 -1.5468731l8.96875 0l0 1.5468731zm8.5043335 3.875l0 -1.25q-0.9375 1.46875 -2.75 1.46875q-1.171875 0 -2.171875 -0.640625q-0.984375 -0.65625 -1.53125 -1.8125q-0.53125 -1.171875 -0.53125 -2.687498q0 -1.46875 0.484375 -2.671875q0.5 -1.203125 1.46875 -1.84375q0.984375 -0.640625 2.203125 -0.640625q0.890625 0 1.578125 0.375q0.703125 0.375 1.140625 0.984375l0 -4.875l1.65625 0l0 13.593748l-1.546875 0zm-5.28125 -4.921873q0 1.8906231 0.796875 2.828123q0.8125 0.9375 1.890625 0.9375q1.09375 0 1.859375 -0.890625q0.765625 -0.890625 0.765625 -2.734373q0 -2.015625 -0.78125 -2.953125q-0.78125 -0.953125 -1.921875 -0.953125q-1.109375 0 -1.859375 0.90625q-0.75 0.90625 -0.75 2.859375z" fill-rule="nonzero"></path><path fill="#d9d9d9" fill-opacity="0.8346" d="m98.808395 94.75328l43.86615 0l0 43.866135l-43.86615 0z" fill-rule="evenodd"></path><path fill="#adadad" fill-opacity="0.8346" d="m142.67455 94.75328l14.62204 -14.622047l0 43.866142l-14.62204 14.62204z" fill-rule="evenodd"></path><path fill="#e0e0e0" fill-opacity="0.8346" d="m98.808395 94.75328l14.622047 -14.622047l43.866142 0l-14.62204 14.622047z" fill-rule="evenodd"></path><path fill="#000000" fill-opacity="0.0" d="m98.808395 94.75328l14.622047 -14.622047l43.866142 0l0 43.866142l-14.62204 14.62204l-43.86615 0zm0 0l43.86615 0l14.62204 -14.622047m-14.62204 14.622047l0 43.866135" fill-rule="evenodd"></path><path stroke="#000000" stroke-width="1.0" stroke-linejoin="round" stroke-linecap="butt" stroke-dasharray="1.0,3.0" d="m98.808395 94.75328l14.622047 -14.622047l43.866142 0l0 43.866142l-14.62204 14.62204l-43.86615 0zm0 0l43.86615 0l14.62204 -14.622047m-14.62204 14.622047l0 43.866135" fill-rule="evenodd"></path><path fill="#4a86e8" d="m84.62205 109.062996l43.866142 0l0 43.866142l-43.866142 0z" fill-rule="evenodd"></path><path fill="#3b6bb9" d="m128.48819 109.062996l14.62204 -14.622047l0 43.866135l-14.62204 14.622055z" fill-rule="evenodd"></path><path fill="#6e9eec" d="m84.62205 109.062996l14.622047 -14.622047l43.866135 0l-14.62204 14.622047z" fill-rule="evenodd"></path><path fill="#000000" fill-opacity="0.0" d="m84.62205 109.062996l14.622047 -14.622047l43.866135 0l0 43.866135l-14.62204 14.622055l-43.866142 0zm0 0l43.866142 0l14.62204 -14.622047m-14.62204 14.622047l0 43.866142" fill-rule="evenodd"></path><path stroke="#000000" stroke-width="1.0" stroke-linejoin="round" stroke-linecap="butt" d="m84.62205 109.062996l14.622047 -14.622047l43.866135 0l0 43.866135l-14.62204 14.622055l-43.866142 0zm0 0l43.866142 0l14.62204 -14.622047m-14.62204 14.622047l0 43.866142" fill-rule="evenodd"></path><path fill="#d9ead3" d="m69.86877 123.65354l43.866142 0l0 43.866142l-43.866142 0z" fill-rule="evenodd"></path><path fill="#adbba8" d="m113.73491 123.65354l14.62204 -14.622047l0 43.86615l-14.62204 14.62204z" fill-rule="evenodd"></path><path fill="#e0eedb" d="m69.86877 123.65354l14.622047 -14.622047l43.866135 0l-14.62204 14.622047z" fill-rule="evenodd"></path><path fill="#000000" fill-opacity="0.0" d="m69.86877 123.65354l14.622047 -14.622047l43.866135 0l0 43.86615l-14.62204 14.62204l-43.866142 0zm0 0l43.866142 0l14.62204 -14.622047m-14.62204 14.622047l0 43.866142" fill-rule="evenodd"></path><path stroke="#000000" stroke-width="1.0" stroke-linejoin="round" stroke-linecap="butt" d="m69.86877 123.65354l14.622047 -14.622047l43.866135 0l0 43.86615l-14.62204 14.62204l-43.866142 0zm0 0l43.866142 0l14.62204 -14.622047m-14.62204 14.622047l0 43.866142" fill-rule="evenodd"></path><path fill="#d9d9d9" fill-opacity="0.8346" d="m142.80315 94.75328l43.86615 0l0 43.866135l-43.86615 0z" fill-rule="evenodd"></path><path fill="#adadad" fill-opacity="0.8346" d="m186.6693 94.75328l14.62204 -14.622047l0 43.866142l-14.62204 14.62204z" fill-rule="evenodd"></path><path fill="#e0e0e0" fill-opacity="0.8346" d="m142.80315 94.75328l14.622055 -14.622047l43.866135 0l-14.62204 14.622047z" fill-rule="evenodd"></path><path fill="#000000" fill-opacity="0.0" d="m142.80315 94.75328l14.622055 -14.622047l43.866135 0l0 43.866142l-14.62204 14.62204l-43.86615 0zm0 0l43.86615 0l14.62204 -14.622047m-14.62204 14.622047l0 43.866135" fill-rule="evenodd"></path><path stroke="#000000" stroke-width="1.0" stroke-linejoin="round" stroke-linecap="butt" stroke-dasharray="1.0,3.0" d="m142.80315 94.75328l14.622055 -14.622047l43.866135 0l0 43.866142l-14.62204 14.62204l-43.86615 0zm0 0l43.86615 0l14.62204 -14.622047m-14.62204 14.622047l0 43.866135" fill-rule="evenodd"></path><path fill="#d9ead3" d="m128.61679 109.062996l43.86615 0l0 43.866142l-43.86615 0z" fill-rule="evenodd"></path><path fill="#adbba8" d="m172.48294 109.062996l14.62204 -14.622047l0 43.866135l-14.62204 14.622055z" fill-rule="evenodd"></path><path fill="#e0eedb" d="m128.61679 109.062996l14.622055 -14.622047l43.866135 0l-14.62204 14.622047z" fill-rule="evenodd"></path><path fill="#000000" fill-opacity="0.0" d="m128.61679 109.062996l14.622055 -14.622047l43.866135 0l0 43.866135l-14.62204 14.622055l-43.86615 0zm0 0l43.86615 0l14.62204 -14.622047m-14.62204 14.622047l0 43.866142" fill-rule="evenodd"></path><path stroke="#000000" stroke-width="1.0" stroke-linejoin="round" stroke-linecap="butt" d="m128.61679 109.062996l14.622055 -14.622047l43.866135 0l0 43.866135l-14.62204 14.622055l-43.86615 0zm0 0l43.86615 0l14.62204 -14.622047m-14.62204 14.622047l0 43.866142" fill-rule="evenodd"></path><path fill="#d9ead3" d="m113.86352 123.65354l43.866142 0l0 43.866142l-43.866142 0z" fill-rule="evenodd"></path><path fill="#adbba8" d="m157.72966 123.65354l14.62204 -14.622047l0 43.86615l-14.62204 14.62204z" fill-rule="evenodd"></path><path fill="#e0eedb" d="m113.86352 123.65354l14.622047 -14.622047l43.866135 0l-14.62204 14.622047z" fill-rule="evenodd"></path><path fill="#000000" fill-opacity="0.0" d="m113.86352 123.65354l14.622047 -14.622047l43.866135 0l0 43.86615l-14.62204 14.62204l-43.866142 0zm0 0l43.866142 0l14.62204 -14.622047m-14.62204 14.622047l0 43.866142" fill-rule="evenodd"></path><path stroke="#000000" stroke-width="1.0" stroke-linejoin="round" stroke-linecap="butt" d="m113.86352 123.65354l14.622047 -14.622047l43.866135 0l0 43.86615l-14.62204 14.62204l-43.866142 0zm0 0l43.866142 0l14.62204 -14.622047m-14.62204 14.622047l0 43.866142" fill-rule="evenodd"></path><path fill="#d9d9d9" fill-opacity="0.8346" d="m186.8084 94.75328l43.86615 0l0 43.866135l-43.86615 0z" fill-rule="evenodd"></path><path fill="#adadad" fill-opacity="0.8346" d="m230.67455 94.75328l14.62204 -14.622047l0 43.866142l-14.62204 14.62204z" fill-rule="evenodd"></path><path fill="#e0e0e0" fill-opacity="0.8346" d="m186.8084 94.75328l14.622055 -14.622047l43.866135 0l-14.62204 14.622047z" fill-rule="evenodd"></path><path fill="#000000" fill-opacity="0.0" d="m186.8084 94.75328l14.622055 -14.622047l43.866135 0l0 43.866142l-14.62204 14.62204l-43.86615 0zm0 0l43.86615 0l14.62204 -14.622047m-14.62204 14.622047l0 43.866135" fill-rule="evenodd"></path><path stroke="#000000" stroke-width="1.0" stroke-linejoin="round" stroke-linecap="butt" stroke-dasharray="1.0,3.0" d="m186.8084 94.75328l14.622055 -14.622047l43.866135 0l0 43.866142l-14.62204 14.62204l-43.86615 0zm0 0l43.86615 0l14.62204 -14.622047m-14.62204 14.622047l0 43.866135" fill-rule="evenodd"></path><path fill="#d9ead3" d="m172.62204 109.062996l43.86615 0l0 43.866142l-43.86615 0z" fill-rule="evenodd"></path><path fill="#adbba8" d="m216.48819 109.062996l14.62204 -14.622047l0 43.866135l-14.62204 14.622055z" fill-rule="evenodd"></path><path fill="#e0eedb" d="m172.62204 109.062996l14.622055 -14.622047l43.866135 0l-14.62204 14.622047z" fill-rule="evenodd"></path><path fill="#000000" fill-opacity="0.0" d="m172.62204 109.062996l14.622055 -14.622047l43.866135 0l0 43.866135l-14.62204 14.622055l-43.86615 0zm0 0l43.86615 0l14.62204 -14.622047m-14.62204 14.622047l0 43.866142" fill-rule="evenodd"></path><path stroke="#000000" stroke-width="1.0" stroke-linejoin="round" stroke-linecap="butt" d="m172.62204 109.062996l14.622055 -14.622047l43.866135 0l0 43.866135l-14.62204 14.622055l-43.86615 0zm0 0l43.86615 0l14.62204 -14.622047m-14.62204 14.622047l0 43.866142" fill-rule="evenodd"></path><path fill="#d9ead3" d="m157.86876 123.65354l43.86615 0l0 43.866142l-43.86615 0z" fill-rule="evenodd"></path><path fill="#adbba8" d="m201.73491 123.65354l14.62204 -14.622047l0 43.86615l-14.62204 14.62204z" fill-rule="evenodd"></path><path fill="#e0eedb" d="m157.86876 123.65354l14.622055 -14.622047l43.866135 0l-14.62204 14.622047z" fill-rule="evenodd"></path><path fill="#000000" fill-opacity="0.0" d="m157.86876 123.65354l14.622055 -14.622047l43.866135 0l0 43.86615l-14.62204 14.62204l-43.86615 0zm0 0l43.86615 0l14.62204 -14.622047m-14.62204 14.622047l0 43.866142" fill-rule="evenodd"></path><path stroke="#000000" stroke-width="1.0" stroke-linejoin="round" stroke-linecap="butt" d="m157.86876 123.65354l14.622055 -14.622047l43.866135 0l0 43.86615l-14.62204 14.62204l-43.86615 0zm0 0l43.86615 0l14.62204 -14.622047m-14.62204 14.622047l0 43.866142" fill-rule="evenodd"></path><path fill="#d9d9d9" fill-opacity="0.8346" d="m230.82414 94.75328l43.866135 0l0 43.866135l-43.866135 0z" fill-rule="evenodd"></path><path fill="#adadad" fill-opacity="0.8346" d="m274.69028 94.75328l14.62207 -14.622047l0 43.866142l-14.62207 14.62204z" fill-rule="evenodd"></path><path fill="#e0e0e0" fill-opacity="0.8346" d="m230.82414 94.75328l14.622055 -14.622047l43.86615 0l-14.62207 14.622047z" fill-rule="evenodd"></path><path fill="#000000" fill-opacity="0.0" d="m230.82414 94.75328l14.622055 -14.622047l43.86615 0l0 43.866142l-14.62207 14.62204l-43.866135 0zm0 0l43.866135 0l14.62207 -14.622047m-14.62207 14.622047l0 43.866135" fill-rule="evenodd"></path><path stroke="#000000" stroke-width="1.0" stroke-linejoin="round" stroke-linecap="butt" stroke-dasharray="1.0,3.0" d="m230.82414 94.75328l14.622055 -14.622047l43.86615 0l0 43.866142l-14.62207 14.62204l-43.866135 0zm0 0l43.866135 0l14.62207 -14.622047m-14.62207 14.622047l0 43.866135" fill-rule="evenodd"></path><path fill="#d9ead3" d="m216.6378 109.062996l43.866135 0l0 43.866142l-43.866135 0z" fill-rule="evenodd"></path><path fill="#adbba8" d="m260.50394 109.062996l14.62204 -14.622047l0 43.866135l-14.62204 14.622055z" fill-rule="evenodd"></path><path fill="#e0eedb" d="m216.6378 109.062996l14.62204 -14.622047l43.866135 0l-14.62204 14.622047z" fill-rule="evenodd"></path><path fill="#000000" fill-opacity="0.0" d="m216.6378 109.062996l14.62204 -14.622047l43.866135 0l0 43.866135l-14.62204 14.622055l-43.866135 0zm0 0l43.866135 0l14.62204 -14.622047m-14.62204 14.622047l0 43.866142" fill-rule="evenodd"></path><path stroke="#000000" stroke-width="1.0" stroke-linejoin="round" stroke-linecap="butt" d="m216.6378 109.062996l14.62204 -14.622047l43.866135 0l0 43.866135l-14.62204 14.622055l-43.866135 0zm0 0l43.866135 0l14.62204 -14.622047m-14.62204 14.622047l0 43.866142" fill-rule="evenodd"></path><path fill="#d9ead3" d="m201.88452 123.65354l43.866135 0l0 43.866142l-43.866135 0z" fill-rule="evenodd"></path><path fill="#adbba8" d="m245.75066 123.65354l14.622055 -14.622047l0 43.86615l-14.622055 14.62204z" fill-rule="evenodd"></path><path fill="#e0eedb" d="m201.88452 123.65354l14.62204 -14.622047l43.86615 0l-14.622055 14.622047z" fill-rule="evenodd"></path><path fill="#000000" fill-opacity="0.0" d="m201.88452 123.65354l14.62204 -14.622047l43.86615 0l0 43.86615l-14.622055 14.62204l-43.866135 0zm0 0l43.866135 0l14.622055 -14.622047m-14.622055 14.622047l0 43.866142" fill-rule="evenodd"></path><path stroke="#000000" stroke-width="1.0" stroke-linejoin="round" stroke-linecap="butt" d="m201.88452 123.65354l14.62204 -14.622047l43.86615 0l0 43.86615l-14.622055 14.62204l-43.866135 0zm0 0l43.866135 0l14.622055 -14.622047m-14.622055 14.622047l0 43.866142" fill-rule="evenodd"></path><path fill="#000000" fill-opacity="0.0" d="m70.04199 80.03928l175.3937 0l0 176.05511l-175.3937 0z" fill-rule="evenodd"></path><path fill="#000000" fill-opacity="0.0" d="m245.4357 80.03928l58.46457 -58.46456l0 176.05511l-58.46457 58.464554z" fill-rule="evenodd"></path><path fill="#000000" fill-opacity="0.0" d="m70.04199 80.03928l58.46457 -58.46456l175.3937 0l-58.46457 58.46456z" fill-rule="evenodd"></path><path fill="#000000" fill-opacity="0.0" d="m70.04199 80.03928l58.46457 -58.46456l175.3937 0l0 176.05511l-58.46457 58.464554l-175.3937 0zm0 0l175.3937 0l58.46457 -58.46456m-58.46457 58.46456l0 176.05511" fill-rule="evenodd"></path><path fill="#000000" fill-opacity="0.2" d="m245.4357 80.03928l58.46457 -58.46456l0 176.05511l-58.46457 58.464554z" fill-rule="evenodd"></path><path fill="#ffffff" fill-opacity="0.2" d="m70.04199 80.03928l58.46457 -58.46456l175.3937 0l-58.46457 58.46456z" fill-rule="evenodd"></path><path stroke="#000000" stroke-width="1.0" stroke-linejoin="round" stroke-linecap="butt" d="m70.04199 80.03928l58.46457 -58.46456l175.3937 0l0 176.05511l-58.46457 58.464554l-175.3937 0zm0 0l175.3937 0l58.46457 -58.46456m-58.46457 58.46456l0 176.05511" fill-rule="evenodd"></path></g></svg>

