<?xml version="1.0" standalone="yes"?>

<svg version="1.1" viewBox="0.0 0.0 309.3307086614173 256.09448818897636" fill="none" stroke="none" stroke-linecap="square" stroke-miterlimit="10" xmlns="http://www.w3.org/2000/svg" xmlns:xlink="http://www.w3.org/1999/xlink"><clipPath id="p.0"><path d="m0 0l309.33072 0l0 256.09448l-309.33072 0l0 -256.09448z" clip-rule="nonzero"></path></clipPath><g clip-path="url(#p.0)"><path fill="#000000" fill-opacity="0.0" d="m0 0l309.33072 0l0 256.09448l-309.33072 0z" fill-rule="evenodd"></path><path fill="#000000" fill-opacity="0.0" d="m0 23.509186l117.732285 0l0 26.960632l-117.732285 0z" fill-rule="evenodd"></path><path fill="#000000" d="m10.453125 50.429184l0 -13.59375l1.84375 0l7.140625 10.671875l0 -10.671875l1.71875 0l0 13.59375l-1.84375 0l-7.140625 -10.6875l0 10.6875l-1.71875 0zm22.051071 -8.0l-8.96875 0l0 -1.5625l8.96875 0l0 1.5625zm0 4.125l-8.96875 0l0 -1.546875l8.96875 0l0 1.546875zm10.4262085 2.265625l0 1.609375l-8.984375 0q-0.015625 -0.609375 0.1875 -1.15625q0.34375 -0.921875 1.09375 -1.8125q0.765625 -0.890625 2.1875 -2.0625q2.21875 -1.8125 3.0 -2.875q0.78125 -1.0625 0.78125 -2.015625q0 -0.984375 -0.71875 -1.671875q-0.703125 -0.6875 -1.84375 -0.6875q-1.203125 0 -1.9375 0.734375q-0.71875 0.71875 -0.71875 2.0l-1.71875 -0.171875q0.171875 -1.921875 1.328125 -2.921875q1.15625 -1.015625 3.09375 -1.015625q1.953125 0 3.09375 1.09375q1.140625 1.078125 1.140625 2.6875q0 0.8125 -0.34375 1.609375q-0.328125 0.78125 -1.109375 1.65625q-0.765625 0.859375 -2.5625 2.390625q-1.5 1.265625 -1.9375 1.71875q-0.421875 0.4375 -0.703125 0.890625l6.671875 0zm8.453842 1.609375l0 -1.25q-0.9375 1.46875 -2.75 1.46875q-1.171875 0 -2.171875 -0.640625q-0.984375 -0.65625 -1.53125 -1.8125q-0.53125 -1.171875 -0.53125 -2.6875q0 -1.46875 0.484375 -2.671875q0.5 -1.203125 1.46875 -1.84375q0.984375 -0.640625 2.203125 -0.640625q0.890625 0 1.578125 0.375q0.703125 0.375 1.140625 0.984375l0 -4.875l1.65625 0l0 13.59375l-1.546875 0zm-5.28125 -4.921875q0 1.890625 0.796875 2.828125q0.8125 0.9375 1.890625 0.9375q1.09375 0 1.859375 -0.890625q0.765625 -0.890625 0.765625 -2.734375q0 -2.015625 -0.78125 -2.953125q-0.78125 -0.953125 -1.921875 -0.953125q-1.109375 0 -1.859375 0.90625q-0.75 0.90625 -0.75 2.859375z" fill-rule="nonzero"></path><path fill="#000000" d="m60.166214 42.41356l0 1.015625l-5.6875 0q0 -0.375 0.125 -0.734375q0.21875 -0.578125 0.6875 -1.140625q0.484375 -0.5625 1.390625 -1.296875q1.40625 -1.15625 1.890625 -1.828125q0.5 -0.671875 0.5 -1.265625q0 -0.625 -0.453125 -1.046875q-0.453125 -0.4375 -1.171875 -0.4375q-0.765625 0 -1.21875 0.453125q-0.453125 0.453125 -0.46875 1.265625l-1.078125 -0.109375q0.109375 -1.21875 0.828125 -1.84375q0.734375 -0.640625 1.96875 -0.640625q1.234375 0 1.953125 0.6875q0.71875 0.6875 0.71875 1.703125q0 0.515625 -0.21875 1.015625q-0.203125 0.484375 -0.703125 1.046875q-0.484375 0.546875 -1.609375 1.5q-0.953125 0.796875 -1.234375 1.09375q-0.265625 0.28125 -0.4375 0.5625l4.21875 0z" fill-rule="nonzero"></path><path fill="#000000" d="m61.645752 46.35106l0 -1.6875l5.125 0l0 1.6875l-5.125 0zm13.243927 4.078125l0 -1.25q-0.9375 1.46875 -2.75 1.46875q-1.171875 0 -2.171875 -0.640625q-0.984375 -0.65625 -1.53125 -1.8125q-0.53125 -1.171875 -0.53125 -2.6875q0 -1.46875 0.484375 -2.671875q0.5 -1.203125 1.46875 -1.84375q0.984375 -0.640625 2.203125 -0.640625q0.890625 0 1.578125 0.375q0.703125 0.375 1.140625 0.984375l0 -4.875l1.65625 0l0 13.59375l-1.546875 0zm-5.28125 -4.921875q0 1.890625 0.796875 2.828125q0.8125 0.9375 1.890625 0.9375q1.09375 0 1.859375 -0.890625q0.765625 -0.890625 0.765625 -2.734375q0 -2.015625 -0.78125 -2.953125q-0.78125 -0.953125 -1.921875 -0.953125q-1.109375 0 -1.859375 0.90625q-0.75 0.90625 -0.75 2.859375z" fill-rule="nonzero"></path><path fill="#d9d9d9" fill-opacity="0.8314" d="m112.56693 113.38465l43.866142 0l0 43.866142l-43.866142 0z" fill-rule="evenodd"></path><path fill="#adadad" fill-opacity="0.8314" d="m156.43307 113.38465l14.62204 -14.622047l0 43.866135l-14.62204 14.622055z" fill-rule="evenodd"></path><path fill="#e0e0e0" fill-opacity="0.8314" d="m112.56693 113.38465l14.622047 -14.622047l43.866135 0l-14.62204 14.622047z" fill-rule="evenodd"></path><path fill="#000000" fill-opacity="0.0" d="m112.56693 113.38465l14.622047 -14.622047l43.866135 0l0 43.866135l-14.62204 14.622055l-43.866142 0zm0 0l43.866142 0l14.62204 -14.622047m-14.62204 14.622047l0 43.866142" fill-rule="evenodd"></path><path stroke="#000000" stroke-width="1.0" stroke-linejoin="round" stroke-linecap="butt" stroke-dasharray="1.0,3.0" d="m112.56693 113.38465l14.622047 -14.622047l43.866135 0l0 43.866135l-14.62204 14.622055l-43.866142 0zm0 0l43.866142 0l14.62204 -14.622047m-14.62204 14.622047l0 43.866142" fill-rule="evenodd"></path><path fill="#d9d9d9" fill-opacity="0.8314" d="m98.46982 127.8727l43.866135 0l0 43.866142l-43.866135 0z" fill-rule="evenodd"></path><path fill="#adadad" fill-opacity="0.8314" d="m142.33595 127.8727l14.622055 -14.622047l0 43.866135l-14.622055 14.622055z" fill-rule="evenodd"></path><path fill="#e0e0e0" fill-opacity="0.8314" d="m98.46982 127.8727l14.622047 -14.622047l43.866142 0l-14.622055 14.622047z" fill-rule="evenodd"></path><path fill="#000000" fill-opacity="0.0" d="m98.46982 127.8727l14.622047 -14.622047l43.866142 0l0 43.866135l-14.622055 14.622055l-43.866135 0zm0 0l43.866135 0l14.622055 -14.622047m-14.622055 14.622047l0 43.866142" fill-rule="evenodd"></path><path stroke="#000000" stroke-width="1.0" stroke-linejoin="round" stroke-linecap="butt" stroke-dasharray="1.0,3.0" d="m98.46982 127.8727l14.622047 -14.622047l43.866142 0l0 43.866135l-14.622055 14.622055l-43.866135 0zm0 0l43.866135 0l14.622055 -14.622047m-14.622055 14.622047l0 43.866142" fill-rule="evenodd"></path><path fill="#d9d9d9" fill-opacity="0.8314" d="m84.385826 142.36089l43.866142 0l0 43.86615l-43.866142 0z" fill-rule="evenodd"></path><path fill="#adadad" fill-opacity="0.8314" d="m128.25197 142.36089l14.62204 -14.62204l0 43.866135l-14.62204 14.622055z" fill-rule="evenodd"></path><path fill="#e0e0e0" fill-opacity="0.8314" d="m84.385826 142.36089l14.622047 -14.62204l43.866135 0l-14.62204 14.62204z" fill-rule="evenodd"></path><path fill="#000000" fill-opacity="0.0" d="m84.385826 142.36089l14.622047 -14.62204l43.866135 0l0 43.866135l-14.62204 14.622055l-43.866142 0zm0 0l43.866142 0l14.62204 -14.62204m-14.62204 14.62204l0 43.86615" fill-rule="evenodd"></path><path stroke="#000000" stroke-width="1.0" stroke-linejoin="round" stroke-linecap="butt" stroke-dasharray="1.0,3.0" d="m84.385826 142.36089l14.622047 -14.62204l43.866135 0l0 43.866135l-14.62204 14.622055l-43.866142 0zm0 0l43.866142 0l14.62204 -14.62204m-14.62204 14.62204l0 43.86615" fill-rule="evenodd"></path><path fill="#d9d9d9" fill-opacity="0.8314" d="m156.95801 113.384514l43.866135 0l0 43.866142l-43.866135 0z" fill-rule="evenodd"></path><path fill="#adadad" fill-opacity="0.8314" d="m200.82414 113.384514l14.622055 -14.622047l0 43.86615l-14.622055 14.62204z" fill-rule="evenodd"></path><path fill="#e0e0e0" fill-opacity="0.8314" d="m156.95801 113.384514l14.62204 -14.622047l43.86615 0l-14.622055 14.622047z" fill-rule="evenodd"></path><path fill="#000000" fill-opacity="0.0" d="m156.95801 113.384514l14.62204 -14.622047l43.86615 0l0 43.86615l-14.622055 14.62204l-43.866135 0zm0 0l43.866135 0l14.622055 -14.622047m-14.622055 14.622047l0 43.866142" fill-rule="evenodd"></path><path stroke="#000000" stroke-width="1.0" stroke-linejoin="round" stroke-linecap="butt" stroke-dasharray="1.0,3.0" d="m156.95801 113.384514l14.62204 -14.622047l43.86615 0l0 43.86615l-14.622055 14.62204l-43.866135 0zm0 0l43.866135 0l14.622055 -14.622047m-14.622055 14.622047l0 43.866142" fill-rule="evenodd"></path><path fill="#d9d9d9" fill-opacity="0.8314" d="m70.05774 156.85039l43.866142 0l0 43.86615l-43.866142 0z" fill-rule="evenodd"></path><path fill="#adadad" fill-opacity="0.8314" d="m113.92388 156.85039l14.622047 -14.62204l0 43.866135l-14.622047 14.622055z" fill-rule="evenodd"></path><path fill="#e0e0e0" fill-opacity="0.8314" d="m70.05774 156.85039l14.622047 -14.62204l43.866142 0l-14.622047 14.62204z" fill-rule="evenodd"></path><path fill="#000000" fill-opacity="0.0" d="m70.05774 156.85039l14.622047 -14.62204l43.866142 0l0 43.866135l-14.622047 14.622055l-43.866142 0zm0 0l43.866142 0l14.622047 -14.62204m-14.622047 14.62204l0 43.86615" fill-rule="evenodd"></path><path stroke="#000000" stroke-width="1.0" stroke-linejoin="round" stroke-linecap="butt" stroke-dasharray="1.0,3.0" d="m70.05774 156.85039l14.622047 -14.62204l43.866142 0l0 43.866135l-14.622047 14.622055l-43.866142 0zm0 0l43.866142 0l14.622047 -14.62204m-14.622047 14.62204l0 43.86615" fill-rule="evenodd"></path><path fill="#d9d9d9" fill-opacity="0.8314" d="m113.414696 70.36732l43.866142 0l0 43.866142l-43.866142 0z" fill-rule="evenodd"></path><path fill="#adadad" fill-opacity="0.8314" d="m157.28084 70.36732l14.622055 -14.622044l0 43.86614l-14.622055 14.622047z" fill-rule="evenodd"></path><path fill="#e0e0e0" fill-opacity="0.8314" d="m113.414696 70.36732l14.622047 -14.622044l43.86615 0l-14.622055 14.622044z" fill-rule="evenodd"></path><path fill="#000000" fill-opacity="0.0" d="m113.414696 70.36732l14.622047 -14.622044l43.86615 0l0 43.86614l-14.622055 14.622047l-43.866142 0zm0 0l43.866142 0l14.622055 -14.622044m-14.622055 14.622044l0 43.866142" fill-rule="evenodd"></path><path stroke="#000000" stroke-width="1.0" stroke-linejoin="round" stroke-linecap="butt" stroke-dasharray="1.0,3.0" d="m113.414696 70.36732l14.622047 -14.622044l43.86615 0l0 43.86614l-14.622055 14.622047l-43.866142 0zm0 0l43.866142 0l14.622055 -14.622044m-14.622055 14.622044l0 43.866142" fill-rule="evenodd"></path><path fill="#d9d9d9" fill-opacity="0.8314" d="m98.90026 84.85669l43.866142 0l0 43.866135l-43.866142 0z" fill-rule="evenodd"></path><path fill="#adadad" fill-opacity="0.8314" d="m142.7664 84.85669l14.622055 -14.622047l0 43.866142l-14.622055 14.62204z" fill-rule="evenodd"></path><path fill="#e0e0e0" fill-opacity="0.8314" d="m98.90026 84.85669l14.622047 -14.622047l43.86615 0l-14.622055 14.622047z" fill-rule="evenodd"></path><path fill="#000000" fill-opacity="0.0" d="m98.90026 84.85669l14.622047 -14.622047l43.86615 0l0 43.866142l-14.622055 14.62204l-43.866142 0zm0 0l43.866142 0l14.622055 -14.622047m-14.622055 14.622047l0 43.866135" fill-rule="evenodd"></path><path stroke="#000000" stroke-width="1.0" stroke-linejoin="round" stroke-linecap="butt" stroke-dasharray="1.0,3.0" d="m98.90026 84.85669l14.622047 -14.622047l43.86615 0l0 43.866142l-14.622055 14.62204l-43.866142 0zm0 0l43.866142 0l14.622055 -14.622047m-14.622055 14.622047l0 43.866135" fill-rule="evenodd"></path><path fill="#d9d9d9" fill-opacity="0.8314" d="m84.556564 99.808l43.866135 0l0 43.866135l-43.866135 0z" fill-rule="evenodd"></path><path fill="#adadad" fill-opacity="0.8314" d="m128.4227 99.808l14.622055 -14.622047l0 43.866142l-14.622055 14.62204z" fill-rule="evenodd"></path><path fill="#e0e0e0" fill-opacity="0.8314" d="m84.556564 99.808l14.622047 -14.622047l43.866142 0l-14.622055 14.622047z" fill-rule="evenodd"></path><path fill="#000000" fill-opacity="0.0" d="m84.556564 99.808l14.622047 -14.622047l43.866142 0l0 43.866142l-14.622055 14.62204l-43.866135 0zm0 0l43.866135 0l14.622055 -14.622047m-14.622055 14.622047l0 43.866135" fill-rule="evenodd"></path><path stroke="#000000" stroke-width="1.0" stroke-linejoin="round" stroke-linecap="butt" stroke-dasharray="1.0,3.0" d="m84.556564 99.808l14.622047 -14.622047l43.866142 0l0 43.866142l-14.622055 14.62204l-43.866135 0zm0 0l43.866135 0l14.622055 -14.622047m-14.622055 14.622047l0 43.866135" fill-rule="evenodd"></path><path fill="#d9d9d9" fill-opacity="0.8314" d="m70.05761 114.29343l43.866142 0l0 43.866135l-43.866142 0z" fill-rule="evenodd"></path><path fill="#adadad" fill-opacity="0.8314" d="m113.92375 114.29343l14.62204 -14.622047l0 43.866142l-14.62204 14.62204z" fill-rule="evenodd"></path><path fill="#e0e0e0" fill-opacity="0.8314" d="m70.05761 114.29343l14.622047 -14.622047l43.866135 0l-14.62204 14.622047z" fill-rule="evenodd"></path><path fill="#000000" fill-opacity="0.0" d="m70.05761 114.29343l14.622047 -14.622047l43.866135 0l0 43.866142l-14.62204 14.62204l-43.866142 0zm0 0l43.866142 0l14.62204 -14.622047m-14.62204 14.622047l0 43.866135" fill-rule="evenodd"></path><path stroke="#000000" stroke-width="1.0" stroke-linejoin="round" stroke-linecap="butt" stroke-dasharray="1.0,3.0" d="m70.05761 114.29343l14.622047 -14.622047l43.866135 0l0 43.866142l-14.62204 14.62204l-43.866142 0zm0 0l43.866142 0l14.62204 -14.622047m-14.62204 14.622047l0 43.866135" fill-rule="evenodd"></path><path fill="#d9d9d9" fill-opacity="0.8314" d="m157.86745 70.83465l43.86615 0l0 43.866142l-43.86615 0z" fill-rule="evenodd"></path><path fill="#adadad" fill-opacity="0.8314" d="m201.7336 70.83465l14.62204 -14.622051l0 43.866146l-14.62204 14.622047z" fill-rule="evenodd"></path><path fill="#e0e0e0" fill-opacity="0.8314" d="m157.86745 70.83465l14.622055 -14.622051l43.866135 0l-14.62204 14.622051z" fill-rule="evenodd"></path><path fill="#000000" fill-opacity="0.0" d="m157.86745 70.83465l14.622055 -14.622051l43.866135 0l0 43.866146l-14.62204 14.622047l-43.86615 0zm0 0l43.86615 0l14.62204 -14.622051m-14.62204 14.622051l0 43.866142" fill-rule="evenodd"></path><path stroke="#000000" stroke-width="1.0" stroke-linejoin="round" stroke-linecap="butt" stroke-dasharray="1.0,3.0" d="m157.86745 70.83465l14.622055 -14.622051l43.866135 0l0 43.866146l-14.62204 14.622047l-43.86615 0zm0 0l43.86615 0l14.62204 -14.622051m-14.62204 14.622051l0 43.866142" fill-rule="evenodd"></path><path fill="#d9d9d9" fill-opacity="0.8314" d="m143.04475 85.14554l43.866135 0l0 43.866135l-43.866135 0z" fill-rule="evenodd"></path><path fill="#adadad" fill-opacity="0.8314" d="m186.91089 85.14554l14.622055 -14.622047l0 43.866142l-14.622055 14.62204z" fill-rule="evenodd"></path><path fill="#e0e0e0" fill-opacity="0.8314" d="m143.04475 85.14554l14.62204 -14.622047l43.86615 0l-14.622055 14.622047z" fill-rule="evenodd"></path><path fill="#000000" fill-opacity="0.0" d="m143.04475 85.14554l14.62204 -14.622047l43.86615 0l0 43.866142l-14.622055 14.62204l-43.866135 0zm0 0l43.866135 0l14.622055 -14.622047m-14.622055 14.622047l0 43.866135" fill-rule="evenodd"></path><path stroke="#000000" stroke-width="1.0" stroke-linejoin="round" stroke-linecap="butt" stroke-dasharray="1.0,3.0" d="m143.04475 85.14554l14.62204 -14.622047l43.86615 0l0 43.866142l-14.622055 14.62204l-43.866135 0zm0 0l43.866135 0l14.622055 -14.622047m-14.622055 14.622047l0 43.866135" fill-rule="evenodd"></path><path fill="#d9ead3" d="m201.5328 70.83465l43.86615 0l0 43.866142l-43.86615 0z" fill-rule="evenodd"></path><path fill="#adbba8" d="m245.39896 70.83465l14.62204 -14.622051l0 43.866146l-14.62204 14.622047z" fill-rule="evenodd"></path><path fill="#e0eedb" d="m201.5328 70.83465l14.622055 -14.622051l43.866135 0l-14.62204 14.622051z" fill-rule="evenodd"></path><path fill="#000000" fill-opacity="0.0" d="m201.5328 70.83465l14.622055 -14.622051l43.866135 0l0 43.866146l-14.62204 14.622047l-43.86615 0zm0 0l43.86615 0l14.62204 -14.622051m-14.62204 14.622051l0 43.866142" fill-rule="evenodd"></path><path stroke="#000000" stroke-width="1.0" stroke-linejoin="round" stroke-linecap="butt" d="m201.5328 70.83465l14.622055 -14.622051l43.866135 0l0 43.866146l-14.62204 14.622047l-43.86615 0zm0 0l43.86615 0l14.62204 -14.622051m-14.62204 14.622051l0 43.866142" fill-rule="evenodd"></path><path fill="#d9ead3" d="m187.65617 85.14304l43.866135 0l0 43.866142l-43.866135 0z" fill-rule="evenodd"></path><path fill="#adbba8" d="m231.52231 85.14304l14.622055 -14.622047l0 43.866142l-14.622055 14.622047z" fill-rule="evenodd"></path><path fill="#e0eedb" d="m187.65617 85.14304l14.62204 -14.622047l43.86615 0l-14.622055 14.622047z" fill-rule="evenodd"></path><path fill="#000000" fill-opacity="0.0" d="m187.65617 85.14304l14.62204 -14.622047l43.86615 0l0 43.866142l-14.622055 14.622047l-43.866135 0zm0 0l43.866135 0l14.622055 -14.622047m-14.622055 14.622047l0 43.866142" fill-rule="evenodd"></path><path stroke="#000000" stroke-width="1.0" stroke-linejoin="round" stroke-linecap="butt" d="m187.65617 85.14304l14.62204 -14.622047l43.86615 0l0 43.866142l-14.622055 14.622047l-43.866135 0zm0 0l43.866135 0l14.622055 -14.622047m-14.622055 14.622047l0 43.866142" fill-rule="evenodd"></path><path fill="#ff0000" d="m245.22282 70.83478l43.866135 0l0 43.866142l-43.866135 0z" fill-rule="evenodd"></path><path fill="#cb0000" d="m289.08896 70.83478l14.62207 -14.622044l0 43.86614l-14.62207 14.622047z" fill-rule="evenodd"></path><path fill="#ff3333" d="m245.22282 70.83478l14.622055 -14.622044l43.86615 0l-14.62207 14.622044z" fill-rule="evenodd"></path><path fill="#000000" fill-opacity="0.0" d="m245.22282 70.83478l14.622055 -14.622044l43.86615 0l0 43.86614l-14.62207 14.622047l-43.866135 0zm0 0l43.866135 0l14.62207 -14.622044m-14.62207 14.622044l0 43.866142" fill-rule="evenodd"></path><path stroke="#000000" stroke-width="1.0" stroke-linejoin="round" stroke-linecap="butt" d="m245.22282 70.83478l14.622055 -14.622044l43.86615 0l0 43.86614l-14.62207 14.622047l-43.866135 0zm0 0l43.866135 0l14.62207 -14.622044m-14.62207 14.622044l0 43.866142" fill-rule="evenodd"></path><path fill="#d9ead3" d="m231.17902 85.14304l43.86615 0l0 43.866142l-43.86615 0z" fill-rule="evenodd"></path><path fill="#adbba8" d="m275.04517 85.14304l14.62204 -14.622047l0 43.866142l-14.62204 14.622047z" fill-rule="evenodd"></path><path fill="#e0eedb" d="m231.17902 85.14304l14.62204 -14.622047l43.86615 0l-14.62204 14.622047z" fill-rule="evenodd"></path><path fill="#000000" fill-opacity="0.0" d="m231.17902 85.14304l14.62204 -14.622047l43.86615 0l0 43.866142l-14.62204 14.622047l-43.86615 0zm0 0l43.86615 0l14.62204 -14.622047m-14.62204 14.622047l0 43.866142" fill-rule="evenodd"></path><path stroke="#000000" stroke-width="1.0" stroke-linejoin="round" stroke-linecap="butt" d="m231.17902 85.14304l14.62204 -14.622047l43.86615 0l0 43.866142l-14.62204 14.622047l-43.86615 0zm0 0l43.86615 0l14.62204 -14.622047m-14.62204 14.622047l0 43.866142" fill-rule="evenodd"></path><path fill="#d9d9d9" fill-opacity="0.8314" d="m129.16785 99.908134l43.866135 0l0 43.866142l-43.866135 0z" fill-rule="evenodd"></path><path fill="#adadad" fill-opacity="0.8314" d="m173.03398 99.908134l14.622055 -14.622047l0 43.86615l-14.622055 14.62204z" fill-rule="evenodd"></path><path fill="#e0e0e0" fill-opacity="0.8314" d="m129.16785 99.908134l14.62204 -14.622047l43.86615 0l-14.622055 14.622047z" fill-rule="evenodd"></path><path fill="#000000" fill-opacity="0.0" d="m129.16785 99.908134l14.62204 -14.622047l43.86615 0l0 43.86615l-14.622055 14.62204l-43.866135 0zm0 0l43.866135 0l14.622055 -14.622047m-14.622055 14.622047l0 43.866142" fill-rule="evenodd"></path><path stroke="#000000" stroke-width="1.0" stroke-linejoin="round" stroke-linecap="butt" stroke-dasharray="1.0,3.0" d="m129.16785 99.908134l14.62204 -14.622047l43.86615 0l0 43.86615l-14.622055 14.62204l-43.866135 0zm0 0l43.866135 0l14.622055 -14.622047m-14.622055 14.622047l0 43.866142" fill-rule="evenodd"></path><path fill="#d9ead3" d="m172.83727 99.908134l43.86615 0l0 43.866142l-43.86615 0z" fill-rule="evenodd"></path><path fill="#adbba8" d="m216.70341 99.908134l14.62204 -14.622047l0 43.86615l-14.62204 14.62204z" fill-rule="evenodd"></path><path fill="#e0eedb" d="m172.83727 99.908134l14.622055 -14.622047l43.866135 0l-14.62204 14.622047z" fill-rule="evenodd"></path><path fill="#000000" fill-opacity="0.0" d="m172.83727 99.908134l14.622055 -14.622047l43.866135 0l0 43.86615l-14.62204 14.62204l-43.86615 0zm0 0l43.86615 0l14.62204 -14.622047m-14.62204 14.622047l0 43.866142" fill-rule="evenodd"></path><path stroke="#000000" stroke-width="1.0" stroke-linejoin="round" stroke-linecap="butt" d="m172.83727 99.908134l14.622055 -14.622047l43.866135 0l0 43.86615l-14.62204 14.62204l-43.86615 0zm0 0l43.86615 0l14.62204 -14.622047m-14.62204 14.622047l0 43.866142" fill-rule="evenodd"></path><path fill="#d9d9d9" fill-opacity="0.8314" d="m216.38347 99.908134l43.866135 0l0 43.866142l-43.866135 0z" fill-rule="evenodd"></path><path fill="#adadad" fill-opacity="0.8314" d="m260.2496 99.908134l14.62207 -14.622047l0 43.86615l-14.62207 14.62204z" fill-rule="evenodd"></path><path fill="#e0e0e0" fill-opacity="0.8314" d="m216.38347 99.908134l14.622055 -14.622047l43.86615 0l-14.62207 14.622047z" fill-rule="evenodd"></path><path fill="#000000" fill-opacity="0.0" d="m216.38347 99.908134l14.622055 -14.622047l43.86615 0l0 43.86615l-14.62207 14.62204l-43.866135 0zm0 0l43.866135 0l14.62207 -14.622047m-14.62207 14.622047l0 43.866142" fill-rule="evenodd"></path><path stroke="#000000" stroke-width="1.0" stroke-linejoin="round" stroke-linecap="butt" stroke-dasharray="1.0,3.0" d="m216.38347 99.908134l14.622055 -14.622047l43.86615 0l0 43.86615l-14.62207 14.62204l-43.866135 0zm0 0l43.866135 0l14.62207 -14.622047m-14.62207 14.622047l0 43.866142" fill-rule="evenodd"></path><path fill="#ff0000" d="m114.34935 114.29369l43.866135 0l0 43.866142l-43.866135 0z" fill-rule="evenodd"></path><path fill="#cb0000" d="m158.21548 114.29369l14.622055 -14.622047l0 43.86615l-14.622055 14.62204z" fill-rule="evenodd"></path><path fill="#ff3333" d="m114.34935 114.29369l14.62204 -14.622047l43.86615 0l-14.622055 14.622047z" fill-rule="evenodd"></path><path fill="#000000" fill-opacity="0.0" d="m114.34935 114.29369l14.62204 -14.622047l43.86615 0l0 43.86615l-14.622055 14.62204l-43.866135 0zm0 0l43.866135 0l14.622055 -14.622047m-14.622055 14.622047l0 43.866142" fill-rule="evenodd"></path><path stroke="#000000" stroke-width="1.0" stroke-linejoin="round" stroke-linecap="butt" d="m114.34935 114.29369l14.62204 -14.622047l43.86615 0l0 43.86615l-14.622055 14.62204l-43.866135 0zm0 0l43.866135 0l14.622055 -14.622047m-14.622055 14.622047l0 43.866142" fill-rule="evenodd"></path><path fill="#d9ead3" d="m158.10748 114.29369l43.866135 0l0 43.866142l-43.866135 0z" fill-rule="evenodd"></path><path fill="#adbba8" d="m201.97362 114.29369l14.622055 -14.622047l0 43.86615l-14.622055 14.62204z" fill-rule="evenodd"></path><path fill="#e0eedb" d="m158.10748 114.29369l14.62204 -14.622047l43.86615 0l-14.622055 14.622047z" fill-rule="evenodd"></path><path fill="#000000" fill-opacity="0.0" d="m158.10748 114.29369l14.62204 -14.622047l43.86615 0l0 43.86615l-14.622055 14.62204l-43.866135 0zm0 0l43.866135 0l14.622055 -14.622047m-14.622055 14.622047l0 43.866142" fill-rule="evenodd"></path><path stroke="#000000" stroke-width="1.0" stroke-linejoin="round" stroke-linecap="butt" d="m158.10748 114.29369l14.62204 -14.622047l43.86615 0l0 43.86615l-14.622055 14.62204l-43.866135 0zm0 0l43.866135 0l14.622055 -14.622047m-14.622055 14.622047l0 43.866142" fill-rule="evenodd"></path><path fill="#d9d9d9" fill-opacity="0.8314" d="m202.00014 114.29396l43.866135 0l0 43.86615l-43.866135 0z" fill-rule="evenodd"></path><path fill="#adadad" fill-opacity="0.8314" d="m245.86627 114.29396l14.62204 -14.622047l0 43.866142l-14.62204 14.622055z" fill-rule="evenodd"></path><path fill="#e0e0e0" fill-opacity="0.8314" d="m202.00014 114.29396l14.62204 -14.622047l43.866135 0l-14.62204 14.622047z" fill-rule="evenodd"></path><path fill="#000000" fill-opacity="0.0" d="m202.00014 114.29396l14.62204 -14.622047l43.866135 0l0 43.866142l-14.62204 14.622055l-43.866135 0zm0 0l43.866135 0l14.62204 -14.622047m-14.62204 14.622047l0 43.86615" fill-rule="evenodd"></path><path stroke="#000000" stroke-width="1.0" stroke-linejoin="round" stroke-linecap="butt" stroke-dasharray="1.0,3.0" d="m202.00014 114.29396l14.62204 -14.622047l43.866135 0l0 43.866142l-14.62204 14.622055l-43.866135 0zm0 0l43.866135 0l14.62204 -14.622047m-14.62204 14.622047l0 43.86615" fill-rule="evenodd"></path><path fill="#000000" fill-opacity="0.0" d="m69.95538 64.616714l175.39369 0l0 176.05511l-175.39369 0z" fill-rule="evenodd"></path><path fill="#000000" fill-opacity="0.0" d="m245.34908 64.616714l58.464584 -58.464565l0 176.05511l-58.464584 58.46457z" fill-rule="evenodd"></path><path fill="#000000" fill-opacity="0.0" d="m69.95538 64.616714l58.46457 -58.464565l175.3937 0l-58.464584 58.464565z" fill-rule="evenodd"></path><path fill="#000000" fill-opacity="0.0" d="m69.95538 64.616714l58.46457 -58.464565l175.3937 0l0 176.05511l-58.464584 58.46457l-175.39369 0zm0 0l175.39369 0l58.464584 -58.464565m-58.464584 58.464565l0 176.05511" fill-rule="evenodd"></path><path fill="#000000" fill-opacity="0.2" d="m245.34908 64.616714l58.464584 -58.464565l0 176.05511l-58.464584 58.46457z" fill-rule="evenodd"></path><path fill="#ffffff" fill-opacity="0.2" d="m69.95538 64.616714l58.46457 -58.464565l175.3937 0l-58.464584 58.464565z" fill-rule="evenodd"></path><path stroke="#000000" stroke-width="1.0" stroke-linejoin="round" stroke-linecap="butt" d="m69.95538 64.616714l58.46457 -58.464565l175.3937 0l0 176.05511l-58.464584 58.46457l-175.39369 0zm0 0l175.39369 0l58.464584 -58.464565m-58.464584 58.464565l0 176.05511" fill-rule="evenodd"></path></g></svg>

