<?xml version="1.0" standalone="yes"?>

<svg version="1.1" viewBox="0.0 0.0 309.3307086614173 256.09448818897636" fill="none" stroke="none" stroke-linecap="square" stroke-miterlimit="10" xmlns="http://www.w3.org/2000/svg" xmlns:xlink="http://www.w3.org/1999/xlink"><clipPath id="p.0"><path d="m0 0l309.33072 0l0 256.09448l-309.33072 0l0 -256.09448z" clip-rule="nonzero"></path></clipPath><g clip-path="url(#p.0)"><path fill="#000000" fill-opacity="0.0" d="m0 0l309.33072 0l0 256.09448l-309.33072 0z" fill-rule="evenodd"></path><path fill="#000000" fill-opacity="0.0" d="m72.27821 76.89501l175.13387 0l0 176.14172l-175.13387 0z" fill-rule="evenodd"></path><path fill="#000000" fill-opacity="0.0" d="m247.41208 76.89501l58.37796 -58.377953l0 176.14174l-58.37796 58.377945z" fill-rule="evenodd"></path><path fill="#000000" fill-opacity="0.0" d="m72.27821 76.89501l58.37796 -58.377953l175.13387 0l-58.37796 58.377953z" fill-rule="evenodd"></path><path fill="#000000" fill-opacity="0.0" d="m72.27821 76.89501l58.37796 -58.377953l175.13387 0l0 176.14174l-58.37796 58.377945l-175.13387 0zm0 0l175.13387 0l58.37796 -58.377953m-58.37796 58.377953l0 176.14172" fill-rule="evenodd"></path><path fill="#000000" fill-opacity="0.2" d="m247.41208 76.89501l58.37796 -58.377953l0 176.14174l-58.37796 58.377945z" fill-rule="evenodd"></path><path fill="#ffffff" fill-opacity="0.2" d="m72.27821 76.89501l58.37796 -58.377953l175.13387 0l-58.37796 58.377953z" fill-rule="evenodd"></path><path stroke="#000000" stroke-width="1.0" stroke-linejoin="round" stroke-linecap="butt" d="m72.27821 76.89501l58.37796 -58.377953l175.13387 0l0 176.14174l-58.37796 58.377945l-175.13387 0zm0 0l175.13387 0l58.37796 -58.377953m-58.37796 58.377953l0 176.14172" fill-rule="evenodd"></path><path fill="#d9d9d9" fill-opacity="0.8346" d="m115.38055 77.13967l43.8442 0l0 43.87345l-43.8442 0z" fill-rule="evenodd"></path><path fill="#adadad" fill-opacity="0.8346" d="m159.22475 77.13967l14.614746 -14.614738l0 43.87345l-14.614746 14.614738z" fill-rule="evenodd"></path><path fill="#e0e0e0" fill-opacity="0.8346" d="m115.38055 77.13967l14.614738 -14.614738l43.844208 0l-14.614746 14.614738z" fill-rule="evenodd"></path><path fill="#000000" fill-opacity="0.0" d="m115.38055 77.13967l14.614738 -14.614738l43.844208 0l0 43.87345l-14.614746 14.614738l-43.8442 0zm0 0l43.8442 0l14.614746 -14.614738m-14.614746 14.614738l0 43.87345" fill-rule="evenodd"></path><path stroke="#000000" stroke-width="1.0" stroke-linejoin="round" stroke-linecap="butt" stroke-dasharray="1.0,3.0" d="m115.38055 77.13967l14.614738 -14.614738l43.844208 0l0 43.87345l-14.614746 14.614738l-43.8442 0zm0 0l43.8442 0l14.614746 -14.614738m-14.614746 14.614738l0 43.87345" fill-rule="evenodd"></path><path fill="#d9d9d9" fill-opacity="0.8346" d="m101.28523 91.57799l43.844208 0l0 43.87346l-43.844208 0z" fill-rule="evenodd"></path><path fill="#adadad" fill-opacity="0.8346" d="m145.12944 91.57799l14.614731 -14.614731l0 43.87345l-14.614731 14.614738z" fill-rule="evenodd"></path><path fill="#e0e0e0" fill-opacity="0.8346" d="m101.28523 91.57799l14.614738 -14.614731l43.8442 0l-14.614731 14.614731z" fill-rule="evenodd"></path><path fill="#000000" fill-opacity="0.0" d="m101.28523 91.57799l14.614738 -14.614731l43.8442 0l0 43.87345l-14.614731 14.614738l-43.844208 0zm0 0l43.844208 0l14.614731 -14.614731m-14.614731 14.614731l0 43.87346" fill-rule="evenodd"></path><path stroke="#000000" stroke-width="1.0" stroke-linejoin="round" stroke-linecap="butt" stroke-dasharray="1.0,3.0" d="m101.28523 91.57799l14.614738 -14.614731l43.8442 0l0 43.87345l-14.614731 14.614738l-43.844208 0zm0 0l43.844208 0l14.614731 -14.614731m-14.614731 14.614731l0 43.87346" fill-rule="evenodd"></path><path fill="#d9d9d9" fill-opacity="0.8346" d="m158.99915 77.13967l43.844208 0l0 43.87345l-43.844208 0z" fill-rule="evenodd"></path><path fill="#adadad" fill-opacity="0.8346" d="m202.84335 77.13967l14.614731 -14.614738l0 43.87345l-14.614731 14.614738z" fill-rule="evenodd"></path><path fill="#e0e0e0" fill-opacity="0.8346" d="m158.99915 77.13967l14.614731 -14.614738l43.844208 0l-14.614731 14.614738z" fill-rule="evenodd"></path><path fill="#000000" fill-opacity="0.0" d="m158.99915 77.13967l14.614731 -14.614738l43.844208 0l0 43.87345l-14.614731 14.614738l-43.844208 0zm0 0l43.844208 0l14.614731 -14.614738m-14.614731 14.614738l0 43.87345" fill-rule="evenodd"></path><path stroke="#000000" stroke-width="1.0" stroke-linejoin="round" stroke-linecap="butt" stroke-dasharray="1.0,3.0" d="m158.99915 77.13967l14.614731 -14.614738l43.844208 0l0 43.87345l-14.614731 14.614738l-43.844208 0zm0 0l43.844208 0l14.614731 -14.614738m-14.614731 14.614738l0 43.87345" fill-rule="evenodd"></path><path fill="#d9d9d9" fill-opacity="0.8346" d="m144.83826 91.57799l43.844208 0l0 43.87346l-43.844208 0z" fill-rule="evenodd"></path><path fill="#adadad" fill-opacity="0.8346" d="m188.68246 91.57799l14.614731 -14.614731l0 43.87345l-14.614731 14.614738z" fill-rule="evenodd"></path><path fill="#e0e0e0" fill-opacity="0.8346" d="m144.83826 91.57799l14.614731 -14.614731l43.844208 0l-14.614731 14.614731z" fill-rule="evenodd"></path><path fill="#000000" fill-opacity="0.0" d="m144.83826 91.57799l14.614731 -14.614731l43.844208 0l0 43.87345l-14.614731 14.614738l-43.844208 0zm0 0l43.844208 0l14.614731 -14.614731m-14.614731 14.614731l0 43.87346" fill-rule="evenodd"></path><path stroke="#000000" stroke-width="1.0" stroke-linejoin="round" stroke-linecap="butt" stroke-dasharray="1.0,3.0" d="m144.83826 91.57799l14.614731 -14.614731l43.844208 0l0 43.87345l-14.614731 14.614738l-43.844208 0zm0 0l43.844208 0l14.614731 -14.614731m-14.614731 14.614731l0 43.87346" fill-rule="evenodd"></path><path fill="#d9d9d9" fill-opacity="0.8346" d="m86.52359 106.1108l43.844208 0l0 43.87345l-43.844208 0z" fill-rule="evenodd"></path><path fill="#adadad" fill-opacity="0.8346" d="m130.3678 106.1108l14.614731 -14.614738l0 43.87346l-14.614731 14.614731z" fill-rule="evenodd"></path><path fill="#e0e0e0" fill-opacity="0.8346" d="m86.52359 106.1108l14.614738 -14.614738l43.8442 0l-14.614731 14.614738z" fill-rule="evenodd"></path><path fill="#000000" fill-opacity="0.0" d="m86.52359 106.1108l14.614738 -14.614738l43.8442 0l0 43.87346l-14.614731 14.614731l-43.844208 0zm0 0l43.844208 0l14.614731 -14.614738m-14.614731 14.614738l0 43.87345" fill-rule="evenodd"></path><path stroke="#000000" stroke-width="1.0" stroke-linejoin="round" stroke-linecap="butt" stroke-dasharray="1.0,3.0" d="m86.52359 106.1108l14.614738 -14.614738l43.8442 0l0 43.87346l-14.614731 14.614731l-43.844208 0zm0 0l43.844208 0l14.614731 -14.614738m-14.614731 14.614738l0 43.87345" fill-rule="evenodd"></path><path fill="#d9d9d9" fill-opacity="0.8346" d="m72.428276 120.54912l43.844208 0l0 43.87346l-43.844208 0z" fill-rule="evenodd"></path><path fill="#adadad" fill-opacity="0.8346" d="m116.272484 120.54912l14.614738 -14.614738l0 43.87345l-14.614738 14.614746z" fill-rule="evenodd"></path><path fill="#e0e0e0" fill-opacity="0.8346" d="m72.428276 120.54912l14.614738 -14.614738l43.844208 0l-14.614738 14.614738z" fill-rule="evenodd"></path><path fill="#000000" fill-opacity="0.0" d="m72.428276 120.54912l14.614738 -14.614738l43.844208 0l0 43.87345l-14.614738 14.614746l-43.844208 0zm0 0l43.844208 0l14.614738 -14.614738m-14.614738 14.614738l0 43.87346" fill-rule="evenodd"></path><path stroke="#000000" stroke-width="1.0" stroke-linejoin="round" stroke-linecap="butt" stroke-dasharray="1.0,3.0" d="m72.428276 120.54912l14.614738 -14.614738l43.844208 0l0 43.87345l-14.614738 14.614746l-43.844208 0zm0 0l43.844208 0l14.614738 -14.614738m-14.614738 14.614738l0 43.87346" fill-rule="evenodd"></path><path fill="#d9d9d9" fill-opacity="0.8346" d="m130.1422 106.1108l43.844208 0l0 43.87345l-43.844208 0z" fill-rule="evenodd"></path><path fill="#adadad" fill-opacity="0.8346" d="m173.9864 106.1108l14.614731 -14.614738l0 43.87346l-14.614731 14.614731z" fill-rule="evenodd"></path><path fill="#e0e0e0" fill-opacity="0.8346" d="m130.1422 106.1108l14.614731 -14.614738l43.844208 0l-14.614731 14.614738z" fill-rule="evenodd"></path><path fill="#000000" fill-opacity="0.0" d="m130.1422 106.1108l14.614731 -14.614738l43.844208 0l0 43.87346l-14.614731 14.614731l-43.844208 0zm0 0l43.844208 0l14.614731 -14.614738m-14.614731 14.614738l0 43.87345" fill-rule="evenodd"></path><path stroke="#000000" stroke-width="1.0" stroke-linejoin="round" stroke-linecap="butt" stroke-dasharray="1.0,3.0" d="m130.1422 106.1108l14.614731 -14.614738l43.844208 0l0 43.87346l-14.614731 14.614731l-43.844208 0zm0 0l43.844208 0l14.614731 -14.614738m-14.614731 14.614738l0 43.87345" fill-rule="evenodd"></path><path fill="#d9d9d9" fill-opacity="0.8346" d="m115.98129 120.54912l43.844208 0l0 43.87346l-43.844208 0z" fill-rule="evenodd"></path><path fill="#adadad" fill-opacity="0.8346" d="m159.8255 120.54912l14.614746 -14.614738l0 43.87345l-14.614746 14.614746z" fill-rule="evenodd"></path><path fill="#e0e0e0" fill-opacity="0.8346" d="m115.98129 120.54912l14.614731 -14.614738l43.844223 0l-14.614746 14.614738z" fill-rule="evenodd"></path><path fill="#000000" fill-opacity="0.0" d="m115.98129 120.54912l14.614731 -14.614738l43.844223 0l0 43.87345l-14.614746 14.614746l-43.844208 0zm0 0l43.844208 0l14.614746 -14.614738m-14.614746 14.614738l0 43.87346" fill-rule="evenodd"></path><path stroke="#000000" stroke-width="1.0" stroke-linejoin="round" stroke-linecap="butt" stroke-dasharray="1.0,3.0" d="m115.98129 120.54912l14.614731 -14.614738l43.844223 0l0 43.87345l-14.614746 14.614746l-43.844208 0zm0 0l43.844208 0l14.614746 -14.614738m-14.614746 14.614738l0 43.87346" fill-rule="evenodd"></path><path fill="#d9d9d9" fill-opacity="0.8346" d="m203.28609 77.14698l43.86615 0l0 43.866142l-43.86615 0z" fill-rule="evenodd"></path><path fill="#adadad" fill-opacity="0.8346" d="m247.15224 77.14698l14.622055 -14.622047l0 43.866142l-14.622055 14.622047z" fill-rule="evenodd"></path><path fill="#e0e0e0" fill-opacity="0.8346" d="m203.28609 77.14698l14.622055 -14.622047l43.86615 0l-14.622055 14.622047z" fill-rule="evenodd"></path><path fill="#000000" fill-opacity="0.0" d="m203.28609 77.14698l14.622055 -14.622047l43.86615 0l0 43.866142l-14.622055 14.622047l-43.86615 0zm0 0l43.86615 0l14.622055 -14.622047m-14.622055 14.622047l0 43.866142" fill-rule="evenodd"></path><path stroke="#000000" stroke-width="1.0" stroke-linejoin="round" stroke-linecap="butt" stroke-dasharray="1.0,3.0" d="m203.28609 77.14698l14.622055 -14.622047l43.86615 0l0 43.866142l-14.622055 14.622047l-43.86615 0zm0 0l43.86615 0l14.622055 -14.622047m-14.622055 14.622047l0 43.866142" fill-rule="evenodd"></path><path fill="#d9d9d9" fill-opacity="0.8346" d="m189.18373 91.585304l43.866135 0l0 43.866142l-43.866135 0z" fill-rule="evenodd"></path><path fill="#adadad" fill-opacity="0.8346" d="m233.04987 91.585304l14.622055 -14.622047l0 43.866142l-14.622055 14.622047z" fill-rule="evenodd"></path><path fill="#e0e0e0" fill-opacity="0.8346" d="m189.18373 91.585304l14.62204 -14.622047l43.86615 0l-14.622055 14.622047z" fill-rule="evenodd"></path><path fill="#000000" fill-opacity="0.0" d="m189.18373 91.585304l14.62204 -14.622047l43.86615 0l0 43.866142l-14.622055 14.622047l-43.866135 0zm0 0l43.866135 0l14.622055 -14.622047m-14.622055 14.622047l0 43.866142" fill-rule="evenodd"></path><path stroke="#000000" stroke-width="1.0" stroke-linejoin="round" stroke-linecap="butt" stroke-dasharray="1.0,3.0" d="m189.18373 91.585304l14.62204 -14.622047l43.86615 0l0 43.866142l-14.622055 14.622047l-43.866135 0zm0 0l43.866135 0l14.622055 -14.622047m-14.622055 14.622047l0 43.866142" fill-rule="evenodd"></path><path fill="#d9d9d9" fill-opacity="0.8346" d="m246.92651 77.14698l43.86615 0l0 43.866142l-43.86615 0z" fill-rule="evenodd"></path><path fill="#adadad" fill-opacity="0.8346" d="m290.79266 77.14698l14.62204 -14.622047l0 43.866142l-14.62204 14.622047z" fill-rule="evenodd"></path><path fill="#e0e0e0" fill-opacity="0.8346" d="m246.92651 77.14698l14.62204 -14.622047l43.86615 0l-14.62204 14.622047z" fill-rule="evenodd"></path><path fill="#000000" fill-opacity="0.0" d="m246.92651 77.14698l14.62204 -14.622047l43.86615 0l0 43.866142l-14.62204 14.622047l-43.86615 0zm0 0l43.86615 0l14.62204 -14.622047m-14.62204 14.622047l0 43.866142" fill-rule="evenodd"></path><path stroke="#000000" stroke-width="1.0" stroke-linejoin="round" stroke-linecap="butt" stroke-dasharray="1.0,3.0" d="m246.92651 77.14698l14.62204 -14.622047l43.86615 0l0 43.866142l-14.62204 14.622047l-43.86615 0zm0 0l43.86615 0l14.62204 -14.622047m-14.62204 14.622047l0 43.866142" fill-rule="evenodd"></path><path fill="#d9d9d9" fill-opacity="0.8346" d="m232.75853 91.585304l43.866135 0l0 43.866142l-43.866135 0z" fill-rule="evenodd"></path><path fill="#adadad" fill-opacity="0.8346" d="m276.62466 91.585304l14.62204 -14.622047l0 43.866142l-14.62204 14.622047z" fill-rule="evenodd"></path><path fill="#e0e0e0" fill-opacity="0.8346" d="m232.75853 91.585304l14.622055 -14.622047l43.86612 0l-14.62204 14.622047z" fill-rule="evenodd"></path><path fill="#000000" fill-opacity="0.0" d="m232.75853 91.585304l14.622055 -14.622047l43.86612 0l0 43.866142l-14.62204 14.622047l-43.866135 0zm0 0l43.866135 0l14.62204 -14.622047m-14.62204 14.622047l0 43.866142" fill-rule="evenodd"></path><path stroke="#000000" stroke-width="1.0" stroke-linejoin="round" stroke-linecap="butt" stroke-dasharray="1.0,3.0" d="m232.75853 91.585304l14.622055 -14.622047l43.86612 0l0 43.866142l-14.62204 14.622047l-43.866135 0zm0 0l43.866135 0l14.62204 -14.622047m-14.62204 14.622047l0 43.866142" fill-rule="evenodd"></path><path fill="#d9d9d9" fill-opacity="0.8346" d="m174.4147 106.11811l43.866135 0l0 43.866142l-43.866135 0z" fill-rule="evenodd"></path><path fill="#adadad" fill-opacity="0.8346" d="m218.28084 106.11811l14.622055 -14.622047l0 43.866135l-14.622055 14.622055z" fill-rule="evenodd"></path><path fill="#e0e0e0" fill-opacity="0.8346" d="m174.4147 106.11811l14.62204 -14.622047l43.86615 0l-14.622055 14.622047z" fill-rule="evenodd"></path><path fill="#000000" fill-opacity="0.0" d="m174.4147 106.11811l14.62204 -14.622047l43.86615 0l0 43.866135l-14.622055 14.622055l-43.866135 0zm0 0l43.866135 0l14.622055 -14.622047m-14.622055 14.622047l0 43.866142" fill-rule="evenodd"></path><path stroke="#000000" stroke-width="1.0" stroke-linejoin="round" stroke-linecap="butt" stroke-dasharray="1.0,3.0" d="m174.4147 106.11811l14.62204 -14.622047l43.86615 0l0 43.866135l-14.622055 14.622055l-43.866135 0zm0 0l43.866135 0l14.622055 -14.622047m-14.622055 14.622047l0 43.866142" fill-rule="evenodd"></path><path fill="#d9d9d9" fill-opacity="0.8346" d="m160.31233 120.55643l43.86615 0l0 43.86615l-43.86615 0z" fill-rule="evenodd"></path><path fill="#adadad" fill-opacity="0.8346" d="m204.17848 120.55643l14.62204 -14.622047l0 43.866142l-14.62204 14.622055z" fill-rule="evenodd"></path><path fill="#e0e0e0" fill-opacity="0.8346" d="m160.31233 120.55643l14.622055 -14.622047l43.866135 0l-14.62204 14.622047z" fill-rule="evenodd"></path><path fill="#000000" fill-opacity="0.0" d="m160.31233 120.55643l14.622055 -14.622047l43.866135 0l0 43.866142l-14.62204 14.622055l-43.86615 0zm0 0l43.86615 0l14.62204 -14.622047m-14.62204 14.622047l0 43.86615" fill-rule="evenodd"></path><path stroke="#000000" stroke-width="1.0" stroke-linejoin="round" stroke-linecap="butt" stroke-dasharray="1.0,3.0" d="m160.31233 120.55643l14.622055 -14.622047l43.866135 0l0 43.866142l-14.62204 14.622055l-43.86615 0zm0 0l43.86615 0l14.62204 -14.622047m-14.62204 14.622047l0 43.86615" fill-rule="evenodd"></path><path fill="#d9d9d9" fill-opacity="0.8346" d="m218.05511 106.11811l43.86615 0l0 43.866142l-43.86615 0z" fill-rule="evenodd"></path><path fill="#adadad" fill-opacity="0.8346" d="m261.92126 106.11811l14.62204 -14.622047l0 43.866135l-14.62204 14.622055z" fill-rule="evenodd"></path><path fill="#e0e0e0" fill-opacity="0.8346" d="m218.05511 106.11811l14.622055 -14.622047l43.866135 0l-14.62204 14.622047z" fill-rule="evenodd"></path><path fill="#000000" fill-opacity="0.0" d="m218.05511 106.11811l14.622055 -14.622047l43.866135 0l0 43.866135l-14.62204 14.622055l-43.86615 0zm0 0l43.86615 0l14.62204 -14.622047m-14.62204 14.622047l0 43.866142" fill-rule="evenodd"></path><path stroke="#000000" stroke-width="1.0" stroke-linejoin="round" stroke-linecap="butt" stroke-dasharray="1.0,3.0" d="m218.05511 106.11811l14.622055 -14.622047l43.866135 0l0 43.866135l-14.62204 14.622055l-43.86615 0zm0 0l43.86615 0l14.62204 -14.622047m-14.62204 14.622047l0 43.866142" fill-rule="evenodd"></path><path fill="#d9d9d9" fill-opacity="0.8346" d="m203.88715 120.55643l43.866135 0l0 43.86615l-43.866135 0z" fill-rule="evenodd"></path><path fill="#adadad" fill-opacity="0.8346" d="m247.75328 120.55643l14.622055 -14.622047l0 43.866142l-14.622055 14.622055z" fill-rule="evenodd"></path><path fill="#e0e0e0" fill-opacity="0.8346" d="m203.88715 120.55643l14.62204 -14.622047l43.86615 0l-14.622055 14.622047z" fill-rule="evenodd"></path><path fill="#000000" fill-opacity="0.0" d="m203.88715 120.55643l14.62204 -14.622047l43.86615 0l0 43.866142l-14.622055 14.622055l-43.866135 0zm0 0l43.866135 0l14.622055 -14.622047m-14.622055 14.622047l0 43.86615" fill-rule="evenodd"></path><path stroke="#000000" stroke-width="1.0" stroke-linejoin="round" stroke-linecap="butt" stroke-dasharray="1.0,3.0" d="m203.88715 120.55643l14.62204 -14.622047l43.86615 0l0 43.866142l-14.622055 14.622055l-43.866135 0zm0 0l43.866135 0l14.622055 -14.622047m-14.622055 14.622047l0 43.86615" fill-rule="evenodd"></path><path fill="#d9d9d9" fill-opacity="0.8346" d="m115.53543 33.335957l43.86615 0l0 43.866146l-43.86615 0z" fill-rule="evenodd"></path><path fill="#adadad" fill-opacity="0.8346" d="m159.40158 33.335957l14.62204 -14.6220455l0 43.866142l-14.62204 14.622051z" fill-rule="evenodd"></path><path fill="#e0e0e0" fill-opacity="0.8346" d="m115.53543 33.335957l14.622055 -14.6220455l43.866135 0l-14.62204 14.6220455z" fill-rule="evenodd"></path><path fill="#000000" fill-opacity="0.0" d="m115.53543 33.335957l14.622055 -14.6220455l43.866135 0l0 43.866142l-14.62204 14.622051l-43.86615 0zm0 0l43.86615 0l14.62204 -14.6220455m-14.62204 14.6220455l0 43.866146" fill-rule="evenodd"></path><path stroke="#000000" stroke-width="1.0" stroke-linejoin="round" stroke-linecap="butt" stroke-dasharray="1.0,3.0" d="m115.53543 33.335957l14.622055 -14.6220455l43.866135 0l0 43.866142l-14.62204 14.622051l-43.86615 0zm0 0l43.86615 0l14.62204 -14.6220455m-14.62204 14.6220455l0 43.866146" fill-rule="evenodd"></path><path fill="#d9d9d9" fill-opacity="0.8346" d="m101.43307 47.774277l43.866142 0l0 43.866142l-43.866142 0z" fill-rule="evenodd"></path><path fill="#adadad" fill-opacity="0.8346" d="m145.29921 47.774277l14.622055 -14.622047l0 43.866142l-14.622055 14.622047z" fill-rule="evenodd"></path><path fill="#e0e0e0" fill-opacity="0.8346" d="m101.43307 47.774277l14.622047 -14.622047l43.86615 0l-14.622055 14.622047z" fill-rule="evenodd"></path><path fill="#000000" fill-opacity="0.0" d="m101.43307 47.774277l14.622047 -14.622047l43.86615 0l0 43.866142l-14.622055 14.622047l-43.866142 0zm0 0l43.866142 0l14.622055 -14.622047m-14.622055 14.622047l0 43.866142" fill-rule="evenodd"></path><path stroke="#000000" stroke-width="1.0" stroke-linejoin="round" stroke-linecap="butt" stroke-dasharray="1.0,3.0" d="m101.43307 47.774277l14.622047 -14.622047l43.86615 0l0 43.866142l-14.622055 14.622047l-43.866142 0zm0 0l43.866142 0l14.622055 -14.622047m-14.622055 14.622047l0 43.866142" fill-rule="evenodd"></path><path fill="#d9d9d9" fill-opacity="0.8346" d="m159.17586 33.335957l43.866135 0l0 43.866146l-43.866135 0z" fill-rule="evenodd"></path><path fill="#adadad" fill-opacity="0.8346" d="m203.04199 33.335957l14.622055 -14.6220455l0 43.866142l-14.622055 14.622051z" fill-rule="evenodd"></path><path fill="#e0e0e0" fill-opacity="0.8346" d="m159.17586 33.335957l14.62204 -14.6220455l43.86615 0l-14.622055 14.6220455z" fill-rule="evenodd"></path><path fill="#000000" fill-opacity="0.0" d="m159.17586 33.335957l14.62204 -14.6220455l43.86615 0l0 43.866142l-14.622055 14.622051l-43.866135 0zm0 0l43.866135 0l14.622055 -14.6220455m-14.622055 14.6220455l0 43.866146" fill-rule="evenodd"></path><path stroke="#000000" stroke-width="1.0" stroke-linejoin="round" stroke-linecap="butt" stroke-dasharray="1.0,3.0" d="m159.17586 33.335957l14.62204 -14.6220455l43.86615 0l0 43.866142l-14.622055 14.622051l-43.866135 0zm0 0l43.866135 0l14.622055 -14.6220455m-14.622055 14.6220455l0 43.866146" fill-rule="evenodd"></path><path fill="#d9d9d9" fill-opacity="0.8346" d="m145.00787 47.774277l43.866135 0l0 43.866142l-43.866135 0z" fill-rule="evenodd"></path><path fill="#adadad" fill-opacity="0.8346" d="m188.87401 47.774277l14.622055 -14.622047l0 43.866142l-14.622055 14.622047z" fill-rule="evenodd"></path><path fill="#e0e0e0" fill-opacity="0.8346" d="m145.00787 47.774277l14.622055 -14.622047l43.866135 0l-14.622055 14.622047z" fill-rule="evenodd"></path><path fill="#000000" fill-opacity="0.0" d="m145.00787 47.774277l14.622055 -14.622047l43.866135 0l0 43.866142l-14.622055 14.622047l-43.866135 0zm0 0l43.866135 0l14.622055 -14.622047m-14.622055 14.622047l0 43.866142" fill-rule="evenodd"></path><path stroke="#000000" stroke-width="1.0" stroke-linejoin="round" stroke-linecap="butt" stroke-dasharray="1.0,3.0" d="m145.00787 47.774277l14.622055 -14.622047l43.866135 0l0 43.866142l-14.622055 14.622047l-43.866135 0zm0 0l43.866135 0l14.622055 -14.622047m-14.622055 14.622047l0 43.866142" fill-rule="evenodd"></path><path fill="#d9d9d9" fill-opacity="0.8346" d="m86.66404 62.307087l43.866142 0l0 43.86614l-43.866142 0z" fill-rule="evenodd"></path><path fill="#adadad" fill-opacity="0.8346" d="m130.53018 62.307087l14.622055 -14.622047l0 43.86614l-14.622055 14.622047z" fill-rule="evenodd"></path><path fill="#e0e0e0" fill-opacity="0.8346" d="m86.66404 62.307087l14.622047 -14.622047l43.86615 0l-14.622055 14.622047z" fill-rule="evenodd"></path><path fill="#000000" fill-opacity="0.0" d="m86.66404 62.307087l14.622047 -14.622047l43.86615 0l0 43.86614l-14.622055 14.622047l-43.866142 0zm0 0l43.866142 0l14.622055 -14.622047m-14.622055 14.622047l0 43.86614" fill-rule="evenodd"></path><path stroke="#000000" stroke-width="1.0" stroke-linejoin="round" stroke-linecap="butt" stroke-dasharray="1.0,3.0" d="m86.66404 62.307087l14.622047 -14.622047l43.86615 0l0 43.86614l-14.622055 14.622047l-43.866142 0zm0 0l43.866142 0l14.622055 -14.622047m-14.622055 14.622047l0 43.86614" fill-rule="evenodd"></path><path fill="#d9d9d9" fill-opacity="0.8346" d="m72.561676 76.74541l43.866142 0l0 43.866142l-43.866142 0z" fill-rule="evenodd"></path><path fill="#adadad" fill-opacity="0.8346" d="m116.42782 76.74541l14.622047 -14.622047l0 43.866142l-14.622047 14.622047z" fill-rule="evenodd"></path><path fill="#e0e0e0" fill-opacity="0.8346" d="m72.561676 76.74541l14.622047 -14.622047l43.866142 0l-14.622047 14.622047z" fill-rule="evenodd"></path><path fill="#000000" fill-opacity="0.0" d="m72.561676 76.74541l14.622047 -14.622047l43.866142 0l0 43.866142l-14.622047 14.622047l-43.866142 0zm0 0l43.866142 0l14.622047 -14.622047m-14.622047 14.622047l0 43.866142" fill-rule="evenodd"></path><path stroke="#000000" stroke-width="1.0" stroke-linejoin="round" stroke-linecap="butt" stroke-dasharray="1.0,3.0" d="m72.561676 76.74541l14.622047 -14.622047l43.866142 0l0 43.866142l-14.622047 14.622047l-43.866142 0zm0 0l43.866142 0l14.622047 -14.622047m-14.622047 14.622047l0 43.866142" fill-rule="evenodd"></path><path fill="#d9d9d9" fill-opacity="0.8346" d="m130.30446 62.307087l43.86615 0l0 43.86614l-43.86615 0z" fill-rule="evenodd"></path><path fill="#adadad" fill-opacity="0.8346" d="m174.17061 62.307087l14.62204 -14.622047l0 43.86614l-14.62204 14.622047z" fill-rule="evenodd"></path><path fill="#e0e0e0" fill-opacity="0.8346" d="m130.30446 62.307087l14.622055 -14.622047l43.866135 0l-14.62204 14.622047z" fill-rule="evenodd"></path><path fill="#000000" fill-opacity="0.0" d="m130.30446 62.307087l14.622055 -14.622047l43.866135 0l0 43.86614l-14.62204 14.622047l-43.86615 0zm0 0l43.86615 0l14.62204 -14.622047m-14.62204 14.622047l0 43.86614" fill-rule="evenodd"></path><path stroke="#000000" stroke-width="1.0" stroke-linejoin="round" stroke-linecap="butt" stroke-dasharray="1.0,3.0" d="m130.30446 62.307087l14.622055 -14.622047l43.866135 0l0 43.86614l-14.62204 14.622047l-43.86615 0zm0 0l43.86615 0l14.62204 -14.622047m-14.62204 14.622047l0 43.86614" fill-rule="evenodd"></path><path fill="#d9d9d9" fill-opacity="0.8346" d="m116.13648 76.74541l43.866142 0l0 43.866142l-43.866142 0z" fill-rule="evenodd"></path><path fill="#adadad" fill-opacity="0.8346" d="m160.00262 76.74541l14.62204 -14.622047l0 43.866142l-14.62204 14.622047z" fill-rule="evenodd"></path><path fill="#e0e0e0" fill-opacity="0.8346" d="m116.13648 76.74541l14.622047 -14.622047l43.866135 0l-14.62204 14.622047z" fill-rule="evenodd"></path><path fill="#000000" fill-opacity="0.0" d="m116.13648 76.74541l14.622047 -14.622047l43.866135 0l0 43.866142l-14.62204 14.622047l-43.866142 0zm0 0l43.866142 0l14.62204 -14.622047m-14.62204 14.622047l0 43.866142" fill-rule="evenodd"></path><path stroke="#000000" stroke-width="1.0" stroke-linejoin="round" stroke-linecap="butt" stroke-dasharray="1.0,3.0" d="m116.13648 76.74541l14.622047 -14.622047l43.866135 0l0 43.866142l-14.62204 14.622047l-43.866142 0zm0 0l43.866142 0l14.62204 -14.622047m-14.62204 14.622047l0 43.866142" fill-rule="evenodd"></path><path fill="#000000" fill-opacity="0.0" d="m-108.13386 -11.448819l305.03937 0l0 26.551182l-305.03937 0z" fill-rule="evenodd"></path><path fill="#000000" d="m47.022697 8.895556l1.515625 0.375q-0.46875 1.875 -1.71875 2.859375q-1.234375 0.984375 -3.015625 0.984375q-1.859375 0 -3.015625 -0.75q-1.15625 -0.765625 -1.765625 -2.1875q-0.609375 -1.4375 -0.609375 -3.0781245q0 -1.796875 0.6875 -3.1250002q0.6875 -1.328125 1.9375 -2.015625q1.265625 -0.703125 2.78125 -0.703125q1.71875 0 2.890625 0.875q1.171875 0.875 1.640625 2.4687502l-1.5 0.34375q-0.390625 -1.2500002 -1.15625 -1.8125002q-0.75 -0.578125 -1.90625 -0.578125q-1.3125 0 -2.203125 0.640625q-0.890625 0.625 -1.25 1.7031252q-0.359375 1.0625 -0.359375 2.1875q0 1.4687495 0.421875 2.5624995q0.4375 1.078125 1.328125 1.625q0.90625 0.53125 1.953125 0.53125q1.265625 0 2.140625 -0.734375q0.890625 -0.734375 1.203125 -2.171875zm8.6171875 2.984375q-0.78125 0.671875 -1.5 0.953125q-0.71875 0.265625 -1.546875 0.265625q-1.375 0 -2.109375 -0.671875q-0.734375 -0.671875 -0.734375 -1.703125q0 -0.609375 0.28125 -1.109375q0.28125 -0.515625 0.71875 -0.8125q0.453125 -0.3125 1.015625 -0.46875q0.421875 -0.109375 1.25 -0.203125q1.703125 -0.20312452 2.515625 -0.48437452q0 -0.296875 0 -0.375q0 -0.859375 -0.390625 -1.203125q-0.546875 -0.484375 -1.609375 -0.484375q-0.984375 0 -1.46875 0.359375q-0.46875 0.34375 -0.6875 1.21875l-1.375 -0.1875q0.1875 -0.875 0.609375 -1.421875q0.4375 -0.546875 1.25 -0.828125q0.8125 -0.296875 1.875 -0.296875q1.0625 0 1.71875 0.25q0.671875 0.25 0.984375 0.625q0.3125 0.375 0.4375 0.953125q0.078125 0.359375 0.078125 1.296875l0 1.8749995q0 1.96875 0.078125 2.484375q0.09375 0.515625 0.359375 1.0l-1.46875 0q-0.21875 -0.4375 -0.28125 -1.03125zm-0.109375 -3.140625q-0.765625 0.3125 -2.296875 0.53125q-0.875 0.125 -1.234375 0.28125q-0.359375 0.15625 -0.5625 0.46875q-0.1875 0.296875 -0.1875 0.65625q0 0.5625 0.421875 0.9375q0.4375 0.375 1.25 0.375q0.8125 0 1.4375 -0.34375q0.640625 -0.359375 0.9375 -0.984375q0.234375 -0.46875 0.234375 -1.40625l0 -0.515625zm3.0390625 1.6875l1.390625 -0.21875q0.109375 0.84375 0.640625 1.296875q0.546875 0.4375 1.5 0.4375q0.96875 0 1.4375 -0.390625q0.46875 -0.40625 0.46875 -0.9375q0 -0.46875 -0.40625 -0.75q-0.296875 -0.1875 -1.4375 -0.46875q-1.546875 -0.390625 -2.15625 -0.671875q-0.59375 -0.296875 -0.90625 -0.7968745q-0.296875 -0.5 -0.296875 -1.109375q0 -0.5625 0.25 -1.03125q0.25 -0.46875 0.6875 -0.78125q0.328125 -0.25 0.890625 -0.40625q0.578125 -0.171875 1.21875 -0.171875q0.984375 0 1.71875 0.28125q0.734375 0.28125 1.078125 0.765625q0.359375 0.46875 0.5 1.28125l-1.375 0.1875q-0.09375 -0.640625 -0.546875 -1.0q-0.453125 -0.359375 -1.265625 -0.359375q-0.96875 0 -1.390625 0.328125q-0.40625 0.3125 -0.40625 0.734375q0 0.28125 0.171875 0.5q0.171875 0.21875 0.53125 0.375q0.21875 0.078125 1.25 0.359375q1.484375 0.39062452 2.078125 0.6562495q0.59375 0.25 0.921875 0.734375q0.34375 0.484375 0.34375 1.203125q0 0.703125 -0.421875 1.328125q-0.40625 0.609375 -1.1875 0.953125q-0.765625 0.34375 -1.734375 0.34375q-1.625 0 -2.46875 -0.671875q-0.84375 -0.671875 -1.078125 -2.0zm14.234375 -0.1875l1.453125 0.171875q-0.34375 1.28125 -1.28125 1.984375q-0.921875 0.703125 -2.359375 0.703125q-1.828125 0 -2.890625 -1.125q-1.0625 -1.125 -1.0625 -3.140625q0 -2.0937495 1.078125 -3.2499995q1.078125 -1.15625 2.796875 -1.15625q1.65625 0 2.703125 1.140625q1.0625 1.125 1.0625 3.1718745q0 0.125 0 0.375l-6.1875 0q0.078125 1.375 0.765625 2.109375q0.703125 0.71875 1.734375 0.71875q0.78125 0 1.328125 -0.40625q0.546875 -0.40625 0.859375 -1.296875zm-4.609375 -2.2812495l4.625 0q-0.09375 -1.046875 -0.53125 -1.5625q-0.671875 -0.8125 -1.734375 -0.8125q-0.96875 0 -1.640625 0.65625q-0.65625 0.640625 -0.71875 1.71875zm17.1875 4.9531245l-1.40625 0l0 -8.96875q-0.515625 0.48437524 -1.34375 0.96875024q-0.8125 0.484375 -1.46875 0.734375l0 -1.359375q1.171875 -0.56250024 2.046875 -1.3437502q0.890625 -0.796875 1.265625 -1.53125l0.90625 0l0 11.5zm4.3828125 -6.7031245l0 -1.59375l1.59375 0l0 1.59375l-1.59375 0zm0 6.7031245l0 -1.609375l1.59375 0l0 1.609375l-1.59375 0zm7.9375 -2.484375l1.390625 -0.21875q0.109375 0.84375 0.640625 1.296875q0.546875 0.4375 1.5 0.4375q0.96875 0 1.4375 -0.390625q0.46875 -0.40625 0.46875 -0.9375q0 -0.46875 -0.40625 -0.75q-0.296875 -0.1875 -1.4375 -0.46875q-1.546875 -0.390625 -2.15625 -0.671875q-0.59375 -0.296875 -0.90625 -0.7968745q-0.296875 -0.5 -0.296875 -1.109375q0 -0.5625 0.25 -1.03125q0.25 -0.46875 0.6875 -0.78125q0.328125 -0.25 0.890625 -0.40625q0.578125 -0.171875 1.21875 -0.171875q0.984375 0 1.71875 0.28125q0.734375 0.28125 1.078125 0.765625q0.359375 0.46875 0.5 1.28125l-1.375 0.1875q-0.09375 -0.640625 -0.546875 -1.0q-0.453125 -0.359375 -1.265625 -0.359375q-0.96875 0 -1.390625 0.328125q-0.40625 0.3125 -0.40625 0.734375q0 0.28125 0.171875 0.5q0.171875 0.21875 0.53125 0.375q0.21875 0.078125 1.25 0.359375q1.484375 0.39062452 2.078125 0.6562495q0.59375 0.25 0.921875 0.734375q0.34375 0.484375 0.34375 1.203125q0 0.703125 -0.421875 1.328125q-0.40625 0.609375 -1.1875 0.953125q-0.765625 0.34375 -1.734375 0.34375q-1.625 0 -2.46875 -0.671875q-0.84375 -0.671875 -1.078125 -2.0zm14.0 2.484375l0 -1.21875q-0.96875 1.40625 -2.640625 1.40625q-0.734375 0 -1.375 -0.28125q-0.625 -0.28125 -0.9375 -0.703125q-0.3125 -0.4375 -0.4375 -1.046875q-0.078125 -0.421875 -0.078125 -1.3125l0 -5.1406245l1.40625 0l0 4.5937495q0 1.109375 0.078125 1.484375q0.140625 0.5625 0.5625 0.875q0.4375 0.3125 1.0625 0.3125q0.640625 0 1.1875 -0.3125q0.5625 -0.328125 0.78125 -0.890625q0.234375 -0.5625 0.234375 -1.625l0 -4.4374995l1.40625 0l0 8.296875l-1.25 0zm4.7578125 0l-1.3125 0l0 -11.453125l1.40625 0l0 4.078125q0.890625 -1.109375 2.28125 -1.109375q0.765625 0 1.4375 0.3125q0.6875 0.296875 1.125 0.859375q0.453125 0.5625 0.703125 1.359375q0.25 0.78125 0.25 1.6718745q0 2.140625 -1.0625 3.3125q-1.046875 1.15625 -2.53125 1.15625q-1.46875 0 -2.296875 -1.234375l0 1.046875zm-0.015625 -4.21875q0 1.5 0.40625 2.15625q0.65625 1.09375 1.796875 1.09375q0.921875 0 1.59375 -0.796875q0.671875 -0.8125 0.671875 -2.390625q0 -1.6249995 -0.65625 -2.3906245q-0.640625 -0.78125 -1.546875 -0.78125q-0.921875 0 -1.59375 0.796875q-0.671875 0.796875 -0.671875 2.3124995zm7.0703125 0.78125l0 -1.421875l4.3125 0l0 1.421875l-4.3125 0zm11.281242 0.390625l1.390625 0.1875q-0.234375 1.421875 -1.171875 2.234375q-0.921875 0.8125 -2.28125 0.8125q-1.703125 0 -2.75 -1.109375q-1.03125 -1.125 -1.03125 -3.203125q0 -1.3437495 0.4375 -2.3437495q0.453125 -1.015625 1.359375 -1.515625q0.921875 -0.5 1.984375 -0.5q1.359375 0 2.21875 0.6875q0.859375 0.671875 1.09375 1.9375l-1.359375 0.203125q-0.203125 -0.828125 -0.703125 -1.25q-0.484375 -0.421875 -1.1875 -0.421875q-1.0625 0 -1.734375 0.765625q-0.65625 0.75 -0.65625 2.4062495q0 1.671875 0.640625 2.4375q0.640625 0.75 1.671875 0.75q0.828125 0 1.375 -0.5q0.5625 -0.515625 0.703125 -1.578125zm2.0625 -1.109375q0 -2.2968745 1.28125 -3.4062495q1.078125 -0.921875 2.609375 -0.921875q1.71875 0 2.796875 1.125q1.09375 1.109375 1.09375 3.0937495q0 1.59375 -0.484375 2.515625q-0.484375 0.921875 -1.40625 1.4375q-0.90625 0.5 -2.0 0.5q-1.734375 0 -2.8125 -1.109375q-1.078125 -1.125 -1.078125 -3.234375zm1.453125 0q0 1.59375 0.6875 2.390625q0.703125 0.796875 1.75 0.796875q1.046875 0 1.734375 -0.796875q0.703125 -0.796875 0.703125 -2.4375q0 -1.5312495 -0.703125 -2.3281245q-0.6875 -0.796875 -1.734375 -0.796875q-1.046875 0 -1.75 0.796875q-0.6875 0.78125 -0.6875 2.3749995zm7.9453125 4.15625l0 -11.453125l1.40625 0l0 11.453125l-1.40625 0zm9.0234375 0l0 -1.21875q-0.96875 1.40625 -2.640625 1.40625q-0.734375 0 -1.375 -0.28125q-0.625 -0.28125 -0.9375 -0.703125q-0.3125 -0.4375 -0.4375 -1.046875q-0.078125 -0.421875 -0.078125 -1.3125l0 -5.1406245l1.40625 0l0 4.5937495q0 1.109375 0.078125 1.484375q0.140625 0.5625 0.5625 0.875q0.4375 0.3125 1.0625 0.3125q0.640625 0 1.1875 -0.3125q0.5625 -0.328125 0.78125 -0.890625q0.234375 -0.5625 0.234375 -1.625l0 -4.4374995l1.40625 0l0 8.296875l-1.25 0zm3.4609375 0l0 -8.296875l1.25 0l0 1.15625q0.390625 -0.609375 1.03125 -0.96875q0.65625 -0.375 1.484375 -0.375q0.921875 0 1.515625 0.390625q0.59375 0.375 0.828125 1.0625q0.984375 -1.453125 2.5625 -1.453125q1.234375 0 1.890625 0.6875q0.671875 0.671875 0.671875 2.09375l0 5.7031245l-1.390625 0l0 -5.2343745q0 -0.84375 -0.140625 -1.203125q-0.140625 -0.375 -0.5 -0.59375q-0.359375 -0.234375 -0.84375 -0.234375q-0.875 0 -1.453125 0.578125q-0.578125 0.578125 -0.578125 1.8593745l0 4.828125l-1.40625 0l0 -5.3906245q0 -0.9375 -0.34375 -1.40625q-0.34375 -0.46875 -1.125 -0.46875q-0.59375 0 -1.09375 0.3125q-0.5 0.3125 -0.734375 0.921875q-0.21875 0.59375 -0.21875 1.7187495l0 4.3125l-1.40625 0zm13.328125 0l0 -8.296875l1.265625 0l0 1.171875q0.90625 -1.359375 2.640625 -1.359375q0.75 0 1.375 0.265625q0.625 0.265625 0.9375 0.703125q0.3125 0.4375 0.4375 1.046875q0.078125 0.390625 0.078125 1.359375l0 5.1093745l-1.40625 0l0 -5.0468745q0 -0.859375 -0.171875 -1.28125q-0.15625 -0.4375 -0.578125 -0.6875q-0.40625 -0.25 -0.96875 -0.25q-0.90625 0 -1.5625 0.578125q-0.640625 0.5625 -0.640625 2.1562495l0 4.53125l-1.40625 0zm8.3359375 -2.484375l1.390625 -0.21875q0.109375 0.84375 0.640625 1.296875q0.546875 0.4375 1.5 0.4375q0.96875 0 1.4375 -0.390625q0.46875 -0.40625 0.46875 -0.9375q0 -0.46875 -0.40625 -0.75q-0.296875 -0.1875 -1.4375 -0.46875q-1.546875 -0.390625 -2.15625 -0.671875q-0.59375 -0.296875 -0.90625 -0.7968745q-0.296875 -0.5 -0.296875 -1.109375q0 -0.5625 0.25 -1.03125q0.25 -0.46875 0.6875 -0.78125q0.328125 -0.25 0.890625 -0.40625q0.578125 -0.171875 1.21875 -0.171875q0.984375 0 1.71875 0.28125q0.734375 0.28125 1.078125 0.765625q0.359375 0.46875 0.5 1.28125l-1.375 0.1875q-0.09375 -0.640625 -0.546875 -1.0q-0.453125 -0.359375 -1.265625 -0.359375q-0.96875 0 -1.390625 0.328125q-0.40625 0.3125 -0.40625 0.734375q0 0.28125 0.171875 0.5q0.171875 0.21875 0.53125 0.375q0.21875 0.078125 1.25 0.359375q1.484375 0.39062452 2.078125 0.6562495q0.59375 0.25 0.921875 0.734375q0.34375 0.484375 0.34375 1.203125q0 0.703125 -0.421875 1.328125q-0.40625 0.609375 -1.1875 0.953125q-0.765625 0.34375 -1.734375 0.34375q-1.625 0 -2.46875 -0.671875q-0.84375 -0.671875 -1.078125 -2.0z" fill-rule="nonzero"></path><path fill="#d9d9d9" fill-opacity="0.8346" d="m203.48557 33.335957l43.866135 0l0 43.866146l-43.866135 0z" fill-rule="evenodd"></path><path fill="#adadad" fill-opacity="0.8346" d="m247.3517 33.335957l14.622055 -14.6220455l0 43.866142l-14.622055 14.622051z" fill-rule="evenodd"></path><path fill="#e0e0e0" fill-opacity="0.8346" d="m203.48557 33.335957l14.62204 -14.6220455l43.86615 0l-14.622055 14.6220455z" fill-rule="evenodd"></path><path fill="#000000" fill-opacity="0.0" d="m203.48557 33.335957l14.62204 -14.6220455l43.86615 0l0 43.866142l-14.622055 14.622051l-43.866135 0zm0 0l43.866135 0l14.622055 -14.6220455m-14.622055 14.6220455l0 43.866146" fill-rule="evenodd"></path><path stroke="#000000" stroke-width="1.0" stroke-linejoin="round" stroke-linecap="butt" stroke-dasharray="1.0,3.0" d="m203.48557 33.335957l14.62204 -14.6220455l43.86615 0l0 43.866142l-14.622055 14.622051l-43.866135 0zm0 0l43.866135 0l14.622055 -14.6220455m-14.622055 14.6220455l0 43.866146" fill-rule="evenodd"></path><path fill="#d9d9d9" fill-opacity="0.8346" d="m189.38321 47.774277l43.866135 0l0 43.866142l-43.866135 0z" fill-rule="evenodd"></path><path fill="#adadad" fill-opacity="0.8346" d="m233.24934 47.774277l14.62204 -14.622047l0 43.866142l-14.62204 14.622047z" fill-rule="evenodd"></path><path fill="#e0e0e0" fill-opacity="0.8346" d="m189.38321 47.774277l14.62204 -14.622047l43.866135 0l-14.62204 14.622047z" fill-rule="evenodd"></path><path fill="#000000" fill-opacity="0.0" d="m189.38321 47.774277l14.62204 -14.622047l43.866135 0l0 43.866142l-14.62204 14.622047l-43.866135 0zm0 0l43.866135 0l14.62204 -14.622047m-14.62204 14.622047l0 43.866142" fill-rule="evenodd"></path><path stroke="#000000" stroke-width="1.0" stroke-linejoin="round" stroke-linecap="butt" stroke-dasharray="1.0,3.0" d="m189.38321 47.774277l14.62204 -14.622047l43.866135 0l0 43.866142l-14.62204 14.622047l-43.866135 0zm0 0l43.866135 0l14.62204 -14.622047m-14.62204 14.622047l0 43.866142" fill-rule="evenodd"></path><path fill="#d9d9d9" fill-opacity="0.8346" d="m247.12599 33.335957l43.866135 0l0 43.866146l-43.866135 0z" fill-rule="evenodd"></path><path fill="#adadad" fill-opacity="0.8346" d="m290.99213 33.335957l14.62204 -14.6220455l0 43.866142l-14.62204 14.622051z" fill-rule="evenodd"></path><path fill="#e0e0e0" fill-opacity="0.8346" d="m247.12599 33.335957l14.622025 -14.6220455l43.86615 0l-14.62204 14.6220455z" fill-rule="evenodd"></path><path fill="#000000" fill-opacity="0.0" d="m247.12599 33.335957l14.622025 -14.6220455l43.86615 0l0 43.866142l-14.62204 14.622051l-43.866135 0zm0 0l43.866135 0l14.62204 -14.6220455m-14.62204 14.6220455l0 43.866146" fill-rule="evenodd"></path><path stroke="#000000" stroke-width="1.0" stroke-linejoin="round" stroke-linecap="butt" stroke-dasharray="1.0,3.0" d="m247.12599 33.335957l14.622025 -14.6220455l43.86615 0l0 43.866142l-14.62204 14.622051l-43.866135 0zm0 0l43.866135 0l14.62204 -14.6220455m-14.62204 14.6220455l0 43.866146" fill-rule="evenodd"></path><path fill="#d9d9d9" fill-opacity="0.8346" d="m232.95801 47.774277l43.86615 0l0 43.866142l-43.86615 0z" fill-rule="evenodd"></path><path fill="#adadad" fill-opacity="0.8346" d="m276.82416 47.774277l14.62204 -14.622047l0 43.866142l-14.62204 14.622047z" fill-rule="evenodd"></path><path fill="#e0e0e0" fill-opacity="0.8346" d="m232.95801 47.774277l14.62204 -14.622047l43.86615 0l-14.62204 14.622047z" fill-rule="evenodd"></path><path fill="#000000" fill-opacity="0.0" d="m232.95801 47.774277l14.62204 -14.622047l43.86615 0l0 43.866142l-14.62204 14.622047l-43.86615 0zm0 0l43.86615 0l14.62204 -14.622047m-14.62204 14.622047l0 43.866142" fill-rule="evenodd"></path><path stroke="#000000" stroke-width="1.0" stroke-linejoin="round" stroke-linecap="butt" stroke-dasharray="1.0,3.0" d="m232.95801 47.774277l14.62204 -14.622047l43.86615 0l0 43.866142l-14.62204 14.622047l-43.86615 0zm0 0l43.86615 0l14.62204 -14.622047m-14.62204 14.622047l0 43.866142" fill-rule="evenodd"></path><path fill="#d9d9d9" fill-opacity="0.8346" d="m174.61417 62.307087l43.86615 0l0 43.86614l-43.86615 0z" fill-rule="evenodd"></path><path fill="#adadad" fill-opacity="0.8346" d="m218.48032 62.307087l14.62204 -14.622047l0 43.86614l-14.62204 14.622047z" fill-rule="evenodd"></path><path fill="#e0e0e0" fill-opacity="0.8346" d="m174.61417 62.307087l14.622055 -14.622047l43.866135 0l-14.62204 14.622047z" fill-rule="evenodd"></path><path fill="#000000" fill-opacity="0.0" d="m174.61417 62.307087l14.622055 -14.622047l43.866135 0l0 43.86614l-14.62204 14.622047l-43.86615 0zm0 0l43.86615 0l14.62204 -14.622047m-14.62204 14.622047l0 43.86614" fill-rule="evenodd"></path><path stroke="#000000" stroke-width="1.0" stroke-linejoin="round" stroke-linecap="butt" stroke-dasharray="1.0,3.0" d="m174.61417 62.307087l14.622055 -14.622047l43.866135 0l0 43.86614l-14.62204 14.622047l-43.86615 0zm0 0l43.86615 0l14.62204 -14.622047m-14.62204 14.622047l0 43.86614" fill-rule="evenodd"></path><path fill="#d9d9d9" fill-opacity="0.8346" d="m160.51181 76.74541l43.86615 0l0 43.866142l-43.86615 0z" fill-rule="evenodd"></path><path fill="#adadad" fill-opacity="0.8346" d="m204.37796 76.74541l14.62204 -14.622047l0 43.866142l-14.62204 14.622047z" fill-rule="evenodd"></path><path fill="#e0e0e0" fill-opacity="0.8346" d="m160.51181 76.74541l14.622055 -14.622047l43.866135 0l-14.62204 14.622047z" fill-rule="evenodd"></path><path fill="#000000" fill-opacity="0.0" d="m160.51181 76.74541l14.622055 -14.622047l43.866135 0l0 43.866142l-14.62204 14.622047l-43.86615 0zm0 0l43.86615 0l14.62204 -14.622047m-14.62204 14.622047l0 43.866142" fill-rule="evenodd"></path><path stroke="#000000" stroke-width="1.0" stroke-linejoin="round" stroke-linecap="butt" stroke-dasharray="1.0,3.0" d="m160.51181 76.74541l14.622055 -14.622047l43.866135 0l0 43.866142l-14.62204 14.622047l-43.86615 0zm0 0l43.86615 0l14.62204 -14.622047m-14.62204 14.622047l0 43.866142" fill-rule="evenodd"></path><path fill="#d9d9d9" fill-opacity="0.8346" d="m218.2546 62.307087l43.866135 0l0 43.86614l-43.866135 0z" fill-rule="evenodd"></path><path fill="#adadad" fill-opacity="0.8346" d="m262.12073 62.307087l14.62204 -14.622047l0 43.86614l-14.62204 14.622047z" fill-rule="evenodd"></path><path fill="#e0e0e0" fill-opacity="0.8346" d="m218.2546 62.307087l14.622055 -14.622047l43.86612 0l-14.62204 14.622047z" fill-rule="evenodd"></path><path fill="#000000" fill-opacity="0.0" d="m218.2546 62.307087l14.622055 -14.622047l43.86612 0l0 43.86614l-14.62204 14.622047l-43.866135 0zm0 0l43.866135 0l14.62204 -14.622047m-14.62204 14.622047l0 43.86614" fill-rule="evenodd"></path><path stroke="#000000" stroke-width="1.0" stroke-linejoin="round" stroke-linecap="butt" stroke-dasharray="1.0,3.0" d="m218.2546 62.307087l14.622055 -14.622047l43.86612 0l0 43.86614l-14.62204 14.622047l-43.866135 0zm0 0l43.866135 0l14.62204 -14.622047m-14.62204 14.622047l0 43.86614" fill-rule="evenodd"></path><path fill="#d9d9d9" fill-opacity="0.8346" d="m204.08661 76.74541l43.86615 0l0 43.866142l-43.86615 0z" fill-rule="evenodd"></path><path fill="#adadad" fill-opacity="0.8346" d="m247.95276 76.74541l14.62204 -14.622047l0 43.866142l-14.62204 14.622047z" fill-rule="evenodd"></path><path fill="#e0e0e0" fill-opacity="0.8346" d="m204.08661 76.74541l14.622055 -14.622047l43.866135 0l-14.62204 14.622047z" fill-rule="evenodd"></path><path fill="#000000" fill-opacity="0.0" d="m204.08661 76.74541l14.622055 -14.622047l43.866135 0l0 43.866142l-14.62204 14.622047l-43.86615 0zm0 0l43.86615 0l14.62204 -14.622047m-14.62204 14.622047l0 43.866142" fill-rule="evenodd"></path><path stroke="#000000" stroke-width="1.0" stroke-linejoin="round" stroke-linecap="butt" stroke-dasharray="1.0,3.0" d="m204.08661 76.74541l14.622055 -14.622047l43.866135 0l0 43.866142l-14.62204 14.622047l-43.86615 0zm0 0l43.86615 0l14.62204 -14.622047m-14.62204 14.622047l0 43.866142" fill-rule="evenodd"></path><path fill="#000000" fill-opacity="0.0" d="m9.519685 15.233596l148.72441 0l0 38.614174l-148.72441 0z" fill-rule="evenodd"></path><path fill="#000000" d="m22.50406 41.460682l-3.75 -9.859377l1.765625 0l2.125 5.906252q0.34375 0.953125 0.625 1.984375q0.21875 -0.78125 0.625 -1.875l2.1875 -6.015627l1.71875 0l-3.734375 9.859377l-1.5625 0z" fill-rule="nonzero"></path><path fill="#000000" d="m30.832186 41.460682l-0.703125 0l0 -4.484375q-0.25 0.25 -0.671875 0.5q-0.40625 0.234375 -0.734375 0.34375l0 -0.671875q0.59375 -0.28125 1.03125 -0.671875q0.4375 -0.390625 0.625 -0.765625l0.453125 0l0 5.75z" fill-rule="nonzero"></path><path fill="#000000" d="m47.51158 33.460682l-8.96875 0l0 -1.5625019l8.96875 0l0 1.5625019zm0 4.125l-8.96875 0l0 -1.546875l8.96875 0l0 1.546875zm8.5043335 3.875l0 -1.25q-0.9375 1.46875 -2.75 1.46875q-1.171875 0 -2.171875 -0.640625q-0.984375 -0.65625 -1.53125 -1.8125q-0.53125 -1.171875 -0.53125 -2.6875q0 -1.46875 0.484375 -2.671875q0.5 -1.203125 1.46875 -1.84375q0.984375 -0.6406269 2.203125 -0.6406269q0.890625 0 1.578125 0.375q0.703125 0.3750019 1.140625 0.9843769l0 -4.875002l1.65625 0l0 13.593752l-1.546875 0zm-5.28125 -4.921875q0 1.890625 0.796875 2.828125q0.8125 0.9375 1.890625 0.9375q1.09375 0 1.859375 -0.890625q0.765625 -0.890625 0.765625 -2.734375q0 -2.015625 -0.78125 -2.953125q-0.78125 -0.953125 -1.921875 -0.953125q-1.109375 0 -1.859375 0.90625q-0.75 0.90625 -0.75 2.859375zm10.813217 4.921875l-1.546875 0l0 -13.593752l1.65625 0l0 4.843752q1.0625 -1.3281269 2.703125 -1.3281269q0.90625 0 1.71875 0.375q0.8125 0.3593769 1.328125 1.0312519q0.53125 0.65625 0.828125 1.59375q0.296875 0.9375 0.296875 2.0q0 2.53125 -1.25 3.921875q-1.25 1.375 -3.0 1.375q-1.75 0 -2.734375 -1.453125l0 1.234375zm-0.015625 -5.0q0 1.765625 0.46875 2.5625q0.796875 1.28125 2.140625 1.28125q1.09375 0 1.890625 -0.9375q0.796875 -0.953125 0.796875 -2.84375q0 -1.921875 -0.765625 -2.84375q-0.765625 -0.921875 -1.84375 -0.921875q-1.09375 0 -1.890625 0.953125q-0.796875 0.953125 -0.796875 2.75z" fill-rule="nonzero"></path><path fill="#000000" fill-opacity="0.0" d="m83.65092 77.57481l56.53544 -58.4252" fill-rule="evenodd"></path><path stroke="#000000" stroke-width="1.0" stroke-linejoin="round" stroke-linecap="butt" stroke-dasharray="4.0,3.0" d="m83.65092 77.57481l56.53544 -58.4252" fill-rule="evenodd"></path><path fill="#000000" fill-opacity="0.0" d="m91.22347 76.74541l54.110237 -57.574806" fill-rule="evenodd"></path><path stroke="#000000" stroke-width="1.0" stroke-linejoin="round" stroke-linecap="butt" stroke-dasharray="4.0,3.0" d="m91.22347 76.74541l54.110237 -57.574806" fill-rule="evenodd"></path><path fill="#ff0000" d="m116.80279 32.87195l4.668602 0.8466263l13.169083 -13.684324l-2.6976013 -2.7147808z" fill-rule="evenodd"></path><path stroke="#000000" stroke-width="1.0" stroke-linejoin="round" stroke-linecap="butt" stroke-dasharray="4.0,3.0" d="m116.80279 32.87195l4.668602 0.8466263l13.169083 -13.684324l-2.6976013 -2.7147808z" fill-rule="evenodd"></path><path fill="#000000" fill-opacity="0.0" d="m121.99266 32.49344l-45.354332 45.543304" fill-rule="evenodd"></path><path stroke="#000000" stroke-width="1.0" stroke-linejoin="round" stroke-linecap="butt" stroke-dasharray="4.0,3.0" d="m121.99266 32.49344l-45.354332 45.543304" fill-rule="evenodd"></path></g></svg>

