<?xml version="1.0" standalone="yes"?>

<svg version="1.1" viewBox="0.0 0.0 309.3307086614173 256.09448818897636" fill="none" stroke="none" stroke-linecap="square" stroke-miterlimit="10" xmlns="http://www.w3.org/2000/svg" xmlns:xlink="http://www.w3.org/1999/xlink"><clipPath id="p.0"><path d="m0 0l309.33072 0l0 256.09448l-309.33072 0l0 -256.09448z" clip-rule="nonzero"></path></clipPath><g clip-path="url(#p.0)"><path fill="#000000" fill-opacity="0.0" d="m0 0l309.33072 0l0 256.09448l-309.33072 0z" fill-rule="evenodd"></path><path fill="#000000" fill-opacity="0.0" d="m73.50394 79.755905l175.13387 0l0 176.14174l-175.13387 0z" fill-rule="evenodd"></path><path fill="#000000" fill-opacity="0.0" d="m248.6378 79.755905l58.377945 -58.377953l0 176.14172l-58.377945 58.37796z" fill-rule="evenodd"></path><path fill="#000000" fill-opacity="0.0" d="m73.50394 79.755905l58.37796 -58.377953l175.13385 0l-58.377945 58.377953z" fill-rule="evenodd"></path><path fill="#000000" fill-opacity="0.0" d="m73.50394 79.755905l58.37796 -58.377953l175.13385 0l0 176.14172l-58.377945 58.37796l-175.13387 0zm0 0l175.13387 0l58.377945 -58.377953m-58.377945 58.377953l0 176.14174" fill-rule="evenodd"></path><path fill="#000000" fill-opacity="0.2" d="m248.6378 79.755905l58.377945 -58.377953l0 176.14172l-58.377945 58.37796z" fill-rule="evenodd"></path><path fill="#ffffff" fill-opacity="0.2" d="m73.50394 79.755905l58.37796 -58.377953l175.13385 0l-58.377945 58.377953z" fill-rule="evenodd"></path><path stroke="#000000" stroke-width="1.0" stroke-linejoin="round" stroke-linecap="butt" d="m73.50394 79.755905l58.37796 -58.377953l175.13385 0l0 176.14172l-58.377945 58.37796l-175.13387 0zm0 0l175.13387 0l58.377945 -58.377953m-58.377945 58.377953l0 176.14174" fill-rule="evenodd"></path><path fill="#d9d9d9" fill-opacity="0.8346" d="m116.60627 80.000565l43.8442 0l0 43.87345l-43.8442 0z" fill-rule="evenodd"></path><path fill="#adadad" fill-opacity="0.8346" d="m160.45047 80.000565l14.614746 -14.614738l0 43.87345l-14.614746 14.614738z" fill-rule="evenodd"></path><path fill="#e0e0e0" fill-opacity="0.8346" d="m116.60627 80.000565l14.614738 -14.614738l43.844208 0l-14.614746 14.614738z" fill-rule="evenodd"></path><path fill="#000000" fill-opacity="0.0" d="m116.60627 80.000565l14.614738 -14.614738l43.844208 0l0 43.87345l-14.614746 14.614738l-43.8442 0zm0 0l43.8442 0l14.614746 -14.614738m-14.614746 14.614738l0 43.87345" fill-rule="evenodd"></path><path stroke="#000000" stroke-width="1.0" stroke-linejoin="round" stroke-linecap="butt" stroke-dasharray="1.0,3.0" d="m116.60627 80.000565l14.614738 -14.614738l43.844208 0l0 43.87345l-14.614746 14.614738l-43.8442 0zm0 0l43.8442 0l14.614746 -14.614738m-14.614746 14.614738l0 43.87345" fill-rule="evenodd"></path><path fill="#d9d9d9" fill-opacity="0.8346" d="m102.510956 94.43888l43.844208 0l0 43.87345l-43.844208 0z" fill-rule="evenodd"></path><path fill="#adadad" fill-opacity="0.8346" d="m146.35516 94.43888l14.614731 -14.614731l0 43.87345l-14.614731 14.614731z" fill-rule="evenodd"></path><path fill="#e0e0e0" fill-opacity="0.8346" d="m102.510956 94.43888l14.614738 -14.614731l43.8442 0l-14.614731 14.614731z" fill-rule="evenodd"></path><path fill="#000000" fill-opacity="0.0" d="m102.510956 94.43888l14.614738 -14.614731l43.8442 0l0 43.87345l-14.614731 14.614731l-43.844208 0zm0 0l43.844208 0l14.614731 -14.614731m-14.614731 14.614731l0 43.87345" fill-rule="evenodd"></path><path stroke="#000000" stroke-width="1.0" stroke-linejoin="round" stroke-linecap="butt" stroke-dasharray="1.0,3.0" d="m102.510956 94.43888l14.614738 -14.614731l43.8442 0l0 43.87345l-14.614731 14.614731l-43.844208 0zm0 0l43.844208 0l14.614731 -14.614731m-14.614731 14.614731l0 43.87345" fill-rule="evenodd"></path><path fill="#d9d9d9" fill-opacity="0.8346" d="m160.22487 80.000565l43.844208 0l0 43.87345l-43.844208 0z" fill-rule="evenodd"></path><path fill="#adadad" fill-opacity="0.8346" d="m204.06908 80.000565l14.614731 -14.614738l0 43.87345l-14.614731 14.614738z" fill-rule="evenodd"></path><path fill="#e0e0e0" fill-opacity="0.8346" d="m160.22487 80.000565l14.614731 -14.614738l43.844208 0l-14.614731 14.614738z" fill-rule="evenodd"></path><path fill="#000000" fill-opacity="0.0" d="m160.22487 80.000565l14.614731 -14.614738l43.844208 0l0 43.87345l-14.614731 14.614738l-43.844208 0zm0 0l43.844208 0l14.614731 -14.614738m-14.614731 14.614738l0 43.87345" fill-rule="evenodd"></path><path stroke="#000000" stroke-width="1.0" stroke-linejoin="round" stroke-linecap="butt" stroke-dasharray="1.0,3.0" d="m160.22487 80.000565l14.614731 -14.614738l43.844208 0l0 43.87345l-14.614731 14.614738l-43.844208 0zm0 0l43.844208 0l14.614731 -14.614738m-14.614731 14.614738l0 43.87345" fill-rule="evenodd"></path><path fill="#d9d9d9" fill-opacity="0.8346" d="m146.06396 94.43888l43.844208 0l0 43.87345l-43.844208 0z" fill-rule="evenodd"></path><path fill="#adadad" fill-opacity="0.8346" d="m189.90817 94.43888l14.614746 -14.614731l0 43.87345l-14.614746 14.614731z" fill-rule="evenodd"></path><path fill="#e0e0e0" fill-opacity="0.8346" d="m146.06396 94.43888l14.614746 -14.614731l43.844208 0l-14.614746 14.614731z" fill-rule="evenodd"></path><path fill="#000000" fill-opacity="0.0" d="m146.06396 94.43888l14.614746 -14.614731l43.844208 0l0 43.87345l-14.614746 14.614731l-43.844208 0zm0 0l43.844208 0l14.614746 -14.614731m-14.614746 14.614731l0 43.87345" fill-rule="evenodd"></path><path stroke="#000000" stroke-width="1.0" stroke-linejoin="round" stroke-linecap="butt" stroke-dasharray="1.0,3.0" d="m146.06396 94.43888l14.614746 -14.614731l43.844208 0l0 43.87345l-14.614746 14.614731l-43.844208 0zm0 0l43.844208 0l14.614746 -14.614731m-14.614746 14.614731l0 43.87345" fill-rule="evenodd"></path><path fill="#d9d9d9" fill-opacity="0.8346" d="m87.74931 108.971695l43.844208 0l0 43.873444l-43.844208 0z" fill-rule="evenodd"></path><path fill="#adadad" fill-opacity="0.8346" d="m131.59352 108.971695l14.614731 -14.614738l0 43.87345l-14.614731 14.614731z" fill-rule="evenodd"></path><path fill="#e0e0e0" fill-opacity="0.8346" d="m87.74931 108.971695l14.614731 -14.614738l43.844208 0l-14.614731 14.614738z" fill-rule="evenodd"></path><path fill="#000000" fill-opacity="0.0" d="m87.74931 108.971695l14.614731 -14.614738l43.844208 0l0 43.87345l-14.614731 14.614731l-43.844208 0zm0 0l43.844208 0l14.614731 -14.614738m-14.614731 14.614738l0 43.873444" fill-rule="evenodd"></path><path stroke="#000000" stroke-width="1.0" stroke-linejoin="round" stroke-linecap="butt" stroke-dasharray="1.0,3.0" d="m87.74931 108.971695l14.614731 -14.614738l43.844208 0l0 43.87345l-14.614731 14.614731l-43.844208 0zm0 0l43.844208 0l14.614731 -14.614738m-14.614731 14.614738l0 43.873444" fill-rule="evenodd"></path><path fill="#d9d9d9" fill-opacity="0.8346" d="m73.654 123.41001l43.844208 0l0 43.87345l-43.844208 0z" fill-rule="evenodd"></path><path fill="#adadad" fill-opacity="0.8346" d="m117.49821 123.41001l14.614738 -14.614738l0 43.87346l-14.614738 14.614731z" fill-rule="evenodd"></path><path fill="#e0e0e0" fill-opacity="0.8346" d="m73.654 123.41001l14.614738 -14.614738l43.844208 0l-14.614738 14.614738z" fill-rule="evenodd"></path><path fill="#000000" fill-opacity="0.0" d="m73.654 123.41001l14.614738 -14.614738l43.844208 0l0 43.87346l-14.614738 14.614731l-43.844208 0zm0 0l43.844208 0l14.614738 -14.614738m-14.614738 14.614738l0 43.87345" fill-rule="evenodd"></path><path stroke="#000000" stroke-width="1.0" stroke-linejoin="round" stroke-linecap="butt" stroke-dasharray="1.0,3.0" d="m73.654 123.41001l14.614738 -14.614738l43.844208 0l0 43.87346l-14.614738 14.614731l-43.844208 0zm0 0l43.844208 0l14.614738 -14.614738m-14.614738 14.614738l0 43.87345" fill-rule="evenodd"></path><path fill="#d9d9d9" fill-opacity="0.8346" d="m131.3679 108.971695l43.844208 0l0 43.873444l-43.844208 0z" fill-rule="evenodd"></path><path fill="#adadad" fill-opacity="0.8346" d="m175.21211 108.971695l14.614746 -14.614738l0 43.87345l-14.614746 14.614731z" fill-rule="evenodd"></path><path fill="#e0e0e0" fill-opacity="0.8346" d="m131.3679 108.971695l14.614746 -14.614738l43.844208 0l-14.614746 14.614738z" fill-rule="evenodd"></path><path fill="#000000" fill-opacity="0.0" d="m131.3679 108.971695l14.614746 -14.614738l43.844208 0l0 43.87345l-14.614746 14.614731l-43.844208 0zm0 0l43.844208 0l14.614746 -14.614738m-14.614746 14.614738l0 43.873444" fill-rule="evenodd"></path><path stroke="#000000" stroke-width="1.0" stroke-linejoin="round" stroke-linecap="butt" stroke-dasharray="1.0,3.0" d="m131.3679 108.971695l14.614746 -14.614738l43.844208 0l0 43.87345l-14.614746 14.614731l-43.844208 0zm0 0l43.844208 0l14.614746 -14.614738m-14.614746 14.614738l0 43.873444" fill-rule="evenodd"></path><path fill="#d9d9d9" fill-opacity="0.8346" d="m117.207016 123.41001l43.844208 0l0 43.87345l-43.844208 0z" fill-rule="evenodd"></path><path fill="#adadad" fill-opacity="0.8346" d="m161.05122 123.41001l14.614731 -14.614738l0 43.87346l-14.614731 14.614731z" fill-rule="evenodd"></path><path fill="#e0e0e0" fill-opacity="0.8346" d="m117.207016 123.41001l14.614731 -14.614738l43.844208 0l-14.614731 14.614738z" fill-rule="evenodd"></path><path fill="#000000" fill-opacity="0.0" d="m117.207016 123.41001l14.614731 -14.614738l43.844208 0l0 43.87346l-14.614731 14.614731l-43.844208 0zm0 0l43.844208 0l14.614731 -14.614738m-14.614731 14.614738l0 43.87345" fill-rule="evenodd"></path><path stroke="#000000" stroke-width="1.0" stroke-linejoin="round" stroke-linecap="butt" stroke-dasharray="1.0,3.0" d="m117.207016 123.41001l14.614731 -14.614738l43.844208 0l0 43.87346l-14.614731 14.614731l-43.844208 0zm0 0l43.844208 0l14.614731 -14.614738m-14.614731 14.614738l0 43.87345" fill-rule="evenodd"></path><path fill="#d9d9d9" fill-opacity="0.8346" d="m204.51181 80.00787l43.86615 0l0 43.866142l-43.86615 0z" fill-rule="evenodd"></path><path fill="#adadad" fill-opacity="0.8346" d="m248.37796 80.00787l14.62204 -14.622047l0 43.866142l-14.62204 14.622047z" fill-rule="evenodd"></path><path fill="#e0e0e0" fill-opacity="0.8346" d="m204.51181 80.00787l14.622055 -14.622047l43.866135 0l-14.62204 14.622047z" fill-rule="evenodd"></path><path fill="#000000" fill-opacity="0.0" d="m204.51181 80.00787l14.622055 -14.622047l43.866135 0l0 43.866142l-14.62204 14.622047l-43.86615 0zm0 0l43.86615 0l14.62204 -14.622047m-14.62204 14.622047l0 43.866142" fill-rule="evenodd"></path><path stroke="#000000" stroke-width="1.0" stroke-linejoin="round" stroke-linecap="butt" stroke-dasharray="1.0,3.0" d="m204.51181 80.00787l14.622055 -14.622047l43.866135 0l0 43.866142l-14.62204 14.622047l-43.86615 0zm0 0l43.86615 0l14.62204 -14.622047m-14.62204 14.622047l0 43.866142" fill-rule="evenodd"></path><path fill="#d9d9d9" fill-opacity="0.8346" d="m190.40945 94.4462l43.866135 0l0 43.866135l-43.866135 0z" fill-rule="evenodd"></path><path fill="#adadad" fill-opacity="0.8346" d="m234.27559 94.4462l14.622055 -14.622047l0 43.866142l-14.622055 14.62204z" fill-rule="evenodd"></path><path fill="#e0e0e0" fill-opacity="0.8346" d="m190.40945 94.4462l14.62204 -14.622047l43.86615 0l-14.622055 14.622047z" fill-rule="evenodd"></path><path fill="#000000" fill-opacity="0.0" d="m190.40945 94.4462l14.62204 -14.622047l43.86615 0l0 43.866142l-14.622055 14.62204l-43.866135 0zm0 0l43.866135 0l14.622055 -14.622047m-14.622055 14.622047l0 43.866135" fill-rule="evenodd"></path><path stroke="#000000" stroke-width="1.0" stroke-linejoin="round" stroke-linecap="butt" stroke-dasharray="1.0,3.0" d="m190.40945 94.4462l14.62204 -14.622047l43.86615 0l0 43.866142l-14.622055 14.62204l-43.866135 0zm0 0l43.866135 0l14.622055 -14.622047m-14.622055 14.622047l0 43.866135" fill-rule="evenodd"></path><path fill="#d9d9d9" fill-opacity="0.8346" d="m248.15224 80.00787l43.866135 0l0 43.866142l-43.866135 0z" fill-rule="evenodd"></path><path fill="#adadad" fill-opacity="0.8346" d="m292.01837 80.00787l14.62204 -14.622047l0 43.866142l-14.62204 14.622047z" fill-rule="evenodd"></path><path fill="#e0e0e0" fill-opacity="0.8346" d="m248.15224 80.00787l14.622055 -14.622047l43.86612 0l-14.62204 14.622047z" fill-rule="evenodd"></path><path fill="#000000" fill-opacity="0.0" d="m248.15224 80.00787l14.622055 -14.622047l43.86612 0l0 43.866142l-14.62204 14.622047l-43.866135 0zm0 0l43.866135 0l14.62204 -14.622047m-14.62204 14.622047l0 43.866142" fill-rule="evenodd"></path><path stroke="#000000" stroke-width="1.0" stroke-linejoin="round" stroke-linecap="butt" stroke-dasharray="1.0,3.0" d="m248.15224 80.00787l14.622055 -14.622047l43.86612 0l0 43.866142l-14.62204 14.622047l-43.866135 0zm0 0l43.866135 0l14.62204 -14.622047m-14.62204 14.622047l0 43.866142" fill-rule="evenodd"></path><path fill="#d9d9d9" fill-opacity="0.8346" d="m233.98425 94.4462l43.86615 0l0 43.866135l-43.86615 0z" fill-rule="evenodd"></path><path fill="#adadad" fill-opacity="0.8346" d="m277.8504 94.4462l14.62204 -14.622047l0 43.866142l-14.62204 14.62204z" fill-rule="evenodd"></path><path fill="#e0e0e0" fill-opacity="0.8346" d="m233.98425 94.4462l14.62204 -14.622047l43.86615 0l-14.62204 14.622047z" fill-rule="evenodd"></path><path fill="#000000" fill-opacity="0.0" d="m233.98425 94.4462l14.62204 -14.622047l43.86615 0l0 43.866142l-14.62204 14.62204l-43.86615 0zm0 0l43.86615 0l14.62204 -14.622047m-14.62204 14.622047l0 43.866135" fill-rule="evenodd"></path><path stroke="#000000" stroke-width="1.0" stroke-linejoin="round" stroke-linecap="butt" stroke-dasharray="1.0,3.0" d="m233.98425 94.4462l14.62204 -14.622047l43.86615 0l0 43.866142l-14.62204 14.62204l-43.86615 0zm0 0l43.86615 0l14.62204 -14.622047m-14.62204 14.622047l0 43.866135" fill-rule="evenodd"></path><path fill="#d9d9d9" fill-opacity="0.8346" d="m175.64043 108.979004l43.866135 0l0 43.866135l-43.866135 0z" fill-rule="evenodd"></path><path fill="#adadad" fill-opacity="0.8346" d="m219.50656 108.979004l14.622055 -14.622047l0 43.866142l-14.622055 14.62204z" fill-rule="evenodd"></path><path fill="#e0e0e0" fill-opacity="0.8346" d="m175.64043 108.979004l14.62204 -14.622047l43.86615 0l-14.622055 14.622047z" fill-rule="evenodd"></path><path fill="#000000" fill-opacity="0.0" d="m175.64043 108.979004l14.62204 -14.622047l43.86615 0l0 43.866142l-14.622055 14.62204l-43.866135 0zm0 0l43.866135 0l14.622055 -14.622047m-14.622055 14.622047l0 43.866135" fill-rule="evenodd"></path><path stroke="#000000" stroke-width="1.0" stroke-linejoin="round" stroke-linecap="butt" stroke-dasharray="1.0,3.0" d="m175.64043 108.979004l14.62204 -14.622047l43.86615 0l0 43.866142l-14.622055 14.62204l-43.866135 0zm0 0l43.866135 0l14.622055 -14.622047m-14.622055 14.622047l0 43.866135" fill-rule="evenodd"></path><path fill="#d9d9d9" fill-opacity="0.8346" d="m161.53806 123.41732l43.86615 0l0 43.866142l-43.86615 0z" fill-rule="evenodd"></path><path fill="#adadad" fill-opacity="0.8346" d="m205.4042 123.41732l14.62204 -14.622047l0 43.86615l-14.62204 14.62204z" fill-rule="evenodd"></path><path fill="#e0e0e0" fill-opacity="0.8346" d="m161.53806 123.41732l14.622055 -14.622047l43.866135 0l-14.62204 14.622047z" fill-rule="evenodd"></path><path fill="#000000" fill-opacity="0.0" d="m161.53806 123.41732l14.622055 -14.622047l43.866135 0l0 43.86615l-14.62204 14.62204l-43.86615 0zm0 0l43.86615 0l14.62204 -14.622047m-14.62204 14.622047l0 43.866142" fill-rule="evenodd"></path><path stroke="#000000" stroke-width="1.0" stroke-linejoin="round" stroke-linecap="butt" stroke-dasharray="1.0,3.0" d="m161.53806 123.41732l14.622055 -14.622047l43.866135 0l0 43.86615l-14.62204 14.62204l-43.86615 0zm0 0l43.86615 0l14.62204 -14.622047m-14.62204 14.622047l0 43.866142" fill-rule="evenodd"></path><path fill="#d9d9d9" fill-opacity="0.8346" d="m219.28084 108.979004l43.866135 0l0 43.866135l-43.866135 0z" fill-rule="evenodd"></path><path fill="#adadad" fill-opacity="0.8346" d="m263.14697 108.979004l14.62207 -14.622047l0 43.866142l-14.62207 14.62204z" fill-rule="evenodd"></path><path fill="#e0e0e0" fill-opacity="0.8346" d="m219.28084 108.979004l14.622055 -14.622047l43.86615 0l-14.62207 14.622047z" fill-rule="evenodd"></path><path fill="#000000" fill-opacity="0.0" d="m219.28084 108.979004l14.622055 -14.622047l43.86615 0l0 43.866142l-14.62207 14.62204l-43.866135 0zm0 0l43.866135 0l14.62207 -14.622047m-14.62207 14.622047l0 43.866135" fill-rule="evenodd"></path><path stroke="#000000" stroke-width="1.0" stroke-linejoin="round" stroke-linecap="butt" stroke-dasharray="1.0,3.0" d="m219.28084 108.979004l14.622055 -14.622047l43.86615 0l0 43.866142l-14.62207 14.62204l-43.866135 0zm0 0l43.866135 0l14.62207 -14.622047m-14.62207 14.622047l0 43.866135" fill-rule="evenodd"></path><path fill="#d9d9d9" fill-opacity="0.8346" d="m205.11285 123.41732l43.86615 0l0 43.866142l-43.86615 0z" fill-rule="evenodd"></path><path fill="#adadad" fill-opacity="0.8346" d="m248.979 123.41732l14.62204 -14.622047l0 43.86615l-14.62204 14.62204z" fill-rule="evenodd"></path><path fill="#e0e0e0" fill-opacity="0.8346" d="m205.11285 123.41732l14.622055 -14.622047l43.866135 0l-14.62204 14.622047z" fill-rule="evenodd"></path><path fill="#000000" fill-opacity="0.0" d="m205.11285 123.41732l14.622055 -14.622047l43.866135 0l0 43.86615l-14.62204 14.62204l-43.86615 0zm0 0l43.86615 0l14.62204 -14.622047m-14.62204 14.622047l0 43.866142" fill-rule="evenodd"></path><path stroke="#000000" stroke-width="1.0" stroke-linejoin="round" stroke-linecap="butt" stroke-dasharray="1.0,3.0" d="m205.11285 123.41732l14.622055 -14.622047l43.866135 0l0 43.86615l-14.62204 14.62204l-43.86615 0zm0 0l43.86615 0l14.62204 -14.622047m-14.62204 14.622047l0 43.866142" fill-rule="evenodd"></path><path fill="#d9d9d9" fill-opacity="0.8346" d="m116.761154 36.19685l43.86615 0l0 43.866146l-43.86615 0z" fill-rule="evenodd"></path><path fill="#adadad" fill-opacity="0.8346" d="m160.6273 36.19685l14.62204 -14.622047l0 43.866146l-14.62204 14.622047z" fill-rule="evenodd"></path><path fill="#e0e0e0" fill-opacity="0.8346" d="m116.761154 36.19685l14.622055 -14.622047l43.866135 0l-14.62204 14.622047z" fill-rule="evenodd"></path><path fill="#000000" fill-opacity="0.0" d="m116.761154 36.19685l14.622055 -14.622047l43.866135 0l0 43.866146l-14.62204 14.622047l-43.86615 0zm0 0l43.86615 0l14.62204 -14.622047m-14.62204 14.622047l0 43.866146" fill-rule="evenodd"></path><path stroke="#000000" stroke-width="1.0" stroke-linejoin="round" stroke-linecap="butt" stroke-dasharray="1.0,3.0" d="m116.761154 36.19685l14.622055 -14.622047l43.866135 0l0 43.866146l-14.62204 14.622047l-43.86615 0zm0 0l43.86615 0l14.62204 -14.622047m-14.62204 14.622047l0 43.866146" fill-rule="evenodd"></path><path fill="#d9d9d9" fill-opacity="0.8346" d="m102.65879 50.63517l43.866142 0l0 43.866142l-43.866142 0z" fill-rule="evenodd"></path><path fill="#adadad" fill-opacity="0.8346" d="m146.52493 50.63517l14.622055 -14.622047l0 43.866142l-14.622055 14.622047z" fill-rule="evenodd"></path><path fill="#e0e0e0" fill-opacity="0.8346" d="m102.65879 50.63517l14.622047 -14.622047l43.86615 0l-14.622055 14.622047z" fill-rule="evenodd"></path><path fill="#000000" fill-opacity="0.0" d="m102.65879 50.63517l14.622047 -14.622047l43.86615 0l0 43.866142l-14.622055 14.622047l-43.866142 0zm0 0l43.866142 0l14.622055 -14.622047m-14.622055 14.622047l0 43.866142" fill-rule="evenodd"></path><path stroke="#000000" stroke-width="1.0" stroke-linejoin="round" stroke-linecap="butt" stroke-dasharray="1.0,3.0" d="m102.65879 50.63517l14.622047 -14.622047l43.86615 0l0 43.866142l-14.622055 14.622047l-43.866142 0zm0 0l43.866142 0l14.622055 -14.622047m-14.622055 14.622047l0 43.866142" fill-rule="evenodd"></path><path fill="#d9d9d9" fill-opacity="0.8346" d="m160.40158 36.19685l43.866135 0l0 43.866146l-43.866135 0z" fill-rule="evenodd"></path><path fill="#adadad" fill-opacity="0.8346" d="m204.26772 36.19685l14.622055 -14.622047l0 43.866146l-14.622055 14.622047z" fill-rule="evenodd"></path><path fill="#e0e0e0" fill-opacity="0.8346" d="m160.40158 36.19685l14.62204 -14.622047l43.86615 0l-14.622055 14.622047z" fill-rule="evenodd"></path><path fill="#000000" fill-opacity="0.0" d="m160.40158 36.19685l14.62204 -14.622047l43.86615 0l0 43.866146l-14.622055 14.622047l-43.866135 0zm0 0l43.866135 0l14.622055 -14.622047m-14.622055 14.622047l0 43.866146" fill-rule="evenodd"></path><path stroke="#000000" stroke-width="1.0" stroke-linejoin="round" stroke-linecap="butt" stroke-dasharray="1.0,3.0" d="m160.40158 36.19685l14.62204 -14.622047l43.86615 0l0 43.866146l-14.622055 14.622047l-43.866135 0zm0 0l43.866135 0l14.622055 -14.622047m-14.622055 14.622047l0 43.866146" fill-rule="evenodd"></path><path fill="#d9d9d9" fill-opacity="0.8346" d="m146.2336 50.63517l43.866135 0l0 43.866142l-43.866135 0z" fill-rule="evenodd"></path><path fill="#adadad" fill-opacity="0.8346" d="m190.09973 50.63517l14.622055 -14.622047l0 43.866142l-14.622055 14.622047z" fill-rule="evenodd"></path><path fill="#e0e0e0" fill-opacity="0.8346" d="m146.2336 50.63517l14.62204 -14.622047l43.86615 0l-14.622055 14.622047z" fill-rule="evenodd"></path><path fill="#000000" fill-opacity="0.0" d="m146.2336 50.63517l14.62204 -14.622047l43.86615 0l0 43.866142l-14.622055 14.622047l-43.866135 0zm0 0l43.866135 0l14.622055 -14.622047m-14.622055 14.622047l0 43.866142" fill-rule="evenodd"></path><path stroke="#000000" stroke-width="1.0" stroke-linejoin="round" stroke-linecap="butt" stroke-dasharray="1.0,3.0" d="m146.2336 50.63517l14.62204 -14.622047l43.86615 0l0 43.866142l-14.622055 14.622047l-43.866135 0zm0 0l43.866135 0l14.622055 -14.622047m-14.622055 14.622047l0 43.866142" fill-rule="evenodd"></path><path fill="#d9d9d9" fill-opacity="0.8346" d="m87.88976 65.16798l43.866142 0l0 43.866142l-43.866142 0z" fill-rule="evenodd"></path><path fill="#adadad" fill-opacity="0.8346" d="m131.7559 65.16798l14.622055 -14.622044l0 43.86614l-14.622055 14.622047z" fill-rule="evenodd"></path><path fill="#e0e0e0" fill-opacity="0.8346" d="m87.88976 65.16798l14.622047 -14.622044l43.86615 0l-14.622055 14.622044z" fill-rule="evenodd"></path><path fill="#000000" fill-opacity="0.0" d="m87.88976 65.16798l14.622047 -14.622044l43.86615 0l0 43.86614l-14.622055 14.622047l-43.866142 0zm0 0l43.866142 0l14.622055 -14.622044m-14.622055 14.622044l0 43.866142" fill-rule="evenodd"></path><path stroke="#000000" stroke-width="1.0" stroke-linejoin="round" stroke-linecap="butt" stroke-dasharray="4.0,3.0" d="m87.88976 65.16798l14.622047 -14.622044l43.86615 0l0 43.86614l-14.622055 14.622047l-43.866142 0zm0 0l43.866142 0l14.622055 -14.622044m-14.622055 14.622044l0 43.866142" fill-rule="evenodd"></path><path fill="#d9d9d9" fill-opacity="0.8346" d="m73.7874 79.6063l43.866142 0l0 43.866142l-43.866142 0z" fill-rule="evenodd"></path><path fill="#adadad" fill-opacity="0.8346" d="m117.65354 79.6063l14.622047 -14.622047l0 43.866142l-14.622047 14.622047z" fill-rule="evenodd"></path><path fill="#e0e0e0" fill-opacity="0.8346" d="m73.7874 79.6063l14.622047 -14.622047l43.866142 0l-14.622047 14.622047z" fill-rule="evenodd"></path><path fill="#000000" fill-opacity="0.0" d="m73.7874 79.6063l14.622047 -14.622047l43.866142 0l0 43.866142l-14.622047 14.622047l-43.866142 0zm0 0l43.866142 0l14.622047 -14.622047m-14.622047 14.622047l0 43.866142" fill-rule="evenodd"></path><path stroke="#000000" stroke-width="1.0" stroke-linejoin="round" stroke-linecap="butt" stroke-dasharray="4.0,3.0" d="m73.7874 79.6063l14.622047 -14.622047l43.866142 0l0 43.866142l-14.622047 14.622047l-43.866142 0zm0 0l43.866142 0l14.622047 -14.622047m-14.622047 14.622047l0 43.866142" fill-rule="evenodd"></path><path fill="#d9d9d9" fill-opacity="0.8346" d="m131.53018 65.16798l43.86615 0l0 43.866142l-43.86615 0z" fill-rule="evenodd"></path><path fill="#adadad" fill-opacity="0.8346" d="m175.39633 65.16798l14.62204 -14.622044l0 43.86614l-14.62204 14.622047z" fill-rule="evenodd"></path><path fill="#e0e0e0" fill-opacity="0.8346" d="m131.53018 65.16798l14.622055 -14.622044l43.866135 0l-14.62204 14.622044z" fill-rule="evenodd"></path><path fill="#000000" fill-opacity="0.0" d="m131.53018 65.16798l14.622055 -14.622044l43.866135 0l0 43.86614l-14.62204 14.622047l-43.86615 0zm0 0l43.86615 0l14.62204 -14.622044m-14.62204 14.622044l0 43.866142" fill-rule="evenodd"></path><path stroke="#000000" stroke-width="1.0" stroke-linejoin="round" stroke-linecap="butt" stroke-dasharray="4.0,3.0" d="m131.53018 65.16798l14.622055 -14.622044l43.866135 0l0 43.86614l-14.62204 14.622047l-43.86615 0zm0 0l43.86615 0l14.62204 -14.622044m-14.62204 14.622044l0 43.866142" fill-rule="evenodd"></path><path fill="#d9d9d9" fill-opacity="0.8346" d="m117.362206 79.6063l43.866142 0l0 43.866142l-43.866142 0z" fill-rule="evenodd"></path><path fill="#adadad" fill-opacity="0.8346" d="m161.22835 79.6063l14.62204 -14.622047l0 43.866142l-14.62204 14.622047z" fill-rule="evenodd"></path><path fill="#e0e0e0" fill-opacity="0.8346" d="m117.362206 79.6063l14.622047 -14.622047l43.866135 0l-14.62204 14.622047z" fill-rule="evenodd"></path><path fill="#000000" fill-opacity="0.0" d="m117.362206 79.6063l14.622047 -14.622047l43.866135 0l0 43.866142l-14.62204 14.622047l-43.866142 0zm0 0l43.866142 0l14.62204 -14.622047m-14.62204 14.622047l0 43.866142" fill-rule="evenodd"></path><path stroke="#000000" stroke-width="1.0" stroke-linejoin="round" stroke-linecap="butt" stroke-dasharray="4.0,3.0" d="m117.362206 79.6063l14.622047 -14.622047l43.866135 0l0 43.866142l-14.62204 14.622047l-43.866142 0zm0 0l43.866142 0l14.62204 -14.622047m-14.62204 14.622047l0 43.866142" fill-rule="evenodd"></path><path fill="#000000" fill-opacity="0.0" d="m-20.293962 -11.711287l312.9449 0l0 37.385826l-312.9449 0z" fill-rule="evenodd"></path><path fill="#000000" d="m178.69493 10.443087l1.796875 0.453125q-0.5625 2.21875 -2.03125 3.390625q-1.46875 1.15625 -3.59375 1.15625q-2.203125 0 -3.578125 -0.890625q-1.375 -0.90625 -2.09375 -2.59375q-0.71875 -1.703125 -0.71875 -3.65625q0 -2.1249995 0.796875 -3.7031245q0.8125 -1.578125 2.3125 -2.390625q1.5 -0.828125 3.296875 -0.828125q2.046875 0 3.4375 1.046875q1.390625 1.03125 1.9375 2.90625l-1.765625 0.421875q-0.46875 -1.484375 -1.375 -2.15625q-0.90625 -0.6875 -2.265625 -0.6875q-1.5625 0 -2.625 0.75q-1.046875 0.75 -1.484375 2.03125q-0.421875 1.265625 -0.421875 2.6093745q0 1.734375 0.5 3.03125q0.515625 1.28125 1.578125 1.921875q1.078125 0.640625 2.3125 0.640625q1.515625 0 2.5625 -0.859375q1.046875 -0.875 1.421875 -2.59375zm9.988571 3.546875q-0.9375 0.796875 -1.796875 1.125q-0.859375 0.3125 -1.84375 0.3125q-1.609375 0 -2.484375 -0.78125q-0.875 -0.796875 -0.875 -2.03125q0 -0.734375 0.328125 -1.328125q0.328125 -0.59375 0.859375 -0.953125q0.53125 -0.359375 1.203125 -0.546875q0.5 -0.140625 1.484375 -0.25q2.03125 -0.25 2.984375 -0.578125q0 -0.34375 0 -0.4375q0 -1.0156245 -0.46875 -1.4374995q-0.640625 -0.5625 -1.90625 -0.5625q-1.171875 0 -1.734375 0.40625q-0.5625 0.40625 -0.828125 1.4687495l-1.640625 -0.234375q0.234375 -1.0468745 0.734375 -1.6874995q0.515625 -0.640625 1.46875 -0.984375q0.96875 -0.359375 2.25 -0.359375q1.265625 0 2.046875 0.296875q0.78125 0.296875 1.15625 0.75q0.375 0.453125 0.515625 1.140625q0.09375 0.421875 0.09375 1.5312495l0 2.234375q0 2.328125 0.09375 2.953125q0.109375 0.609375 0.4375 1.171875l-1.75 0q-0.265625 -0.515625 -0.328125 -1.21875zm-0.140625 -3.71875q-0.90625 0.359375 -2.734375 0.625q-1.03125 0.140625 -1.453125 0.328125q-0.421875 0.1875 -0.65625 0.546875q-0.234375 0.359375 -0.234375 0.796875q0 0.671875 0.5 1.125q0.515625 0.4375 1.484375 0.4375q0.96875 0 1.71875 -0.421875q0.75 -0.4375 1.109375 -1.15625q0.265625 -0.578125 0.265625 -1.671875l0 -0.609375zm3.4069672 2.0l1.65625 -0.265625q0.140625 1.0 0.765625 1.53125q0.640625 0.515625 1.78125 0.515625q1.15625 0 1.703125 -0.46875q0.5625 -0.46875 0.5625 -1.09375q0 -0.5625 -0.484375 -0.890625q-0.34375 -0.21875 -1.703125 -0.5625q-1.84375 -0.46875 -2.5625 -0.796875q-0.703125 -0.34375 -1.078125 -0.9375q-0.359375 -0.609375 -0.359375 -1.3281245q0 -0.65625 0.296875 -1.21875q0.3125 -0.5625 0.828125 -0.9375q0.390625 -0.28125 1.0625 -0.484375q0.671875 -0.203125 1.4375 -0.203125q1.171875 0 2.046875 0.34375q0.875 0.328125 1.28125 0.90625q0.421875 0.5625 0.578125 1.515625l-1.625 0.21874952q-0.109375 -0.7499995 -0.65625 -1.1718745q-0.53125 -0.4375 -1.5 -0.4375q-1.15625 0 -1.640625 0.390625q-0.484375 0.375 -0.484375 0.875q0 0.32812452 0.203125 0.5937495q0.203125 0.265625 0.640625 0.4375q0.25 0.09375 1.46875 0.4375q1.765625 0.46875 2.46875 0.765625q0.703125 0.296875 1.09375 0.875q0.40625 0.578125 0.40625 1.4375q0 0.828125 -0.484375 1.578125q-0.484375 0.734375 -1.40625 1.140625q-0.921875 0.390625 -2.078125 0.390625q-1.921875 0 -2.9375 -0.796875q-1.0 -0.796875 -1.28125 -2.359375zm16.75 -0.234375l1.71875 0.21875q-0.40625 1.5 -1.515625 2.34375q-1.09375 0.828125 -2.8125 0.828125q-2.15625 0 -3.421875 -1.328125q-1.265625 -1.328125 -1.265625 -3.734375q0 -2.4843745 1.265625 -3.8593745q1.28125 -1.375 3.328125 -1.375q1.984375 0 3.234375 1.34375q1.25 1.34375 1.25 3.7968745q0 0.140625 -0.015625 0.4375l-7.34375 0q0.09375 1.625 0.921875 2.484375q0.828125 0.859375 2.0625 0.859375q0.90625 0 1.546875 -0.46875q0.65625 -0.484375 1.046875 -1.546875zm-5.484375 -2.703125l5.5 0q-0.109375 -1.234375 -0.625 -1.8593745q-0.796875 -0.96875 -2.078125 -0.96875q-1.140625 0 -1.9375 0.78125q-0.78125 0.7656245 -0.859375 2.0468745zm19.184021 5.875l0 -3.25l-5.90625 0l0 -1.53125l6.21875 -8.8125l1.359375 0l0 8.8125l1.84375 0l0 1.53125l-1.84375 0l0 3.25l-1.671875 0zm0 -4.78125l0 -6.1406245l-4.25 6.1406245l4.25 0zm5.953842 -3.1718745l0 -1.90625l1.90625 0l0 1.90625l-1.90625 0zm0 7.9531245l0 -1.90625l1.90625 0l0 1.90625l-1.90625 0zm9.225998 -2.9375l1.65625 -0.265625q0.140625 1.0 0.765625 1.53125q0.640625 0.515625 1.78125 0.515625q1.15625 0 1.703125 -0.46875q0.5625 -0.46875 0.5625 -1.09375q0 -0.5625 -0.484375 -0.890625q-0.34375 -0.21875 -1.703125 -0.5625q-1.84375 -0.46875 -2.5625 -0.796875q-0.703125 -0.34375 -1.078125 -0.9375q-0.359375 -0.609375 -0.359375 -1.3281245q0 -0.65625 0.296875 -1.21875q0.3125 -0.5625 0.828125 -0.9375q0.390625 -0.28125 1.0625 -0.484375q0.671875 -0.203125 1.4375 -0.203125q1.171875 0 2.046875 0.34375q0.875 0.328125 1.28125 0.90625q0.421875 0.5625 0.578125 1.515625l-1.625 0.21874952q-0.109375 -0.7499995 -0.65625 -1.1718745q-0.53125 -0.4375 -1.5 -0.4375q-1.15625 0 -1.640625 0.390625q-0.484375 0.375 -0.484375 0.875q0 0.32812452 0.203125 0.5937495q0.203125 0.265625 0.640625 0.4375q0.25 0.09375 1.46875 0.4375q1.765625 0.46875 2.46875 0.765625q0.703125 0.296875 1.09375 0.875q0.40625 0.578125 0.40625 1.4375q0 0.828125 -0.484375 1.578125q-0.484375 0.734375 -1.40625 1.140625q-0.921875 0.390625 -2.078125 0.390625q-1.921875 0 -2.9375 -0.796875q-1.0 -0.796875 -1.28125 -2.359375zm9.96875 2.9375l0 -13.59375l1.671875 0l0 13.59375l-1.671875 0zm4.191681 -11.6875l0 -1.90625l1.671875 0l0 1.90625l-1.671875 0zm0 11.6875l0 -9.859375l1.671875 0l0 9.859375l-1.671875 0zm10.566666 -3.609375l1.640625 0.21875q-0.265625 1.6875 -1.375 2.65625q-1.109375 0.953125 -2.734375 0.953125q-2.015625 0 -3.25 -1.3125q-1.2187347 -1.328125 -1.2187347 -3.796875q0 -1.59375 0.515625 -2.7812495q0.53123474 -1.203125 1.6093597 -1.796875q1.09375 -0.609375 2.359375 -0.609375q1.609375 0 2.625 0.8125q1.015625 0.8125 1.3125 2.3124995l-1.625 0.25q-0.234375 -0.9999995 -0.828125 -1.4999995q-0.59375 -0.5 -1.421875 -0.5q-1.265625 0 -2.0625 0.90625q-0.78125 0.9062495 -0.78125 2.8593745q0 1.984375 0.765625 2.890625q0.765625 0.890625 1.984375 0.890625q0.984375 0 1.640625 -0.59375q0.65625 -0.609375 0.84375 -1.859375zm9.640625 0.4375l1.71875 0.21875q-0.40625 1.5 -1.515625 2.34375q-1.09375 0.828125 -2.8125 0.828125q-2.15625 0 -3.421875 -1.328125q-1.265625 -1.328125 -1.265625 -3.734375q0 -2.4843745 1.265625 -3.8593745q1.28125 -1.375 3.328125 -1.375q1.984375 0 3.234375 1.34375q1.25 1.34375 1.25 3.7968745q0 0.140625 -0.015625 0.4375l-7.34375 0q0.09375 1.625 0.921875 2.484375q0.828125 0.859375 2.0625 0.859375q0.90625 0 1.546875 -0.46875q0.65625 -0.484375 1.046875 -1.546875zm-5.484375 -2.703125l5.5 0q-0.109375 -1.234375 -0.625 -1.8593745q-0.796875 -0.96875 -2.078125 -0.96875q-1.140625 0 -1.9375 0.78125q-0.78125 0.7656245 -0.859375 2.0468745zm8.438232 2.9375l1.65625 -0.265625q0.140625 1.0 0.765625 1.53125q0.640625 0.515625 1.78125 0.515625q1.15625 0 1.703125 -0.46875q0.5625 -0.46875 0.5625 -1.09375q0 -0.5625 -0.484375 -0.890625q-0.34375 -0.21875 -1.703125 -0.5625q-1.84375 -0.46875 -2.5625 -0.796875q-0.703125 -0.34375 -1.078125 -0.9375q-0.359375 -0.609375 -0.359375 -1.3281245q0 -0.65625 0.296875 -1.21875q0.3125 -0.5625 0.828125 -0.9375q0.390625 -0.28125 1.0625 -0.484375q0.671875 -0.203125 1.4375 -0.203125q1.171875 0 2.046875 0.34375q0.875 0.328125 1.28125 0.90625q0.421875 0.5625 0.578125 1.515625l-1.625 0.21874952q-0.109375 -0.7499995 -0.65625 -1.1718745q-0.53125 -0.4375 -1.5 -0.4375q-1.15625 0 -1.640625 0.390625q-0.484375 0.375 -0.484375 0.875q0 0.32812452 0.203125 0.5937495q0.203125 0.265625 0.640625 0.4375q0.25 0.09375 1.46875 0.4375q1.765625 0.46875 2.46875 0.765625q0.703125 0.296875 1.09375 0.875q0.40625 0.578125 0.40625 1.4375q0 0.828125 -0.484375 1.578125q-0.484375 0.734375 -1.40625 1.140625q-0.921875 0.390625 -2.078125 0.390625q-1.921875 0 -2.9375 -0.796875q-1.0 -0.796875 -1.28125 -2.359375z" fill-rule="nonzero"></path><path fill="#d9d9d9" fill-opacity="0.8346" d="m204.71129 36.19685l43.866135 0l0 43.866146l-43.866135 0z" fill-rule="evenodd"></path><path fill="#adadad" fill-opacity="0.8346" d="m248.57742 36.19685l14.62204 -14.622047l0 43.866146l-14.62204 14.622047z" fill-rule="evenodd"></path><path fill="#e0e0e0" fill-opacity="0.8346" d="m204.71129 36.19685l14.62204 -14.622047l43.866135 0l-14.62204 14.622047z" fill-rule="evenodd"></path><path fill="#000000" fill-opacity="0.0" d="m204.71129 36.19685l14.62204 -14.622047l43.866135 0l0 43.866146l-14.62204 14.622047l-43.866135 0zm0 0l43.866135 0l14.62204 -14.622047m-14.62204 14.622047l0 43.866146" fill-rule="evenodd"></path><path stroke="#000000" stroke-width="1.0" stroke-linejoin="round" stroke-linecap="butt" stroke-dasharray="4.0,3.0" d="m204.71129 36.19685l14.62204 -14.622047l43.866135 0l0 43.866146l-14.62204 14.622047l-43.866135 0zm0 0l43.866135 0l14.62204 -14.622047m-14.62204 14.622047l0 43.866146" fill-rule="evenodd"></path><path fill="#d9d9d9" fill-opacity="0.8346" d="m190.60892 50.63517l43.86615 0l0 43.866142l-43.86615 0z" fill-rule="evenodd"></path><path fill="#adadad" fill-opacity="0.8346" d="m234.47507 50.63517l14.62204 -14.622047l0 43.866142l-14.62204 14.622047z" fill-rule="evenodd"></path><path fill="#e0e0e0" fill-opacity="0.8346" d="m190.60892 50.63517l14.622055 -14.622047l43.866135 0l-14.62204 14.622047z" fill-rule="evenodd"></path><path fill="#000000" fill-opacity="0.0" d="m190.60892 50.63517l14.622055 -14.622047l43.866135 0l0 43.866142l-14.62204 14.622047l-43.86615 0zm0 0l43.86615 0l14.62204 -14.622047m-14.62204 14.622047l0 43.866142" fill-rule="evenodd"></path><path stroke="#000000" stroke-width="1.0" stroke-linejoin="round" stroke-linecap="butt" stroke-dasharray="4.0,3.0" d="m190.60892 50.63517l14.622055 -14.622047l43.866135 0l0 43.866142l-14.62204 14.622047l-43.86615 0zm0 0l43.86615 0l14.62204 -14.622047m-14.62204 14.622047l0 43.866142" fill-rule="evenodd"></path><path fill="#d9d9d9" fill-opacity="0.8346" d="m248.3517 36.19685l43.866135 0l0 43.866146l-43.866135 0z" fill-rule="evenodd"></path><path fill="#adadad" fill-opacity="0.8346" d="m292.21783 36.19685l14.62207 -14.622047l0 43.866146l-14.62207 14.622047z" fill-rule="evenodd"></path><path fill="#e0e0e0" fill-opacity="0.8346" d="m248.3517 36.19685l14.622055 -14.622047l43.86615 0l-14.62207 14.622047z" fill-rule="evenodd"></path><path fill="#000000" fill-opacity="0.0" d="m248.3517 36.19685l14.622055 -14.622047l43.86615 0l0 43.866146l-14.62207 14.622047l-43.866135 0zm0 0l43.866135 0l14.62207 -14.622047m-14.62207 14.622047l0 43.866146" fill-rule="evenodd"></path><path stroke="#000000" stroke-width="1.0" stroke-linejoin="round" stroke-linecap="butt" stroke-dasharray="4.0,3.0" d="m248.3517 36.19685l14.622055 -14.622047l43.86615 0l0 43.866146l-14.62207 14.622047l-43.866135 0zm0 0l43.866135 0l14.62207 -14.622047m-14.62207 14.622047l0 43.866146" fill-rule="evenodd"></path><path fill="#d9d9d9" fill-opacity="0.8346" d="m234.18373 50.63517l43.866135 0l0 43.866142l-43.866135 0z" fill-rule="evenodd"></path><path fill="#adadad" fill-opacity="0.8346" d="m278.04987 50.63517l14.62204 -14.622047l0 43.866142l-14.62204 14.622047z" fill-rule="evenodd"></path><path fill="#e0e0e0" fill-opacity="0.8346" d="m234.18373 50.63517l14.62204 -14.622047l43.866135 0l-14.62204 14.622047z" fill-rule="evenodd"></path><path fill="#000000" fill-opacity="0.0" d="m234.18373 50.63517l14.62204 -14.622047l43.866135 0l0 43.866142l-14.62204 14.622047l-43.866135 0zm0 0l43.866135 0l14.62204 -14.622047m-14.62204 14.622047l0 43.866142" fill-rule="evenodd"></path><path stroke="#000000" stroke-width="1.0" stroke-linejoin="round" stroke-linecap="butt" stroke-dasharray="4.0,3.0" d="m234.18373 50.63517l14.62204 -14.622047l43.866135 0l0 43.866142l-14.62204 14.622047l-43.866135 0zm0 0l43.866135 0l14.62204 -14.622047m-14.62204 14.622047l0 43.866142" fill-rule="evenodd"></path><path fill="#d9d9d9" fill-opacity="0.8346" d="m175.83989 65.16798l43.86615 0l0 43.866142l-43.86615 0z" fill-rule="evenodd"></path><path fill="#adadad" fill-opacity="0.8346" d="m219.70604 65.16798l14.62204 -14.622044l0 43.86614l-14.62204 14.622047z" fill-rule="evenodd"></path><path fill="#e0e0e0" fill-opacity="0.8346" d="m175.83989 65.16798l14.622055 -14.622044l43.866135 0l-14.62204 14.622044z" fill-rule="evenodd"></path><path fill="#000000" fill-opacity="0.0" d="m175.83989 65.16798l14.622055 -14.622044l43.866135 0l0 43.86614l-14.62204 14.622047l-43.86615 0zm0 0l43.86615 0l14.62204 -14.622044m-14.62204 14.622044l0 43.866142" fill-rule="evenodd"></path><path stroke="#000000" stroke-width="1.0" stroke-linejoin="round" stroke-linecap="butt" stroke-dasharray="4.0,3.0" d="m175.83989 65.16798l14.622055 -14.622044l43.866135 0l0 43.86614l-14.62204 14.622047l-43.86615 0zm0 0l43.86615 0l14.62204 -14.622044m-14.62204 14.622044l0 43.866142" fill-rule="evenodd"></path><path fill="#d9d9d9" fill-opacity="0.8346" d="m161.73753 79.6063l43.866135 0l0 43.866142l-43.866135 0z" fill-rule="evenodd"></path><path fill="#adadad" fill-opacity="0.8346" d="m205.60367 79.6063l14.622055 -14.622047l0 43.866142l-14.622055 14.622047z" fill-rule="evenodd"></path><path fill="#e0e0e0" fill-opacity="0.8346" d="m161.73753 79.6063l14.62204 -14.622047l43.86615 0l-14.622055 14.622047z" fill-rule="evenodd"></path><path fill="#000000" fill-opacity="0.0" d="m161.73753 79.6063l14.62204 -14.622047l43.86615 0l0 43.866142l-14.622055 14.622047l-43.866135 0zm0 0l43.866135 0l14.622055 -14.622047m-14.622055 14.622047l0 43.866142" fill-rule="evenodd"></path><path stroke="#000000" stroke-width="1.0" stroke-linejoin="round" stroke-linecap="butt" stroke-dasharray="4.0,3.0" d="m161.73753 79.6063l14.62204 -14.622047l43.86615 0l0 43.866142l-14.622055 14.622047l-43.866135 0zm0 0l43.866135 0l14.622055 -14.622047m-14.622055 14.622047l0 43.866142" fill-rule="evenodd"></path><path fill="#d9d9d9" fill-opacity="0.8346" d="m219.48032 65.16798l43.86615 0l0 43.866142l-43.86615 0z" fill-rule="evenodd"></path><path fill="#adadad" fill-opacity="0.8346" d="m263.34647 65.16798l14.62204 -14.622044l0 43.86614l-14.62204 14.622047z" fill-rule="evenodd"></path><path fill="#e0e0e0" fill-opacity="0.8346" d="m219.48032 65.16798l14.62204 -14.622044l43.86615 0l-14.62204 14.622044z" fill-rule="evenodd"></path><path fill="#000000" fill-opacity="0.0" d="m219.48032 65.16798l14.62204 -14.622044l43.86615 0l0 43.86614l-14.62204 14.622047l-43.86615 0zm0 0l43.86615 0l14.62204 -14.622044m-14.62204 14.622044l0 43.866142" fill-rule="evenodd"></path><path stroke="#000000" stroke-width="1.0" stroke-linejoin="round" stroke-linecap="butt" stroke-dasharray="4.0,3.0" d="m219.48032 65.16798l14.62204 -14.622044l43.86615 0l0 43.86614l-14.62204 14.622047l-43.86615 0zm0 0l43.86615 0l14.62204 -14.622044m-14.62204 14.622044l0 43.866142" fill-rule="evenodd"></path><path fill="#d9d9d9" fill-opacity="0.8346" d="m205.31233 79.6063l43.86615 0l0 43.866142l-43.86615 0z" fill-rule="evenodd"></path><path fill="#adadad" fill-opacity="0.8346" d="m249.17848 79.6063l14.622055 -14.622047l0 43.866142l-14.622055 14.622047z" fill-rule="evenodd"></path><path fill="#e0e0e0" fill-opacity="0.8346" d="m205.31233 79.6063l14.622055 -14.622047l43.86615 0l-14.622055 14.622047z" fill-rule="evenodd"></path><path fill="#000000" fill-opacity="0.0" d="m205.31233 79.6063l14.622055 -14.622047l43.86615 0l0 43.866142l-14.622055 14.622047l-43.86615 0zm0 0l43.86615 0l14.622055 -14.622047m-14.622055 14.622047l0 43.866142" fill-rule="evenodd"></path><path stroke="#000000" stroke-width="1.0" stroke-linejoin="round" stroke-linecap="butt" stroke-dasharray="4.0,3.0" d="m205.31233 79.6063l14.622055 -14.622047l43.86615 0l0 43.866142l-14.622055 14.622047l-43.86615 0zm0 0l43.86615 0l14.622055 -14.622047m-14.622055 14.622047l0 43.866142" fill-rule="evenodd"></path><path fill="#ff0000" d="m307.43723 21.564304l0 10.56168l-57.608444 58.52231l-175.9049 0l0 -11.879265l58.04914 -58.963253z" fill-rule="evenodd"></path><path stroke="#000000" stroke-width="1.0" stroke-linejoin="round" stroke-linecap="butt" stroke-dasharray="4.0,3.0" d="m307.43723 21.564304l0 10.56168l-57.608444 58.52231l-175.9049 0l0 -11.879265l58.04914 -58.963253z" fill-rule="evenodd"></path><path fill="#000000" fill-opacity="0.0" d="m74.36483 102.24672l175.1181 0" fill-rule="evenodd"></path><path stroke="#000000" stroke-width="1.0" stroke-linejoin="round" stroke-linecap="butt" stroke-dasharray="4.0,3.0" d="m74.36483 102.24672l175.1181 0" fill-rule="evenodd"></path><path fill="#000000" fill-opacity="0.0" d="m74.36483 113.845146l175.1181 0" fill-rule="evenodd"></path><path stroke="#000000" stroke-width="1.0" stroke-linejoin="round" stroke-linecap="butt" stroke-dasharray="4.0,3.0" d="m74.36483 113.845146l175.1181 0" fill-rule="evenodd"></path><path fill="#000000" fill-opacity="0.0" d="m249.48294 102.24672l57.19684 -57.19685" fill-rule="evenodd"></path><path stroke="#000000" stroke-width="1.0" stroke-linejoin="round" stroke-linecap="butt" stroke-dasharray="4.0,3.0" d="m249.48294 102.24672l57.19684 -57.19685" fill-rule="evenodd"></path><path fill="#000000" fill-opacity="0.0" d="m249.48294 113.845146l57.19684 -57.196854" fill-rule="evenodd"></path><path stroke="#000000" stroke-width="1.0" stroke-linejoin="round" stroke-linecap="butt" stroke-dasharray="4.0,3.0" d="m249.48294 113.845146l57.19684 -57.196854" fill-rule="evenodd"></path><path fill="#000000" fill-opacity="0.0" d="m73.92388 79.20473l175.1181 0" fill-rule="evenodd"></path><path stroke="#000000" stroke-width="1.0" stroke-linejoin="round" stroke-linecap="butt" d="m73.92388 79.20473l175.1181 0" fill-rule="evenodd"></path><path fill="#000000" fill-opacity="0.0" d="m307.57742 21.120735l-58.519684 57.637794" fill-rule="evenodd"></path><path stroke="#000000" stroke-width="1.0" stroke-linejoin="round" stroke-linecap="butt" d="m307.57742 21.120735l-58.519684 57.637794" fill-rule="evenodd"></path><path fill="#000000" fill-opacity="0.0" d="m249.05511 77.44357l0 14.078735" fill-rule="evenodd"></path><path stroke="#000000" stroke-width="1.0" stroke-linejoin="round" stroke-linecap="butt" d="m249.05511 77.44357l0 14.078735" fill-rule="evenodd"></path><path fill="#000000" fill-opacity="0.0" d="m117.485565 78.76378l0 12.314964" fill-rule="evenodd"></path><path stroke="#000000" stroke-width="1.0" stroke-linejoin="round" stroke-linecap="butt" d="m117.485565 78.76378l0 12.314964" fill-rule="evenodd"></path><path fill="#000000" fill-opacity="0.0" d="m160.76903 79.20473l0 12.314957" fill-rule="evenodd"></path><path stroke="#000000" stroke-width="1.0" stroke-linejoin="round" stroke-linecap="butt" d="m160.76903 79.20473l0 12.314957" fill-rule="evenodd"></path><path fill="#000000" fill-opacity="0.0" d="m205.8084 79.20473l0 12.314957" fill-rule="evenodd"></path><path stroke="#000000" stroke-width="1.0" stroke-linejoin="round" stroke-linecap="butt" d="m205.8084 79.20473l0 12.314957" fill-rule="evenodd"></path><path fill="#000000" fill-opacity="0.0" d="m177.13911 19.228346l-60.22048 59.968506" fill-rule="evenodd"></path><path stroke="#000000" stroke-width="1.0" stroke-linejoin="round" stroke-linecap="butt" d="m177.13911 19.228346l-60.22048 59.968506" fill-rule="evenodd"></path><path fill="#000000" fill-opacity="0.0" d="m222.13911 20.044619l-60.661423 59.149612" fill-rule="evenodd"></path><path stroke="#000000" stroke-width="1.0" stroke-linejoin="round" stroke-linecap="butt" d="m222.13911 20.044619l-60.661423 59.149612" fill-rule="evenodd"></path><path fill="#000000" fill-opacity="0.0" d="m264.2756 20.863518l-58.45671 58.173225" fill-rule="evenodd"></path><path stroke="#000000" stroke-width="1.0" stroke-linejoin="round" stroke-linecap="butt" d="m264.2756 20.863518l-58.45671 58.173225" fill-rule="evenodd"></path><path fill="#000000" fill-opacity="0.0" d="m116.91076 35.362206l175.1181 0" fill-rule="evenodd"></path><path stroke="#000000" stroke-width="1.0" stroke-linejoin="round" stroke-linecap="butt" d="m116.91076 35.362206l175.1181 0" fill-rule="evenodd"></path><path fill="#000000" fill-opacity="0.0" d="m103.191605 48.719162l175.11812 0" fill-rule="evenodd"></path><path stroke="#000000" stroke-width="1.0" stroke-linejoin="round" stroke-linecap="butt" d="m103.191605 48.719162l175.11812 0" fill-rule="evenodd"></path><path fill="#000000" fill-opacity="0.0" d="m292.6509 36.404198l0 12.314964" fill-rule="evenodd"></path><path stroke="#000000" stroke-width="1.0" stroke-linejoin="round" stroke-linecap="butt" d="m292.6509 36.404198l0 12.314964" fill-rule="evenodd"></path><path fill="#000000" fill-opacity="0.0" d="m264.3281 62.515747l-0.31497192 14.929138" fill-rule="evenodd"></path><path stroke="#000000" stroke-width="1.0" stroke-linejoin="round" stroke-linecap="butt" d="m264.3281 62.515747l-0.31497192 14.929138" fill-rule="evenodd"></path><path fill="#000000" fill-opacity="0.0" d="m88.89501 62.96063l175.1181 0" fill-rule="evenodd"></path><path stroke="#000000" stroke-width="1.0" stroke-linejoin="round" stroke-linecap="butt" d="m88.89501 62.96063l175.1181 0" fill-rule="evenodd"></path><path fill="#000000" fill-opacity="0.0" d="m278.53543 48.401573l-0.22045898 15.779526" fill-rule="evenodd"></path><path stroke="#000000" stroke-width="1.0" stroke-linejoin="round" stroke-linecap="butt" d="m278.53543 48.401573l-0.22045898 15.779526" fill-rule="evenodd"></path><path fill="#000000" fill-opacity="0.0" d="m2.2099738 16.63517l34.204727 0l0 31.77953l-34.204727 0z" fill-rule="evenodd"></path><path fill="#000000" fill-opacity="0.0" d="m45.17848 28.656168l-5.480316 0l0 28.944883l5.480316 0z" fill-rule="evenodd"></path><path fill="#000000" fill-opacity="0.0" d="m133.36482 19.228346l-59.71653 59.307083" fill-rule="evenodd"></path><path stroke="#000000" stroke-width="1.0" stroke-linejoin="round" stroke-linecap="butt" d="m133.36482 19.228346l-59.71653 59.307083" fill-rule="evenodd"></path><path fill="#000000" fill-opacity="0.0" d="m132.54855 19.637794l175.08661 1.6377964" fill-rule="evenodd"></path><path stroke="#000000" stroke-width="1.0" stroke-linejoin="round" stroke-linecap="butt" d="m132.54855 19.637794l175.08661 1.6377964" fill-rule="evenodd"></path><path fill="#000000" fill-opacity="0.0" d="m2.2099738 16.63517l130.23622 0l0 67.779526l-130.23622 0z" fill-rule="evenodd"></path><path fill="#000000" d="m15.194348 57.44493l-3.75 -9.859375l1.765625 0l2.125 5.90625q0.34375 0.953125 0.625 1.984375q0.21875095 -0.78125 0.62500095 -1.875l2.1875 -6.015625l1.71875 0l-3.734375 9.859375l-1.562501 0z" fill-rule="nonzero"></path><path fill="#000000" d="m23.13185 57.44493l0 -1.375l-2.484375 0l0 -0.640625l2.609375 -3.71875l0.578125 0l0 3.71875l0.765625 0l0 0.640625l-0.765625 0l0 1.375l-0.703125 0zm0 -2.015625l0 -2.578125l-1.796875 2.578125l1.796875 0z" fill-rule="nonzero"></path><path fill="#000000" d="m40.20187 49.44493l-8.968748 0l0 -1.5625l8.968748 0l0 1.5625zm0 4.125l-8.968748 0l0 -1.546875l8.968748 0l0 1.546875zm2.3324585 3.875l0 -13.59375l4.6875 0q1.578125 0 2.421875 0.1875q1.15625 0.265625 1.984375 0.96875q1.078125 0.921875 1.609375 2.34375q0.53125 1.40625 0.53125 3.21875q0 1.546875 -0.359375 2.75q-0.359375 1.1875 -0.921875 1.984375q-0.5625 0.78125 -1.234375 1.234375q-0.671875 0.4375 -1.625 0.671875q-0.953125 0.234375 -2.1875 0.234375l-4.90625 0zm1.796875 -1.609375l2.90625 0q1.34375 0 2.109375 -0.25q0.765625 -0.25 1.21875 -0.703125q0.640625 -0.640625 1.0 -1.71875q0.359375 -1.078125 0.359375 -2.625q0 -2.125 -0.703125 -3.265625q-0.703125 -1.15625 -1.703125 -1.546875q-0.71875 -0.28125 -2.328125 -0.28125l-2.859375 0l0 10.390625zm18.1875 1.609375l-1.546875 0l0 -13.59375l1.65625 0l0 4.84375q1.0625 -1.328125 2.7031288 -1.328125q0.90625 0 1.71875 0.375q0.8125 0.359375 1.328125 1.03125q0.53125 0.65625 0.828125 1.59375q0.296875 0.9375 0.296875 2.0q0 2.53125 -1.25 3.921875q-1.25 1.375 -3.0 1.375q-1.7500038 0 -2.7343788 -1.453125l0 1.234375zm-0.015625 -5.0q0 1.765625 0.46875 2.5625q0.796875 1.28125 2.1406288 1.28125q1.09375 0 1.890625 -0.9375q0.796875 -0.953125 0.796875 -2.84375q0 -1.921875 -0.765625 -2.84375q-0.765625 -0.921875 -1.84375 -0.921875q-1.09375 0 -1.8906288 0.953125q-0.796875 0.953125 -0.796875 2.75z" fill-rule="nonzero"></path><path fill="#000000" fill-opacity="0.0" d="m45.17848 28.654856l248.18898 0l0 28.944883l-248.18898 0z" fill-rule="evenodd"></path><path fill="#000000" d="m58.70973 45.849228l0 0.765625l-4.265625 0q0 -0.28125 0.09375 -0.546875q0.171875 -0.4375 0.53125 -0.859375q0.359375 -0.421875 1.03125 -0.96875q1.046875 -0.875 1.40625 -1.375q0.375 -0.5 0.375 -0.953125q0 -0.46875 -0.34375 -0.78125q-0.328125 -0.328125 -0.859375 -0.328125q-0.578125 0 -0.921875 0.34375q-0.34375 0.34375 -0.34375 0.953125l-0.8125 -0.09375q0.078125 -0.90625 0.625 -1.375q0.546875 -0.484375 1.46875 -0.484375q0.921875 0 1.453125 0.515625q0.546875 0.515625 0.546875 1.265625q0 0.390625 -0.15625 0.765625q-0.15625 0.375 -0.53125 0.796875q-0.359375 0.40625 -1.203125 1.125q-0.71875 0.59375 -0.921875 0.8125q-0.203125 0.21875 -0.328125 0.421875l3.15625 0z" fill-rule="nonzero"></path><path fill="#000000" fill-opacity="0.0" d="m307.6404 20.863518l0 11.055117" fill-rule="evenodd"></path><path stroke="#000000" stroke-width="1.0" stroke-linejoin="round" stroke-linecap="butt" d="m307.6404 20.863518l0 11.055117" fill-rule="evenodd"></path></g></svg>

