<?xml version="1.0" standalone="yes"?>

<svg version="1.1" viewBox="0.0 0.0 309.3307086614173 256.09448818897636" fill="none" stroke="none" stroke-linecap="square" stroke-miterlimit="10" xmlns="http://www.w3.org/2000/svg" xmlns:xlink="http://www.w3.org/1999/xlink"><clipPath id="p.0"><path d="m0 0l309.33072 0l0 256.09448l-309.33072 0l0 -256.09448z" clip-rule="nonzero"></path></clipPath><g clip-path="url(#p.0)"><path fill="#000000" fill-opacity="0.0" d="m0 0l309.33072 0l0 256.09448l-309.33072 0z" fill-rule="evenodd"></path><path fill="#000000" fill-opacity="0.0" d="m73.50394 79.755905l175.13387 0l0 176.14174l-175.13387 0z" fill-rule="evenodd"></path><path fill="#000000" fill-opacity="0.0" d="m248.6378 79.755905l58.377945 -58.377953l0 176.14172l-58.377945 58.37796z" fill-rule="evenodd"></path><path fill="#000000" fill-opacity="0.0" d="m73.50394 79.755905l58.37796 -58.377953l175.13385 0l-58.377945 58.377953z" fill-rule="evenodd"></path><path fill="#000000" fill-opacity="0.0" d="m73.50394 79.755905l58.37796 -58.377953l175.13385 0l0 176.14172l-58.377945 58.37796l-175.13387 0zm0 0l175.13387 0l58.377945 -58.377953m-58.377945 58.377953l0 176.14174" fill-rule="evenodd"></path><path fill="#000000" fill-opacity="0.2" d="m248.6378 79.755905l58.377945 -58.377953l0 176.14172l-58.377945 58.37796z" fill-rule="evenodd"></path><path fill="#ffffff" fill-opacity="0.2" d="m73.50394 79.755905l58.37796 -58.377953l175.13385 0l-58.377945 58.377953z" fill-rule="evenodd"></path><path stroke="#000000" stroke-width="1.0" stroke-linejoin="round" stroke-linecap="butt" d="m73.50394 79.755905l58.37796 -58.377953l175.13385 0l0 176.14172l-58.377945 58.37796l-175.13387 0zm0 0l175.13387 0l58.377945 -58.377953m-58.377945 58.377953l0 176.14174" fill-rule="evenodd"></path><path fill="#d9d9d9" fill-opacity="0.8346" d="m116.60627 80.000565l43.8442 0l0 43.87345l-43.8442 0z" fill-rule="evenodd"></path><path fill="#adadad" fill-opacity="0.8346" d="m160.45047 80.000565l14.614746 -14.614738l0 43.87345l-14.614746 14.614738z" fill-rule="evenodd"></path><path fill="#e0e0e0" fill-opacity="0.8346" d="m116.60627 80.000565l14.614738 -14.614738l43.844208 0l-14.614746 14.614738z" fill-rule="evenodd"></path><path fill="#000000" fill-opacity="0.0" d="m116.60627 80.000565l14.614738 -14.614738l43.844208 0l0 43.87345l-14.614746 14.614738l-43.8442 0zm0 0l43.8442 0l14.614746 -14.614738m-14.614746 14.614738l0 43.87345" fill-rule="evenodd"></path><path stroke="#000000" stroke-width="1.0" stroke-linejoin="round" stroke-linecap="butt" stroke-dasharray="1.0,3.0" d="m116.60627 80.000565l14.614738 -14.614738l43.844208 0l0 43.87345l-14.614746 14.614738l-43.8442 0zm0 0l43.8442 0l14.614746 -14.614738m-14.614746 14.614738l0 43.87345" fill-rule="evenodd"></path><path fill="#d9d9d9" fill-opacity="0.8346" d="m102.510956 94.43888l43.844208 0l0 43.87345l-43.844208 0z" fill-rule="evenodd"></path><path fill="#adadad" fill-opacity="0.8346" d="m146.35516 94.43888l14.614731 -14.614731l0 43.87345l-14.614731 14.614731z" fill-rule="evenodd"></path><path fill="#e0e0e0" fill-opacity="0.8346" d="m102.510956 94.43888l14.614738 -14.614731l43.8442 0l-14.614731 14.614731z" fill-rule="evenodd"></path><path fill="#000000" fill-opacity="0.0" d="m102.510956 94.43888l14.614738 -14.614731l43.8442 0l0 43.87345l-14.614731 14.614731l-43.844208 0zm0 0l43.844208 0l14.614731 -14.614731m-14.614731 14.614731l0 43.87345" fill-rule="evenodd"></path><path stroke="#000000" stroke-width="1.0" stroke-linejoin="round" stroke-linecap="butt" stroke-dasharray="1.0,3.0" d="m102.510956 94.43888l14.614738 -14.614731l43.8442 0l0 43.87345l-14.614731 14.614731l-43.844208 0zm0 0l43.844208 0l14.614731 -14.614731m-14.614731 14.614731l0 43.87345" fill-rule="evenodd"></path><path fill="#d9d9d9" fill-opacity="0.8346" d="m160.22487 80.000565l43.844208 0l0 43.87345l-43.844208 0z" fill-rule="evenodd"></path><path fill="#adadad" fill-opacity="0.8346" d="m204.06908 80.000565l14.614731 -14.614738l0 43.87345l-14.614731 14.614738z" fill-rule="evenodd"></path><path fill="#e0e0e0" fill-opacity="0.8346" d="m160.22487 80.000565l14.614731 -14.614738l43.844208 0l-14.614731 14.614738z" fill-rule="evenodd"></path><path fill="#000000" fill-opacity="0.0" d="m160.22487 80.000565l14.614731 -14.614738l43.844208 0l0 43.87345l-14.614731 14.614738l-43.844208 0zm0 0l43.844208 0l14.614731 -14.614738m-14.614731 14.614738l0 43.87345" fill-rule="evenodd"></path><path stroke="#000000" stroke-width="1.0" stroke-linejoin="round" stroke-linecap="butt" stroke-dasharray="1.0,3.0" d="m160.22487 80.000565l14.614731 -14.614738l43.844208 0l0 43.87345l-14.614731 14.614738l-43.844208 0zm0 0l43.844208 0l14.614731 -14.614738m-14.614731 14.614738l0 43.87345" fill-rule="evenodd"></path><path fill="#d9d9d9" fill-opacity="0.8346" d="m146.06396 94.43888l43.844208 0l0 43.87345l-43.844208 0z" fill-rule="evenodd"></path><path fill="#adadad" fill-opacity="0.8346" d="m189.90817 94.43888l14.614746 -14.614731l0 43.87345l-14.614746 14.614731z" fill-rule="evenodd"></path><path fill="#e0e0e0" fill-opacity="0.8346" d="m146.06396 94.43888l14.614746 -14.614731l43.844208 0l-14.614746 14.614731z" fill-rule="evenodd"></path><path fill="#000000" fill-opacity="0.0" d="m146.06396 94.43888l14.614746 -14.614731l43.844208 0l0 43.87345l-14.614746 14.614731l-43.844208 0zm0 0l43.844208 0l14.614746 -14.614731m-14.614746 14.614731l0 43.87345" fill-rule="evenodd"></path><path stroke="#000000" stroke-width="1.0" stroke-linejoin="round" stroke-linecap="butt" stroke-dasharray="1.0,3.0" d="m146.06396 94.43888l14.614746 -14.614731l43.844208 0l0 43.87345l-14.614746 14.614731l-43.844208 0zm0 0l43.844208 0l14.614746 -14.614731m-14.614746 14.614731l0 43.87345" fill-rule="evenodd"></path><path fill="#d9d9d9" fill-opacity="0.8346" d="m87.74931 108.971695l43.844208 0l0 43.873444l-43.844208 0z" fill-rule="evenodd"></path><path fill="#adadad" fill-opacity="0.8346" d="m131.59352 108.971695l14.614731 -14.614738l0 43.87345l-14.614731 14.614731z" fill-rule="evenodd"></path><path fill="#e0e0e0" fill-opacity="0.8346" d="m87.74931 108.971695l14.614731 -14.614738l43.844208 0l-14.614731 14.614738z" fill-rule="evenodd"></path><path fill="#000000" fill-opacity="0.0" d="m87.74931 108.971695l14.614731 -14.614738l43.844208 0l0 43.87345l-14.614731 14.614731l-43.844208 0zm0 0l43.844208 0l14.614731 -14.614738m-14.614731 14.614738l0 43.873444" fill-rule="evenodd"></path><path stroke="#000000" stroke-width="1.0" stroke-linejoin="round" stroke-linecap="butt" stroke-dasharray="1.0,3.0" d="m87.74931 108.971695l14.614731 -14.614738l43.844208 0l0 43.87345l-14.614731 14.614731l-43.844208 0zm0 0l43.844208 0l14.614731 -14.614738m-14.614731 14.614738l0 43.873444" fill-rule="evenodd"></path><path fill="#d9d9d9" fill-opacity="0.8346" d="m73.654 123.41001l43.844208 0l0 43.87345l-43.844208 0z" fill-rule="evenodd"></path><path fill="#adadad" fill-opacity="0.8346" d="m117.49821 123.41001l14.614738 -14.614738l0 43.87346l-14.614738 14.614731z" fill-rule="evenodd"></path><path fill="#e0e0e0" fill-opacity="0.8346" d="m73.654 123.41001l14.614738 -14.614738l43.844208 0l-14.614738 14.614738z" fill-rule="evenodd"></path><path fill="#000000" fill-opacity="0.0" d="m73.654 123.41001l14.614738 -14.614738l43.844208 0l0 43.87346l-14.614738 14.614731l-43.844208 0zm0 0l43.844208 0l14.614738 -14.614738m-14.614738 14.614738l0 43.87345" fill-rule="evenodd"></path><path stroke="#000000" stroke-width="1.0" stroke-linejoin="round" stroke-linecap="butt" stroke-dasharray="1.0,3.0" d="m73.654 123.41001l14.614738 -14.614738l43.844208 0l0 43.87346l-14.614738 14.614731l-43.844208 0zm0 0l43.844208 0l14.614738 -14.614738m-14.614738 14.614738l0 43.87345" fill-rule="evenodd"></path><path fill="#d9d9d9" fill-opacity="0.8346" d="m131.3679 108.971695l43.844208 0l0 43.873444l-43.844208 0z" fill-rule="evenodd"></path><path fill="#adadad" fill-opacity="0.8346" d="m175.21211 108.971695l14.614746 -14.614738l0 43.87345l-14.614746 14.614731z" fill-rule="evenodd"></path><path fill="#e0e0e0" fill-opacity="0.8346" d="m131.3679 108.971695l14.614746 -14.614738l43.844208 0l-14.614746 14.614738z" fill-rule="evenodd"></path><path fill="#000000" fill-opacity="0.0" d="m131.3679 108.971695l14.614746 -14.614738l43.844208 0l0 43.87345l-14.614746 14.614731l-43.844208 0zm0 0l43.844208 0l14.614746 -14.614738m-14.614746 14.614738l0 43.873444" fill-rule="evenodd"></path><path stroke="#000000" stroke-width="1.0" stroke-linejoin="round" stroke-linecap="butt" stroke-dasharray="1.0,3.0" d="m131.3679 108.971695l14.614746 -14.614738l43.844208 0l0 43.87345l-14.614746 14.614731l-43.844208 0zm0 0l43.844208 0l14.614746 -14.614738m-14.614746 14.614738l0 43.873444" fill-rule="evenodd"></path><path fill="#d9d9d9" fill-opacity="0.8346" d="m117.207016 123.41001l43.844208 0l0 43.87345l-43.844208 0z" fill-rule="evenodd"></path><path fill="#adadad" fill-opacity="0.8346" d="m161.05122 123.41001l14.614731 -14.614738l0 43.87346l-14.614731 14.614731z" fill-rule="evenodd"></path><path fill="#e0e0e0" fill-opacity="0.8346" d="m117.207016 123.41001l14.614731 -14.614738l43.844208 0l-14.614731 14.614738z" fill-rule="evenodd"></path><path fill="#000000" fill-opacity="0.0" d="m117.207016 123.41001l14.614731 -14.614738l43.844208 0l0 43.87346l-14.614731 14.614731l-43.844208 0zm0 0l43.844208 0l14.614731 -14.614738m-14.614731 14.614738l0 43.87345" fill-rule="evenodd"></path><path stroke="#000000" stroke-width="1.0" stroke-linejoin="round" stroke-linecap="butt" stroke-dasharray="1.0,3.0" d="m117.207016 123.41001l14.614731 -14.614738l43.844208 0l0 43.87346l-14.614731 14.614731l-43.844208 0zm0 0l43.844208 0l14.614731 -14.614738m-14.614731 14.614738l0 43.87345" fill-rule="evenodd"></path><path fill="#d9d9d9" fill-opacity="0.8346" d="m204.51181 80.00787l43.86615 0l0 43.866142l-43.86615 0z" fill-rule="evenodd"></path><path fill="#adadad" fill-opacity="0.8346" d="m248.37796 80.00787l14.62204 -14.622047l0 43.866142l-14.62204 14.622047z" fill-rule="evenodd"></path><path fill="#e0e0e0" fill-opacity="0.8346" d="m204.51181 80.00787l14.622055 -14.622047l43.866135 0l-14.62204 14.622047z" fill-rule="evenodd"></path><path fill="#000000" fill-opacity="0.0" d="m204.51181 80.00787l14.622055 -14.622047l43.866135 0l0 43.866142l-14.62204 14.622047l-43.86615 0zm0 0l43.86615 0l14.62204 -14.622047m-14.62204 14.622047l0 43.866142" fill-rule="evenodd"></path><path stroke="#000000" stroke-width="1.0" stroke-linejoin="round" stroke-linecap="butt" stroke-dasharray="1.0,3.0" d="m204.51181 80.00787l14.622055 -14.622047l43.866135 0l0 43.866142l-14.62204 14.622047l-43.86615 0zm0 0l43.86615 0l14.62204 -14.622047m-14.62204 14.622047l0 43.866142" fill-rule="evenodd"></path><path fill="#d9d9d9" fill-opacity="0.8346" d="m190.40945 94.4462l43.866135 0l0 43.866135l-43.866135 0z" fill-rule="evenodd"></path><path fill="#adadad" fill-opacity="0.8346" d="m234.27559 94.4462l14.622055 -14.622047l0 43.866142l-14.622055 14.62204z" fill-rule="evenodd"></path><path fill="#e0e0e0" fill-opacity="0.8346" d="m190.40945 94.4462l14.62204 -14.622047l43.86615 0l-14.622055 14.622047z" fill-rule="evenodd"></path><path fill="#000000" fill-opacity="0.0" d="m190.40945 94.4462l14.62204 -14.622047l43.86615 0l0 43.866142l-14.622055 14.62204l-43.866135 0zm0 0l43.866135 0l14.622055 -14.622047m-14.622055 14.622047l0 43.866135" fill-rule="evenodd"></path><path stroke="#000000" stroke-width="1.0" stroke-linejoin="round" stroke-linecap="butt" stroke-dasharray="1.0,3.0" d="m190.40945 94.4462l14.62204 -14.622047l43.86615 0l0 43.866142l-14.622055 14.62204l-43.866135 0zm0 0l43.866135 0l14.622055 -14.622047m-14.622055 14.622047l0 43.866135" fill-rule="evenodd"></path><path fill="#d9d9d9" fill-opacity="0.8346" d="m248.15224 80.00787l43.866135 0l0 43.866142l-43.866135 0z" fill-rule="evenodd"></path><path fill="#adadad" fill-opacity="0.8346" d="m292.01837 80.00787l14.62204 -14.622047l0 43.866142l-14.62204 14.622047z" fill-rule="evenodd"></path><path fill="#e0e0e0" fill-opacity="0.8346" d="m248.15224 80.00787l14.622055 -14.622047l43.86612 0l-14.62204 14.622047z" fill-rule="evenodd"></path><path fill="#000000" fill-opacity="0.0" d="m248.15224 80.00787l14.622055 -14.622047l43.86612 0l0 43.866142l-14.62204 14.622047l-43.866135 0zm0 0l43.866135 0l14.62204 -14.622047m-14.62204 14.622047l0 43.866142" fill-rule="evenodd"></path><path stroke="#000000" stroke-width="1.0" stroke-linejoin="round" stroke-linecap="butt" stroke-dasharray="1.0,3.0" d="m248.15224 80.00787l14.622055 -14.622047l43.86612 0l0 43.866142l-14.62204 14.622047l-43.866135 0zm0 0l43.866135 0l14.62204 -14.622047m-14.62204 14.622047l0 43.866142" fill-rule="evenodd"></path><path fill="#d9d9d9" fill-opacity="0.8346" d="m233.98425 94.4462l43.86615 0l0 43.866135l-43.86615 0z" fill-rule="evenodd"></path><path fill="#adadad" fill-opacity="0.8346" d="m277.8504 94.4462l14.62204 -14.622047l0 43.866142l-14.62204 14.62204z" fill-rule="evenodd"></path><path fill="#e0e0e0" fill-opacity="0.8346" d="m233.98425 94.4462l14.62204 -14.622047l43.86615 0l-14.62204 14.622047z" fill-rule="evenodd"></path><path fill="#000000" fill-opacity="0.0" d="m233.98425 94.4462l14.62204 -14.622047l43.86615 0l0 43.866142l-14.62204 14.62204l-43.86615 0zm0 0l43.86615 0l14.62204 -14.622047m-14.62204 14.622047l0 43.866135" fill-rule="evenodd"></path><path stroke="#000000" stroke-width="1.0" stroke-linejoin="round" stroke-linecap="butt" stroke-dasharray="1.0,3.0" d="m233.98425 94.4462l14.62204 -14.622047l43.86615 0l0 43.866142l-14.62204 14.62204l-43.86615 0zm0 0l43.86615 0l14.62204 -14.622047m-14.62204 14.622047l0 43.866135" fill-rule="evenodd"></path><path fill="#d9d9d9" fill-opacity="0.8346" d="m175.64043 108.979004l43.866135 0l0 43.866135l-43.866135 0z" fill-rule="evenodd"></path><path fill="#adadad" fill-opacity="0.8346" d="m219.50656 108.979004l14.622055 -14.622047l0 43.866142l-14.622055 14.62204z" fill-rule="evenodd"></path><path fill="#e0e0e0" fill-opacity="0.8346" d="m175.64043 108.979004l14.62204 -14.622047l43.86615 0l-14.622055 14.622047z" fill-rule="evenodd"></path><path fill="#000000" fill-opacity="0.0" d="m175.64043 108.979004l14.62204 -14.622047l43.86615 0l0 43.866142l-14.622055 14.62204l-43.866135 0zm0 0l43.866135 0l14.622055 -14.622047m-14.622055 14.622047l0 43.866135" fill-rule="evenodd"></path><path stroke="#000000" stroke-width="1.0" stroke-linejoin="round" stroke-linecap="butt" stroke-dasharray="1.0,3.0" d="m175.64043 108.979004l14.62204 -14.622047l43.86615 0l0 43.866142l-14.622055 14.62204l-43.866135 0zm0 0l43.866135 0l14.622055 -14.622047m-14.622055 14.622047l0 43.866135" fill-rule="evenodd"></path><path fill="#d9d9d9" fill-opacity="0.8346" d="m161.53806 123.41732l43.86615 0l0 43.866142l-43.86615 0z" fill-rule="evenodd"></path><path fill="#adadad" fill-opacity="0.8346" d="m205.4042 123.41732l14.62204 -14.622047l0 43.86615l-14.62204 14.62204z" fill-rule="evenodd"></path><path fill="#e0e0e0" fill-opacity="0.8346" d="m161.53806 123.41732l14.622055 -14.622047l43.866135 0l-14.62204 14.622047z" fill-rule="evenodd"></path><path fill="#000000" fill-opacity="0.0" d="m161.53806 123.41732l14.622055 -14.622047l43.866135 0l0 43.86615l-14.62204 14.62204l-43.86615 0zm0 0l43.86615 0l14.62204 -14.622047m-14.62204 14.622047l0 43.866142" fill-rule="evenodd"></path><path stroke="#000000" stroke-width="1.0" stroke-linejoin="round" stroke-linecap="butt" stroke-dasharray="1.0,3.0" d="m161.53806 123.41732l14.622055 -14.622047l43.866135 0l0 43.86615l-14.62204 14.62204l-43.86615 0zm0 0l43.86615 0l14.62204 -14.622047m-14.62204 14.622047l0 43.866142" fill-rule="evenodd"></path><path fill="#d9d9d9" fill-opacity="0.8346" d="m219.28084 108.979004l43.866135 0l0 43.866135l-43.866135 0z" fill-rule="evenodd"></path><path fill="#adadad" fill-opacity="0.8346" d="m263.14697 108.979004l14.62207 -14.622047l0 43.866142l-14.62207 14.62204z" fill-rule="evenodd"></path><path fill="#e0e0e0" fill-opacity="0.8346" d="m219.28084 108.979004l14.622055 -14.622047l43.86615 0l-14.62207 14.622047z" fill-rule="evenodd"></path><path fill="#000000" fill-opacity="0.0" d="m219.28084 108.979004l14.622055 -14.622047l43.86615 0l0 43.866142l-14.62207 14.62204l-43.866135 0zm0 0l43.866135 0l14.62207 -14.622047m-14.62207 14.622047l0 43.866135" fill-rule="evenodd"></path><path stroke="#000000" stroke-width="1.0" stroke-linejoin="round" stroke-linecap="butt" stroke-dasharray="1.0,3.0" d="m219.28084 108.979004l14.622055 -14.622047l43.86615 0l0 43.866142l-14.62207 14.62204l-43.866135 0zm0 0l43.866135 0l14.62207 -14.622047m-14.62207 14.622047l0 43.866135" fill-rule="evenodd"></path><path fill="#d9d9d9" fill-opacity="0.8346" d="m205.11285 123.41732l43.86615 0l0 43.866142l-43.86615 0z" fill-rule="evenodd"></path><path fill="#adadad" fill-opacity="0.8346" d="m248.979 123.41732l14.62204 -14.622047l0 43.86615l-14.62204 14.62204z" fill-rule="evenodd"></path><path fill="#e0e0e0" fill-opacity="0.8346" d="m205.11285 123.41732l14.622055 -14.622047l43.866135 0l-14.62204 14.622047z" fill-rule="evenodd"></path><path fill="#000000" fill-opacity="0.0" d="m205.11285 123.41732l14.622055 -14.622047l43.866135 0l0 43.86615l-14.62204 14.62204l-43.86615 0zm0 0l43.86615 0l14.62204 -14.622047m-14.62204 14.622047l0 43.866142" fill-rule="evenodd"></path><path stroke="#000000" stroke-width="1.0" stroke-linejoin="round" stroke-linecap="butt" stroke-dasharray="1.0,3.0" d="m205.11285 123.41732l14.622055 -14.622047l43.866135 0l0 43.86615l-14.62204 14.62204l-43.86615 0zm0 0l43.86615 0l14.62204 -14.622047m-14.62204 14.622047l0 43.866142" fill-rule="evenodd"></path><path fill="#000000" fill-opacity="0.0" d="m-20.32021 -9.981627l270.80316 0l0 28.0l-270.80316 0z" fill-rule="evenodd"></path><path fill="#000000" d="m62.357937 10.362748l1.515625 0.375q-0.46875 1.875 -1.71875 2.859375q-1.234375 0.984375 -3.015625 0.984375q-1.859375 0 -3.015625 -0.75q-1.15625 -0.765625 -1.765625 -2.1875q-0.609375 -1.4375 -0.609375 -3.078125q0 -1.796875 0.6875 -3.125q0.6875 -1.328125 1.9375 -2.0156248q1.265625 -0.703125 2.78125 -0.703125q1.71875 0 2.890625 0.875q1.171875 0.87499976 1.640625 2.4687498l-1.5 0.34375q-0.390625 -1.25 -1.15625 -1.8125q-0.75 -0.578125 -1.90625 -0.578125q-1.3125 0 -2.203125 0.640625q-0.890625 0.625 -1.25 1.703125q-0.359375 1.0625 -0.359375 2.1875q0 1.46875 0.421875 2.5625q0.4375 1.078125 1.328125 1.625q0.90625 0.53125 1.953125 0.53125q1.265625 0 2.140625 -0.734375q0.890625 -0.734375 1.203125 -2.171875zm8.617184 2.984375q-0.78125 0.671875 -1.5 0.953125q-0.71875 0.265625 -1.546875 0.265625q-1.375 0 -2.109375 -0.671875q-0.734375 -0.671875 -0.734375 -1.703125q0 -0.609375 0.28125 -1.109375q0.28125 -0.515625 0.71875 -0.8125q0.453125 -0.3125 1.015625 -0.46875q0.421875 -0.109375 1.25 -0.203125q1.703125 -0.203125 2.515625 -0.484375q0 -0.296875 0 -0.375q0 -0.859375 -0.390625 -1.203125q-0.546875 -0.484375 -1.609375 -0.484375q-0.984375 0 -1.46875 0.359375q-0.46875 0.34375 -0.6875 1.21875l-1.375 -0.1875q0.1875 -0.875 0.609375 -1.421875q0.4375 -0.546875 1.25 -0.828125q0.8125 -0.296875 1.875 -0.296875q1.0625 0 1.71875 0.25q0.671875 0.25 0.984375 0.625q0.3125 0.375 0.4375 0.953125q0.078125 0.359375 0.078125 1.296875l0 1.875q0 1.96875 0.078125 2.484375q0.09375 0.515625 0.359375 1.0l-1.46875 0q-0.21875 -0.4375 -0.28125 -1.03125zm-0.109375 -3.140625q-0.765625 0.3125 -2.296875 0.53125q-0.875 0.125 -1.234375 0.28125q-0.359375 0.15625 -0.5625 0.46875q-0.1875 0.296875 -0.1875 0.65625q0 0.5625 0.421875 0.9375q0.4375 0.375 1.25 0.375q0.8125 0 1.4375 -0.34375q0.640625 -0.359375 0.9375 -0.984375q0.234375 -0.46875 0.234375 -1.40625l0 -0.515625zm3.0390625 1.6875l1.390625 -0.21875q0.109375 0.84375 0.640625 1.296875q0.546875 0.4375 1.5 0.4375q0.96875 0 1.4375 -0.390625q0.46875 -0.40625 0.46875 -0.9375q0 -0.46875 -0.40625 -0.75q-0.296875 -0.1875 -1.4375 -0.46875q-1.546875 -0.390625 -2.15625 -0.671875q-0.59375 -0.296875 -0.90625 -0.796875q-0.296875 -0.5 -0.296875 -1.109375q0 -0.5625 0.25 -1.03125q0.25 -0.46875 0.6875 -0.78125q0.328125 -0.25 0.890625 -0.40625q0.578125 -0.171875 1.21875 -0.171875q0.984375 0 1.71875 0.28125q0.734375 0.28125 1.078125 0.765625q0.359375 0.46875 0.5 1.28125l-1.375 0.1875q-0.09375 -0.640625 -0.546875 -1.0q-0.453125 -0.359375 -1.265625 -0.359375q-0.96875 0 -1.390625 0.328125q-0.40625 0.3125 -0.40625 0.734375q0 0.28125 0.171875 0.5q0.171875 0.21875 0.53125 0.375q0.21875 0.078125 1.25 0.359375q1.484375 0.390625 2.078125 0.65625q0.59375 0.25 0.921875 0.734375q0.34375 0.484375 0.34375 1.203125q0 0.703125 -0.421875 1.328125q-0.40625 0.609375 -1.1875 0.953125q-0.765625 0.34375 -1.734375 0.34375q-1.625 0 -2.46875 -0.671875q-0.84375 -0.671875 -1.078125 -2.0zm14.234375 -0.1875l1.453125 0.171875q-0.34375 1.28125 -1.28125 1.984375q-0.921875 0.703125 -2.359375 0.703125q-1.828125 0 -2.890625 -1.125q-1.0625 -1.125 -1.0625 -3.140625q0 -2.09375 1.078125 -3.25q1.078125 -1.15625 2.796875 -1.15625q1.65625 0 2.703125 1.140625q1.0625 1.125 1.0625 3.171875q0 0.125 0 0.375l-6.1875 0q0.078125 1.375 0.765625 2.109375q0.703125 0.71875 1.734375 0.71875q0.78125 0 1.328125 -0.40625q0.546875 -0.40625 0.859375 -1.296875zm-4.609375 -2.28125l4.625 0q-0.09375 -1.046875 -0.53125 -1.5625q-0.671875 -0.8125 -1.734375 -0.8125q-0.96875 0 -1.640625 0.65625q-0.65625 0.640625 -0.71875 1.71875zm19.28125 3.59375l0 1.359375l-7.578125 0q-0.015625 -0.515625 0.171875 -0.984375q0.28125 -0.765625 0.921875 -1.515625q0.640625 -0.75 1.84375 -1.734375q1.859375 -1.53125 2.515625 -2.421875q0.65625 -0.90625 0.65625 -1.703125q0 -0.828125 -0.59375 -1.40625q-0.59375 -0.578125 -1.5625 -0.578125q-1.015625 0 -1.625 0.609375q-0.609375 0.609375 -0.609375 1.6875l-1.453125 -0.140625q0.15625 -1.625 1.125 -2.4687498q0.96875 -0.84375 2.59375 -0.84375q1.65625 0 2.609375 0.921875q0.96875 0.90624976 0.96875 2.2499998q0 0.6875 -0.28125 1.359375q-0.28125 0.65625 -0.9375 1.390625q-0.65625 0.734375 -2.171875 2.015625q-1.265625 1.0625 -1.625 1.453125q-0.359375 0.375 -0.59375 0.75l5.625 0zm2.2890625 -5.34375l0 -1.59375l1.59375 0l0 1.59375l-1.59375 0zm0 6.703125l0 -1.609375l1.59375 0l0 1.609375l-1.59375 0zm13.90625 -3.046875l1.390625 0.1875q-0.234375 1.421875 -1.171875 2.234375q-0.921875 0.8125 -2.28125 0.8125q-1.703125 0 -2.75 -1.109375q-1.03125 -1.125 -1.03125 -3.203125q0 -1.34375 0.4375 -2.34375q0.453125 -1.015625 1.359375 -1.515625q0.921875 -0.5 1.984375 -0.5q1.359375 0 2.21875 0.6875q0.859375 0.671875 1.09375 1.9375l-1.359375 0.203125q-0.203125 -0.828125 -0.703125 -1.25q-0.484375 -0.421875 -1.1875 -0.421875q-1.0625 0 -1.734375 0.765625q-0.65625 0.75 -0.65625 2.40625q0 1.671875 0.640625 2.4375q0.640625 0.75 1.671875 0.75q0.828125 0 1.375 -0.5q0.5625 -0.515625 0.703125 -1.578125zm2.0625 -1.109375q0 -2.296875 1.28125 -3.40625q1.078125 -0.921875 2.609375 -0.921875q1.71875 0 2.796875 1.125q1.0937576 1.109375 1.0937576 3.09375q0 1.59375 -0.484375 2.515625q-0.48438263 0.921875 -1.4062576 1.4375q-0.90625 0.5 -2.0 0.5q-1.734375 0 -2.8125 -1.109375q-1.078125 -1.125 -1.078125 -3.234375zm1.453125 0q0 1.59375 0.6875 2.390625q0.703125 0.796875 1.75 0.796875q1.046875 0 1.734375 -0.796875q0.703125 -0.796875 0.703125 -2.4375q0 -1.53125 -0.703125 -2.328125q-0.6875 -0.796875 -1.734375 -0.796875q-1.046875 0 -1.75 0.796875q-0.6875 0.78125 -0.6875 2.375zm7.97657 4.15625l0 -8.296875l1.25 0l0 1.15625q0.390625 -0.609375 1.03125 -0.96875q0.65625 -0.375 1.484375 -0.375q0.921875 0 1.515625 0.390625q0.59375 0.375 0.828125 1.0625q0.984375 -1.453125 2.5625 -1.453125q1.234375 0 1.890625 0.6875q0.671875 0.671875 0.671875 2.09375l0 5.703125l-1.390625 0l0 -5.234375q0 -0.84375 -0.140625 -1.203125q-0.140625 -0.375 -0.5 -0.59375q-0.359375 -0.234375 -0.84375 -0.234375q-0.875 0 -1.453125 0.578125q-0.578125 0.578125 -0.578125 1.859375l0 4.828125l-1.40625 0l0 -5.390625q0 -0.9375 -0.34375 -1.40625q-0.34375 -0.46875 -1.125 -0.46875q-0.59375 0 -1.09375 0.3125q-0.5 0.3125 -0.734375 0.921875q-0.21875 0.59375 -0.21875 1.71875l0 4.3125l-1.40625 0zm13.328125 3.187501l0 -11.484376l1.28125 0l0 1.078125q0.453125 -0.640625 1.015625 -0.953125q0.578125 -0.3125 1.390625 -0.3125q1.0625 0 1.875 0.546875q0.8125 0.546875 1.21875 1.546875q0.421875 0.984375 0.421875 2.171875q0 1.28125 -0.46875 2.296875q-0.453125 1.015625 -1.328125 1.5625q-0.859375 0.546875 -1.828125 0.546875q-0.703125 0 -1.265625 -0.296875q-0.546875 -0.296875 -0.90625 -0.75l0 4.046876l-1.40625 0zm1.265625 -7.296876q0 1.609375 0.640625 2.375q0.65625 0.765625 1.578125 0.765625q0.9375 0 1.609375 -0.796875q0.671875 -0.796875 0.671875 -2.453125q0 -1.59375 -0.65625 -2.375q-0.65625 -0.796875 -1.5625 -0.796875q-0.890625 0 -1.59375 0.84375q-0.6875 0.84375 -0.6875 2.4375zm7.6015625 4.109375l0 -11.453125l1.40625 0l0 11.453125l-1.40625 0zm9.2578125 -2.671875l1.453125 0.171875q-0.34375 1.28125 -1.28125 1.984375q-0.921875 0.703125 -2.359375 0.703125q-1.828125 0 -2.890625 -1.125q-1.0625 -1.125 -1.0625 -3.140625q0 -2.09375 1.078125 -3.25q1.078125 -1.15625 2.796875 -1.15625q1.65625 0 2.703125 1.140625q1.0625 1.125 1.0625 3.171875q0 0.125 0 0.375l-6.1875 0q0.078125 1.375 0.765625 2.109375q0.703125 0.71875 1.734375 0.71875q0.78125 0 1.328125 -0.40625q0.546875 -0.40625 0.859375 -1.296875zm-4.609375 -2.28125l4.625 0q-0.09375 -1.046875 -0.53125 -1.5625q-0.671875 -0.8125 -1.734375 -0.8125q-0.96875 0 -1.640625 0.65625q-0.65625 0.640625 -0.71875 1.71875zm10.8984375 3.6875l0.203125 1.25q-0.59375 0.125 -1.0625 0.125q-0.765625 0 -1.1875 -0.234375q-0.421875 -0.25 -0.59375 -0.640625q-0.171875 -0.40625 -0.171875 -1.671875l0 -4.765625l-1.03125 0l0 -1.09375l1.03125 0l0 -2.0625l1.40625 -0.84374976l0 2.9062498l1.40625 0l0 1.09375l-1.40625 0l0 4.84375q0 0.609375 0.0625 0.78125q0.078125 0.171875 0.25 0.28125q0.171875 0.09375 0.484375 0.09375q0.234375 0 0.609375 -0.0625zm7.0546875 -1.40625l1.453125 0.171875q-0.34375 1.28125 -1.28125 1.984375q-0.921875 0.703125 -2.359375 0.703125q-1.828125 0 -2.890625 -1.125q-1.0625 -1.125 -1.0625 -3.140625q0 -2.09375 1.078125 -3.25q1.078125 -1.15625 2.796875 -1.15625q1.65625 0 2.703125 1.140625q1.0625 1.125 1.0625 3.171875q0 0.125 0 0.375l-6.1875 0q0.078125 1.375 0.765625 2.109375q0.703125 0.71875 1.734375 0.71875q0.78125 0 1.328125 -0.40625q0.546875 -0.40625 0.859375 -1.296875zm-4.609375 -2.28125l4.625 0q-0.09375 -1.046875 -0.53125 -1.5625q-0.671875 -0.8125 -1.734375 -0.8125q-0.96875 0 -1.640625 0.65625q-0.65625 0.640625 -0.71875 1.71875zm17.6875 1.90625l1.390625 0.1875q-0.234375 1.421875 -1.171875 2.234375q-0.921875 0.8125 -2.28125 0.8125q-1.703125 0 -2.75 -1.109375q-1.03125 -1.125 -1.03125 -3.203125q0 -1.34375 0.4375 -2.34375q0.453125 -1.015625 1.359375 -1.515625q0.921875 -0.5 1.984375 -0.5q1.359375 0 2.21875 0.6875q0.859375 0.671875 1.09375 1.9375l-1.359375 0.203125q-0.203125 -0.828125 -0.703125 -1.25q-0.484375 -0.421875 -1.1875 -0.421875q-1.0625 0 -1.734375 0.765625q-0.65625 0.75 -0.65625 2.40625q0 1.671875 0.640625 2.4375q0.640625 0.75 1.671875 0.75q0.828125 0 1.375 -0.5q0.5625 -0.515625 0.703125 -1.578125zm2.0625 -1.109375q0 -2.296875 1.28125 -3.40625q1.078125 -0.921875 2.609375 -0.921875q1.71875 0 2.796875 1.125q1.09375 1.109375 1.09375 3.09375q0 1.59375 -0.484375 2.515625q-0.484375 0.921875 -1.40625 1.4375q-0.90625 0.5 -2.0 0.5q-1.734375 0 -2.8125 -1.109375q-1.078125 -1.125 -1.078125 -3.234375zm1.453125 0q0 1.59375 0.6875 2.390625q0.703125 0.796875 1.75 0.796875q1.046875 0 1.734375 -0.796875q0.703125 -0.796875 0.703125 -2.4375q0 -1.53125 -0.703125 -2.328125q-0.6875 -0.796875 -1.734375 -0.796875q-1.046875 0 -1.75 0.796875q-0.6875 0.78125 -0.6875 2.375zm7.9453125 4.15625l0 -11.453125l1.40625 0l0 11.453125l-1.40625 0zm9.0234375 0l0 -1.21875q-0.96875 1.40625 -2.640625 1.40625q-0.734375 0 -1.375 -0.28125q-0.625 -0.28125 -0.9375 -0.703125q-0.3125 -0.4375 -0.4375 -1.046875q-0.078125 -0.421875 -0.078125 -1.3125l0 -5.140625l1.40625 0l0 4.59375q0 1.109375 0.078125 1.484375q0.140625 0.5625 0.5625 0.875q0.4375 0.3125 1.0625 0.3125q0.640625 0 1.1875 -0.3125q0.5625 -0.328125 0.78125 -0.890625q0.234375 -0.5625 0.234375 -1.625l0 -4.4375l1.40625 0l0 8.296875l-1.25 0zm3.4609375 0l0 -8.296875l1.25 0l0 1.15625q0.390625 -0.609375 1.03125 -0.96875q0.65625 -0.375 1.484375 -0.375q0.921875 0 1.515625 0.390625q0.59375 0.375 0.828125 1.0625q0.984375 -1.453125 2.5625 -1.453125q1.234375 0 1.890625 0.6875q0.671875 0.671875 0.671875 2.09375l0 5.703125l-1.390625 0l0 -5.234375q0 -0.84375 -0.140625 -1.203125q-0.140625 -0.375 -0.5 -0.59375q-0.359375 -0.234375 -0.84375 -0.234375q-0.875 0 -1.453125 0.578125q-0.578125 0.578125 -0.578125 1.859375l0 4.828125l-1.40625 0l0 -5.390625q0 -0.9375 -0.34375 -1.40625q-0.34375 -0.46875 -1.125 -0.46875q-0.59375 0 -1.09375 0.3125q-0.5 0.3125 -0.734375 0.921875q-0.21875 0.59375 -0.21875 1.71875l0 4.3125l-1.40625 0zm13.328125 0l0 -8.296875l1.265625 0l0 1.171875q0.90625 -1.359375 2.640625 -1.359375q0.75 0 1.375 0.265625q0.625 0.265625 0.9375 0.703125q0.3125 0.4375 0.4375 1.046875q0.078125 0.390625 0.078125 1.359375l0 5.109375l-1.40625 0l0 -5.046875q0 -0.859375 -0.171875 -1.28125q-0.15625 -0.4375 -0.578125 -0.6875q-0.40625 -0.25 -0.96875 -0.25q-0.90625 0 -1.5625 0.578125q-0.640625 0.5625 -0.640625 2.15625l0 4.53125l-1.40625 0zm8.3359375 -2.484375l1.390625 -0.21875q0.109375 0.84375 0.64064026 1.296875q0.546875 0.4375 1.5 0.4375q0.96875 0 1.4375 -0.390625q0.46875 -0.40625 0.46875 -0.9375q0 -0.46875 -0.40625 -0.75q-0.296875 -0.1875 -1.4375 -0.46875q-1.546875 -0.390625 -2.1562653 -0.671875q-0.59375 -0.296875 -0.90625 -0.796875q-0.296875 -0.5 -0.296875 -1.109375q0 -0.5625 0.25 -1.03125q0.25 -0.46875 0.6875 -0.78125q0.328125 -0.25 0.89064026 -0.40625q0.578125 -0.171875 1.21875 -0.171875q0.984375 0 1.71875 0.28125q0.734375 0.28125 1.078125 0.765625q0.359375 0.46875 0.5 1.28125l-1.375 0.1875q-0.09375 -0.640625 -0.546875 -1.0q-0.453125 -0.359375 -1.265625 -0.359375q-0.96875 0 -1.390625 0.328125q-0.40626526 0.3125 -0.40626526 0.734375q0 0.28125 0.17189026 0.5q0.171875 0.21875 0.53125 0.375q0.21875 0.078125 1.25 0.359375q1.484375 0.390625 2.078125 0.65625q0.59375 0.25 0.921875 0.734375q0.34375 0.484375 0.34375 1.203125q0 0.703125 -0.421875 1.328125q-0.40625 0.609375 -1.1875 0.953125q-0.765625 0.34375 -1.734375 0.34375q-1.625 0 -2.4687653 -0.671875q-0.84375 -0.671875 -1.078125 -2.0z" fill-rule="nonzero"></path><path fill="#d9d9d9" fill-opacity="0.8346" d="m116.761154 36.19685l43.86615 0l0 43.866146l-43.86615 0z" fill-rule="evenodd"></path><path fill="#adadad" fill-opacity="0.8346" d="m160.6273 36.19685l14.62204 -14.622047l0 43.866146l-14.62204 14.622047z" fill-rule="evenodd"></path><path fill="#e0e0e0" fill-opacity="0.8346" d="m116.761154 36.19685l14.622055 -14.622047l43.866135 0l-14.62204 14.622047z" fill-rule="evenodd"></path><path fill="#000000" fill-opacity="0.0" d="m116.761154 36.19685l14.622055 -14.622047l43.866135 0l0 43.866146l-14.62204 14.622047l-43.86615 0zm0 0l43.86615 0l14.62204 -14.622047m-14.62204 14.622047l0 43.866146" fill-rule="evenodd"></path><path stroke="#000000" stroke-width="1.0" stroke-linejoin="round" stroke-linecap="butt" stroke-dasharray="1.0,3.0" d="m116.761154 36.19685l14.622055 -14.622047l43.866135 0l0 43.866146l-14.62204 14.622047l-43.86615 0zm0 0l43.86615 0l14.62204 -14.622047m-14.62204 14.622047l0 43.866146" fill-rule="evenodd"></path><path fill="#d9d9d9" fill-opacity="0.8346" d="m102.65879 50.63517l43.866142 0l0 43.866142l-43.866142 0z" fill-rule="evenodd"></path><path fill="#adadad" fill-opacity="0.8346" d="m146.52493 50.63517l14.622055 -14.622047l0 43.866142l-14.622055 14.622047z" fill-rule="evenodd"></path><path fill="#e0e0e0" fill-opacity="0.8346" d="m102.65879 50.63517l14.622047 -14.622047l43.86615 0l-14.622055 14.622047z" fill-rule="evenodd"></path><path fill="#000000" fill-opacity="0.0" d="m102.65879 50.63517l14.622047 -14.622047l43.86615 0l0 43.866142l-14.622055 14.622047l-43.866142 0zm0 0l43.866142 0l14.622055 -14.622047m-14.622055 14.622047l0 43.866142" fill-rule="evenodd"></path><path stroke="#000000" stroke-width="1.0" stroke-linejoin="round" stroke-linecap="butt" stroke-dasharray="1.0,3.0" d="m102.65879 50.63517l14.622047 -14.622047l43.86615 0l0 43.866142l-14.622055 14.622047l-43.866142 0zm0 0l43.866142 0l14.622055 -14.622047m-14.622055 14.622047l0 43.866142" fill-rule="evenodd"></path><path fill="#d9d9d9" fill-opacity="0.8346" d="m160.40158 36.19685l43.866135 0l0 43.866146l-43.866135 0z" fill-rule="evenodd"></path><path fill="#adadad" fill-opacity="0.8346" d="m204.26772 36.19685l14.622055 -14.622047l0 43.866146l-14.622055 14.622047z" fill-rule="evenodd"></path><path fill="#e0e0e0" fill-opacity="0.8346" d="m160.40158 36.19685l14.62204 -14.622047l43.86615 0l-14.622055 14.622047z" fill-rule="evenodd"></path><path fill="#000000" fill-opacity="0.0" d="m160.40158 36.19685l14.62204 -14.622047l43.86615 0l0 43.866146l-14.622055 14.622047l-43.866135 0zm0 0l43.866135 0l14.622055 -14.622047m-14.622055 14.622047l0 43.866146" fill-rule="evenodd"></path><path stroke="#000000" stroke-width="1.0" stroke-linejoin="round" stroke-linecap="butt" stroke-dasharray="1.0,3.0" d="m160.40158 36.19685l14.62204 -14.622047l43.86615 0l0 43.866146l-14.622055 14.622047l-43.866135 0zm0 0l43.866135 0l14.622055 -14.622047m-14.622055 14.622047l0 43.866146" fill-rule="evenodd"></path><path fill="#d9d9d9" fill-opacity="0.8346" d="m146.2336 50.63517l43.866135 0l0 43.866142l-43.866135 0z" fill-rule="evenodd"></path><path fill="#adadad" fill-opacity="0.8346" d="m190.09973 50.63517l14.622055 -14.622047l0 43.866142l-14.622055 14.622047z" fill-rule="evenodd"></path><path fill="#e0e0e0" fill-opacity="0.8346" d="m146.2336 50.63517l14.62204 -14.622047l43.86615 0l-14.622055 14.622047z" fill-rule="evenodd"></path><path fill="#000000" fill-opacity="0.0" d="m146.2336 50.63517l14.62204 -14.622047l43.86615 0l0 43.866142l-14.622055 14.622047l-43.866135 0zm0 0l43.866135 0l14.622055 -14.622047m-14.622055 14.622047l0 43.866142" fill-rule="evenodd"></path><path stroke="#000000" stroke-width="1.0" stroke-linejoin="round" stroke-linecap="butt" stroke-dasharray="1.0,3.0" d="m146.2336 50.63517l14.62204 -14.622047l43.86615 0l0 43.866142l-14.622055 14.622047l-43.866135 0zm0 0l43.866135 0l14.622055 -14.622047m-14.622055 14.622047l0 43.866142" fill-rule="evenodd"></path><path fill="#d9d9d9" fill-opacity="0.8346" d="m87.88976 65.16798l43.866142 0l0 43.866142l-43.866142 0z" fill-rule="evenodd"></path><path fill="#adadad" fill-opacity="0.8346" d="m131.7559 65.16798l14.622055 -14.622044l0 43.86614l-14.622055 14.622047z" fill-rule="evenodd"></path><path fill="#e0e0e0" fill-opacity="0.8346" d="m87.88976 65.16798l14.622047 -14.622044l43.86615 0l-14.622055 14.622044z" fill-rule="evenodd"></path><path fill="#000000" fill-opacity="0.0" d="m87.88976 65.16798l14.622047 -14.622044l43.86615 0l0 43.86614l-14.622055 14.622047l-43.866142 0zm0 0l43.866142 0l14.622055 -14.622044m-14.622055 14.622044l0 43.866142" fill-rule="evenodd"></path><path stroke="#000000" stroke-width="1.0" stroke-linejoin="round" stroke-linecap="butt" stroke-dasharray="1.0,3.0" d="m87.88976 65.16798l14.622047 -14.622044l43.86615 0l0 43.86614l-14.622055 14.622047l-43.866142 0zm0 0l43.866142 0l14.622055 -14.622044m-14.622055 14.622044l0 43.866142" fill-rule="evenodd"></path><path fill="#d9d9d9" fill-opacity="0.8346" d="m73.7874 79.6063l43.866142 0l0 43.866142l-43.866142 0z" fill-rule="evenodd"></path><path fill="#adadad" fill-opacity="0.8346" d="m117.65354 79.6063l14.622047 -14.622047l0 43.866142l-14.622047 14.622047z" fill-rule="evenodd"></path><path fill="#e0e0e0" fill-opacity="0.8346" d="m73.7874 79.6063l14.622047 -14.622047l43.866142 0l-14.622047 14.622047z" fill-rule="evenodd"></path><path fill="#000000" fill-opacity="0.0" d="m73.7874 79.6063l14.622047 -14.622047l43.866142 0l0 43.866142l-14.622047 14.622047l-43.866142 0zm0 0l43.866142 0l14.622047 -14.622047m-14.622047 14.622047l0 43.866142" fill-rule="evenodd"></path><path stroke="#000000" stroke-width="1.0" stroke-linejoin="round" stroke-linecap="butt" stroke-dasharray="1.0,3.0" d="m73.7874 79.6063l14.622047 -14.622047l43.866142 0l0 43.866142l-14.622047 14.622047l-43.866142 0zm0 0l43.866142 0l14.622047 -14.622047m-14.622047 14.622047l0 43.866142" fill-rule="evenodd"></path><path fill="#d9d9d9" fill-opacity="0.8346" d="m131.53018 65.16798l43.86615 0l0 43.866142l-43.86615 0z" fill-rule="evenodd"></path><path fill="#adadad" fill-opacity="0.8346" d="m175.39633 65.16798l14.62204 -14.622044l0 43.86614l-14.62204 14.622047z" fill-rule="evenodd"></path><path fill="#e0e0e0" fill-opacity="0.8346" d="m131.53018 65.16798l14.622055 -14.622044l43.866135 0l-14.62204 14.622044z" fill-rule="evenodd"></path><path fill="#000000" fill-opacity="0.0" d="m131.53018 65.16798l14.622055 -14.622044l43.866135 0l0 43.86614l-14.62204 14.622047l-43.86615 0zm0 0l43.86615 0l14.62204 -14.622044m-14.62204 14.622044l0 43.866142" fill-rule="evenodd"></path><path stroke="#000000" stroke-width="1.0" stroke-linejoin="round" stroke-linecap="butt" stroke-dasharray="1.0,3.0" d="m131.53018 65.16798l14.622055 -14.622044l43.866135 0l0 43.86614l-14.62204 14.622047l-43.86615 0zm0 0l43.86615 0l14.62204 -14.622044m-14.62204 14.622044l0 43.866142" fill-rule="evenodd"></path><path fill="#d9d9d9" fill-opacity="0.8346" d="m117.362206 79.6063l43.866142 0l0 43.866142l-43.866142 0z" fill-rule="evenodd"></path><path fill="#adadad" fill-opacity="0.8346" d="m161.22835 79.6063l14.62204 -14.622047l0 43.866142l-14.62204 14.622047z" fill-rule="evenodd"></path><path fill="#e0e0e0" fill-opacity="0.8346" d="m117.362206 79.6063l14.622047 -14.622047l43.866135 0l-14.62204 14.622047z" fill-rule="evenodd"></path><path fill="#000000" fill-opacity="0.0" d="m117.362206 79.6063l14.622047 -14.622047l43.866135 0l0 43.866142l-14.62204 14.622047l-43.866142 0zm0 0l43.866142 0l14.62204 -14.622047m-14.62204 14.622047l0 43.866142" fill-rule="evenodd"></path><path stroke="#000000" stroke-width="1.0" stroke-linejoin="round" stroke-linecap="butt" stroke-dasharray="1.0,3.0" d="m117.362206 79.6063l14.622047 -14.622047l43.866135 0l0 43.866142l-14.62204 14.622047l-43.866142 0zm0 0l43.866142 0l14.62204 -14.622047m-14.62204 14.622047l0 43.866142" fill-rule="evenodd"></path><path fill="#d9d9d9" fill-opacity="0.8346" d="m204.71129 36.19685l43.866135 0l0 43.866146l-43.866135 0z" fill-rule="evenodd"></path><path fill="#adadad" fill-opacity="0.8346" d="m248.57742 36.19685l14.62204 -14.622047l0 43.866146l-14.62204 14.622047z" fill-rule="evenodd"></path><path fill="#e0e0e0" fill-opacity="0.8346" d="m204.71129 36.19685l14.62204 -14.622047l43.866135 0l-14.62204 14.622047z" fill-rule="evenodd"></path><path fill="#000000" fill-opacity="0.0" d="m204.71129 36.19685l14.62204 -14.622047l43.866135 0l0 43.866146l-14.62204 14.622047l-43.866135 0zm0 0l43.866135 0l14.62204 -14.622047m-14.62204 14.622047l0 43.866146" fill-rule="evenodd"></path><path stroke="#000000" stroke-width="1.0" stroke-linejoin="round" stroke-linecap="butt" stroke-dasharray="1.0,3.0" d="m204.71129 36.19685l14.62204 -14.622047l43.866135 0l0 43.866146l-14.62204 14.622047l-43.866135 0zm0 0l43.866135 0l14.62204 -14.622047m-14.62204 14.622047l0 43.866146" fill-rule="evenodd"></path><path fill="#d9d9d9" fill-opacity="0.8346" d="m190.60892 50.63517l43.86615 0l0 43.866142l-43.86615 0z" fill-rule="evenodd"></path><path fill="#adadad" fill-opacity="0.8346" d="m234.47507 50.63517l14.62204 -14.622047l0 43.866142l-14.62204 14.622047z" fill-rule="evenodd"></path><path fill="#e0e0e0" fill-opacity="0.8346" d="m190.60892 50.63517l14.622055 -14.622047l43.866135 0l-14.62204 14.622047z" fill-rule="evenodd"></path><path fill="#000000" fill-opacity="0.0" d="m190.60892 50.63517l14.622055 -14.622047l43.866135 0l0 43.866142l-14.62204 14.622047l-43.86615 0zm0 0l43.86615 0l14.62204 -14.622047m-14.62204 14.622047l0 43.866142" fill-rule="evenodd"></path><path stroke="#000000" stroke-width="1.0" stroke-linejoin="round" stroke-linecap="butt" stroke-dasharray="1.0,3.0" d="m190.60892 50.63517l14.622055 -14.622047l43.866135 0l0 43.866142l-14.62204 14.622047l-43.86615 0zm0 0l43.86615 0l14.62204 -14.622047m-14.62204 14.622047l0 43.866142" fill-rule="evenodd"></path><path fill="#d9d9d9" fill-opacity="0.8346" d="m248.3517 36.19685l43.866135 0l0 43.866146l-43.866135 0z" fill-rule="evenodd"></path><path fill="#adadad" fill-opacity="0.8346" d="m292.21783 36.19685l14.62207 -14.622047l0 43.866146l-14.62207 14.622047z" fill-rule="evenodd"></path><path fill="#e0e0e0" fill-opacity="0.8346" d="m248.3517 36.19685l14.622055 -14.622047l43.86615 0l-14.62207 14.622047z" fill-rule="evenodd"></path><path fill="#000000" fill-opacity="0.0" d="m248.3517 36.19685l14.622055 -14.622047l43.86615 0l0 43.866146l-14.62207 14.622047l-43.866135 0zm0 0l43.866135 0l14.62207 -14.622047m-14.62207 14.622047l0 43.866146" fill-rule="evenodd"></path><path stroke="#000000" stroke-width="1.0" stroke-linejoin="round" stroke-linecap="butt" stroke-dasharray="1.0,3.0" d="m248.3517 36.19685l14.622055 -14.622047l43.86615 0l0 43.866146l-14.62207 14.622047l-43.866135 0zm0 0l43.866135 0l14.62207 -14.622047m-14.62207 14.622047l0 43.866146" fill-rule="evenodd"></path><path fill="#d9d9d9" fill-opacity="0.8346" d="m234.18373 50.63517l43.866135 0l0 43.866142l-43.866135 0z" fill-rule="evenodd"></path><path fill="#adadad" fill-opacity="0.8346" d="m278.04987 50.63517l14.62204 -14.622047l0 43.866142l-14.62204 14.622047z" fill-rule="evenodd"></path><path fill="#e0e0e0" fill-opacity="0.8346" d="m234.18373 50.63517l14.62204 -14.622047l43.866135 0l-14.62204 14.622047z" fill-rule="evenodd"></path><path fill="#000000" fill-opacity="0.0" d="m234.18373 50.63517l14.62204 -14.622047l43.866135 0l0 43.866142l-14.62204 14.622047l-43.866135 0zm0 0l43.866135 0l14.62204 -14.622047m-14.62204 14.622047l0 43.866142" fill-rule="evenodd"></path><path stroke="#000000" stroke-width="1.0" stroke-linejoin="round" stroke-linecap="butt" stroke-dasharray="1.0,3.0" d="m234.18373 50.63517l14.62204 -14.622047l43.866135 0l0 43.866142l-14.62204 14.622047l-43.866135 0zm0 0l43.866135 0l14.62204 -14.622047m-14.62204 14.622047l0 43.866142" fill-rule="evenodd"></path><path fill="#d9d9d9" fill-opacity="0.8346" d="m175.83989 65.16798l43.86615 0l0 43.866142l-43.86615 0z" fill-rule="evenodd"></path><path fill="#adadad" fill-opacity="0.8346" d="m219.70604 65.16798l14.62204 -14.622044l0 43.86614l-14.62204 14.622047z" fill-rule="evenodd"></path><path fill="#e0e0e0" fill-opacity="0.8346" d="m175.83989 65.16798l14.622055 -14.622044l43.866135 0l-14.62204 14.622044z" fill-rule="evenodd"></path><path fill="#000000" fill-opacity="0.0" d="m175.83989 65.16798l14.622055 -14.622044l43.866135 0l0 43.86614l-14.62204 14.622047l-43.86615 0zm0 0l43.86615 0l14.62204 -14.622044m-14.62204 14.622044l0 43.866142" fill-rule="evenodd"></path><path stroke="#000000" stroke-width="1.0" stroke-linejoin="round" stroke-linecap="butt" stroke-dasharray="1.0,3.0" d="m175.83989 65.16798l14.622055 -14.622044l43.866135 0l0 43.86614l-14.62204 14.622047l-43.86615 0zm0 0l43.86615 0l14.62204 -14.622044m-14.62204 14.622044l0 43.866142" fill-rule="evenodd"></path><path fill="#d9d9d9" fill-opacity="0.8346" d="m161.73753 79.6063l43.866135 0l0 43.866142l-43.866135 0z" fill-rule="evenodd"></path><path fill="#adadad" fill-opacity="0.8346" d="m205.60367 79.6063l14.622055 -14.622047l0 43.866142l-14.622055 14.622047z" fill-rule="evenodd"></path><path fill="#e0e0e0" fill-opacity="0.8346" d="m161.73753 79.6063l14.62204 -14.622047l43.86615 0l-14.622055 14.622047z" fill-rule="evenodd"></path><path fill="#000000" fill-opacity="0.0" d="m161.73753 79.6063l14.62204 -14.622047l43.86615 0l0 43.866142l-14.622055 14.622047l-43.866135 0zm0 0l43.866135 0l14.622055 -14.622047m-14.622055 14.622047l0 43.866142" fill-rule="evenodd"></path><path stroke="#000000" stroke-width="1.0" stroke-linejoin="round" stroke-linecap="butt" stroke-dasharray="1.0,3.0" d="m161.73753 79.6063l14.62204 -14.622047l43.86615 0l0 43.866142l-14.622055 14.622047l-43.866135 0zm0 0l43.866135 0l14.622055 -14.622047m-14.622055 14.622047l0 43.866142" fill-rule="evenodd"></path><path fill="#d9d9d9" fill-opacity="0.8346" d="m219.48032 65.16798l43.86615 0l0 43.866142l-43.86615 0z" fill-rule="evenodd"></path><path fill="#adadad" fill-opacity="0.8346" d="m263.34647 65.16798l14.62204 -14.622044l0 43.86614l-14.62204 14.622047z" fill-rule="evenodd"></path><path fill="#e0e0e0" fill-opacity="0.8346" d="m219.48032 65.16798l14.62204 -14.622044l43.86615 0l-14.62204 14.622044z" fill-rule="evenodd"></path><path fill="#000000" fill-opacity="0.0" d="m219.48032 65.16798l14.62204 -14.622044l43.86615 0l0 43.86614l-14.62204 14.622047l-43.86615 0zm0 0l43.86615 0l14.62204 -14.622044m-14.62204 14.622044l0 43.866142" fill-rule="evenodd"></path><path stroke="#000000" stroke-width="1.0" stroke-linejoin="round" stroke-linecap="butt" stroke-dasharray="1.0,3.0" d="m219.48032 65.16798l14.62204 -14.622044l43.86615 0l0 43.86614l-14.62204 14.622047l-43.86615 0zm0 0l43.86615 0l14.62204 -14.622044m-14.62204 14.622044l0 43.866142" fill-rule="evenodd"></path><path fill="#d9d9d9" fill-opacity="0.8346" d="m205.31233 79.6063l43.86615 0l0 43.866142l-43.86615 0z" fill-rule="evenodd"></path><path fill="#adadad" fill-opacity="0.8346" d="m249.17848 79.6063l14.622055 -14.622047l0 43.866142l-14.622055 14.622047z" fill-rule="evenodd"></path><path fill="#e0e0e0" fill-opacity="0.8346" d="m205.31233 79.6063l14.622055 -14.622047l43.86615 0l-14.622055 14.622047z" fill-rule="evenodd"></path><path fill="#000000" fill-opacity="0.0" d="m205.31233 79.6063l14.622055 -14.622047l43.86615 0l0 43.866142l-14.622055 14.622047l-43.86615 0zm0 0l43.86615 0l14.622055 -14.622047m-14.622055 14.622047l0 43.866142" fill-rule="evenodd"></path><path stroke="#000000" stroke-width="1.0" stroke-linejoin="round" stroke-linecap="butt" stroke-dasharray="1.0,3.0" d="m205.31233 79.6063l14.622055 -14.622047l43.86615 0l0 43.866142l-14.622055 14.622047l-43.86615 0zm0 0l43.86615 0l14.622055 -14.622047m-14.622055 14.622047l0 43.866142" fill-rule="evenodd"></path><path fill="#000000" fill-opacity="0.0" d="m16.879265 27.80315l148.7244 0l0 38.61417l-148.7244 0z" fill-rule="evenodd"></path><path fill="#000000" d="m29.86364 54.030235l-3.75 -9.859375l1.765625 0l2.125 5.90625q0.34375 0.953125 0.625 1.984375q0.21875 -0.78125 0.625 -1.875l2.1875 -6.015625l1.71875 0l-3.734375 9.859375l-1.5625 0z" fill-rule="nonzero"></path><path fill="#000000" d="m39.23864 53.35836l0 0.671875l-3.78125 0q-0.015625 -0.25 0.078125 -0.484375q0.140625 -0.390625 0.453125 -0.765625q0.328125 -0.375 0.921875 -0.875q0.9375 -0.765625 1.265625 -1.203125q0.328125 -0.453125 0.328125 -0.84375q0 -0.421875 -0.296875 -0.703125q-0.296875 -0.296875 -0.78125 -0.296875q-0.5 0 -0.8125 0.3125q-0.296875 0.296875 -0.3125 0.84375l-0.71875 -0.078125q0.078125 -0.8125 0.5625 -1.234375q0.484375 -0.421875 1.296875 -0.421875q0.828125 0 1.296875 0.453125q0.484375 0.453125 0.484375 1.140625q0 0.34375 -0.140625 0.671875q-0.140625 0.328125 -0.46875 0.703125q-0.3125 0.359375 -1.078125 1.0q-0.625 0.53125 -0.8125 0.71875q-0.171875 0.1875 -0.296875 0.390625l2.8125 0z" fill-rule="nonzero"></path><path fill="#000000" d="m54.871162 46.030235l-8.96875 0l0 -1.5625l8.96875 0l0 1.5625zm0 4.125l-8.96875 0l0 -1.546875l8.96875 0l0 1.546875zm2.3324585 3.875l0 -13.59375l4.6875 0q1.578125 0 2.421875 0.1875q1.15625 0.265625 1.984375 0.96875q1.078125 0.921875 1.609375 2.34375q0.53125 1.40625 0.53125 3.21875q0 1.546875 -0.359375 2.75q-0.359375 1.1875 -0.921875 1.984375q-0.5625 0.78125 -1.234375 1.234375q-0.671875 0.4375 -1.625 0.671875q-0.953125 0.234375 -2.1875 0.234375l-4.90625 0zm1.796875 -1.609375l2.90625 0q1.34375 0 2.109375 -0.25q0.765625 -0.25 1.21875 -0.703125q0.640625 -0.640625 1.0 -1.71875q0.359375 -1.078125 0.359375 -2.625q0 -2.125 -0.703125 -3.265625q-0.703125 -1.15625 -1.703125 -1.546875q-0.71875 -0.28125 -2.328125 -0.28125l-2.859375 0l0 10.390625zm13.004196 1.609375l-1.546875 0l0 -13.59375l1.65625 0l0 4.84375q1.0625 -1.328125 2.703125 -1.328125q0.90625 0 1.71875 0.375q0.8125 0.359375 1.328125 1.03125q0.53125 0.65625 0.828125 1.59375q0.296875 0.9375 0.296875 2.0q0 2.53125 -1.25 3.921875q-1.25 1.375 -3.0 1.375q-1.75 0 -2.734375 -1.453125l0 1.234375zm-0.015625 -5.0q0 1.765625 0.46875 2.5625q0.796875 1.28125 2.140625 1.28125q1.09375 0 1.890625 -0.9375q0.796875 -0.953125 0.796875 -2.84375q0 -1.921875 -0.765625 -2.84375q-0.765625 -0.921875 -1.84375 -0.921875q-1.09375 0 -1.890625 0.953125q-0.796875 0.953125 -0.796875 2.75z" fill-rule="nonzero"></path><path fill="#ff0000" d="m78.41631 80.00599l58.73661 -58.754196l-3.7027283 -0.96977043l-59.14588 59.163586z" fill-rule="evenodd"></path><path stroke="#000000" stroke-width="1.0" stroke-linejoin="round" stroke-linecap="butt" stroke-dasharray="4.0,3.0" d="m78.41631 80.00599l58.73661 -58.754196l-3.7027283 -0.96977043l-59.14588 59.163586z" fill-rule="evenodd"></path><path fill="#000000" fill-opacity="0.0" d="m140.66425 21.496063l-57.007866 57.95276" fill-rule="evenodd"></path><path stroke="#000000" stroke-width="1.0" stroke-linejoin="round" stroke-linecap="butt" stroke-dasharray="4.0,3.0" d="m140.66425 21.496063l-57.007866 57.95276" fill-rule="evenodd"></path><path fill="#000000" fill-opacity="0.0" d="m177.13911 20.863518l-4.913391 4.094488" fill-rule="evenodd"></path><path stroke="#000000" stroke-width="1.0" stroke-linejoin="round" stroke-linecap="butt" stroke-dasharray="1.0,3.0" d="m177.13911 20.863518l-4.913391 4.094488" fill-rule="evenodd"></path><path fill="#000000" fill-opacity="0.0" d="m220.14174 20.863518l-4.913391 4.094488" fill-rule="evenodd"></path><path stroke="#000000" stroke-width="1.0" stroke-linejoin="round" stroke-linecap="butt" stroke-dasharray="1.0,3.0" d="m220.14174 20.863518l-4.913391 4.094488" fill-rule="evenodd"></path><path fill="#000000" fill-opacity="0.0" d="m263.14435 22.28084l-4.913391 4.094488" fill-rule="evenodd"></path><path stroke="#000000" stroke-width="1.0" stroke-linejoin="round" stroke-linecap="butt" stroke-dasharray="1.0,3.0" d="m263.14435 22.28084l-4.913391 4.094488" fill-rule="evenodd"></path><path fill="#000000" fill-opacity="0.0" d="m145.44844 21.606989l-57.00788 57.95276" fill-rule="evenodd"></path><path stroke="#000000" stroke-width="1.0" stroke-linejoin="round" stroke-linecap="butt" stroke-dasharray="4.0,3.0" d="m145.44844 21.606989l-57.00788 57.95276" fill-rule="evenodd"></path></g></svg>

