<?xml version="1.0" standalone="yes"?>

<svg version="1.1" viewBox="0.0 0.0 309.3307086614173 256.09448818897636" fill="none" stroke="none" stroke-linecap="square" stroke-miterlimit="10" xmlns="http://www.w3.org/2000/svg" xmlns:xlink="http://www.w3.org/1999/xlink"><clipPath id="p.0"><path d="m0 0l309.33072 0l0 256.09448l-309.33072 0l0 -256.09448z" clip-rule="nonzero"></path></clipPath><g clip-path="url(#p.0)"><path fill="#000000" fill-opacity="0.0" d="m0 0l309.33072 0l0 256.09448l-309.33072 0z" fill-rule="evenodd"></path><path fill="#000000" fill-opacity="0.0" d="m73.50394 79.755905l175.13387 0l0 176.14174l-175.13387 0z" fill-rule="evenodd"></path><path fill="#000000" fill-opacity="0.0" d="m248.6378 79.755905l58.377945 -58.377953l0 176.14172l-58.377945 58.37796z" fill-rule="evenodd"></path><path fill="#000000" fill-opacity="0.0" d="m73.50394 79.755905l58.37796 -58.377953l175.13385 0l-58.377945 58.377953z" fill-rule="evenodd"></path><path fill="#000000" fill-opacity="0.0" d="m73.50394 79.755905l58.37796 -58.377953l175.13385 0l0 176.14172l-58.377945 58.37796l-175.13387 0zm0 0l175.13387 0l58.377945 -58.377953m-58.377945 58.377953l0 176.14174" fill-rule="evenodd"></path><path fill="#000000" fill-opacity="0.2" d="m248.6378 79.755905l58.377945 -58.377953l0 176.14172l-58.377945 58.37796z" fill-rule="evenodd"></path><path fill="#ffffff" fill-opacity="0.2" d="m73.50394 79.755905l58.37796 -58.377953l175.13385 0l-58.377945 58.377953z" fill-rule="evenodd"></path><path stroke="#000000" stroke-width="1.0" stroke-linejoin="round" stroke-linecap="butt" d="m73.50394 79.755905l58.37796 -58.377953l175.13385 0l0 176.14172l-58.377945 58.37796l-175.13387 0zm0 0l175.13387 0l58.377945 -58.377953m-58.377945 58.377953l0 176.14174" fill-rule="evenodd"></path><path fill="#d9d9d9" fill-opacity="0.8346" d="m116.60627 80.000565l43.8442 0l0 43.87345l-43.8442 0z" fill-rule="evenodd"></path><path fill="#adadad" fill-opacity="0.8346" d="m160.45047 80.000565l14.614746 -14.614738l0 43.87345l-14.614746 14.614738z" fill-rule="evenodd"></path><path fill="#e0e0e0" fill-opacity="0.8346" d="m116.60627 80.000565l14.614738 -14.614738l43.844208 0l-14.614746 14.614738z" fill-rule="evenodd"></path><path fill="#000000" fill-opacity="0.0" d="m116.60627 80.000565l14.614738 -14.614738l43.844208 0l0 43.87345l-14.614746 14.614738l-43.8442 0zm0 0l43.8442 0l14.614746 -14.614738m-14.614746 14.614738l0 43.87345" fill-rule="evenodd"></path><path stroke="#000000" stroke-width="1.0" stroke-linejoin="round" stroke-linecap="butt" stroke-dasharray="1.0,3.0" d="m116.60627 80.000565l14.614738 -14.614738l43.844208 0l0 43.87345l-14.614746 14.614738l-43.8442 0zm0 0l43.8442 0l14.614746 -14.614738m-14.614746 14.614738l0 43.87345" fill-rule="evenodd"></path><path fill="#d9d9d9" fill-opacity="0.8346" d="m102.510956 94.43888l43.844208 0l0 43.87345l-43.844208 0z" fill-rule="evenodd"></path><path fill="#adadad" fill-opacity="0.8346" d="m146.35516 94.43888l14.614731 -14.614731l0 43.87345l-14.614731 14.614731z" fill-rule="evenodd"></path><path fill="#e0e0e0" fill-opacity="0.8346" d="m102.510956 94.43888l14.614738 -14.614731l43.8442 0l-14.614731 14.614731z" fill-rule="evenodd"></path><path fill="#000000" fill-opacity="0.0" d="m102.510956 94.43888l14.614738 -14.614731l43.8442 0l0 43.87345l-14.614731 14.614731l-43.844208 0zm0 0l43.844208 0l14.614731 -14.614731m-14.614731 14.614731l0 43.87345" fill-rule="evenodd"></path><path stroke="#000000" stroke-width="1.0" stroke-linejoin="round" stroke-linecap="butt" stroke-dasharray="1.0,3.0" d="m102.510956 94.43888l14.614738 -14.614731l43.8442 0l0 43.87345l-14.614731 14.614731l-43.844208 0zm0 0l43.844208 0l14.614731 -14.614731m-14.614731 14.614731l0 43.87345" fill-rule="evenodd"></path><path fill="#d9d9d9" fill-opacity="0.8346" d="m160.22487 80.000565l43.844208 0l0 43.87345l-43.844208 0z" fill-rule="evenodd"></path><path fill="#adadad" fill-opacity="0.8346" d="m204.06908 80.000565l14.614731 -14.614738l0 43.87345l-14.614731 14.614738z" fill-rule="evenodd"></path><path fill="#e0e0e0" fill-opacity="0.8346" d="m160.22487 80.000565l14.614731 -14.614738l43.844208 0l-14.614731 14.614738z" fill-rule="evenodd"></path><path fill="#000000" fill-opacity="0.0" d="m160.22487 80.000565l14.614731 -14.614738l43.844208 0l0 43.87345l-14.614731 14.614738l-43.844208 0zm0 0l43.844208 0l14.614731 -14.614738m-14.614731 14.614738l0 43.87345" fill-rule="evenodd"></path><path stroke="#000000" stroke-width="1.0" stroke-linejoin="round" stroke-linecap="butt" stroke-dasharray="1.0,3.0" d="m160.22487 80.000565l14.614731 -14.614738l43.844208 0l0 43.87345l-14.614731 14.614738l-43.844208 0zm0 0l43.844208 0l14.614731 -14.614738m-14.614731 14.614738l0 43.87345" fill-rule="evenodd"></path><path fill="#d9d9d9" fill-opacity="0.8346" d="m146.06396 94.43888l43.844208 0l0 43.87345l-43.844208 0z" fill-rule="evenodd"></path><path fill="#adadad" fill-opacity="0.8346" d="m189.90817 94.43888l14.614746 -14.614731l0 43.87345l-14.614746 14.614731z" fill-rule="evenodd"></path><path fill="#e0e0e0" fill-opacity="0.8346" d="m146.06396 94.43888l14.614746 -14.614731l43.844208 0l-14.614746 14.614731z" fill-rule="evenodd"></path><path fill="#000000" fill-opacity="0.0" d="m146.06396 94.43888l14.614746 -14.614731l43.844208 0l0 43.87345l-14.614746 14.614731l-43.844208 0zm0 0l43.844208 0l14.614746 -14.614731m-14.614746 14.614731l0 43.87345" fill-rule="evenodd"></path><path stroke="#000000" stroke-width="1.0" stroke-linejoin="round" stroke-linecap="butt" stroke-dasharray="1.0,3.0" d="m146.06396 94.43888l14.614746 -14.614731l43.844208 0l0 43.87345l-14.614746 14.614731l-43.844208 0zm0 0l43.844208 0l14.614746 -14.614731m-14.614746 14.614731l0 43.87345" fill-rule="evenodd"></path><path fill="#d9d9d9" fill-opacity="0.8346" d="m87.74931 108.971695l43.844208 0l0 43.873444l-43.844208 0z" fill-rule="evenodd"></path><path fill="#adadad" fill-opacity="0.8346" d="m131.59352 108.971695l14.614731 -14.614738l0 43.87345l-14.614731 14.614731z" fill-rule="evenodd"></path><path fill="#e0e0e0" fill-opacity="0.8346" d="m87.74931 108.971695l14.614731 -14.614738l43.844208 0l-14.614731 14.614738z" fill-rule="evenodd"></path><path fill="#000000" fill-opacity="0.0" d="m87.74931 108.971695l14.614731 -14.614738l43.844208 0l0 43.87345l-14.614731 14.614731l-43.844208 0zm0 0l43.844208 0l14.614731 -14.614738m-14.614731 14.614738l0 43.873444" fill-rule="evenodd"></path><path stroke="#000000" stroke-width="1.0" stroke-linejoin="round" stroke-linecap="butt" stroke-dasharray="1.0,3.0" d="m87.74931 108.971695l14.614731 -14.614738l43.844208 0l0 43.87345l-14.614731 14.614731l-43.844208 0zm0 0l43.844208 0l14.614731 -14.614738m-14.614731 14.614738l0 43.873444" fill-rule="evenodd"></path><path fill="#d9d9d9" fill-opacity="0.8346" d="m73.654 123.41001l43.844208 0l0 43.87345l-43.844208 0z" fill-rule="evenodd"></path><path fill="#adadad" fill-opacity="0.8346" d="m117.49821 123.41001l14.614738 -14.614738l0 43.87346l-14.614738 14.614731z" fill-rule="evenodd"></path><path fill="#e0e0e0" fill-opacity="0.8346" d="m73.654 123.41001l14.614738 -14.614738l43.844208 0l-14.614738 14.614738z" fill-rule="evenodd"></path><path fill="#000000" fill-opacity="0.0" d="m73.654 123.41001l14.614738 -14.614738l43.844208 0l0 43.87346l-14.614738 14.614731l-43.844208 0zm0 0l43.844208 0l14.614738 -14.614738m-14.614738 14.614738l0 43.87345" fill-rule="evenodd"></path><path stroke="#000000" stroke-width="1.0" stroke-linejoin="round" stroke-linecap="butt" stroke-dasharray="1.0,3.0" d="m73.654 123.41001l14.614738 -14.614738l43.844208 0l0 43.87346l-14.614738 14.614731l-43.844208 0zm0 0l43.844208 0l14.614738 -14.614738m-14.614738 14.614738l0 43.87345" fill-rule="evenodd"></path><path fill="#d9d9d9" fill-opacity="0.8346" d="m131.3679 108.971695l43.844208 0l0 43.873444l-43.844208 0z" fill-rule="evenodd"></path><path fill="#adadad" fill-opacity="0.8346" d="m175.21211 108.971695l14.614746 -14.614738l0 43.87345l-14.614746 14.614731z" fill-rule="evenodd"></path><path fill="#e0e0e0" fill-opacity="0.8346" d="m131.3679 108.971695l14.614746 -14.614738l43.844208 0l-14.614746 14.614738z" fill-rule="evenodd"></path><path fill="#000000" fill-opacity="0.0" d="m131.3679 108.971695l14.614746 -14.614738l43.844208 0l0 43.87345l-14.614746 14.614731l-43.844208 0zm0 0l43.844208 0l14.614746 -14.614738m-14.614746 14.614738l0 43.873444" fill-rule="evenodd"></path><path stroke="#000000" stroke-width="1.0" stroke-linejoin="round" stroke-linecap="butt" stroke-dasharray="1.0,3.0" d="m131.3679 108.971695l14.614746 -14.614738l43.844208 0l0 43.87345l-14.614746 14.614731l-43.844208 0zm0 0l43.844208 0l14.614746 -14.614738m-14.614746 14.614738l0 43.873444" fill-rule="evenodd"></path><path fill="#d9d9d9" fill-opacity="0.8346" d="m117.207016 123.41001l43.844208 0l0 43.87345l-43.844208 0z" fill-rule="evenodd"></path><path fill="#adadad" fill-opacity="0.8346" d="m161.05122 123.41001l14.614731 -14.614738l0 43.87346l-14.614731 14.614731z" fill-rule="evenodd"></path><path fill="#e0e0e0" fill-opacity="0.8346" d="m117.207016 123.41001l14.614731 -14.614738l43.844208 0l-14.614731 14.614738z" fill-rule="evenodd"></path><path fill="#000000" fill-opacity="0.0" d="m117.207016 123.41001l14.614731 -14.614738l43.844208 0l0 43.87346l-14.614731 14.614731l-43.844208 0zm0 0l43.844208 0l14.614731 -14.614738m-14.614731 14.614738l0 43.87345" fill-rule="evenodd"></path><path stroke="#000000" stroke-width="1.0" stroke-linejoin="round" stroke-linecap="butt" stroke-dasharray="1.0,3.0" d="m117.207016 123.41001l14.614731 -14.614738l43.844208 0l0 43.87346l-14.614731 14.614731l-43.844208 0zm0 0l43.844208 0l14.614731 -14.614738m-14.614731 14.614738l0 43.87345" fill-rule="evenodd"></path><path fill="#d9d9d9" fill-opacity="0.8346" d="m204.51181 80.00787l43.86615 0l0 43.866142l-43.86615 0z" fill-rule="evenodd"></path><path fill="#adadad" fill-opacity="0.8346" d="m248.37796 80.00787l14.62204 -14.622047l0 43.866142l-14.62204 14.622047z" fill-rule="evenodd"></path><path fill="#e0e0e0" fill-opacity="0.8346" d="m204.51181 80.00787l14.622055 -14.622047l43.866135 0l-14.62204 14.622047z" fill-rule="evenodd"></path><path fill="#000000" fill-opacity="0.0" d="m204.51181 80.00787l14.622055 -14.622047l43.866135 0l0 43.866142l-14.62204 14.622047l-43.86615 0zm0 0l43.86615 0l14.62204 -14.622047m-14.62204 14.622047l0 43.866142" fill-rule="evenodd"></path><path stroke="#000000" stroke-width="1.0" stroke-linejoin="round" stroke-linecap="butt" stroke-dasharray="1.0,3.0" d="m204.51181 80.00787l14.622055 -14.622047l43.866135 0l0 43.866142l-14.62204 14.622047l-43.86615 0zm0 0l43.86615 0l14.62204 -14.622047m-14.62204 14.622047l0 43.866142" fill-rule="evenodd"></path><path fill="#d9d9d9" fill-opacity="0.8346" d="m190.40945 94.4462l43.866135 0l0 43.866135l-43.866135 0z" fill-rule="evenodd"></path><path fill="#adadad" fill-opacity="0.8346" d="m234.27559 94.4462l14.622055 -14.622047l0 43.866142l-14.622055 14.62204z" fill-rule="evenodd"></path><path fill="#e0e0e0" fill-opacity="0.8346" d="m190.40945 94.4462l14.62204 -14.622047l43.86615 0l-14.622055 14.622047z" fill-rule="evenodd"></path><path fill="#000000" fill-opacity="0.0" d="m190.40945 94.4462l14.62204 -14.622047l43.86615 0l0 43.866142l-14.622055 14.62204l-43.866135 0zm0 0l43.866135 0l14.622055 -14.622047m-14.622055 14.622047l0 43.866135" fill-rule="evenodd"></path><path stroke="#000000" stroke-width="1.0" stroke-linejoin="round" stroke-linecap="butt" stroke-dasharray="1.0,3.0" d="m190.40945 94.4462l14.62204 -14.622047l43.86615 0l0 43.866142l-14.622055 14.62204l-43.866135 0zm0 0l43.866135 0l14.622055 -14.622047m-14.622055 14.622047l0 43.866135" fill-rule="evenodd"></path><path fill="#d9d9d9" fill-opacity="0.8346" d="m248.15224 80.00787l43.866135 0l0 43.866142l-43.866135 0z" fill-rule="evenodd"></path><path fill="#adadad" fill-opacity="0.8346" d="m292.01837 80.00787l14.62204 -14.622047l0 43.866142l-14.62204 14.622047z" fill-rule="evenodd"></path><path fill="#e0e0e0" fill-opacity="0.8346" d="m248.15224 80.00787l14.622055 -14.622047l43.86612 0l-14.62204 14.622047z" fill-rule="evenodd"></path><path fill="#000000" fill-opacity="0.0" d="m248.15224 80.00787l14.622055 -14.622047l43.86612 0l0 43.866142l-14.62204 14.622047l-43.866135 0zm0 0l43.866135 0l14.62204 -14.622047m-14.62204 14.622047l0 43.866142" fill-rule="evenodd"></path><path stroke="#000000" stroke-width="1.0" stroke-linejoin="round" stroke-linecap="butt" stroke-dasharray="1.0,3.0" d="m248.15224 80.00787l14.622055 -14.622047l43.86612 0l0 43.866142l-14.62204 14.622047l-43.866135 0zm0 0l43.866135 0l14.62204 -14.622047m-14.62204 14.622047l0 43.866142" fill-rule="evenodd"></path><path fill="#d9d9d9" fill-opacity="0.8346" d="m233.98425 94.4462l43.86615 0l0 43.866135l-43.86615 0z" fill-rule="evenodd"></path><path fill="#adadad" fill-opacity="0.8346" d="m277.8504 94.4462l14.62204 -14.622047l0 43.866142l-14.62204 14.62204z" fill-rule="evenodd"></path><path fill="#e0e0e0" fill-opacity="0.8346" d="m233.98425 94.4462l14.62204 -14.622047l43.86615 0l-14.62204 14.622047z" fill-rule="evenodd"></path><path fill="#000000" fill-opacity="0.0" d="m233.98425 94.4462l14.62204 -14.622047l43.86615 0l0 43.866142l-14.62204 14.62204l-43.86615 0zm0 0l43.86615 0l14.62204 -14.622047m-14.62204 14.622047l0 43.866135" fill-rule="evenodd"></path><path stroke="#000000" stroke-width="1.0" stroke-linejoin="round" stroke-linecap="butt" stroke-dasharray="1.0,3.0" d="m233.98425 94.4462l14.62204 -14.622047l43.86615 0l0 43.866142l-14.62204 14.62204l-43.86615 0zm0 0l43.86615 0l14.62204 -14.622047m-14.62204 14.622047l0 43.866135" fill-rule="evenodd"></path><path fill="#d9d9d9" fill-opacity="0.8346" d="m175.64043 108.979004l43.866135 0l0 43.866135l-43.866135 0z" fill-rule="evenodd"></path><path fill="#adadad" fill-opacity="0.8346" d="m219.50656 108.979004l14.622055 -14.622047l0 43.866142l-14.622055 14.62204z" fill-rule="evenodd"></path><path fill="#e0e0e0" fill-opacity="0.8346" d="m175.64043 108.979004l14.62204 -14.622047l43.86615 0l-14.622055 14.622047z" fill-rule="evenodd"></path><path fill="#000000" fill-opacity="0.0" d="m175.64043 108.979004l14.62204 -14.622047l43.86615 0l0 43.866142l-14.622055 14.62204l-43.866135 0zm0 0l43.866135 0l14.622055 -14.622047m-14.622055 14.622047l0 43.866135" fill-rule="evenodd"></path><path stroke="#000000" stroke-width="1.0" stroke-linejoin="round" stroke-linecap="butt" stroke-dasharray="1.0,3.0" d="m175.64043 108.979004l14.62204 -14.622047l43.86615 0l0 43.866142l-14.622055 14.62204l-43.866135 0zm0 0l43.866135 0l14.622055 -14.622047m-14.622055 14.622047l0 43.866135" fill-rule="evenodd"></path><path fill="#d9d9d9" fill-opacity="0.8346" d="m161.53806 123.41732l43.86615 0l0 43.866142l-43.86615 0z" fill-rule="evenodd"></path><path fill="#adadad" fill-opacity="0.8346" d="m205.4042 123.41732l14.62204 -14.622047l0 43.86615l-14.62204 14.62204z" fill-rule="evenodd"></path><path fill="#e0e0e0" fill-opacity="0.8346" d="m161.53806 123.41732l14.622055 -14.622047l43.866135 0l-14.62204 14.622047z" fill-rule="evenodd"></path><path fill="#000000" fill-opacity="0.0" d="m161.53806 123.41732l14.622055 -14.622047l43.866135 0l0 43.86615l-14.62204 14.62204l-43.86615 0zm0 0l43.86615 0l14.62204 -14.622047m-14.62204 14.622047l0 43.866142" fill-rule="evenodd"></path><path stroke="#000000" stroke-width="1.0" stroke-linejoin="round" stroke-linecap="butt" stroke-dasharray="1.0,3.0" d="m161.53806 123.41732l14.622055 -14.622047l43.866135 0l0 43.86615l-14.62204 14.62204l-43.86615 0zm0 0l43.86615 0l14.62204 -14.622047m-14.62204 14.622047l0 43.866142" fill-rule="evenodd"></path><path fill="#d9d9d9" fill-opacity="0.8346" d="m219.28084 108.979004l43.866135 0l0 43.866135l-43.866135 0z" fill-rule="evenodd"></path><path fill="#adadad" fill-opacity="0.8346" d="m263.14697 108.979004l14.62207 -14.622047l0 43.866142l-14.62207 14.62204z" fill-rule="evenodd"></path><path fill="#e0e0e0" fill-opacity="0.8346" d="m219.28084 108.979004l14.622055 -14.622047l43.86615 0l-14.62207 14.622047z" fill-rule="evenodd"></path><path fill="#000000" fill-opacity="0.0" d="m219.28084 108.979004l14.622055 -14.622047l43.86615 0l0 43.866142l-14.62207 14.62204l-43.866135 0zm0 0l43.866135 0l14.62207 -14.622047m-14.62207 14.622047l0 43.866135" fill-rule="evenodd"></path><path stroke="#000000" stroke-width="1.0" stroke-linejoin="round" stroke-linecap="butt" stroke-dasharray="1.0,3.0" d="m219.28084 108.979004l14.622055 -14.622047l43.86615 0l0 43.866142l-14.62207 14.62204l-43.866135 0zm0 0l43.866135 0l14.62207 -14.622047m-14.62207 14.622047l0 43.866135" fill-rule="evenodd"></path><path fill="#d9d9d9" fill-opacity="0.8346" d="m205.11285 123.41732l43.86615 0l0 43.866142l-43.86615 0z" fill-rule="evenodd"></path><path fill="#adadad" fill-opacity="0.8346" d="m248.979 123.41732l14.62204 -14.622047l0 43.86615l-14.62204 14.62204z" fill-rule="evenodd"></path><path fill="#e0e0e0" fill-opacity="0.8346" d="m205.11285 123.41732l14.622055 -14.622047l43.866135 0l-14.62204 14.622047z" fill-rule="evenodd"></path><path fill="#000000" fill-opacity="0.0" d="m205.11285 123.41732l14.622055 -14.622047l43.866135 0l0 43.86615l-14.62204 14.62204l-43.86615 0zm0 0l43.86615 0l14.62204 -14.622047m-14.62204 14.622047l0 43.866142" fill-rule="evenodd"></path><path stroke="#000000" stroke-width="1.0" stroke-linejoin="round" stroke-linecap="butt" stroke-dasharray="1.0,3.0" d="m205.11285 123.41732l14.622055 -14.622047l43.866135 0l0 43.86615l-14.62204 14.62204l-43.86615 0zm0 0l43.86615 0l14.62204 -14.622047m-14.62204 14.622047l0 43.866142" fill-rule="evenodd"></path><path fill="#ff0000" d="m116.761154 36.19685l43.86615 0l0 43.866146l-43.86615 0z" fill-rule="evenodd"></path><path fill="#cb0000" d="m160.6273 36.19685l14.62204 -14.622047l0 43.866146l-14.62204 14.622047z" fill-rule="evenodd"></path><path fill="#ff3333" d="m116.761154 36.19685l14.622055 -14.622047l43.866135 0l-14.62204 14.622047z" fill-rule="evenodd"></path><path fill="#000000" fill-opacity="0.0" d="m116.761154 36.19685l14.622055 -14.622047l43.866135 0l0 43.866146l-14.62204 14.622047l-43.86615 0zm0 0l43.86615 0l14.62204 -14.622047m-14.62204 14.622047l0 43.866146" fill-rule="evenodd"></path><path stroke="#000000" stroke-width="1.0" stroke-linejoin="round" stroke-linecap="butt" d="m116.761154 36.19685l14.622055 -14.622047l43.866135 0l0 43.866146l-14.62204 14.622047l-43.86615 0zm0 0l43.86615 0l14.62204 -14.622047m-14.62204 14.622047l0 43.866146" fill-rule="evenodd"></path><path fill="#ff0000" d="m102.65879 50.63517l43.866142 0l0 43.866142l-43.866142 0z" fill-rule="evenodd"></path><path fill="#cb0000" d="m146.52493 50.63517l14.622055 -14.622047l0 43.866142l-14.622055 14.622047z" fill-rule="evenodd"></path><path fill="#ff3333" d="m102.65879 50.63517l14.622047 -14.622047l43.86615 0l-14.622055 14.622047z" fill-rule="evenodd"></path><path fill="#000000" fill-opacity="0.0" d="m102.65879 50.63517l14.622047 -14.622047l43.86615 0l0 43.866142l-14.622055 14.622047l-43.866142 0zm0 0l43.866142 0l14.622055 -14.622047m-14.622055 14.622047l0 43.866142" fill-rule="evenodd"></path><path stroke="#000000" stroke-width="1.0" stroke-linejoin="round" stroke-linecap="butt" d="m102.65879 50.63517l14.622047 -14.622047l43.86615 0l0 43.866142l-14.622055 14.622047l-43.866142 0zm0 0l43.866142 0l14.622055 -14.622047m-14.622055 14.622047l0 43.866142" fill-rule="evenodd"></path><path fill="#ff0000" d="m160.40158 36.19685l43.866135 0l0 43.866146l-43.866135 0z" fill-rule="evenodd"></path><path fill="#cb0000" d="m204.26772 36.19685l14.622055 -14.622047l0 43.866146l-14.622055 14.622047z" fill-rule="evenodd"></path><path fill="#ff3333" d="m160.40158 36.19685l14.62204 -14.622047l43.86615 0l-14.622055 14.622047z" fill-rule="evenodd"></path><path fill="#000000" fill-opacity="0.0" d="m160.40158 36.19685l14.62204 -14.622047l43.86615 0l0 43.866146l-14.622055 14.622047l-43.866135 0zm0 0l43.866135 0l14.622055 -14.622047m-14.622055 14.622047l0 43.866146" fill-rule="evenodd"></path><path stroke="#000000" stroke-width="1.0" stroke-linejoin="round" stroke-linecap="butt" d="m160.40158 36.19685l14.62204 -14.622047l43.86615 0l0 43.866146l-14.622055 14.622047l-43.866135 0zm0 0l43.866135 0l14.622055 -14.622047m-14.622055 14.622047l0 43.866146" fill-rule="evenodd"></path><path fill="#ff0000" d="m146.2336 50.63517l43.866135 0l0 43.866142l-43.866135 0z" fill-rule="evenodd"></path><path fill="#cb0000" d="m190.09973 50.63517l14.622055 -14.622047l0 43.866142l-14.622055 14.622047z" fill-rule="evenodd"></path><path fill="#ff3333" d="m146.2336 50.63517l14.62204 -14.622047l43.86615 0l-14.622055 14.622047z" fill-rule="evenodd"></path><path fill="#000000" fill-opacity="0.0" d="m146.2336 50.63517l14.62204 -14.622047l43.86615 0l0 43.866142l-14.622055 14.622047l-43.866135 0zm0 0l43.866135 0l14.622055 -14.622047m-14.622055 14.622047l0 43.866142" fill-rule="evenodd"></path><path stroke="#000000" stroke-width="1.0" stroke-linejoin="round" stroke-linecap="butt" d="m146.2336 50.63517l14.62204 -14.622047l43.86615 0l0 43.866142l-14.622055 14.622047l-43.866135 0zm0 0l43.866135 0l14.622055 -14.622047m-14.622055 14.622047l0 43.866142" fill-rule="evenodd"></path><path fill="#ff0000" d="m87.88976 65.16798l43.866142 0l0 43.866142l-43.866142 0z" fill-rule="evenodd"></path><path fill="#cb0000" d="m131.7559 65.16798l14.622055 -14.622044l0 43.86614l-14.622055 14.622047z" fill-rule="evenodd"></path><path fill="#ff3333" d="m87.88976 65.16798l14.622047 -14.622044l43.86615 0l-14.622055 14.622044z" fill-rule="evenodd"></path><path fill="#000000" fill-opacity="0.0" d="m87.88976 65.16798l14.622047 -14.622044l43.86615 0l0 43.86614l-14.622055 14.622047l-43.866142 0zm0 0l43.866142 0l14.622055 -14.622044m-14.622055 14.622044l0 43.866142" fill-rule="evenodd"></path><path stroke="#000000" stroke-width="1.0" stroke-linejoin="round" stroke-linecap="butt" d="m87.88976 65.16798l14.622047 -14.622044l43.86615 0l0 43.86614l-14.622055 14.622047l-43.866142 0zm0 0l43.866142 0l14.622055 -14.622044m-14.622055 14.622044l0 43.866142" fill-rule="evenodd"></path><path fill="#ff0000" d="m73.7874 79.6063l43.866142 0l0 43.866142l-43.866142 0z" fill-rule="evenodd"></path><path fill="#cb0000" d="m117.65354 79.6063l14.622047 -14.622047l0 43.866142l-14.622047 14.622047z" fill-rule="evenodd"></path><path fill="#ff3333" d="m73.7874 79.6063l14.622047 -14.622047l43.866142 0l-14.622047 14.622047z" fill-rule="evenodd"></path><path fill="#000000" fill-opacity="0.0" d="m73.7874 79.6063l14.622047 -14.622047l43.866142 0l0 43.866142l-14.622047 14.622047l-43.866142 0zm0 0l43.866142 0l14.622047 -14.622047m-14.622047 14.622047l0 43.866142" fill-rule="evenodd"></path><path stroke="#000000" stroke-width="1.0" stroke-linejoin="round" stroke-linecap="butt" d="m73.7874 79.6063l14.622047 -14.622047l43.866142 0l0 43.866142l-14.622047 14.622047l-43.866142 0zm0 0l43.866142 0l14.622047 -14.622047m-14.622047 14.622047l0 43.866142" fill-rule="evenodd"></path><path fill="#ff0000" d="m131.53018 65.16798l43.86615 0l0 43.866142l-43.86615 0z" fill-rule="evenodd"></path><path fill="#cb0000" d="m175.39633 65.16798l14.62204 -14.622044l0 43.86614l-14.62204 14.622047z" fill-rule="evenodd"></path><path fill="#ff3333" d="m131.53018 65.16798l14.622055 -14.622044l43.866135 0l-14.62204 14.622044z" fill-rule="evenodd"></path><path fill="#000000" fill-opacity="0.0" d="m131.53018 65.16798l14.622055 -14.622044l43.866135 0l0 43.86614l-14.62204 14.622047l-43.86615 0zm0 0l43.86615 0l14.62204 -14.622044m-14.62204 14.622044l0 43.866142" fill-rule="evenodd"></path><path stroke="#000000" stroke-width="1.0" stroke-linejoin="round" stroke-linecap="butt" d="m131.53018 65.16798l14.622055 -14.622044l43.866135 0l0 43.86614l-14.62204 14.622047l-43.86615 0zm0 0l43.86615 0l14.62204 -14.622044m-14.62204 14.622044l0 43.866142" fill-rule="evenodd"></path><path fill="#ff0000" d="m117.362206 79.6063l43.866142 0l0 43.866142l-43.866142 0z" fill-rule="evenodd"></path><path fill="#cb0000" d="m161.22835 79.6063l14.62204 -14.622047l0 43.866142l-14.62204 14.622047z" fill-rule="evenodd"></path><path fill="#ff3333" d="m117.362206 79.6063l14.622047 -14.622047l43.866135 0l-14.62204 14.622047z" fill-rule="evenodd"></path><path fill="#000000" fill-opacity="0.0" d="m117.362206 79.6063l14.622047 -14.622047l43.866135 0l0 43.866142l-14.62204 14.622047l-43.866142 0zm0 0l43.866142 0l14.62204 -14.622047m-14.62204 14.622047l0 43.866142" fill-rule="evenodd"></path><path stroke="#000000" stroke-width="1.0" stroke-linejoin="round" stroke-linecap="butt" d="m117.362206 79.6063l14.622047 -14.622047l43.866135 0l0 43.866142l-14.62204 14.622047l-43.866142 0zm0 0l43.866142 0l14.62204 -14.622047m-14.62204 14.622047l0 43.866142" fill-rule="evenodd"></path><path fill="#000000" fill-opacity="0.0" d="m-81.98688 -8.729659l312.9449 0l0 37.385826l-312.9449 0z" fill-rule="evenodd"></path><path fill="#000000" d="m89.97363 11.614717l1.515625 0.375q-0.46875 1.875 -1.71875 2.859375q-1.234375 0.984375 -3.015625 0.984375q-1.859375 0 -3.015625 -0.75q-1.15625 -0.765625 -1.765625 -2.1875q-0.609375 -1.4375 -0.609375 -3.078125q0 -1.796875 0.6875 -3.1249995q0.6875 -1.328125 1.9375 -2.015625q1.265625 -0.70312524 2.78125 -0.70312524q1.71875 0 2.890625 0.87500024q1.171875 0.875 1.640625 2.46875l-1.5 0.34375q-0.390625 -1.25 -1.15625 -1.8125q-0.75 -0.578125 -1.90625 -0.578125q-1.3125 0 -2.203125 0.640625q-0.890625 0.625 -1.25 1.703125q-0.359375 1.0624995 -0.359375 2.1874995q0 1.46875 0.421875 2.5625q0.4375 1.078125 1.328125 1.625q0.90625 0.53125 1.953125 0.53125q1.265625 0 2.140625 -0.734375q0.890625 -0.734375 1.203125 -2.171875zm8.6171875 2.984375q-0.78125 0.671875 -1.5 0.953125q-0.71875 0.265625 -1.546875 0.265625q-1.375 0 -2.109375 -0.671875q-0.734375 -0.671875 -0.734375 -1.703125q0 -0.609375 0.28125 -1.109375q0.28125 -0.515625 0.71875 -0.8125q0.453125 -0.3125 1.015625 -0.46875q0.421875 -0.109375 1.25 -0.203125q1.703125 -0.203125 2.515625 -0.484375q0 -0.296875 0 -0.375q0 -0.859375 -0.390625 -1.203125q-0.546875 -0.484375 -1.609375 -0.484375q-0.984375 0 -1.46875 0.359375q-0.46875 0.34375 -0.6875 1.21875l-1.375 -0.1875q0.1875 -0.875 0.609375 -1.421875q0.4375 -0.5468745 1.25 -0.8281245q0.8125 -0.296875 1.875 -0.296875q1.0625 0 1.71875 0.25q0.671875 0.25 0.984375 0.6249995q0.3125 0.375 0.4375 0.953125q0.078125 0.359375 0.078125 1.296875l0 1.875q0 1.96875 0.078125 2.484375q0.09375 0.515625 0.359375 1.0l-1.46875 0q-0.21875 -0.4375 -0.28125 -1.03125zm-0.109375 -3.140625q-0.765625 0.3125 -2.296875 0.53125q-0.875 0.125 -1.234375 0.28125q-0.359375 0.15625 -0.5625 0.46875q-0.1875 0.296875 -0.1875 0.65625q0 0.5625 0.421875 0.9375q0.4375 0.375 1.25 0.375q0.8125 0 1.4375 -0.34375q0.640625 -0.359375 0.9375 -0.984375q0.234375 -0.46875 0.234375 -1.40625l0 -0.515625zm3.0390625 1.6875l1.390625 -0.21875q0.109375 0.84375 0.640625 1.296875q0.546875 0.4375 1.5 0.4375q0.96875 0 1.4375 -0.390625q0.46875 -0.40625 0.46875 -0.9375q0 -0.46875 -0.40625 -0.75q-0.296875 -0.1875 -1.4375 -0.46875q-1.546875 -0.390625 -2.15625 -0.671875q-0.59375 -0.296875 -0.90625 -0.796875q-0.296875 -0.5 -0.296875 -1.109375q0 -0.5625 0.25 -1.03125q0.25 -0.46875 0.6875 -0.7812495q0.328125 -0.25 0.890625 -0.40625q0.578125 -0.171875 1.21875 -0.171875q0.984375 0 1.71875 0.28125q0.734375 0.28125 1.078125 0.7656245q0.359375 0.46875 0.5 1.28125l-1.375 0.1875q-0.09375 -0.640625 -0.546875 -1.0q-0.453125 -0.359375 -1.265625 -0.359375q-0.96875 0 -1.390625 0.328125q-0.40625 0.3125 -0.40625 0.734375q0 0.28125 0.171875 0.5q0.171875 0.21875 0.53125 0.375q0.21875 0.078125 1.25 0.359375q1.484375 0.390625 2.078125 0.65625q0.59375 0.25 0.921875 0.734375q0.34375 0.484375 0.34375 1.203125q0 0.703125 -0.421875 1.328125q-0.40625 0.609375 -1.1875 0.953125q-0.765625 0.34375 -1.734375 0.34375q-1.625 0 -2.46875 -0.671875q-0.84375 -0.671875 -1.078125 -2.0zm14.234375 -0.1875l1.453125 0.171875q-0.34375 1.28125 -1.28125 1.984375q-0.921875 0.703125 -2.359375 0.703125q-1.828125 0 -2.890625 -1.125q-1.0625 -1.125 -1.0625 -3.140625q0 -2.09375 1.078125 -3.25q1.078125 -1.1562495 2.796875 -1.1562495q1.65625 0 2.703125 1.1406245q1.0625 1.125 1.0625 3.171875q0 0.125 0 0.375l-6.1875 0q0.078125 1.375 0.765625 2.109375q0.703125 0.71875 1.734375 0.71875q0.78125 0 1.328125 -0.40625q0.546875 -0.40625 0.859375 -1.296875zm-4.609375 -2.28125l4.625 0q-0.09375 -1.046875 -0.53125 -1.5625q-0.671875 -0.8125 -1.734375 -0.8125q-0.96875 0 -1.640625 0.65625q-0.65625 0.640625 -0.71875 1.71875zm11.890625 1.953125l1.46875 -0.125q0.171875 1.078125 0.765625 1.625q0.59375 0.53125 1.4375 0.53125q1.015625 0 1.71875 -0.765625q0.703125 -0.765625 0.703125 -2.03125q0 -1.203125 -0.671875 -1.890625q-0.671875 -0.703125 -1.765625 -0.703125q-0.6875 0 -1.234375 0.3125q-0.546875 0.3125 -0.859375 0.796875l-1.3125 -0.171875l1.109375 -5.8749995l5.6875 0l0 1.34375l-4.5625 0l-0.625 3.0781245q1.03125 -0.71875 2.171875 -0.71875q1.5 0 2.53125 1.046875q1.03125 1.03125 1.03125 2.65625q0 1.5625 -0.90625 2.6875q-1.109375 1.40625 -3.015625 1.40625q-1.5625 0 -2.546875 -0.875q-0.984375 -0.890625 -1.125 -2.328125zm9.6796875 -3.703125l0 -1.5937495l1.59375 0l0 1.5937495l-1.59375 0zm0 6.703125l0 -1.609375l1.59375 0l0 1.609375l-1.59375 0zm9.796875 0l-1.3125 0l0 -11.453125l1.40625 0l0 4.0781245q0.890625 -1.1093745 2.28125 -1.1093745q0.765625 0 1.4375 0.3125q0.6875 0.296875 1.125 0.8593745q0.453125 0.5625 0.703125 1.359375q0.25 0.78125 0.25 1.671875q0 2.140625 -1.0625 3.3125q-1.046875 1.15625 -2.53125 1.15625q-1.46875 0 -2.296875 -1.234375l0 1.046875zm-0.015625 -4.21875q0 1.5 0.40625 2.15625q0.65625 1.09375 1.796875 1.09375q0.921875 0 1.59375 -0.796875q0.671875 -0.8125 0.671875 -2.390625q0 -1.625 -0.65625 -2.390625q-0.640625 -0.78125 -1.546875 -0.78125q-0.921875 0 -1.59375 0.796875q-0.671875 0.796875 -0.671875 2.3125zm7.5859375 4.21875l0 -11.453125l1.40625 0l0 11.453125l-1.40625 0zm3.0546875 -4.15625q0 -2.296875 1.28125 -3.40625q1.078125 -0.9218745 2.609375 -0.9218745q1.71875 0 2.796875 1.1249995q1.09375 1.109375 1.09375 3.09375q0 1.59375 -0.484375 2.515625q-0.484375 0.921875 -1.40625 1.4375q-0.90625 0.5 -2.0 0.5q-1.734375 0 -2.8125 -1.109375q-1.078125 -1.125 -1.078125 -3.234375zm1.453125 0q0 1.59375 0.6875 2.390625q0.703125 0.796875 1.75 0.796875q1.046875 0 1.734375 -0.796875q0.703125 -0.796875 0.703125 -2.4375q0 -1.53125 -0.703125 -2.328125q-0.6875 -0.796875 -1.734375 -0.796875q-1.046875 0 -1.75 0.796875q-0.6875 0.78125 -0.6875 2.375zm13.3828125 1.109375l1.390625 0.1875q-0.234375 1.421875 -1.171875 2.234375q-0.921875 0.8125 -2.28125 0.8125q-1.703125 0 -2.75 -1.109375q-1.03125 -1.125 -1.03125 -3.203125q0 -1.34375 0.4375 -2.34375q0.453125 -1.015625 1.359375 -1.5156245q0.921875 -0.5 1.984375 -0.5q1.359375 0 2.21875 0.6875q0.859375 0.6718745 1.09375 1.9374995l-1.359375 0.203125q-0.203125 -0.828125 -0.703125 -1.25q-0.484375 -0.421875 -1.1875 -0.421875q-1.0625 0 -1.734375 0.765625q-0.65625 0.75 -0.65625 2.40625q0 1.671875 0.640625 2.4375q0.640625 0.75 1.671875 0.75q0.828125 0 1.375 -0.5q0.5625 -0.515625 0.703125 -1.578125zm2.59375 3.046875l0 -11.453125l1.40625 0l0 6.5312495l3.328125 -3.3749995l1.828125 0l-3.171875 3.0781245l3.484375 5.21875l-1.734375 0l-2.734375 -4.25l-1.0 0.953125l0 3.296875l-1.40625 0zm11.8828125 -2.484375l1.390625 -0.21875q0.109375 0.84375 0.640625 1.296875q0.546875 0.4375 1.5 0.4375q0.96875 0 1.4375 -0.390625q0.46875 -0.40625 0.46875 -0.9375q0 -0.46875 -0.40625 -0.75q-0.296875 -0.1875 -1.4375 -0.46875q-1.546875 -0.390625 -2.15625 -0.671875q-0.59375 -0.296875 -0.90625 -0.796875q-0.296875 -0.5 -0.296875 -1.109375q0 -0.5625 0.25 -1.03125q0.25 -0.46875 0.6875 -0.7812495q0.328125 -0.25 0.890625 -0.40625q0.578125 -0.171875 1.21875 -0.171875q0.984375 0 1.71875 0.28125q0.734375 0.28125 1.078125 0.7656245q0.359375 0.46875 0.5 1.28125l-1.375 0.1875q-0.09375 -0.640625 -0.546875 -1.0q-0.453125 -0.359375 -1.265625 -0.359375q-0.96875 0 -1.390625 0.328125q-0.40625 0.3125 -0.40625 0.734375q0 0.28125 0.171875 0.5q0.171875 0.21875 0.53125 0.375q0.21875 0.078125 1.25 0.359375q1.484375 0.390625 2.078125 0.65625q0.59375 0.25 0.921875 0.734375q0.34375 0.484375 0.34375 1.203125q0 0.703125 -0.421875 1.328125q-0.40625 0.609375 -1.1875 0.953125q-0.765625 0.34375 -1.734375 0.34375q-1.625 0 -2.46875 -0.671875q-0.84375 -0.671875 -1.078125 -2.0zm8.53125 2.484375l0 -11.453125l1.40625 0l0 11.453125l-1.40625 0zm3.5859375 -9.84375l0 -1.609375l1.40625 0l0 1.609375l-1.40625 0zm0 9.84375l0 -8.296875l1.40625 0l0 8.296875l-1.40625 0zm8.9609375 -3.046875l1.390625 0.1875q-0.234375 1.421875 -1.171875 2.234375q-0.921875 0.8125 -2.28125 0.8125q-1.703125 0 -2.75 -1.109375q-1.03125 -1.125 -1.03125 -3.203125q0 -1.34375 0.4375 -2.34375q0.453125 -1.015625 1.359375 -1.5156245q0.921875 -0.5 1.984375 -0.5q1.359375 0 2.21875 0.6875q0.859375 0.6718745 1.09375 1.9374995l-1.359375 0.203125q-0.203125 -0.828125 -0.703125 -1.25q-0.484375 -0.421875 -1.1875 -0.421875q-1.0625 0 -1.734375 0.765625q-0.65625 0.75 -0.65625 2.40625q0 1.671875 0.640625 2.4375q0.640625 0.75 1.671875 0.75q0.828125 0 1.375 -0.5q0.5625 -0.515625 0.703125 -1.578125zm8.265625 0.375l1.453125 0.171875q-0.34375 1.28125 -1.28125 1.984375q-0.921875 0.703125 -2.359375 0.703125q-1.828125 0 -2.890625 -1.125q-1.0625 -1.125 -1.0625 -3.140625q0 -2.09375 1.078125 -3.25q1.078125 -1.1562495 2.796875 -1.1562495q1.65625 0 2.703125 1.1406245q1.0625 1.125 1.0625 3.171875q0 0.125 0 0.375l-6.1875 0q0.078125 1.375 0.765625 2.109375q0.703125 0.71875 1.734375 0.71875q0.78125 0 1.328125 -0.40625q0.546875 -0.40625 0.859375 -1.296875zm-4.609375 -2.28125l4.625 0q-0.09375 -1.046875 -0.53125 -1.5625q-0.671875 -0.8125 -1.734375 -0.8125q-0.96875 0 -1.640625 0.65625q-0.65625 0.640625 -0.71875 1.71875zm7.2734375 2.46875l1.390625 -0.21875q0.109375 0.84375 0.640625 1.296875q0.546875 0.4375 1.5 0.4375q0.96875 0 1.4375 -0.390625q0.46875 -0.40625 0.46875 -0.9375q0 -0.46875 -0.40625 -0.75q-0.296875 -0.1875 -1.4375 -0.46875q-1.546875 -0.390625 -2.15625 -0.671875q-0.59375 -0.296875 -0.90625 -0.796875q-0.296875 -0.5 -0.296875 -1.109375q0 -0.5625 0.25 -1.03125q0.25 -0.46875 0.6875 -0.7812495q0.328125 -0.25 0.890625 -0.40625q0.578125 -0.171875 1.21875 -0.171875q0.984375 0 1.71875 0.28125q0.734375 0.28125 1.078125 0.7656245q0.359375 0.46875 0.5 1.28125l-1.375 0.1875q-0.09375 -0.640625 -0.546875 -1.0q-0.453125 -0.359375 -1.265625 -0.359375q-0.96875 0 -1.390625 0.328125q-0.40625 0.3125 -0.40625 0.734375q0 0.28125 0.171875 0.5q0.171875 0.21875 0.53125 0.375q0.21875 0.078125 1.25 0.359375q1.484375 0.390625 2.078125 0.65625q0.59375 0.25 0.921875 0.734375q0.34375 0.484375 0.34375 1.203125q0 0.703125 -0.421875 1.328125q-0.40625 0.609375 -1.1875 0.953125q-0.765625 0.34375 -1.734375 0.34375q-1.625 0 -2.46875 -0.671875q-0.84375 -0.671875 -1.078125 -2.0z" fill-rule="nonzero"></path><path fill="#ff0000" d="m204.71129 36.19685l43.866135 0l0 43.866146l-43.866135 0z" fill-rule="evenodd"></path><path fill="#cb0000" d="m248.57742 36.19685l14.62204 -14.622047l0 43.866146l-14.62204 14.622047z" fill-rule="evenodd"></path><path fill="#ff3333" d="m204.71129 36.19685l14.62204 -14.622047l43.866135 0l-14.62204 14.622047z" fill-rule="evenodd"></path><path fill="#000000" fill-opacity="0.0" d="m204.71129 36.19685l14.62204 -14.622047l43.866135 0l0 43.866146l-14.62204 14.622047l-43.866135 0zm0 0l43.866135 0l14.62204 -14.622047m-14.62204 14.622047l0 43.866146" fill-rule="evenodd"></path><path stroke="#000000" stroke-width="1.0" stroke-linejoin="round" stroke-linecap="butt" d="m204.71129 36.19685l14.62204 -14.622047l43.866135 0l0 43.866146l-14.62204 14.622047l-43.866135 0zm0 0l43.866135 0l14.62204 -14.622047m-14.62204 14.622047l0 43.866146" fill-rule="evenodd"></path><path fill="#ff0000" d="m190.60892 50.63517l43.86615 0l0 43.866142l-43.86615 0z" fill-rule="evenodd"></path><path fill="#cb0000" d="m234.47507 50.63517l14.62204 -14.622047l0 43.866142l-14.62204 14.622047z" fill-rule="evenodd"></path><path fill="#ff3333" d="m190.60892 50.63517l14.622055 -14.622047l43.866135 0l-14.62204 14.622047z" fill-rule="evenodd"></path><path fill="#000000" fill-opacity="0.0" d="m190.60892 50.63517l14.622055 -14.622047l43.866135 0l0 43.866142l-14.62204 14.622047l-43.86615 0zm0 0l43.86615 0l14.62204 -14.622047m-14.62204 14.622047l0 43.866142" fill-rule="evenodd"></path><path stroke="#000000" stroke-width="1.0" stroke-linejoin="round" stroke-linecap="butt" d="m190.60892 50.63517l14.622055 -14.622047l43.866135 0l0 43.866142l-14.62204 14.622047l-43.86615 0zm0 0l43.86615 0l14.62204 -14.622047m-14.62204 14.622047l0 43.866142" fill-rule="evenodd"></path><path fill="#ff0000" d="m248.3517 36.19685l43.866135 0l0 43.866146l-43.866135 0z" fill-rule="evenodd"></path><path fill="#cb0000" d="m292.21783 36.19685l14.62207 -14.622047l0 43.866146l-14.62207 14.622047z" fill-rule="evenodd"></path><path fill="#ff3333" d="m248.3517 36.19685l14.622055 -14.622047l43.86615 0l-14.62207 14.622047z" fill-rule="evenodd"></path><path fill="#000000" fill-opacity="0.0" d="m248.3517 36.19685l14.622055 -14.622047l43.86615 0l0 43.866146l-14.62207 14.622047l-43.866135 0zm0 0l43.866135 0l14.62207 -14.622047m-14.62207 14.622047l0 43.866146" fill-rule="evenodd"></path><path stroke="#000000" stroke-width="1.0" stroke-linejoin="round" stroke-linecap="butt" d="m248.3517 36.19685l14.622055 -14.622047l43.86615 0l0 43.866146l-14.62207 14.622047l-43.866135 0zm0 0l43.866135 0l14.62207 -14.622047m-14.62207 14.622047l0 43.866146" fill-rule="evenodd"></path><path fill="#ff0000" d="m234.18373 50.63517l43.866135 0l0 43.866142l-43.866135 0z" fill-rule="evenodd"></path><path fill="#cb0000" d="m278.04987 50.63517l14.62204 -14.622047l0 43.866142l-14.62204 14.622047z" fill-rule="evenodd"></path><path fill="#ff3333" d="m234.18373 50.63517l14.62204 -14.622047l43.866135 0l-14.62204 14.622047z" fill-rule="evenodd"></path><path fill="#000000" fill-opacity="0.0" d="m234.18373 50.63517l14.62204 -14.622047l43.866135 0l0 43.866142l-14.62204 14.622047l-43.866135 0zm0 0l43.866135 0l14.62204 -14.622047m-14.62204 14.622047l0 43.866142" fill-rule="evenodd"></path><path stroke="#000000" stroke-width="1.0" stroke-linejoin="round" stroke-linecap="butt" d="m234.18373 50.63517l14.62204 -14.622047l43.866135 0l0 43.866142l-14.62204 14.622047l-43.866135 0zm0 0l43.866135 0l14.62204 -14.622047m-14.62204 14.622047l0 43.866142" fill-rule="evenodd"></path><path fill="#ff0000" d="m175.83989 65.16798l43.86615 0l0 43.866142l-43.86615 0z" fill-rule="evenodd"></path><path fill="#cb0000" d="m219.70604 65.16798l14.62204 -14.622044l0 43.86614l-14.62204 14.622047z" fill-rule="evenodd"></path><path fill="#ff3333" d="m175.83989 65.16798l14.622055 -14.622044l43.866135 0l-14.62204 14.622044z" fill-rule="evenodd"></path><path fill="#000000" fill-opacity="0.0" d="m175.83989 65.16798l14.622055 -14.622044l43.866135 0l0 43.86614l-14.62204 14.622047l-43.86615 0zm0 0l43.86615 0l14.62204 -14.622044m-14.62204 14.622044l0 43.866142" fill-rule="evenodd"></path><path stroke="#000000" stroke-width="1.0" stroke-linejoin="round" stroke-linecap="butt" d="m175.83989 65.16798l14.622055 -14.622044l43.866135 0l0 43.86614l-14.62204 14.622047l-43.86615 0zm0 0l43.86615 0l14.62204 -14.622044m-14.62204 14.622044l0 43.866142" fill-rule="evenodd"></path><path fill="#ff0000" d="m161.73753 79.6063l43.866135 0l0 43.866142l-43.866135 0z" fill-rule="evenodd"></path><path fill="#cb0000" d="m205.60367 79.6063l14.622055 -14.622047l0 43.866142l-14.622055 14.622047z" fill-rule="evenodd"></path><path fill="#ff3333" d="m161.73753 79.6063l14.62204 -14.622047l43.86615 0l-14.622055 14.622047z" fill-rule="evenodd"></path><path fill="#000000" fill-opacity="0.0" d="m161.73753 79.6063l14.62204 -14.622047l43.86615 0l0 43.866142l-14.622055 14.622047l-43.866135 0zm0 0l43.866135 0l14.622055 -14.622047m-14.622055 14.622047l0 43.866142" fill-rule="evenodd"></path><path stroke="#000000" stroke-width="1.0" stroke-linejoin="round" stroke-linecap="butt" d="m161.73753 79.6063l14.62204 -14.622047l43.86615 0l0 43.866142l-14.622055 14.622047l-43.866135 0zm0 0l43.866135 0l14.622055 -14.622047m-14.622055 14.622047l0 43.866142" fill-rule="evenodd"></path><path fill="#ff0000" d="m219.48032 65.16798l43.86615 0l0 43.866142l-43.86615 0z" fill-rule="evenodd"></path><path fill="#cb0000" d="m263.34647 65.16798l14.62204 -14.622044l0 43.86614l-14.62204 14.622047z" fill-rule="evenodd"></path><path fill="#ff3333" d="m219.48032 65.16798l14.62204 -14.622044l43.86615 0l-14.62204 14.622044z" fill-rule="evenodd"></path><path fill="#000000" fill-opacity="0.0" d="m219.48032 65.16798l14.62204 -14.622044l43.86615 0l0 43.86614l-14.62204 14.622047l-43.86615 0zm0 0l43.86615 0l14.62204 -14.622044m-14.62204 14.622044l0 43.866142" fill-rule="evenodd"></path><path stroke="#000000" stroke-width="1.0" stroke-linejoin="round" stroke-linecap="butt" d="m219.48032 65.16798l14.62204 -14.622044l43.86615 0l0 43.86614l-14.62204 14.622047l-43.86615 0zm0 0l43.86615 0l14.62204 -14.622044m-14.62204 14.622044l0 43.866142" fill-rule="evenodd"></path><path fill="#ff0000" d="m205.31233 79.6063l43.86615 0l0 43.866142l-43.86615 0z" fill-rule="evenodd"></path><path fill="#cb0000" d="m249.17848 79.6063l14.622055 -14.622047l0 43.866142l-14.622055 14.622047z" fill-rule="evenodd"></path><path fill="#ff3333" d="m205.31233 79.6063l14.622055 -14.622047l43.86615 0l-14.622055 14.622047z" fill-rule="evenodd"></path><path fill="#000000" fill-opacity="0.0" d="m205.31233 79.6063l14.622055 -14.622047l43.86615 0l0 43.866142l-14.622055 14.622047l-43.86615 0zm0 0l43.86615 0l14.622055 -14.622047m-14.622055 14.622047l0 43.866142" fill-rule="evenodd"></path><path stroke="#000000" stroke-width="1.0" stroke-linejoin="round" stroke-linecap="butt" d="m205.31233 79.6063l14.622055 -14.622047l43.86615 0l0 43.866142l-14.622055 14.622047l-43.86615 0zm0 0l43.86615 0l14.622055 -14.622047m-14.622055 14.622047l0 43.866142" fill-rule="evenodd"></path><path fill="#000000" fill-opacity="0.0" d="m2.2099738 16.63517l130.23622 0l0 67.779526l-130.23622 0z" fill-rule="evenodd"></path><path fill="#000000" d="m15.194348 57.44493l-3.75 -9.859375l1.765625 0l2.125 5.90625q0.34375 0.953125 0.625 1.984375q0.21875095 -0.78125 0.62500095 -1.875l2.1875 -6.015625l1.71875 0l-3.734375 9.859375l-1.562501 0z" fill-rule="nonzero"></path><path fill="#000000" d="m20.866224 55.94493l0.75 -0.0625q0.078125 0.53125 0.375 0.8125q0.296875 0.265625 0.71875 0.265625q0.515625 0 0.859375 -0.375q0.359375 -0.390625 0.359375 -1.015625q0 -0.609375 -0.34375 -0.953125q-0.34375 -0.34375 -0.890625 -0.34375q-0.328125 0 -0.609375 0.15625q-0.265625 0.140625 -0.421875 0.390625l-0.671875 -0.078125l0.5625 -2.953125l2.84375 0l0 0.671875l-2.28125 0l-0.3125 1.546875q0.515625 -0.359375 1.078125 -0.359375q0.75 0 1.265625 0.515625q0.515625 0.515625 0.515625 1.34375q0 0.765625 -0.453125 1.34375q-0.546875 0.6875 -1.5 0.6875q-0.78125 0 -1.28125 -0.4375q-0.484375 -0.4375 -0.5625 -1.15625z" fill-rule="nonzero"></path><path fill="#000000" d="m40.20187 49.44493l-8.968748 0l0 -1.5625l8.968748 0l0 1.5625zm0 4.125l-8.968748 0l0 -1.546875l8.968748 0l0 1.546875zm2.3324585 3.875l0 -13.59375l4.6875 0q1.578125 0 2.421875 0.1875q1.15625 0.265625 1.984375 0.96875q1.078125 0.921875 1.609375 2.34375q0.53125 1.40625 0.53125 3.21875q0 1.546875 -0.359375 2.75q-0.359375 1.1875 -0.921875 1.984375q-0.5625 0.78125 -1.234375 1.234375q-0.671875 0.4375 -1.625 0.671875q-0.953125 0.234375 -2.1875 0.234375l-4.90625 0zm1.796875 -1.609375l2.90625 0q1.34375 0 2.109375 -0.25q0.765625 -0.25 1.21875 -0.703125q0.640625 -0.640625 1.0 -1.71875q0.359375 -1.078125 0.359375 -2.625q0 -2.125 -0.703125 -3.265625q-0.703125 -1.15625 -1.703125 -1.546875q-0.71875 -0.28125 -2.328125 -0.28125l-2.859375 0l0 10.390625zm23.031254 1.609375l0 -1.25q-0.9375 1.46875 -2.75 1.46875q-1.1718788 0 -2.1718788 -0.640625q-0.984375 -0.65625 -1.53125 -1.8125q-0.53125 -1.171875 -0.53125 -2.6875q0 -1.46875 0.484375 -2.671875q0.5 -1.203125 1.46875 -1.84375q0.984375 -0.640625 2.2031288 -0.640625q0.890625 0 1.578125 0.375q0.703125 0.375 1.140625 0.984375l0 -4.875l1.65625 0l0 13.59375l-1.546875 0zm-5.281254 -4.921875q0 1.890625 0.796875 2.828125q0.8125 0.9375 1.8906288 0.9375q1.09375 0 1.859375 -0.890625q0.765625 -0.890625 0.765625 -2.734375q0 -2.015625 -0.78125 -2.953125q-0.78125 -0.953125 -1.921875 -0.953125q-1.1093788 0 -1.8593788 0.90625q-0.75 0.90625 -0.75 2.859375zm10.813221 4.921875l-1.546875 0l0 -13.59375l1.65625 0l0 4.84375q1.0625 -1.328125 2.703125 -1.328125q0.90625 0 1.71875 0.375q0.8125 0.359375 1.328125 1.03125q0.53125 0.65625 0.828125 1.59375q0.296875 0.9375 0.296875 2.0q0 2.53125 -1.25 3.921875q-1.25 1.375 -3.0 1.375q-1.75 0 -2.734375 -1.453125l0 1.234375zm-0.015625 -5.0q0 1.765625 0.46875 2.5625q0.796875 1.28125 2.140625 1.28125q1.09375 0 1.890625 -0.9375q0.796875 -0.953125 0.796875 -2.84375q0 -1.921875 -0.765625 -2.84375q-0.765625 -0.921875 -1.84375 -0.921875q-1.09375 0 -1.890625 0.953125q-0.796875 0.953125 -0.796875 2.75z" fill-rule="nonzero"></path><path fill="#000000" fill-opacity="0.0" d="m45.17848 28.654856l248.18898 0l0 28.944883l-248.18898 0z" fill-rule="evenodd"></path><path fill="#000000" d="m58.70973 45.849228l0 0.765625l-4.265625 0q0 -0.28125 0.09375 -0.546875q0.171875 -0.4375 0.53125 -0.859375q0.359375 -0.421875 1.03125 -0.96875q1.046875 -0.875 1.40625 -1.375q0.375 -0.5 0.375 -0.953125q0 -0.46875 -0.34375 -0.78125q-0.328125 -0.328125 -0.859375 -0.328125q-0.578125 0 -0.921875 0.34375q-0.34375 0.34375 -0.34375 0.953125l-0.8125 -0.09375q0.078125 -0.90625 0.625 -1.375q0.546875 -0.484375 1.46875 -0.484375q0.921875 0 1.453125 0.515625q0.546875 0.515625 0.546875 1.265625q0 0.390625 -0.15625 0.765625q-0.15625 0.375 -0.53125 0.796875q-0.359375 0.40625 -1.203125 1.125q-0.71875 0.59375 -0.921875 0.8125q-0.203125 0.21875 -0.328125 0.421875l3.15625 0z" fill-rule="nonzero"></path></g></svg>

