<?xml version="1.0" standalone="yes"?>

<svg version="1.1" viewBox="0.0 0.0 309.3307086614173 256.09448818897636" fill="none" stroke="none" stroke-linecap="square" stroke-miterlimit="10" xmlns="http://www.w3.org/2000/svg" xmlns:xlink="http://www.w3.org/1999/xlink"><clipPath id="p.0"><path d="m0 0l309.33072 0l0 256.09448l-309.33072 0l0 -256.09448z" clip-rule="nonzero"></path></clipPath><g clip-path="url(#p.0)"><path fill="#000000" fill-opacity="0.0" d="m0 0l309.33072 0l0 256.09448l-309.33072 0z" fill-rule="evenodd"></path><path fill="#000000" fill-opacity="0.0" d="m72.97113 80.02616l175.39369 0l0 176.05511l-175.39369 0z" fill-rule="evenodd"></path><path fill="#000000" fill-opacity="0.0" d="m248.36482 80.02616l58.464584 -58.46456l0 176.05511l-58.464584 58.464554z" fill-rule="evenodd"></path><path fill="#000000" fill-opacity="0.0" d="m72.97113 80.02616l58.46457 -58.46456l175.3937 0l-58.464584 58.46456z" fill-rule="evenodd"></path><path fill="#000000" fill-opacity="0.0" d="m72.97113 80.02616l58.46457 -58.46456l175.3937 0l0 176.05511l-58.464584 58.464554l-175.39369 0zm0 0l175.39369 0l58.464584 -58.46456m-58.464584 58.46456l0 176.05511" fill-rule="evenodd"></path><path fill="#000000" fill-opacity="0.2" d="m248.36482 80.02616l58.464584 -58.46456l0 176.05511l-58.464584 58.464554z" fill-rule="evenodd"></path><path fill="#ffffff" fill-opacity="0.2" d="m72.97113 80.02616l58.46457 -58.46456l175.3937 0l-58.464584 58.46456z" fill-rule="evenodd"></path><path stroke="#000000" stroke-width="1.0" stroke-linejoin="round" stroke-linecap="butt" d="m72.97113 80.02616l58.46457 -58.46456l175.3937 0l0 176.05511l-58.464584 58.464554l-175.39369 0zm0 0l175.39369 0l58.464584 -58.46456m-58.464584 58.46456l0 176.05511" fill-rule="evenodd"></path><path fill="#d9d9d9" fill-opacity="0.8314" d="m116.50131 168.74016l43.866135 0l0 43.866135l-43.866135 0z" fill-rule="evenodd"></path><path fill="#adadad" fill-opacity="0.8314" d="m160.36745 168.74016l14.622055 -14.622055l0 43.86615l-14.622055 14.62204z" fill-rule="evenodd"></path><path fill="#e0e0e0" fill-opacity="0.8314" d="m116.50131 168.74016l14.62204 -14.622055l43.86615 0l-14.622055 14.622055z" fill-rule="evenodd"></path><path fill="#000000" fill-opacity="0.0" d="m116.50131 168.74016l14.62204 -14.622055l43.86615 0l0 43.86615l-14.622055 14.62204l-43.866135 0zm0 0l43.866135 0l14.622055 -14.622055m-14.622055 14.622055l0 43.866135" fill-rule="evenodd"></path><path stroke="#000000" stroke-width="1.0" stroke-linejoin="round" stroke-linecap="butt" stroke-dasharray="1.0,3.0" d="m116.50131 168.74016l14.62204 -14.622055l43.86615 0l0 43.86615l-14.622055 14.62204l-43.866135 0zm0 0l43.866135 0l14.622055 -14.622055m-14.622055 14.622055l0 43.866135" fill-rule="evenodd"></path><path fill="#d9d9d9" fill-opacity="0.8314" d="m101.91338 183.32808l43.866142 0l0 43.86615l-43.866142 0z" fill-rule="evenodd"></path><path fill="#adadad" fill-opacity="0.8314" d="m145.77953 183.32808l14.622055 -14.62204l0 43.866135l-14.622055 14.622055z" fill-rule="evenodd"></path><path fill="#e0e0e0" fill-opacity="0.8314" d="m101.91338 183.32808l14.622047 -14.62204l43.86615 0l-14.622055 14.62204z" fill-rule="evenodd"></path><path fill="#000000" fill-opacity="0.0" d="m101.91338 183.32808l14.622047 -14.62204l43.86615 0l0 43.866135l-14.622055 14.622055l-43.866142 0zm0 0l43.866142 0l14.622055 -14.62204m-14.622055 14.62204l0 43.86615" fill-rule="evenodd"></path><path stroke="#000000" stroke-width="1.0" stroke-linejoin="round" stroke-linecap="butt" stroke-dasharray="1.0,3.0" d="m101.91338 183.32808l14.622047 -14.62204l43.86615 0l0 43.866135l-14.622055 14.622055l-43.866142 0zm0 0l43.866142 0l14.622055 -14.62204m-14.622055 14.62204l0 43.86615" fill-rule="evenodd"></path><path fill="#d9d9d9" fill-opacity="0.8314" d="m87.727036 197.6378l43.866135 0l0 43.866135l-43.866135 0z" fill-rule="evenodd"></path><path fill="#adadad" fill-opacity="0.8314" d="m131.59317 197.6378l14.622055 -14.622055l0 43.86615l-14.622055 14.62204z" fill-rule="evenodd"></path><path fill="#e0e0e0" fill-opacity="0.8314" d="m87.727036 197.6378l14.622047 -14.622055l43.866142 0l-14.622055 14.622055z" fill-rule="evenodd"></path><path fill="#000000" fill-opacity="0.0" d="m87.727036 197.6378l14.622047 -14.622055l43.866142 0l0 43.86615l-14.622055 14.62204l-43.866135 0zm0 0l43.866135 0l14.622055 -14.622055m-14.622055 14.622055l0 43.866135" fill-rule="evenodd"></path><path stroke="#000000" stroke-width="1.0" stroke-linejoin="round" stroke-linecap="butt" stroke-dasharray="1.0,3.0" d="m87.727036 197.6378l14.622047 -14.622055l43.866142 0l0 43.86615l-14.622055 14.62204l-43.866135 0zm0 0l43.866135 0l14.622055 -14.622055m-14.622055 14.622055l0 43.866135" fill-rule="evenodd"></path><path fill="#d9d9d9" fill-opacity="0.8314" d="m72.973755 212.22835l43.866142 0l0 43.866135l-43.866142 0z" fill-rule="evenodd"></path><path fill="#adadad" fill-opacity="0.8314" d="m116.8399 212.22835l14.622047 -14.622055l0 43.86615l-14.622047 14.62204z" fill-rule="evenodd"></path><path fill="#e0e0e0" fill-opacity="0.8314" d="m72.973755 212.22835l14.622047 -14.622055l43.866142 0l-14.622047 14.622055z" fill-rule="evenodd"></path><path fill="#000000" fill-opacity="0.0" d="m72.973755 212.22835l14.622047 -14.622055l43.866142 0l0 43.86615l-14.622047 14.62204l-43.866142 0zm0 0l43.866142 0l14.622047 -14.622055m-14.622047 14.622055l0 43.866135" fill-rule="evenodd"></path><path stroke="#000000" stroke-width="1.0" stroke-linejoin="round" stroke-linecap="butt" stroke-dasharray="1.0,3.0" d="m72.973755 212.22835l14.622047 -14.622055l43.866142 0l0 43.86615l-14.622047 14.62204l-43.866142 0zm0 0l43.866142 0l14.622047 -14.622055m-14.622047 14.622055l0 43.866135" fill-rule="evenodd"></path><path fill="#d9d9d9" fill-opacity="0.8314" d="m160.43045 168.74016l43.866135 0l0 43.866135l-43.866135 0z" fill-rule="evenodd"></path><path fill="#adadad" fill-opacity="0.8314" d="m204.29659 168.74016l14.622055 -14.622055l0 43.86615l-14.622055 14.62204z" fill-rule="evenodd"></path><path fill="#e0e0e0" fill-opacity="0.8314" d="m160.43045 168.74016l14.62204 -14.622055l43.86615 0l-14.622055 14.622055z" fill-rule="evenodd"></path><path fill="#000000" fill-opacity="0.0" d="m160.43045 168.74016l14.62204 -14.622055l43.86615 0l0 43.86615l-14.622055 14.62204l-43.866135 0zm0 0l43.866135 0l14.622055 -14.622055m-14.622055 14.622055l0 43.866135" fill-rule="evenodd"></path><path stroke="#000000" stroke-width="1.0" stroke-linejoin="round" stroke-linecap="butt" stroke-dasharray="1.0,3.0" d="m160.43045 168.74016l14.62204 -14.622055l43.86615 0l0 43.86615l-14.622055 14.62204l-43.866135 0zm0 0l43.866135 0l14.622055 -14.622055m-14.622055 14.622055l0 43.866135" fill-rule="evenodd"></path><path fill="#d9d9d9" fill-opacity="0.8314" d="m145.84251 183.32808l43.86615 0l0 43.86615l-43.86615 0z" fill-rule="evenodd"></path><path fill="#adadad" fill-opacity="0.8314" d="m189.70866 183.32808l14.62204 -14.62204l0 43.866135l-14.62204 14.622055z" fill-rule="evenodd"></path><path fill="#e0e0e0" fill-opacity="0.8314" d="m145.84251 183.32808l14.622055 -14.62204l43.866135 0l-14.62204 14.62204z" fill-rule="evenodd"></path><path fill="#000000" fill-opacity="0.0" d="m145.84251 183.32808l14.622055 -14.62204l43.866135 0l0 43.866135l-14.62204 14.622055l-43.86615 0zm0 0l43.86615 0l14.62204 -14.62204m-14.62204 14.62204l0 43.86615" fill-rule="evenodd"></path><path stroke="#000000" stroke-width="1.0" stroke-linejoin="round" stroke-linecap="butt" stroke-dasharray="1.0,3.0" d="m145.84251 183.32808l14.622055 -14.62204l43.866135 0l0 43.866135l-14.62204 14.622055l-43.86615 0zm0 0l43.86615 0l14.62204 -14.62204m-14.62204 14.62204l0 43.86615" fill-rule="evenodd"></path><path fill="#d9d9d9" fill-opacity="0.8314" d="m131.65617 197.6378l43.866135 0l0 43.866135l-43.866135 0z" fill-rule="evenodd"></path><path fill="#adadad" fill-opacity="0.8314" d="m175.52231 197.6378l14.622055 -14.622055l0 43.86615l-14.622055 14.62204z" fill-rule="evenodd"></path><path fill="#e0e0e0" fill-opacity="0.8314" d="m131.65617 197.6378l14.62204 -14.622055l43.86615 0l-14.622055 14.622055z" fill-rule="evenodd"></path><path fill="#000000" fill-opacity="0.0" d="m131.65617 197.6378l14.62204 -14.622055l43.86615 0l0 43.86615l-14.622055 14.62204l-43.866135 0zm0 0l43.866135 0l14.622055 -14.622055m-14.622055 14.622055l0 43.866135" fill-rule="evenodd"></path><path stroke="#000000" stroke-width="1.0" stroke-linejoin="round" stroke-linecap="butt" stroke-dasharray="1.0,3.0" d="m131.65617 197.6378l14.62204 -14.622055l43.86615 0l0 43.86615l-14.622055 14.62204l-43.866135 0zm0 0l43.866135 0l14.622055 -14.622055m-14.622055 14.622055l0 43.866135" fill-rule="evenodd"></path><path fill="#d9d9d9" fill-opacity="0.8314" d="m116.902885 212.22835l43.866142 0l0 43.866135l-43.866142 0z" fill-rule="evenodd"></path><path fill="#adadad" fill-opacity="0.8314" d="m160.76903 212.22835l14.622055 -14.622055l0 43.86615l-14.622055 14.62204z" fill-rule="evenodd"></path><path fill="#e0e0e0" fill-opacity="0.8314" d="m116.902885 212.22835l14.622047 -14.622055l43.86615 0l-14.622055 14.622055z" fill-rule="evenodd"></path><path fill="#000000" fill-opacity="0.0" d="m116.902885 212.22835l14.622047 -14.622055l43.86615 0l0 43.86615l-14.622055 14.62204l-43.866142 0zm0 0l43.866142 0l14.622055 -14.622055m-14.622055 14.622055l0 43.866135" fill-rule="evenodd"></path><path stroke="#000000" stroke-width="1.0" stroke-linejoin="round" stroke-linecap="butt" stroke-dasharray="1.0,3.0" d="m116.902885 212.22835l14.622047 -14.622055l43.86615 0l0 43.86615l-14.622055 14.62204l-43.866142 0zm0 0l43.866142 0l14.622055 -14.622055m-14.622055 14.622055l0 43.866135" fill-rule="evenodd"></path><path fill="#d9d9d9" fill-opacity="0.8314" d="m204.40945 168.74016l43.866135 0l0 43.866135l-43.866135 0z" fill-rule="evenodd"></path><path fill="#adadad" fill-opacity="0.8314" d="m248.27559 168.74016l14.622055 -14.622055l0 43.86615l-14.622055 14.62204z" fill-rule="evenodd"></path><path fill="#e0e0e0" fill-opacity="0.8314" d="m204.40945 168.74016l14.62204 -14.622055l43.86615 0l-14.622055 14.622055z" fill-rule="evenodd"></path><path fill="#000000" fill-opacity="0.0" d="m204.40945 168.74016l14.62204 -14.622055l43.86615 0l0 43.86615l-14.622055 14.62204l-43.866135 0zm0 0l43.866135 0l14.622055 -14.622055m-14.622055 14.622055l0 43.866135" fill-rule="evenodd"></path><path stroke="#000000" stroke-width="1.0" stroke-linejoin="round" stroke-linecap="butt" stroke-dasharray="1.0,3.0" d="m204.40945 168.74016l14.62204 -14.622055l43.86615 0l0 43.86615l-14.622055 14.62204l-43.866135 0zm0 0l43.866135 0l14.622055 -14.622055m-14.622055 14.622055l0 43.866135" fill-rule="evenodd"></path><path fill="#d9d9d9" fill-opacity="0.8314" d="m189.82152 183.32808l43.86615 0l0 43.86615l-43.86615 0z" fill-rule="evenodd"></path><path fill="#adadad" fill-opacity="0.8314" d="m233.68767 183.32808l14.62204 -14.62204l0 43.866135l-14.62204 14.622055z" fill-rule="evenodd"></path><path fill="#e0e0e0" fill-opacity="0.8314" d="m189.82152 183.32808l14.622055 -14.62204l43.866135 0l-14.62204 14.62204z" fill-rule="evenodd"></path><path fill="#000000" fill-opacity="0.0" d="m189.82152 183.32808l14.622055 -14.62204l43.866135 0l0 43.866135l-14.62204 14.622055l-43.86615 0zm0 0l43.86615 0l14.62204 -14.62204m-14.62204 14.62204l0 43.86615" fill-rule="evenodd"></path><path stroke="#000000" stroke-width="1.0" stroke-linejoin="round" stroke-linecap="butt" stroke-dasharray="1.0,3.0" d="m189.82152 183.32808l14.622055 -14.62204l43.866135 0l0 43.866135l-14.62204 14.622055l-43.86615 0zm0 0l43.86615 0l14.62204 -14.62204m-14.62204 14.62204l0 43.86615" fill-rule="evenodd"></path><path fill="#d9d9d9" fill-opacity="0.8314" d="m175.63518 197.6378l43.866135 0l0 43.866135l-43.866135 0z" fill-rule="evenodd"></path><path fill="#adadad" fill-opacity="0.8314" d="m219.50131 197.6378l14.62204 -14.622055l0 43.86615l-14.62204 14.62204z" fill-rule="evenodd"></path><path fill="#e0e0e0" fill-opacity="0.8314" d="m175.63518 197.6378l14.62204 -14.622055l43.866135 0l-14.62204 14.622055z" fill-rule="evenodd"></path><path fill="#000000" fill-opacity="0.0" d="m175.63518 197.6378l14.62204 -14.622055l43.866135 0l0 43.86615l-14.62204 14.62204l-43.866135 0zm0 0l43.866135 0l14.62204 -14.622055m-14.62204 14.622055l0 43.866135" fill-rule="evenodd"></path><path stroke="#000000" stroke-width="1.0" stroke-linejoin="round" stroke-linecap="butt" stroke-dasharray="1.0,3.0" d="m175.63518 197.6378l14.62204 -14.622055l43.866135 0l0 43.86615l-14.62204 14.62204l-43.866135 0zm0 0l43.866135 0l14.62204 -14.622055m-14.62204 14.622055l0 43.866135" fill-rule="evenodd"></path><path fill="#d9d9d9" fill-opacity="0.8314" d="m160.8819 212.22835l43.866135 0l0 43.866135l-43.866135 0z" fill-rule="evenodd"></path><path fill="#adadad" fill-opacity="0.8314" d="m204.74803 212.22835l14.62204 -14.622055l0 43.86615l-14.62204 14.62204z" fill-rule="evenodd"></path><path fill="#e0e0e0" fill-opacity="0.8314" d="m160.8819 212.22835l14.62204 -14.622055l43.866135 0l-14.62204 14.622055z" fill-rule="evenodd"></path><path fill="#000000" fill-opacity="0.0" d="m160.8819 212.22835l14.62204 -14.622055l43.866135 0l0 43.86615l-14.62204 14.62204l-43.866135 0zm0 0l43.866135 0l14.62204 -14.622055m-14.62204 14.622055l0 43.866135" fill-rule="evenodd"></path><path stroke="#000000" stroke-width="1.0" stroke-linejoin="round" stroke-linecap="butt" stroke-dasharray="1.0,3.0" d="m160.8819 212.22835l14.62204 -14.622055l43.866135 0l0 43.86615l-14.62204 14.62204l-43.866135 0zm0 0l43.866135 0l14.62204 -14.622055m-14.62204 14.622055l0 43.866135" fill-rule="evenodd"></path><path fill="#d9d9d9" fill-opacity="0.8314" d="m248.33858 168.74016l43.866135 0l0 43.866135l-43.866135 0z" fill-rule="evenodd"></path><path fill="#adadad" fill-opacity="0.8314" d="m292.2047 168.74016l14.62207 -14.622055l0 43.86615l-14.62207 14.62204z" fill-rule="evenodd"></path><path fill="#e0e0e0" fill-opacity="0.8314" d="m248.33858 168.74016l14.622055 -14.622055l43.86615 0l-14.62207 14.622055z" fill-rule="evenodd"></path><path fill="#000000" fill-opacity="0.0" d="m248.33858 168.74016l14.622055 -14.622055l43.86615 0l0 43.86615l-14.62207 14.62204l-43.866135 0zm0 0l43.866135 0l14.62207 -14.622055m-14.62207 14.622055l0 43.866135" fill-rule="evenodd"></path><path stroke="#000000" stroke-width="1.0" stroke-linejoin="round" stroke-linecap="butt" stroke-dasharray="1.0,3.0" d="m248.33858 168.74016l14.622055 -14.622055l43.86615 0l0 43.86615l-14.62207 14.62204l-43.866135 0zm0 0l43.866135 0l14.62207 -14.622055m-14.62207 14.622055l0 43.866135" fill-rule="evenodd"></path><path fill="#d9d9d9" fill-opacity="0.8314" d="m233.75066 183.32808l43.866135 0l0 43.86615l-43.866135 0z" fill-rule="evenodd"></path><path fill="#adadad" fill-opacity="0.8314" d="m277.6168 183.32808l14.62204 -14.62204l0 43.866135l-14.62204 14.622055z" fill-rule="evenodd"></path><path fill="#e0e0e0" fill-opacity="0.8314" d="m233.75066 183.32808l14.62204 -14.62204l43.866135 0l-14.62204 14.62204z" fill-rule="evenodd"></path><path fill="#000000" fill-opacity="0.0" d="m233.75066 183.32808l14.62204 -14.62204l43.866135 0l0 43.866135l-14.62204 14.622055l-43.866135 0zm0 0l43.866135 0l14.62204 -14.62204m-14.62204 14.62204l0 43.86615" fill-rule="evenodd"></path><path stroke="#000000" stroke-width="1.0" stroke-linejoin="round" stroke-linecap="butt" stroke-dasharray="1.0,3.0" d="m233.75066 183.32808l14.62204 -14.62204l43.866135 0l0 43.866135l-14.62204 14.622055l-43.866135 0zm0 0l43.866135 0l14.62204 -14.62204m-14.62204 14.62204l0 43.86615" fill-rule="evenodd"></path><path fill="#d9d9d9" fill-opacity="0.8314" d="m219.5643 197.6378l43.86615 0l0 43.866135l-43.86615 0z" fill-rule="evenodd"></path><path fill="#adadad" fill-opacity="0.8314" d="m263.43045 197.6378l14.62204 -14.622055l0 43.86615l-14.62204 14.62204z" fill-rule="evenodd"></path><path fill="#e0e0e0" fill-opacity="0.8314" d="m219.5643 197.6378l14.622055 -14.622055l43.866135 0l-14.62204 14.622055z" fill-rule="evenodd"></path><path fill="#000000" fill-opacity="0.0" d="m219.5643 197.6378l14.622055 -14.622055l43.866135 0l0 43.86615l-14.62204 14.62204l-43.86615 0zm0 0l43.86615 0l14.62204 -14.622055m-14.62204 14.622055l0 43.866135" fill-rule="evenodd"></path><path stroke="#000000" stroke-width="1.0" stroke-linejoin="round" stroke-linecap="butt" stroke-dasharray="1.0,3.0" d="m219.5643 197.6378l14.622055 -14.622055l43.866135 0l0 43.86615l-14.62204 14.62204l-43.86615 0zm0 0l43.86615 0l14.62204 -14.622055m-14.62204 14.622055l0 43.866135" fill-rule="evenodd"></path><path fill="#d9d9d9" fill-opacity="0.8314" d="m204.81102 212.22835l43.86615 0l0 43.866135l-43.86615 0z" fill-rule="evenodd"></path><path fill="#adadad" fill-opacity="0.8314" d="m248.67717 212.22835l14.622055 -14.622055l0 43.86615l-14.622055 14.62204z" fill-rule="evenodd"></path><path fill="#e0e0e0" fill-opacity="0.8314" d="m204.81102 212.22835l14.622055 -14.622055l43.86615 0l-14.622055 14.622055z" fill-rule="evenodd"></path><path fill="#000000" fill-opacity="0.0" d="m204.81102 212.22835l14.622055 -14.622055l43.86615 0l0 43.86615l-14.622055 14.62204l-43.86615 0zm0 0l43.86615 0l14.622055 -14.622055m-14.622055 14.622055l0 43.866135" fill-rule="evenodd"></path><path stroke="#000000" stroke-width="1.0" stroke-linejoin="round" stroke-linecap="butt" stroke-dasharray="1.0,3.0" d="m204.81102 212.22835l14.622055 -14.622055l43.86615 0l0 43.86615l-14.622055 14.62204l-43.86615 0zm0 0l43.86615 0l14.622055 -14.622055m-14.622055 14.622055l0 43.866135" fill-rule="evenodd"></path><path fill="#d9d9d9" fill-opacity="0.8314" d="m116.50131 124.750656l43.866135 0l0 43.866135l-43.866135 0z" fill-rule="evenodd"></path><path fill="#adadad" fill-opacity="0.8314" d="m160.36745 124.750656l14.622055 -14.622047l0 43.866142l-14.622055 14.62204z" fill-rule="evenodd"></path><path fill="#e0e0e0" fill-opacity="0.8314" d="m116.50131 124.750656l14.62204 -14.622047l43.86615 0l-14.622055 14.622047z" fill-rule="evenodd"></path><path fill="#000000" fill-opacity="0.0" d="m116.50131 124.750656l14.62204 -14.622047l43.86615 0l0 43.866142l-14.622055 14.62204l-43.866135 0zm0 0l43.866135 0l14.622055 -14.622047m-14.622055 14.622047l0 43.866135" fill-rule="evenodd"></path><path stroke="#000000" stroke-width="1.0" stroke-linejoin="round" stroke-linecap="butt" stroke-dasharray="1.0,3.0" d="m116.50131 124.750656l14.62204 -14.622047l43.86615 0l0 43.866142l-14.622055 14.62204l-43.866135 0zm0 0l43.866135 0l14.622055 -14.622047m-14.622055 14.622047l0 43.866135" fill-rule="evenodd"></path><path fill="#d9d9d9" fill-opacity="0.8314" d="m101.91338 139.33858l43.866142 0l0 43.86615l-43.866142 0z" fill-rule="evenodd"></path><path fill="#adadad" fill-opacity="0.8314" d="m145.77953 139.33858l14.622055 -14.62204l0 43.866135l-14.622055 14.622055z" fill-rule="evenodd"></path><path fill="#e0e0e0" fill-opacity="0.8314" d="m101.91338 139.33858l14.622047 -14.62204l43.86615 0l-14.622055 14.62204z" fill-rule="evenodd"></path><path fill="#000000" fill-opacity="0.0" d="m101.91338 139.33858l14.622047 -14.62204l43.86615 0l0 43.866135l-14.622055 14.622055l-43.866142 0zm0 0l43.866142 0l14.622055 -14.62204m-14.622055 14.62204l0 43.86615" fill-rule="evenodd"></path><path stroke="#000000" stroke-width="1.0" stroke-linejoin="round" stroke-linecap="butt" stroke-dasharray="1.0,3.0" d="m101.91338 139.33858l14.622047 -14.62204l43.86615 0l0 43.866135l-14.622055 14.622055l-43.866142 0zm0 0l43.866142 0l14.622055 -14.62204m-14.622055 14.62204l0 43.86615" fill-rule="evenodd"></path><path fill="#d9d9d9" fill-opacity="0.8314" d="m87.727036 153.6483l43.866135 0l0 43.866135l-43.866135 0z" fill-rule="evenodd"></path><path fill="#adadad" fill-opacity="0.8314" d="m131.59317 153.6483l14.622055 -14.622055l0 43.86615l-14.622055 14.62204z" fill-rule="evenodd"></path><path fill="#e0e0e0" fill-opacity="0.8314" d="m87.727036 153.6483l14.622047 -14.622055l43.866142 0l-14.622055 14.622055z" fill-rule="evenodd"></path><path fill="#000000" fill-opacity="0.0" d="m87.727036 153.6483l14.622047 -14.622055l43.866142 0l0 43.86615l-14.622055 14.62204l-43.866135 0zm0 0l43.866135 0l14.622055 -14.622055m-14.622055 14.622055l0 43.866135" fill-rule="evenodd"></path><path stroke="#000000" stroke-width="1.0" stroke-linejoin="round" stroke-linecap="butt" stroke-dasharray="1.0,3.0" d="m87.727036 153.6483l14.622047 -14.622055l43.866142 0l0 43.86615l-14.622055 14.62204l-43.866135 0zm0 0l43.866135 0l14.622055 -14.622055m-14.622055 14.622055l0 43.866135" fill-rule="evenodd"></path><path fill="#4a86e8" d="m72.973755 168.23885l43.866142 0l0 43.866135l-43.866142 0z" fill-rule="evenodd"></path><path fill="#3b6bb9" d="m116.8399 168.23885l14.622047 -14.622055l0 43.86615l-14.622047 14.62204z" fill-rule="evenodd"></path><path fill="#6e9eec" d="m72.973755 168.23885l14.622047 -14.622055l43.866142 0l-14.622047 14.622055z" fill-rule="evenodd"></path><path fill="#000000" fill-opacity="0.0" d="m72.973755 168.23885l14.622047 -14.622055l43.866142 0l0 43.86615l-14.622047 14.62204l-43.866142 0zm0 0l43.866142 0l14.622047 -14.622055m-14.622047 14.622055l0 43.866135" fill-rule="evenodd"></path><path stroke="#000000" stroke-width="1.0" stroke-linejoin="round" stroke-linecap="butt" stroke-dasharray="1.0,3.0" d="m72.973755 168.23885l14.622047 -14.622055l43.866142 0l0 43.86615l-14.622047 14.62204l-43.866142 0zm0 0l43.866142 0l14.622047 -14.622055m-14.622047 14.622055l0 43.866135" fill-rule="evenodd"></path><path fill="#4a86e8" d="m160.43045 124.750656l43.866135 0l0 43.866135l-43.866135 0z" fill-rule="evenodd"></path><path fill="#3b6bb9" d="m204.29659 124.750656l14.622055 -14.622047l0 43.866142l-14.622055 14.62204z" fill-rule="evenodd"></path><path fill="#6e9eec" d="m160.43045 124.750656l14.62204 -14.622047l43.86615 0l-14.622055 14.622047z" fill-rule="evenodd"></path><path fill="#000000" fill-opacity="0.0" d="m160.43045 124.750656l14.62204 -14.622047l43.86615 0l0 43.866142l-14.622055 14.62204l-43.866135 0zm0 0l43.866135 0l14.622055 -14.622047m-14.622055 14.622047l0 43.866135" fill-rule="evenodd"></path><path stroke="#000000" stroke-width="1.0" stroke-linejoin="round" stroke-linecap="butt" stroke-dasharray="1.0,3.0" d="m160.43045 124.750656l14.62204 -14.622047l43.86615 0l0 43.866142l-14.622055 14.62204l-43.866135 0zm0 0l43.866135 0l14.622055 -14.622047m-14.622055 14.622047l0 43.866135" fill-rule="evenodd"></path><path fill="#4a86e8" d="m145.84251 139.33858l43.86615 0l0 43.86615l-43.86615 0z" fill-rule="evenodd"></path><path fill="#3b6bb9" d="m189.70866 139.33858l14.62204 -14.62204l0 43.866135l-14.62204 14.622055z" fill-rule="evenodd"></path><path fill="#6e9eec" d="m145.84251 139.33858l14.622055 -14.62204l43.866135 0l-14.62204 14.62204z" fill-rule="evenodd"></path><path fill="#000000" fill-opacity="0.0" d="m145.84251 139.33858l14.622055 -14.62204l43.866135 0l0 43.866135l-14.62204 14.622055l-43.86615 0zm0 0l43.86615 0l14.62204 -14.62204m-14.62204 14.62204l0 43.86615" fill-rule="evenodd"></path><path stroke="#000000" stroke-width="1.0" stroke-linejoin="round" stroke-linecap="butt" stroke-dasharray="1.0,3.0" d="m145.84251 139.33858l14.622055 -14.62204l43.866135 0l0 43.866135l-14.62204 14.622055l-43.86615 0zm0 0l43.86615 0l14.62204 -14.62204m-14.62204 14.62204l0 43.86615" fill-rule="evenodd"></path><path fill="#4a86e8" d="m131.65617 153.6483l43.866135 0l0 43.866135l-43.866135 0z" fill-rule="evenodd"></path><path fill="#3b6bb9" d="m175.52231 153.6483l14.622055 -14.622055l0 43.86615l-14.622055 14.62204z" fill-rule="evenodd"></path><path fill="#6e9eec" d="m131.65617 153.6483l14.62204 -14.622055l43.86615 0l-14.622055 14.622055z" fill-rule="evenodd"></path><path fill="#000000" fill-opacity="0.0" d="m131.65617 153.6483l14.62204 -14.622055l43.86615 0l0 43.86615l-14.622055 14.62204l-43.866135 0zm0 0l43.866135 0l14.622055 -14.622055m-14.622055 14.622055l0 43.866135" fill-rule="evenodd"></path><path stroke="#000000" stroke-width="1.0" stroke-linejoin="round" stroke-linecap="butt" stroke-dasharray="1.0,3.0" d="m131.65617 153.6483l14.62204 -14.622055l43.86615 0l0 43.86615l-14.622055 14.62204l-43.866135 0zm0 0l43.866135 0l14.622055 -14.622055m-14.622055 14.622055l0 43.866135" fill-rule="evenodd"></path><path fill="#4a86e8" d="m116.902885 168.23885l43.866142 0l0 43.866135l-43.866142 0z" fill-rule="evenodd"></path><path fill="#3b6bb9" d="m160.76903 168.23885l14.622055 -14.622055l0 43.86615l-14.622055 14.62204z" fill-rule="evenodd"></path><path fill="#6e9eec" d="m116.902885 168.23885l14.622047 -14.622055l43.86615 0l-14.622055 14.622055z" fill-rule="evenodd"></path><path fill="#000000" fill-opacity="0.0" d="m116.902885 168.23885l14.622047 -14.622055l43.86615 0l0 43.86615l-14.622055 14.62204l-43.866142 0zm0 0l43.866142 0l14.622055 -14.622055m-14.622055 14.622055l0 43.866135" fill-rule="evenodd"></path><path stroke="#000000" stroke-width="1.0" stroke-linejoin="round" stroke-linecap="butt" stroke-dasharray="1.0,3.0" d="m116.902885 168.23885l14.622047 -14.622055l43.86615 0l0 43.86615l-14.622055 14.62204l-43.866142 0zm0 0l43.866142 0l14.622055 -14.622055m-14.622055 14.622055l0 43.866135" fill-rule="evenodd"></path><path fill="#4a86e8" d="m204.40945 124.750656l43.866135 0l0 43.866135l-43.866135 0z" fill-rule="evenodd"></path><path fill="#3b6bb9" d="m248.27559 124.750656l14.622055 -14.622047l0 43.866142l-14.622055 14.62204z" fill-rule="evenodd"></path><path fill="#6e9eec" d="m204.40945 124.750656l14.62204 -14.622047l43.86615 0l-14.622055 14.622047z" fill-rule="evenodd"></path><path fill="#000000" fill-opacity="0.0" d="m204.40945 124.750656l14.62204 -14.622047l43.86615 0l0 43.866142l-14.622055 14.62204l-43.866135 0zm0 0l43.866135 0l14.622055 -14.622047m-14.622055 14.622047l0 43.866135" fill-rule="evenodd"></path><path stroke="#000000" stroke-width="1.0" stroke-linejoin="round" stroke-linecap="butt" stroke-dasharray="1.0,3.0" d="m204.40945 124.750656l14.62204 -14.622047l43.86615 0l0 43.866142l-14.622055 14.62204l-43.866135 0zm0 0l43.866135 0l14.622055 -14.622047m-14.622055 14.622047l0 43.866135" fill-rule="evenodd"></path><path fill="#4a86e8" d="m189.82152 139.33858l43.86615 0l0 43.86615l-43.86615 0z" fill-rule="evenodd"></path><path fill="#3b6bb9" d="m233.68767 139.33858l14.62204 -14.62204l0 43.866135l-14.62204 14.622055z" fill-rule="evenodd"></path><path fill="#6e9eec" d="m189.82152 139.33858l14.622055 -14.62204l43.866135 0l-14.62204 14.62204z" fill-rule="evenodd"></path><path fill="#000000" fill-opacity="0.0" d="m189.82152 139.33858l14.622055 -14.62204l43.866135 0l0 43.866135l-14.62204 14.622055l-43.86615 0zm0 0l43.86615 0l14.62204 -14.62204m-14.62204 14.62204l0 43.86615" fill-rule="evenodd"></path><path stroke="#000000" stroke-width="1.0" stroke-linejoin="round" stroke-linecap="butt" stroke-dasharray="1.0,3.0" d="m189.82152 139.33858l14.622055 -14.62204l43.866135 0l0 43.866135l-14.62204 14.622055l-43.86615 0zm0 0l43.86615 0l14.62204 -14.62204m-14.62204 14.62204l0 43.86615" fill-rule="evenodd"></path><path fill="#4a86e8" d="m175.63518 153.6483l43.866135 0l0 43.866135l-43.866135 0z" fill-rule="evenodd"></path><path fill="#3b6bb9" d="m219.50131 153.6483l14.62204 -14.622055l0 43.86615l-14.62204 14.62204z" fill-rule="evenodd"></path><path fill="#6e9eec" d="m175.63518 153.6483l14.62204 -14.622055l43.866135 0l-14.62204 14.622055z" fill-rule="evenodd"></path><path fill="#000000" fill-opacity="0.0" d="m175.63518 153.6483l14.62204 -14.622055l43.866135 0l0 43.86615l-14.62204 14.62204l-43.866135 0zm0 0l43.866135 0l14.62204 -14.622055m-14.62204 14.622055l0 43.866135" fill-rule="evenodd"></path><path stroke="#000000" stroke-width="1.0" stroke-linejoin="round" stroke-linecap="butt" stroke-dasharray="1.0,3.0" d="m175.63518 153.6483l14.62204 -14.622055l43.866135 0l0 43.86615l-14.62204 14.62204l-43.866135 0zm0 0l43.866135 0l14.62204 -14.622055m-14.62204 14.622055l0 43.866135" fill-rule="evenodd"></path><path fill="#4a86e8" d="m160.8819 168.23885l43.866135 0l0 43.866135l-43.866135 0z" fill-rule="evenodd"></path><path fill="#3b6bb9" d="m204.74803 168.23885l14.62204 -14.622055l0 43.86615l-14.62204 14.62204z" fill-rule="evenodd"></path><path fill="#6e9eec" d="m160.8819 168.23885l14.62204 -14.622055l43.866135 0l-14.62204 14.622055z" fill-rule="evenodd"></path><path fill="#000000" fill-opacity="0.0" d="m160.8819 168.23885l14.62204 -14.622055l43.866135 0l0 43.86615l-14.62204 14.62204l-43.866135 0zm0 0l43.866135 0l14.62204 -14.622055m-14.62204 14.622055l0 43.866135" fill-rule="evenodd"></path><path stroke="#000000" stroke-width="1.0" stroke-linejoin="round" stroke-linecap="butt" stroke-dasharray="1.0,3.0" d="m160.8819 168.23885l14.62204 -14.622055l43.866135 0l0 43.86615l-14.62204 14.62204l-43.866135 0zm0 0l43.866135 0l14.62204 -14.622055m-14.62204 14.622055l0 43.866135" fill-rule="evenodd"></path><path fill="#4a86e8" d="m248.33858 124.750656l43.866135 0l0 43.866135l-43.866135 0z" fill-rule="evenodd"></path><path fill="#3b6bb9" d="m292.2047 124.750656l14.62207 -14.622047l0 43.866142l-14.62207 14.62204z" fill-rule="evenodd"></path><path fill="#6e9eec" d="m248.33858 124.750656l14.622055 -14.622047l43.86615 0l-14.62207 14.622047z" fill-rule="evenodd"></path><path fill="#000000" fill-opacity="0.0" d="m248.33858 124.750656l14.622055 -14.622047l43.86615 0l0 43.866142l-14.62207 14.62204l-43.866135 0zm0 0l43.866135 0l14.62207 -14.622047m-14.62207 14.622047l0 43.866135" fill-rule="evenodd"></path><path stroke="#000000" stroke-width="1.0" stroke-linejoin="round" stroke-linecap="butt" stroke-dasharray="1.0,3.0" d="m248.33858 124.750656l14.622055 -14.622047l43.86615 0l0 43.866142l-14.62207 14.62204l-43.866135 0zm0 0l43.866135 0l14.62207 -14.622047m-14.62207 14.622047l0 43.866135" fill-rule="evenodd"></path><path fill="#4a86e8" d="m233.75066 139.33858l43.866135 0l0 43.86615l-43.866135 0z" fill-rule="evenodd"></path><path fill="#3b6bb9" d="m277.6168 139.33858l14.62204 -14.62204l0 43.866135l-14.62204 14.622055z" fill-rule="evenodd"></path><path fill="#6e9eec" d="m233.75066 139.33858l14.62204 -14.62204l43.866135 0l-14.62204 14.62204z" fill-rule="evenodd"></path><path fill="#000000" fill-opacity="0.0" d="m233.75066 139.33858l14.62204 -14.62204l43.866135 0l0 43.866135l-14.62204 14.622055l-43.866135 0zm0 0l43.866135 0l14.62204 -14.62204m-14.62204 14.62204l0 43.86615" fill-rule="evenodd"></path><path stroke="#000000" stroke-width="1.0" stroke-linejoin="round" stroke-linecap="butt" stroke-dasharray="1.0,3.0" d="m233.75066 139.33858l14.62204 -14.62204l43.866135 0l0 43.866135l-14.62204 14.622055l-43.866135 0zm0 0l43.866135 0l14.62204 -14.62204m-14.62204 14.62204l0 43.86615" fill-rule="evenodd"></path><path fill="#4a86e8" d="m219.5643 153.6483l43.86615 0l0 43.866135l-43.86615 0z" fill-rule="evenodd"></path><path fill="#3b6bb9" d="m263.43045 153.6483l14.62204 -14.622055l0 43.86615l-14.62204 14.62204z" fill-rule="evenodd"></path><path fill="#6e9eec" d="m219.5643 153.6483l14.622055 -14.622055l43.866135 0l-14.62204 14.622055z" fill-rule="evenodd"></path><path fill="#000000" fill-opacity="0.0" d="m219.5643 153.6483l14.622055 -14.622055l43.866135 0l0 43.86615l-14.62204 14.62204l-43.86615 0zm0 0l43.86615 0l14.62204 -14.622055m-14.62204 14.622055l0 43.866135" fill-rule="evenodd"></path><path stroke="#000000" stroke-width="1.0" stroke-linejoin="round" stroke-linecap="butt" stroke-dasharray="1.0,3.0" d="m219.5643 153.6483l14.622055 -14.622055l43.866135 0l0 43.86615l-14.62204 14.62204l-43.86615 0zm0 0l43.86615 0l14.62204 -14.622055m-14.62204 14.622055l0 43.866135" fill-rule="evenodd"></path><path fill="#4a86e8" d="m204.81102 168.23885l43.86615 0l0 43.866135l-43.86615 0z" fill-rule="evenodd"></path><path fill="#3b6bb9" d="m248.67717 168.23885l14.622055 -14.622055l0 43.86615l-14.622055 14.62204z" fill-rule="evenodd"></path><path fill="#6e9eec" d="m204.81102 168.23885l14.622055 -14.622055l43.86615 0l-14.622055 14.622055z" fill-rule="evenodd"></path><path fill="#000000" fill-opacity="0.0" d="m204.81102 168.23885l14.622055 -14.622055l43.86615 0l0 43.86615l-14.622055 14.62204l-43.86615 0zm0 0l43.86615 0l14.622055 -14.622055m-14.622055 14.622055l0 43.866135" fill-rule="evenodd"></path><path stroke="#000000" stroke-width="1.0" stroke-linejoin="round" stroke-linecap="butt" stroke-dasharray="1.0,3.0" d="m204.81102 168.23885l14.622055 -14.622055l43.86615 0l0 43.86615l-14.622055 14.62204l-43.86615 0zm0 0l43.86615 0l14.622055 -14.622055m-14.622055 14.622055l0 43.866135" fill-rule="evenodd"></path><path fill="#d9d9d9" fill-opacity="0.8314" d="m116.50131 80.17191l43.866135 0l0 43.866142l-43.866135 0z" fill-rule="evenodd"></path><path fill="#adadad" fill-opacity="0.8314" d="m160.36745 80.17191l14.622055 -14.622047l0 43.866142l-14.622055 14.622047z" fill-rule="evenodd"></path><path fill="#e0e0e0" fill-opacity="0.8314" d="m116.50131 80.17191l14.62204 -14.622047l43.86615 0l-14.622055 14.622047z" fill-rule="evenodd"></path><path fill="#000000" fill-opacity="0.0" d="m116.50131 80.17191l14.62204 -14.622047l43.86615 0l0 43.866142l-14.622055 14.622047l-43.866135 0zm0 0l43.866135 0l14.622055 -14.622047m-14.622055 14.622047l0 43.866142" fill-rule="evenodd"></path><path stroke="#000000" stroke-width="1.0" stroke-linejoin="round" stroke-linecap="butt" stroke-dasharray="1.0,3.0" d="m116.50131 80.17191l14.62204 -14.622047l43.86615 0l0 43.866142l-14.622055 14.622047l-43.866135 0zm0 0l43.866135 0l14.622055 -14.622047m-14.622055 14.622047l0 43.866142" fill-rule="evenodd"></path><path fill="#d9d9d9" fill-opacity="0.8314" d="m101.91338 94.75984l43.866142 0l0 43.86615l-43.866142 0z" fill-rule="evenodd"></path><path fill="#adadad" fill-opacity="0.8314" d="m145.77953 94.75984l14.622055 -14.622047l0 43.866142l-14.622055 14.622055z" fill-rule="evenodd"></path><path fill="#e0e0e0" fill-opacity="0.8314" d="m101.91338 94.75984l14.622047 -14.622047l43.86615 0l-14.622055 14.622047z" fill-rule="evenodd"></path><path fill="#000000" fill-opacity="0.0" d="m101.91338 94.75984l14.622047 -14.622047l43.86615 0l0 43.866142l-14.622055 14.622055l-43.866142 0zm0 0l43.866142 0l14.622055 -14.622047m-14.622055 14.622047l0 43.86615" fill-rule="evenodd"></path><path stroke="#000000" stroke-width="1.0" stroke-linejoin="round" stroke-linecap="butt" stroke-dasharray="1.0,3.0" d="m101.91338 94.75984l14.622047 -14.622047l43.86615 0l0 43.866142l-14.622055 14.622055l-43.866142 0zm0 0l43.866142 0l14.622055 -14.622047m-14.622055 14.622047l0 43.86615" fill-rule="evenodd"></path><path fill="#d9d9d9" fill-opacity="0.8314" d="m87.727036 109.06956l43.866135 0l0 43.866142l-43.866135 0z" fill-rule="evenodd"></path><path fill="#adadad" fill-opacity="0.8314" d="m131.59317 109.06956l14.622055 -14.622047l0 43.866135l-14.622055 14.622055z" fill-rule="evenodd"></path><path fill="#e0e0e0" fill-opacity="0.8314" d="m87.727036 109.06956l14.622047 -14.622047l43.866142 0l-14.622055 14.622047z" fill-rule="evenodd"></path><path fill="#000000" fill-opacity="0.0" d="m87.727036 109.06956l14.622047 -14.622047l43.866142 0l0 43.866135l-14.622055 14.622055l-43.866135 0zm0 0l43.866135 0l14.622055 -14.622047m-14.622055 14.622047l0 43.866142" fill-rule="evenodd"></path><path stroke="#000000" stroke-width="1.0" stroke-linejoin="round" stroke-linecap="butt" stroke-dasharray="1.0,3.0" d="m87.727036 109.06956l14.622047 -14.622047l43.866142 0l0 43.866135l-14.622055 14.622055l-43.866135 0zm0 0l43.866135 0l14.622055 -14.622047m-14.622055 14.622047l0 43.866142" fill-rule="evenodd"></path><path fill="#d9d9d9" fill-opacity="0.8314" d="m72.973755 123.6601l43.866142 0l0 43.866142l-43.866142 0z" fill-rule="evenodd"></path><path fill="#adadad" fill-opacity="0.8314" d="m116.8399 123.6601l14.622047 -14.622047l0 43.86615l-14.622047 14.62204z" fill-rule="evenodd"></path><path fill="#e0e0e0" fill-opacity="0.8314" d="m72.973755 123.6601l14.622047 -14.622047l43.866142 0l-14.622047 14.622047z" fill-rule="evenodd"></path><path fill="#000000" fill-opacity="0.0" d="m72.973755 123.6601l14.622047 -14.622047l43.866142 0l0 43.86615l-14.622047 14.62204l-43.866142 0zm0 0l43.866142 0l14.622047 -14.622047m-14.622047 14.622047l0 43.866142" fill-rule="evenodd"></path><path stroke="#000000" stroke-width="1.0" stroke-linejoin="round" stroke-linecap="butt" stroke-dasharray="1.0,3.0" d="m72.973755 123.6601l14.622047 -14.622047l43.866142 0l0 43.86615l-14.622047 14.62204l-43.866142 0zm0 0l43.866142 0l14.622047 -14.622047m-14.622047 14.622047l0 43.866142" fill-rule="evenodd"></path><path fill="#d9d9d9" fill-opacity="0.8314" d="m160.43045 80.17191l43.866135 0l0 43.866142l-43.866135 0z" fill-rule="evenodd"></path><path fill="#adadad" fill-opacity="0.8314" d="m204.29659 80.17191l14.622055 -14.622047l0 43.866142l-14.622055 14.622047z" fill-rule="evenodd"></path><path fill="#e0e0e0" fill-opacity="0.8314" d="m160.43045 80.17191l14.62204 -14.622047l43.86615 0l-14.622055 14.622047z" fill-rule="evenodd"></path><path fill="#000000" fill-opacity="0.0" d="m160.43045 80.17191l14.62204 -14.622047l43.86615 0l0 43.866142l-14.622055 14.622047l-43.866135 0zm0 0l43.866135 0l14.622055 -14.622047m-14.622055 14.622047l0 43.866142" fill-rule="evenodd"></path><path stroke="#000000" stroke-width="1.0" stroke-linejoin="round" stroke-linecap="butt" stroke-dasharray="1.0,3.0" d="m160.43045 80.17191l14.62204 -14.622047l43.86615 0l0 43.866142l-14.622055 14.622047l-43.866135 0zm0 0l43.866135 0l14.622055 -14.622047m-14.622055 14.622047l0 43.866142" fill-rule="evenodd"></path><path fill="#d9d9d9" fill-opacity="0.8314" d="m145.84251 94.75984l43.86615 0l0 43.86615l-43.86615 0z" fill-rule="evenodd"></path><path fill="#adadad" fill-opacity="0.8314" d="m189.70866 94.75984l14.62204 -14.622047l0 43.866142l-14.62204 14.622055z" fill-rule="evenodd"></path><path fill="#e0e0e0" fill-opacity="0.8314" d="m145.84251 94.75984l14.622055 -14.622047l43.866135 0l-14.62204 14.622047z" fill-rule="evenodd"></path><path fill="#000000" fill-opacity="0.0" d="m145.84251 94.75984l14.622055 -14.622047l43.866135 0l0 43.866142l-14.62204 14.622055l-43.86615 0zm0 0l43.86615 0l14.62204 -14.622047m-14.62204 14.622047l0 43.86615" fill-rule="evenodd"></path><path stroke="#000000" stroke-width="1.0" stroke-linejoin="round" stroke-linecap="butt" stroke-dasharray="1.0,3.0" d="m145.84251 94.75984l14.622055 -14.622047l43.866135 0l0 43.866142l-14.62204 14.622055l-43.86615 0zm0 0l43.86615 0l14.62204 -14.622047m-14.62204 14.622047l0 43.86615" fill-rule="evenodd"></path><path fill="#d9d9d9" fill-opacity="0.8314" d="m131.65617 109.06956l43.866135 0l0 43.866142l-43.866135 0z" fill-rule="evenodd"></path><path fill="#adadad" fill-opacity="0.8314" d="m175.52231 109.06956l14.622055 -14.622047l0 43.866135l-14.622055 14.622055z" fill-rule="evenodd"></path><path fill="#e0e0e0" fill-opacity="0.8314" d="m131.65617 109.06956l14.62204 -14.622047l43.86615 0l-14.622055 14.622047z" fill-rule="evenodd"></path><path fill="#000000" fill-opacity="0.0" d="m131.65617 109.06956l14.62204 -14.622047l43.86615 0l0 43.866135l-14.622055 14.622055l-43.866135 0zm0 0l43.866135 0l14.622055 -14.622047m-14.622055 14.622047l0 43.866142" fill-rule="evenodd"></path><path stroke="#000000" stroke-width="1.0" stroke-linejoin="round" stroke-linecap="butt" stroke-dasharray="1.0,3.0" d="m131.65617 109.06956l14.62204 -14.622047l43.86615 0l0 43.866135l-14.622055 14.622055l-43.866135 0zm0 0l43.866135 0l14.622055 -14.622047m-14.622055 14.622047l0 43.866142" fill-rule="evenodd"></path><path fill="#d9d9d9" fill-opacity="0.8314" d="m116.902885 123.6601l43.866142 0l0 43.866142l-43.866142 0z" fill-rule="evenodd"></path><path fill="#adadad" fill-opacity="0.8314" d="m160.76903 123.6601l14.622055 -14.622047l0 43.86615l-14.622055 14.62204z" fill-rule="evenodd"></path><path fill="#e0e0e0" fill-opacity="0.8314" d="m116.902885 123.6601l14.622047 -14.622047l43.86615 0l-14.622055 14.622047z" fill-rule="evenodd"></path><path fill="#000000" fill-opacity="0.0" d="m116.902885 123.6601l14.622047 -14.622047l43.86615 0l0 43.86615l-14.622055 14.62204l-43.866142 0zm0 0l43.866142 0l14.622055 -14.622047m-14.622055 14.622047l0 43.866142" fill-rule="evenodd"></path><path stroke="#000000" stroke-width="1.0" stroke-linejoin="round" stroke-linecap="butt" stroke-dasharray="1.0,3.0" d="m116.902885 123.6601l14.622047 -14.622047l43.86615 0l0 43.86615l-14.622055 14.62204l-43.866142 0zm0 0l43.866142 0l14.622055 -14.622047m-14.622055 14.622047l0 43.866142" fill-rule="evenodd"></path><path fill="#d9d9d9" fill-opacity="0.8314" d="m204.40945 80.17191l43.866135 0l0 43.866142l-43.866135 0z" fill-rule="evenodd"></path><path fill="#adadad" fill-opacity="0.8314" d="m248.27559 80.17191l14.622055 -14.622047l0 43.866142l-14.622055 14.622047z" fill-rule="evenodd"></path><path fill="#e0e0e0" fill-opacity="0.8314" d="m204.40945 80.17191l14.62204 -14.622047l43.86615 0l-14.622055 14.622047z" fill-rule="evenodd"></path><path fill="#000000" fill-opacity="0.0" d="m204.40945 80.17191l14.62204 -14.622047l43.86615 0l0 43.866142l-14.622055 14.622047l-43.866135 0zm0 0l43.866135 0l14.622055 -14.622047m-14.622055 14.622047l0 43.866142" fill-rule="evenodd"></path><path stroke="#000000" stroke-width="1.0" stroke-linejoin="round" stroke-linecap="butt" stroke-dasharray="1.0,3.0" d="m204.40945 80.17191l14.62204 -14.622047l43.86615 0l0 43.866142l-14.622055 14.622047l-43.866135 0zm0 0l43.866135 0l14.622055 -14.622047m-14.622055 14.622047l0 43.866142" fill-rule="evenodd"></path><path fill="#d9d9d9" fill-opacity="0.8314" d="m189.82152 94.75984l43.86615 0l0 43.86615l-43.86615 0z" fill-rule="evenodd"></path><path fill="#adadad" fill-opacity="0.8314" d="m233.68767 94.75984l14.62204 -14.622047l0 43.866142l-14.62204 14.622055z" fill-rule="evenodd"></path><path fill="#e0e0e0" fill-opacity="0.8314" d="m189.82152 94.75984l14.622055 -14.622047l43.866135 0l-14.62204 14.622047z" fill-rule="evenodd"></path><path fill="#000000" fill-opacity="0.0" d="m189.82152 94.75984l14.622055 -14.622047l43.866135 0l0 43.866142l-14.62204 14.622055l-43.86615 0zm0 0l43.86615 0l14.62204 -14.622047m-14.62204 14.622047l0 43.86615" fill-rule="evenodd"></path><path stroke="#000000" stroke-width="1.0" stroke-linejoin="round" stroke-linecap="butt" stroke-dasharray="1.0,3.0" d="m189.82152 94.75984l14.622055 -14.622047l43.866135 0l0 43.866142l-14.62204 14.622055l-43.86615 0zm0 0l43.86615 0l14.62204 -14.622047m-14.62204 14.622047l0 43.86615" fill-rule="evenodd"></path><path fill="#d9d9d9" fill-opacity="0.8314" d="m175.63518 109.06956l43.866135 0l0 43.866142l-43.866135 0z" fill-rule="evenodd"></path><path fill="#adadad" fill-opacity="0.8314" d="m219.50131 109.06956l14.62204 -14.622047l0 43.866135l-14.62204 14.622055z" fill-rule="evenodd"></path><path fill="#e0e0e0" fill-opacity="0.8314" d="m175.63518 109.06956l14.62204 -14.622047l43.866135 0l-14.62204 14.622047z" fill-rule="evenodd"></path><path fill="#000000" fill-opacity="0.0" d="m175.63518 109.06956l14.62204 -14.622047l43.866135 0l0 43.866135l-14.62204 14.622055l-43.866135 0zm0 0l43.866135 0l14.62204 -14.622047m-14.62204 14.622047l0 43.866142" fill-rule="evenodd"></path><path stroke="#000000" stroke-width="1.0" stroke-linejoin="round" stroke-linecap="butt" stroke-dasharray="1.0,3.0" d="m175.63518 109.06956l14.62204 -14.622047l43.866135 0l0 43.866135l-14.62204 14.622055l-43.866135 0zm0 0l43.866135 0l14.62204 -14.622047m-14.62204 14.622047l0 43.866142" fill-rule="evenodd"></path><path fill="#d9d9d9" fill-opacity="0.8314" d="m160.8819 123.6601l43.866135 0l0 43.866142l-43.866135 0z" fill-rule="evenodd"></path><path fill="#adadad" fill-opacity="0.8314" d="m204.74803 123.6601l14.62204 -14.622047l0 43.86615l-14.62204 14.62204z" fill-rule="evenodd"></path><path fill="#e0e0e0" fill-opacity="0.8314" d="m160.8819 123.6601l14.62204 -14.622047l43.866135 0l-14.62204 14.622047z" fill-rule="evenodd"></path><path fill="#000000" fill-opacity="0.0" d="m160.8819 123.6601l14.62204 -14.622047l43.866135 0l0 43.86615l-14.62204 14.62204l-43.866135 0zm0 0l43.866135 0l14.62204 -14.622047m-14.62204 14.622047l0 43.866142" fill-rule="evenodd"></path><path stroke="#000000" stroke-width="1.0" stroke-linejoin="round" stroke-linecap="butt" stroke-dasharray="1.0,3.0" d="m160.8819 123.6601l14.62204 -14.622047l43.866135 0l0 43.86615l-14.62204 14.62204l-43.866135 0zm0 0l43.866135 0l14.62204 -14.622047m-14.62204 14.622047l0 43.866142" fill-rule="evenodd"></path><path fill="#d9d9d9" fill-opacity="0.8314" d="m248.33858 80.17191l43.866135 0l0 43.866142l-43.866135 0z" fill-rule="evenodd"></path><path fill="#adadad" fill-opacity="0.8314" d="m292.2047 80.17191l14.62207 -14.622047l0 43.866142l-14.62207 14.622047z" fill-rule="evenodd"></path><path fill="#e0e0e0" fill-opacity="0.8314" d="m248.33858 80.17191l14.622055 -14.622047l43.86615 0l-14.62207 14.622047z" fill-rule="evenodd"></path><path fill="#000000" fill-opacity="0.0" d="m248.33858 80.17191l14.622055 -14.622047l43.86615 0l0 43.866142l-14.62207 14.622047l-43.866135 0zm0 0l43.866135 0l14.62207 -14.622047m-14.62207 14.622047l0 43.866142" fill-rule="evenodd"></path><path stroke="#000000" stroke-width="1.0" stroke-linejoin="round" stroke-linecap="butt" stroke-dasharray="1.0,3.0" d="m248.33858 80.17191l14.622055 -14.622047l43.86615 0l0 43.866142l-14.62207 14.622047l-43.866135 0zm0 0l43.866135 0l14.62207 -14.622047m-14.62207 14.622047l0 43.866142" fill-rule="evenodd"></path><path fill="#d9d9d9" fill-opacity="0.8314" d="m233.75066 94.75984l43.866135 0l0 43.86615l-43.866135 0z" fill-rule="evenodd"></path><path fill="#adadad" fill-opacity="0.8314" d="m277.6168 94.75984l14.62204 -14.622047l0 43.866142l-14.62204 14.622055z" fill-rule="evenodd"></path><path fill="#e0e0e0" fill-opacity="0.8314" d="m233.75066 94.75984l14.62204 -14.622047l43.866135 0l-14.62204 14.622047z" fill-rule="evenodd"></path><path fill="#000000" fill-opacity="0.0" d="m233.75066 94.75984l14.62204 -14.622047l43.866135 0l0 43.866142l-14.62204 14.622055l-43.866135 0zm0 0l43.866135 0l14.62204 -14.622047m-14.62204 14.622047l0 43.86615" fill-rule="evenodd"></path><path stroke="#000000" stroke-width="1.0" stroke-linejoin="round" stroke-linecap="butt" stroke-dasharray="1.0,3.0" d="m233.75066 94.75984l14.62204 -14.622047l43.866135 0l0 43.866142l-14.62204 14.622055l-43.866135 0zm0 0l43.866135 0l14.62204 -14.622047m-14.62204 14.622047l0 43.86615" fill-rule="evenodd"></path><path fill="#d9d9d9" fill-opacity="0.8314" d="m219.5643 109.06956l43.86615 0l0 43.866142l-43.86615 0z" fill-rule="evenodd"></path><path fill="#adadad" fill-opacity="0.8314" d="m263.43045 109.06956l14.62204 -14.622047l0 43.866135l-14.62204 14.622055z" fill-rule="evenodd"></path><path fill="#e0e0e0" fill-opacity="0.8314" d="m219.5643 109.06956l14.622055 -14.622047l43.866135 0l-14.62204 14.622047z" fill-rule="evenodd"></path><path fill="#000000" fill-opacity="0.0" d="m219.5643 109.06956l14.622055 -14.622047l43.866135 0l0 43.866135l-14.62204 14.622055l-43.86615 0zm0 0l43.86615 0l14.62204 -14.622047m-14.62204 14.622047l0 43.866142" fill-rule="evenodd"></path><path stroke="#000000" stroke-width="1.0" stroke-linejoin="round" stroke-linecap="butt" stroke-dasharray="1.0,3.0" d="m219.5643 109.06956l14.622055 -14.622047l43.866135 0l0 43.866135l-14.62204 14.622055l-43.86615 0zm0 0l43.86615 0l14.62204 -14.622047m-14.62204 14.622047l0 43.866142" fill-rule="evenodd"></path><path fill="#d9d9d9" fill-opacity="0.8314" d="m204.81102 123.6601l43.86615 0l0 43.866142l-43.86615 0z" fill-rule="evenodd"></path><path fill="#adadad" fill-opacity="0.8314" d="m248.67717 123.6601l14.622055 -14.622047l0 43.86615l-14.622055 14.62204z" fill-rule="evenodd"></path><path fill="#e0e0e0" fill-opacity="0.8314" d="m204.81102 123.6601l14.622055 -14.622047l43.86615 0l-14.622055 14.622047z" fill-rule="evenodd"></path><path fill="#000000" fill-opacity="0.0" d="m204.81102 123.6601l14.622055 -14.622047l43.86615 0l0 43.86615l-14.622055 14.62204l-43.86615 0zm0 0l43.86615 0l14.622055 -14.622047m-14.622055 14.622047l0 43.866142" fill-rule="evenodd"></path><path stroke="#000000" stroke-width="1.0" stroke-linejoin="round" stroke-linecap="butt" stroke-dasharray="1.0,3.0" d="m204.81102 123.6601l14.622055 -14.622047l43.86615 0l0 43.86615l-14.622055 14.62204l-43.86615 0zm0 0l43.86615 0l14.622055 -14.622047m-14.622055 14.622047l0 43.866142" fill-rule="evenodd"></path><path fill="#d9d9d9" fill-opacity="0.8314" d="m116.50131 36.182415l43.866135 0l0 43.86614l-43.866135 0z" fill-rule="evenodd"></path><path fill="#adadad" fill-opacity="0.8314" d="m160.36745 36.182415l14.622055 -14.622047l0 43.86614l-14.622055 14.622047z" fill-rule="evenodd"></path><path fill="#e0e0e0" fill-opacity="0.8314" d="m116.50131 36.182415l14.62204 -14.622047l43.86615 0l-14.622055 14.622047z" fill-rule="evenodd"></path><path fill="#000000" fill-opacity="0.0" d="m116.50131 36.182415l14.62204 -14.622047l43.86615 0l0 43.86614l-14.622055 14.622047l-43.866135 0zm0 0l43.866135 0l14.622055 -14.622047m-14.622055 14.622047l0 43.86614" fill-rule="evenodd"></path><path stroke="#000000" stroke-width="1.0" stroke-linejoin="round" stroke-linecap="butt" stroke-dasharray="1.0,3.0" d="m116.50131 36.182415l14.62204 -14.622047l43.86615 0l0 43.86614l-14.622055 14.622047l-43.866135 0zm0 0l43.866135 0l14.622055 -14.622047m-14.622055 14.622047l0 43.86614" fill-rule="evenodd"></path><path fill="#d9d9d9" fill-opacity="0.8314" d="m101.91338 50.77034l43.866142 0l0 43.866142l-43.866142 0z" fill-rule="evenodd"></path><path fill="#adadad" fill-opacity="0.8314" d="m145.77953 50.77034l14.622055 -14.622047l0 43.866142l-14.622055 14.622047z" fill-rule="evenodd"></path><path fill="#e0e0e0" fill-opacity="0.8314" d="m101.91338 50.77034l14.622047 -14.622047l43.86615 0l-14.622055 14.622047z" fill-rule="evenodd"></path><path fill="#000000" fill-opacity="0.0" d="m101.91338 50.77034l14.622047 -14.622047l43.86615 0l0 43.866142l-14.622055 14.622047l-43.866142 0zm0 0l43.866142 0l14.622055 -14.622047m-14.622055 14.622047l0 43.866142" fill-rule="evenodd"></path><path stroke="#000000" stroke-width="1.0" stroke-linejoin="round" stroke-linecap="butt" stroke-dasharray="1.0,3.0" d="m101.91338 50.77034l14.622047 -14.622047l43.86615 0l0 43.866142l-14.622055 14.622047l-43.866142 0zm0 0l43.866142 0l14.622055 -14.622047m-14.622055 14.622047l0 43.866142" fill-rule="evenodd"></path><path fill="#ff0000" d="m160.65617 36.182415l43.866135 0l0 43.86614l-43.866135 0z" fill-rule="evenodd"></path><path fill="#cb0000" d="m204.52231 36.182415l14.622055 -14.622047l0 43.86614l-14.622055 14.622047z" fill-rule="evenodd"></path><path fill="#ff3333" d="m160.65617 36.182415l14.62204 -14.622047l43.86615 0l-14.622055 14.622047z" fill-rule="evenodd"></path><path fill="#000000" fill-opacity="0.0" d="m160.65617 36.182415l14.62204 -14.622047l43.86615 0l0 43.86614l-14.622055 14.622047l-43.866135 0zm0 0l43.866135 0l14.622055 -14.622047m-14.622055 14.622047l0 43.86614" fill-rule="evenodd"></path><path stroke="#000000" stroke-width="1.0" stroke-linejoin="round" stroke-linecap="butt" stroke-dasharray="1.0,3.0" d="m160.65617 36.182415l14.62204 -14.622047l43.86615 0l0 43.86614l-14.622055 14.622047l-43.866135 0zm0 0l43.866135 0l14.622055 -14.622047m-14.622055 14.622047l0 43.86614" fill-rule="evenodd"></path><path fill="#d9d9d9" fill-opacity="0.8314" d="m72.973755 79.6706l43.866142 0l0 43.866142l-43.866142 0z" fill-rule="evenodd"></path><path fill="#adadad" fill-opacity="0.8314" d="m116.8399 79.6706l14.622047 -14.622047l0 43.866142l-14.622047 14.622047z" fill-rule="evenodd"></path><path fill="#e0e0e0" fill-opacity="0.8314" d="m72.973755 79.6706l14.622047 -14.622047l43.866142 0l-14.622047 14.622047z" fill-rule="evenodd"></path><path fill="#000000" fill-opacity="0.0" d="m72.973755 79.6706l14.622047 -14.622047l43.866142 0l0 43.866142l-14.622047 14.622047l-43.866142 0zm0 0l43.866142 0l14.622047 -14.622047m-14.622047 14.622047l0 43.866142" fill-rule="evenodd"></path><path stroke="#000000" stroke-width="1.0" stroke-linejoin="round" stroke-linecap="butt" stroke-dasharray="1.0,3.0" d="m72.973755 79.6706l14.622047 -14.622047l43.866142 0l0 43.866142l-14.622047 14.622047l-43.866142 0zm0 0l43.866142 0l14.622047 -14.622047m-14.622047 14.622047l0 43.866142" fill-rule="evenodd"></path><path fill="#d9d9d9" fill-opacity="0.8314" d="m87.70106 65.54738l43.866142 0l0 43.866142l-43.866142 0z" fill-rule="evenodd"></path><path fill="#adadad" fill-opacity="0.8314" d="m131.5672 65.54738l14.62204 -14.622047l0 43.866142l-14.62204 14.622047z" fill-rule="evenodd"></path><path fill="#e0e0e0" fill-opacity="0.8314" d="m87.70106 65.54738l14.622047 -14.622047l43.866135 0l-14.62204 14.622047z" fill-rule="evenodd"></path><path fill="#000000" fill-opacity="0.0" d="m87.70106 65.54738l14.622047 -14.622047l43.866135 0l0 43.866142l-14.62204 14.622047l-43.866142 0zm0 0l43.866142 0l14.62204 -14.622047m-14.62204 14.622047l0 43.866142" fill-rule="evenodd"></path><path stroke="#000000" stroke-width="1.0" stroke-linejoin="round" stroke-linecap="butt" stroke-dasharray="1.0,3.0" d="m87.70106 65.54738l14.622047 -14.622047l43.866135 0l0 43.866142l-14.62204 14.622047l-43.866142 0zm0 0l43.866142 0l14.62204 -14.622047m-14.62204 14.622047l0 43.866142" fill-rule="evenodd"></path><path fill="#ff0000" d="m146.26903 50.77034l43.86615 0l0 43.866142l-43.86615 0z" fill-rule="evenodd"></path><path fill="#cb0000" d="m190.13518 50.77034l14.62204 -14.622047l0 43.866142l-14.62204 14.622047z" fill-rule="evenodd"></path><path fill="#ff3333" d="m146.26903 50.77034l14.622055 -14.622047l43.866135 0l-14.62204 14.622047z" fill-rule="evenodd"></path><path fill="#000000" fill-opacity="0.0" d="m146.26903 50.77034l14.622055 -14.622047l43.866135 0l0 43.866142l-14.62204 14.622047l-43.86615 0zm0 0l43.86615 0l14.62204 -14.622047m-14.62204 14.622047l0 43.866142" fill-rule="evenodd"></path><path stroke="#000000" stroke-width="1.0" stroke-linejoin="round" stroke-linecap="butt" stroke-dasharray="1.0,3.0" d="m146.26903 50.77034l14.622055 -14.622047l43.866135 0l0 43.866142l-14.62204 14.622047l-43.86615 0zm0 0l43.86615 0l14.62204 -14.622047m-14.62204 14.622047l0 43.866142" fill-rule="evenodd"></path><path fill="#ff0000" d="m131.54227 65.54724l43.866135 0l0 43.866142l-43.866135 0z" fill-rule="evenodd"></path><path fill="#cb0000" d="m175.4084 65.54724l14.622055 -14.622044l0 43.86614l-14.622055 14.622047z" fill-rule="evenodd"></path><path fill="#ff3333" d="m131.54227 65.54724l14.62204 -14.622044l43.86615 0l-14.622055 14.622044z" fill-rule="evenodd"></path><path fill="#000000" fill-opacity="0.0" d="m131.54227 65.54724l14.62204 -14.622044l43.86615 0l0 43.86614l-14.622055 14.622047l-43.866135 0zm0 0l43.866135 0l14.622055 -14.622044m-14.622055 14.622044l0 43.866142" fill-rule="evenodd"></path><path stroke="#000000" stroke-width="1.0" stroke-linejoin="round" stroke-linecap="butt" stroke-dasharray="1.0,3.0" d="m131.54227 65.54724l14.62204 -14.622044l43.86615 0l0 43.86614l-14.622055 14.622047l-43.866135 0zm0 0l43.866135 0l14.622055 -14.622044m-14.622055 14.622044l0 43.866142" fill-rule="evenodd"></path><path fill="#d9d9d9" fill-opacity="0.8314" d="m175.12466 65.54724l43.86615 0l0 43.866142l-43.86615 0z" fill-rule="evenodd"></path><path fill="#adadad" fill-opacity="0.8314" d="m218.99081 65.54724l14.62204 -14.622044l0 43.86614l-14.62204 14.622047z" fill-rule="evenodd"></path><path fill="#e0e0e0" fill-opacity="0.8314" d="m175.12466 65.54724l14.622055 -14.622044l43.866135 0l-14.62204 14.622044z" fill-rule="evenodd"></path><path fill="#000000" fill-opacity="0.0" d="m175.12466 65.54724l14.622055 -14.622044l43.866135 0l0 43.86614l-14.62204 14.622047l-43.86615 0zm0 0l43.86615 0l14.62204 -14.622044m-14.62204 14.622044l0 43.866142" fill-rule="evenodd"></path><path stroke="#000000" stroke-width="1.0" stroke-linejoin="round" stroke-linecap="butt" stroke-dasharray="1.0,3.0" d="m175.12466 65.54724l14.622055 -14.622044l43.866135 0l0 43.86614l-14.62204 14.622047l-43.86615 0zm0 0l43.86615 0l14.62204 -14.622044m-14.62204 14.622044l0 43.866142" fill-rule="evenodd"></path><path fill="#d9d9d9" fill-opacity="0.8314" d="m204.40945 36.182415l43.866135 0l0 43.86614l-43.866135 0z" fill-rule="evenodd"></path><path fill="#adadad" fill-opacity="0.8314" d="m248.27559 36.182415l14.622055 -14.622047l0 43.86614l-14.622055 14.622047z" fill-rule="evenodd"></path><path fill="#e0e0e0" fill-opacity="0.8314" d="m204.40945 36.182415l14.62204 -14.622047l43.86615 0l-14.622055 14.622047z" fill-rule="evenodd"></path><path fill="#000000" fill-opacity="0.0" d="m204.40945 36.182415l14.62204 -14.622047l43.86615 0l0 43.86614l-14.622055 14.622047l-43.866135 0zm0 0l43.866135 0l14.622055 -14.622047m-14.622055 14.622047l0 43.86614" fill-rule="evenodd"></path><path stroke="#000000" stroke-width="1.0" stroke-linejoin="round" stroke-linecap="butt" stroke-dasharray="1.0,3.0" d="m204.40945 36.182415l14.62204 -14.622047l43.86615 0l0 43.86614l-14.622055 14.622047l-43.866135 0zm0 0l43.866135 0l14.622055 -14.622047m-14.622055 14.622047l0 43.86614" fill-rule="evenodd"></path><path fill="#d9d9d9" fill-opacity="0.8314" d="m189.82152 50.77034l43.86615 0l0 43.866142l-43.86615 0z" fill-rule="evenodd"></path><path fill="#adadad" fill-opacity="0.8314" d="m233.68767 50.77034l14.62204 -14.622047l0 43.866142l-14.62204 14.622047z" fill-rule="evenodd"></path><path fill="#e0e0e0" fill-opacity="0.8314" d="m189.82152 50.77034l14.622055 -14.622047l43.866135 0l-14.62204 14.622047z" fill-rule="evenodd"></path><path fill="#000000" fill-opacity="0.0" d="m189.82152 50.77034l14.622055 -14.622047l43.866135 0l0 43.866142l-14.62204 14.622047l-43.86615 0zm0 0l43.86615 0l14.62204 -14.622047m-14.62204 14.622047l0 43.866142" fill-rule="evenodd"></path><path stroke="#000000" stroke-width="1.0" stroke-linejoin="round" stroke-linecap="butt" stroke-dasharray="1.0,3.0" d="m189.82152 50.77034l14.622055 -14.622047l43.866135 0l0 43.866142l-14.62204 14.622047l-43.86615 0zm0 0l43.86615 0l14.62204 -14.622047m-14.62204 14.622047l0 43.866142" fill-rule="evenodd"></path><path fill="#ff0000" d="m116.50131 79.6706l43.866135 0l0 43.866142l-43.866135 0z" fill-rule="evenodd"></path><path fill="#cb0000" d="m160.36745 79.6706l14.622055 -14.622047l0 43.866142l-14.622055 14.622047z" fill-rule="evenodd"></path><path fill="#ff3333" d="m116.50131 79.6706l14.62204 -14.622047l43.86615 0l-14.622055 14.622047z" fill-rule="evenodd"></path><path fill="#000000" fill-opacity="0.0" d="m116.50131 79.6706l14.62204 -14.622047l43.86615 0l0 43.866142l-14.622055 14.622047l-43.866135 0zm0 0l43.866135 0l14.622055 -14.622047m-14.622055 14.622047l0 43.866142" fill-rule="evenodd"></path><path stroke="#000000" stroke-width="1.0" stroke-linejoin="round" stroke-linecap="butt" stroke-dasharray="1.0,3.0" d="m116.50131 79.6706l14.62204 -14.622047l43.86615 0l0 43.866142l-14.622055 14.622047l-43.866135 0zm0 0l43.866135 0l14.622055 -14.622047m-14.622055 14.622047l0 43.866142" fill-rule="evenodd"></path><path fill="#d9d9d9" fill-opacity="0.8314" d="m160.8819 79.6706l43.866135 0l0 43.866142l-43.866135 0z" fill-rule="evenodd"></path><path fill="#adadad" fill-opacity="0.8314" d="m204.74803 79.6706l14.62204 -14.622047l0 43.866142l-14.62204 14.622047z" fill-rule="evenodd"></path><path fill="#e0e0e0" fill-opacity="0.8314" d="m160.8819 79.6706l14.62204 -14.622047l43.866135 0l-14.62204 14.622047z" fill-rule="evenodd"></path><path fill="#000000" fill-opacity="0.0" d="m160.8819 79.6706l14.62204 -14.622047l43.866135 0l0 43.866142l-14.62204 14.622047l-43.866135 0zm0 0l43.866135 0l14.62204 -14.622047m-14.62204 14.622047l0 43.866142" fill-rule="evenodd"></path><path stroke="#000000" stroke-width="1.0" stroke-linejoin="round" stroke-linecap="butt" stroke-dasharray="1.0,3.0" d="m160.8819 79.6706l14.62204 -14.622047l43.866135 0l0 43.866142l-14.62204 14.622047l-43.866135 0zm0 0l43.866135 0l14.62204 -14.622047m-14.62204 14.622047l0 43.866142" fill-rule="evenodd"></path><path fill="#d9d9d9" fill-opacity="0.8314" d="m248.33858 36.182415l43.866135 0l0 43.86614l-43.866135 0z" fill-rule="evenodd"></path><path fill="#adadad" fill-opacity="0.8314" d="m292.2047 36.182415l14.62207 -14.622047l0 43.86614l-14.62207 14.622047z" fill-rule="evenodd"></path><path fill="#e0e0e0" fill-opacity="0.8314" d="m248.33858 36.182415l14.622055 -14.622047l43.86615 0l-14.62207 14.622047z" fill-rule="evenodd"></path><path fill="#000000" fill-opacity="0.0" d="m248.33858 36.182415l14.622055 -14.622047l43.86615 0l0 43.86614l-14.62207 14.622047l-43.866135 0zm0 0l43.866135 0l14.62207 -14.622047m-14.62207 14.622047l0 43.86614" fill-rule="evenodd"></path><path stroke="#000000" stroke-width="1.0" stroke-linejoin="round" stroke-linecap="butt" stroke-dasharray="1.0,3.0" d="m248.33858 36.182415l14.622055 -14.622047l43.86615 0l0 43.86614l-14.62207 14.622047l-43.866135 0zm0 0l43.866135 0l14.62207 -14.622047m-14.62207 14.622047l0 43.86614" fill-rule="evenodd"></path><path fill="#d9d9d9" fill-opacity="0.8314" d="m233.75066 50.77034l43.866135 0l0 43.866142l-43.866135 0z" fill-rule="evenodd"></path><path fill="#adadad" fill-opacity="0.8314" d="m277.6168 50.77034l14.62204 -14.622047l0 43.866142l-14.62204 14.622047z" fill-rule="evenodd"></path><path fill="#e0e0e0" fill-opacity="0.8314" d="m233.75066 50.77034l14.62204 -14.622047l43.866135 0l-14.62204 14.622047z" fill-rule="evenodd"></path><path fill="#000000" fill-opacity="0.0" d="m233.75066 50.77034l14.62204 -14.622047l43.866135 0l0 43.866142l-14.62204 14.622047l-43.866135 0zm0 0l43.866135 0l14.62204 -14.622047m-14.62204 14.622047l0 43.866142" fill-rule="evenodd"></path><path stroke="#000000" stroke-width="1.0" stroke-linejoin="round" stroke-linecap="butt" stroke-dasharray="1.0,3.0" d="m233.75066 50.77034l14.62204 -14.622047l43.866135 0l0 43.866142l-14.62204 14.622047l-43.866135 0zm0 0l43.866135 0l14.62204 -14.622047m-14.62204 14.622047l0 43.866142" fill-rule="evenodd"></path><path fill="#d9d9d9" fill-opacity="0.8314" d="m219.85039 65.54724l43.866135 0l0 43.866142l-43.866135 0z" fill-rule="evenodd"></path><path fill="#adadad" fill-opacity="0.8314" d="m263.71652 65.54724l14.62207 -14.622044l0 43.86614l-14.62207 14.622047z" fill-rule="evenodd"></path><path fill="#e0e0e0" fill-opacity="0.8314" d="m219.85039 65.54724l14.622055 -14.622044l43.86615 0l-14.62207 14.622044z" fill-rule="evenodd"></path><path fill="#000000" fill-opacity="0.0" d="m219.85039 65.54724l14.622055 -14.622044l43.86615 0l0 43.86614l-14.62207 14.622047l-43.866135 0zm0 0l43.866135 0l14.62207 -14.622044m-14.62207 14.622044l0 43.866142" fill-rule="evenodd"></path><path stroke="#000000" stroke-width="1.0" stroke-linejoin="round" stroke-linecap="butt" stroke-dasharray="1.0,3.0" d="m219.85039 65.54724l14.622055 -14.622044l43.86615 0l0 43.86614l-14.62207 14.622047l-43.866135 0zm0 0l43.866135 0l14.62207 -14.622044m-14.62207 14.622044l0 43.866142" fill-rule="evenodd"></path><path fill="#d9d9d9" fill-opacity="0.8314" d="m204.81102 79.6706l43.86615 0l0 43.866142l-43.86615 0z" fill-rule="evenodd"></path><path fill="#adadad" fill-opacity="0.8314" d="m248.67717 79.6706l14.622055 -14.622047l0 43.866142l-14.622055 14.622047z" fill-rule="evenodd"></path><path fill="#e0e0e0" fill-opacity="0.8314" d="m204.81102 79.6706l14.622055 -14.622047l43.86615 0l-14.622055 14.622047z" fill-rule="evenodd"></path><path fill="#000000" fill-opacity="0.0" d="m204.81102 79.6706l14.622055 -14.622047l43.86615 0l0 43.866142l-14.622055 14.622047l-43.86615 0zm0 0l43.86615 0l14.622055 -14.622047m-14.622055 14.622047l0 43.866142" fill-rule="evenodd"></path><path stroke="#000000" stroke-width="1.0" stroke-linejoin="round" stroke-linecap="butt" stroke-dasharray="1.0,3.0" d="m204.81102 79.6706l14.622055 -14.622047l43.86615 0l0 43.866142l-14.622055 14.622047l-43.86615 0zm0 0l43.86615 0l14.622055 -14.622047m-14.622055 14.622047l0 43.866142" fill-rule="evenodd"></path><path fill="#000000" fill-opacity="0.0" d="m61.4147 80.27034l0 44.15748" fill-rule="evenodd"></path><path stroke="#000000" stroke-width="1.0" stroke-linejoin="round" stroke-linecap="butt" d="m61.4147 83.69743l0 37.303307" fill-rule="evenodd"></path><path fill="#000000" stroke="#000000" stroke-width="1.0" stroke-linecap="butt" d="m61.4147 83.697426l1.1245804 1.124588l-1.1245804 -3.0897675l-1.1245842 3.0897675z" fill-rule="evenodd"></path><path fill="#000000" stroke="#000000" stroke-width="1.0" stroke-linecap="butt" d="m61.4147 121.00073l-1.1245842 -1.1245804l1.1245842 3.0897675l1.1245804 -3.0897675z" fill-rule="evenodd"></path><path fill="#000000" fill-opacity="0.0" d="m167.41208 -10.215223l124.0 0l0 26.96063l-124.0 0z" fill-rule="evenodd"></path><path fill="#000000" d="m177.41208 11.584776l0 -9.3125l3.203125 0q1.09375 0 1.65625 0.140625q0.8125 0.1875 1.375 0.671875q0.734375 0.609375 1.09375 1.5781248q0.375 0.96875 0.375 2.21875q0 1.0625 -0.25 1.890625q-0.25 0.8125 -0.640625 1.34375q-0.390625 0.53125 -0.859375 0.84375q-0.453125 0.3125 -1.109375 0.46875q-0.640625 0.15625 -1.484375 0.15625l-3.359375 0zm1.234375 -1.09375l1.984375 0q0.921875 0 1.4375 -0.171875q0.53125 -0.171875 0.84375 -0.484375q0.4375 -0.4375 0.671875 -1.171875q0.25 -0.75 0.25 -1.796875q0 -1.46875 -0.484375 -2.25q-0.46875 -0.78124976 -1.15625 -1.0468748q-0.5 -0.1875 -1.59375 -0.1875l-1.953125 0l0 7.109375zm14.265778 -4.375l-6.15625 0l0 -1.0625l6.15625 0l0 1.0625zm0 2.828125l-6.15625 0l0 -1.078125l6.15625 0l0 1.078125z" fill-rule="nonzero"></path><path fill="#000000" d="m194.19565 4.881651l0.796875 -0.109375q0.140625 0.671875 0.453125 0.96875q0.328125 0.296875 0.8125 0.296875q0.546875 0 0.921875 -0.375q0.390625 -0.390625 0.390625 -0.96875q0 -0.546875 -0.359375 -0.89062476q-0.34375 -0.359375 -0.890625 -0.359375q-0.234375 0 -0.5625 0.09375l0.09375 -0.703125q0.078125 0.015625 0.125 0.015625q0.5 0 0.90625 -0.265625q0.40625 -0.265625 0.40625 -0.8125q0 -0.4375 -0.296875 -0.71875q-0.296875 -0.28125 -0.765625 -0.28125q-0.453125 0 -0.765625 0.296875q-0.296875 0.28125 -0.390625 0.859375l-0.796875 -0.140625q0.15625 -0.796875 0.65625 -1.234375q0.515625 -0.43750003 1.28125 -0.43750003q0.53125 0 0.96875 0.234375q0.453125 0.21875003 0.6875 0.609375q0.234375 0.390625 0.234375 0.828125q0 0.421875 -0.234375 0.765625q-0.21875 0.34375 -0.65625 0.546875q0.578125 0.125 0.890625 0.546875q0.3125 0.40624976 0.3125 1.0312498q0 0.84375 -0.625 1.4375q-0.609375 0.578125 -1.546875 0.578125q-0.84375 0 -1.40625 -0.5q-0.5625 -0.5 -0.640625 -1.3125z" fill-rule="nonzero"></path><path fill="#000000" d="m205.4283 -0.27459887l0.46875 0l-1.984375 12.359375l-3.15625 -6.484375l-1.25 0.578125l-0.21875 -0.40625l1.90625 -0.953125l2.578125 5.21875l1.65625 -10.3125zm1.6585999 11.859375l0 -9.3125l4.125 0q1.25 0 1.890625 0.265625q0.65625 0.25 1.046875 0.890625q0.390625 0.62499976 0.390625 1.3906248q0 0.984375 -0.65625 1.671875q-0.640625 0.671875 -1.96875 0.859375q0.484375 0.234375 0.734375 0.46875q0.546875 0.484375 1.03125 1.234375l1.609375 2.53125l-1.546875 0l-1.234375 -1.9375q-0.53125 -0.84375 -0.890625 -1.28125q-0.34375 -0.4375 -0.625 -0.609375q-0.265625 -0.1875 -0.546875 -0.265625q-0.21875 -0.03125 -0.6875 -0.03125l-1.4375 0l0 4.125l-1.234375 0zm1.234375 -5.203125l2.65625 0q0.84375 0 1.3125 -0.171875q0.484375 -0.171875 0.71875 -0.546875q0.25 -0.390625 0.25 -0.84375q0 -0.65625 -0.484375 -1.0781248q-0.46875 -0.4375 -1.5 -0.4375l-2.953125 0l0 3.0781248zm13.812515 5.203125l-2.5625 -6.734375l1.203125 0l1.4375 4.03125q0.234375 0.65625 0.4375 1.359375q0.15625 -0.53125 0.421875 -1.28125l1.5 -4.109375l1.171875 0l-2.546875 6.734375l-1.0625 0zm4.3671875 -3.375q0 -1.875 1.03125 -2.765625q0.875 -0.75 2.125 -0.75q1.390625 0 2.265625 0.90625q0.890625 0.90625 0.890625 2.515625q0 1.296875 -0.390625 2.046875q-0.390625 0.75 -1.140625 1.171875q-0.75 0.40625 -1.625 0.40625q-1.421875 0 -2.296875 -0.90625q-0.859375 -0.90625 -0.859375 -2.625zm1.171875 0q0 1.296875 0.5625 1.953125q0.5625 0.640625 1.421875 0.640625q0.84375 0 1.40625 -0.640625q0.578125 -0.65625 0.578125 -1.984375q0 -1.25 -0.578125 -1.890625q-0.5625 -0.65625 -1.40625 -0.65625q-0.859375 0 -1.421875 0.640625q-0.5625 0.640625 -0.5625 1.9375zm5.8968506 3.375l2.46875 -3.5l-2.28125 -3.234375l1.421875 0l1.046875 1.578125q0.28125 0.453125 0.46875 0.75q0.265625 -0.421875 0.5 -0.734375l1.140625 -1.59375l1.375 0l-2.34375 3.171875l2.515625 3.5625l-1.40625 0l-1.375 -2.09375l-0.375 -0.5625l-1.765625 2.65625l-1.390625 0zm12.0390625 -2.171875l1.1875 0.140625q-0.28125 1.046875 -1.046875 1.625q-0.75 0.5625 -1.921875 0.5625q-1.484375 0 -2.359375 -0.90625q-0.859375 -0.921875 -0.859375 -2.5625q0 -1.703125 0.875 -2.640625q0.890625 -0.9375 2.28125 -0.9375q1.359375 0 2.203125 0.921875q0.859375 0.921875 0.859375 2.578125q0 0.109375 0 0.3125l-5.03125 0q0.0625 1.109375 0.625 1.703125q0.5625 0.59375 1.40625 0.59375q0.640625 0 1.078125 -0.328125q0.453125 -0.34375 0.703125 -1.0625zm-3.75 -1.84375l3.765625 0q-0.078125 -0.859375 -0.4375 -1.28125q-0.546875 -0.65625 -1.40625 -0.65625q-0.796875 0 -1.328125 0.53125q-0.53125 0.515625 -0.59375 1.40625zm6.5218506 4.015625l0 -9.3125l1.140625 0l0 9.3125l-1.140625 0zm2.539215 -2.015625l1.125 -0.171875q0.09375 0.671875 0.53125 1.046875q0.4375 0.359375 1.21875 0.359375q0.78125 0 1.15625 -0.3125q0.390625 -0.328125 0.390625 -0.765625q0 -0.390625 -0.34375 -0.609375q-0.234375 -0.15625 -1.171875 -0.390625q-1.25 -0.3125 -1.734375 -0.546875q-0.484375 -0.234375 -0.734375 -0.640625q-0.25 -0.40625 -0.25 -0.90625q0 -0.453125 0.203125 -0.828125q0.203125 -0.390625 0.5625 -0.640625q0.265625 -0.203125 0.71875 -0.328125q0.46875 -0.140625 1.0 -0.140625q0.78125 0 1.375 0.234375q0.609375 0.21875 0.890625 0.609375q0.296875 0.390625 0.40625 1.046875l-1.125 0.15625q-0.078125 -0.53125 -0.4375 -0.8125q-0.359375 -0.296875 -1.03125 -0.296875q-0.78125 0 -1.125 0.265625q-0.34375 0.25 -0.34375 0.609375q0 0.21875 0.140625 0.390625q0.140625 0.1875 0.4375 0.3125q0.171875 0.0625 1.015625 0.28125q1.21875 0.328125 1.6875 0.53125q0.484375 0.203125 0.75 0.609375q0.28125 0.390625 0.28125 0.96875q0 0.578125 -0.34375 1.078125q-0.328125 0.5 -0.953125 0.78125q-0.625 0.28125 -1.421875 0.28125q-1.3125 0 -2.0 -0.546875q-0.6875 -0.546875 -0.875 -1.625z" fill-rule="nonzero"></path><path fill="#000000" fill-opacity="0.0" d="m117.603676 19.66929l-56.188976 54.992126" fill-rule="evenodd"></path><path stroke="#000000" stroke-width="1.0" stroke-linejoin="round" stroke-linecap="butt" d="m115.15441 22.066381l-51.290455 50.197945" fill-rule="evenodd"></path><path fill="#000000" stroke="#000000" stroke-width="1.0" stroke-linecap="butt" d="m115.15441 22.066381l-0.017120361 1.5903091l1.4215927 -2.9648647l-2.9947815 1.3574371z" fill-rule="evenodd"></path><path fill="#000000" stroke="#000000" stroke-width="1.0" stroke-linecap="butt" d="m63.86396 72.26433l0.017116547 -1.5903091l-1.4215889 2.9648666l2.9947815 -1.3574371z" fill-rule="evenodd"></path><path fill="#000000" fill-opacity="0.0" d="m18.87664 16.745407l81.07087 0l0 26.960629l-81.07087 0z" fill-rule="evenodd"></path><path fill="#000000" d="m28.25164 31.842281l0.796875 -0.109375q0.140625 0.671875 0.453125 0.96875q0.328125 0.296875 0.8125 0.296875q0.546875 0 0.921875 -0.375q0.390625 -0.390625 0.390625 -0.96875q0 -0.546875 -0.359375 -0.890625q-0.34375 -0.359375 -0.890625 -0.359375q-0.234375 0 -0.5625 0.09375l0.09375 -0.703125q0.078125 0.015625 0.125 0.015625q0.5 0 0.90625 -0.265625q0.40625 -0.265625 0.40625 -0.8125q0 -0.4375 -0.296875 -0.71875q-0.296875 -0.28125 -0.765625 -0.28125q-0.453125 0 -0.765625 0.296875q-0.296875 0.28125 -0.390625 0.859375l-0.796875 -0.140625q0.15625 -0.796875 0.65625 -1.234375q0.515625 -0.4375 1.28125 -0.4375q0.53125 0 0.96875 0.234375q0.453125 0.21875 0.6875 0.609375q0.234375 0.390625 0.234375 0.828125q0 0.421875 -0.234375 0.765625q-0.21875 0.34375 -0.65625 0.546875q0.578125 0.125 0.890625 0.546875q0.3125 0.40625 0.3125 1.03125q0 0.84375 -0.625 1.4375q-0.609375 0.578125 -1.546875 0.578125q-0.84375 0 -1.40625 -0.5q-0.5625 -0.5 -0.640625 -1.3125z" fill-rule="nonzero"></path><path fill="#000000" d="m39.48429 26.686031l0.46875 0l-1.984375 12.359375l-3.15625 -6.484375l-1.25 0.578125l-0.21875 -0.40625l1.90625 -0.953125l2.578125 5.21875l1.65625 -10.3125zm1.5023499 11.859375l0 -6.734375l1.03125 0l0 0.953125q0.734375 -1.109375 2.140625 -1.109375q0.609375 0 1.109375 0.21875q0.515625 0.21875 0.765625 0.578125q0.265625 0.34375 0.359375 0.84375q0.0625 0.3125 0.0625 1.109375l0 4.140625l-1.140625 0l0 -4.09375q0 -0.703125 -0.140625 -1.046875q-0.125 -0.34375 -0.46875 -0.546875q-0.328125 -0.21875 -0.78125 -0.21875q-0.734375 0 -1.265625 0.46875q-0.53125 0.453125 -0.53125 1.75l0 3.6875l-1.140625 0zm12.162338 0l-1.0625 0l0 -9.3125l1.15625 0l0 3.328125q0.71875 -0.90625 1.84375 -0.90625q0.625 0 1.171875 0.25q0.5625 0.25 0.921875 0.703125q0.359375 0.453125 0.5625 1.09375q0.203125 0.640625 0.203125 1.375q0 1.734375 -0.859375 2.6875q-0.859375 0.9375 -2.0625 0.9375q-1.1875 0 -1.875 -1.0l0 0.84375zm-0.015625 -3.421875q0 1.21875 0.34375 1.75q0.53125 0.890625 1.453125 0.890625q0.75 0 1.296875 -0.65625q0.546875 -0.65625 0.546875 -1.9375q0 -1.328125 -0.53125 -1.953125q-0.515625 -0.625 -1.265625 -0.625q-0.75 0 -1.296875 0.65625q-0.546875 0.640625 -0.546875 1.875zm6.3499756 3.421875l0 -9.3125l1.140625 0l0 9.3125l-1.140625 0zm2.570465 -3.375q0 -1.875 1.03125 -2.765625q0.875 -0.75 2.125 -0.75q1.390625 0 2.265625 0.90625q0.890625 0.90625 0.890625 2.515625q0 1.296875 -0.390625 2.046875q-0.390625 0.75 -1.140625 1.171875q-0.75 0.40625 -1.625 0.40625q-1.421875 0 -2.296875 -0.90625q-0.859375 -0.90625 -0.859375 -2.625zm1.171875 0q0 1.296875 0.5625 1.953125q0.5625 0.640625 1.421875 0.640625q0.84375 0 1.40625 -0.640625q0.578125 -0.65625 0.578125 -1.984375q0 -1.25 -0.578125 -1.890625q-0.5625 -0.65625 -1.40625 -0.65625q-0.859375 0 -1.421875 0.640625q-0.5625 0.640625 -0.5625 1.9375zm11.053101 0.90625l1.125 0.140625q-0.171875 1.171875 -0.9375 1.828125q-0.765625 0.65625 -1.859375 0.65625q-1.390625 0 -2.234375 -0.90625q-0.828125 -0.90625 -0.828125 -2.59375q0 -1.09375 0.359375 -1.90625q0.359375 -0.828125 1.09375 -1.234375q0.734375 -0.40625 1.609375 -0.40625q1.09375 0 1.796875 0.5625q0.703125 0.546875 0.890625 1.5625l-1.109375 0.171875q-0.15625 -0.671875 -0.5625 -1.015625q-0.390625 -0.34375 -0.96875 -0.34375q-0.859375 0 -1.40625 0.625q-0.53125 0.609375 -0.53125 1.953125q0 1.359375 0.515625 1.984375q0.515625 0.609375 1.359375 0.609375q0.671875 0 1.125 -0.40625q0.453125 -0.421875 0.5625 -1.28125zm2.2734375 2.46875l0 -9.3125l1.140625 0l0 5.3125l2.703125 -2.734375l1.484375 0l-2.578125 2.5l2.84375 4.234375l-1.40625 0l-2.234375 -3.453125l-0.8125 0.78125l0 2.671875l-1.140625 0zm6.2109375 -2.015625l1.125 -0.171875q0.09375 0.671875 0.53125 1.046875q0.4375 0.359375 1.21875 0.359375q0.78125 0 1.15625 -0.3125q0.390625 -0.328125 0.390625 -0.765625q0 -0.390625 -0.34375 -0.609375q-0.234375 -0.15625 -1.171875 -0.390625q-1.25 -0.3125 -1.734375 -0.546875q-0.484375 -0.234375 -0.734375 -0.640625q-0.25 -0.40625 -0.25 -0.90625q0 -0.453125 0.203125 -0.828125q0.203125 -0.390625 0.5625 -0.640625q0.265625 -0.203125 0.71875 -0.328125q0.46875 -0.140625 1.0 -0.140625q0.78125 0 1.375 0.234375q0.609375 0.21875 0.890625 0.609375q0.296875 0.390625 0.40625 1.046875l-1.125 0.15625q-0.078125 -0.53125 -0.4375 -0.8125q-0.359375 -0.296875 -1.03125 -0.296875q-0.78125 0 -1.125 0.265625q-0.34375 0.25 -0.34375 0.609375q0 0.21875 0.140625 0.390625q0.140625 0.1875 0.4375 0.3125q0.171875 0.0625 1.015625 0.28125q1.21875 0.328125 1.6875 0.53125q0.484375 0.203125 0.75 0.609375q0.28125 0.390625 0.28125 0.96875q0 0.578125 -0.34375 1.078125q-0.328125 0.5 -0.953125 0.78125q-0.625 0.28125 -1.421875 0.28125q-1.3125 0 -2.0 -0.546875q-0.6875 -0.546875 -0.875 -1.625z" fill-rule="nonzero"></path><path fill="#000000" fill-opacity="0.0" d="m130.85564 15.254593l175.4016 0" fill-rule="evenodd"></path><path stroke="#000000" stroke-width="1.0" stroke-linejoin="round" stroke-linecap="butt" d="m134.28273 15.254593l168.54741 0" fill-rule="evenodd"></path><path fill="#000000" stroke="#000000" stroke-width="1.0" stroke-linecap="butt" d="m134.28273 15.254593l1.124588 -1.1245832l-3.0897675 1.1245832l3.0897675 1.1245842z" fill-rule="evenodd"></path><path fill="#000000" stroke="#000000" stroke-width="1.0" stroke-linecap="butt" d="m302.83014 15.254593l-1.1246033 1.1245842l3.0897827 -1.1245842l-3.0897827 -1.1245832z" fill-rule="evenodd"></path><path fill="#000000" fill-opacity="0.0" d="m-9.706037 83.16798l81.07087 0l0 26.960632l-81.07087 0z" fill-rule="evenodd"></path><path fill="#000000" d="m4.5283384 104.96798l0 -0.84375q-0.64062524 1.0 -1.8906252 1.0q-0.7968749 0 -1.4843749 -0.4375q-0.67187506 -0.453125 -1.046875 -1.25q-0.375 -0.796875 -0.375 -1.828125q0 -1.015625 0.34375 -1.828125q0.34375 -0.828125 1.015625 -1.265625q0.671875 -0.4375 1.4999999 -0.4375q0.609375 0 1.078125 0.265625q0.48437524 0.25 0.78125024 0.65625l0 -3.34375l1.140625 0l0 9.3125l-1.0625 0zm-3.6093752 -3.359375q0 1.296875 0.53125006 1.9375q0.546875 0.640625 1.2968749 0.640625q0.75 0 1.2656252 -0.609375q0.53125 -0.625 0.53125 -1.875q0 -1.390625 -0.53125 -2.03125q-0.53125024 -0.65625 -1.3125002 -0.65625q-0.7656249 0 -1.2812499 0.625q-0.50000006 0.625 -0.50000006 1.96875zm12.662476 -2.109375l-6.15625 0l0 -1.0625l6.15625 0l0 1.0625zm0 2.828125l-6.15625 0l0 -1.078125l6.15625 0l0 1.078125z" fill-rule="nonzero"></path><path fill="#000000" d="m14.864856 98.264854l0.796875 -0.109375q0.140625 0.671875 0.45312405 0.96875q0.328125 0.296875 0.8125 0.296875q0.546875 0 0.921875 -0.375q0.390625 -0.390625 0.390625 -0.96875q0 -0.546875 -0.359375 -0.890625q-0.34375 -0.359375 -0.890625 -0.359375q-0.234375 0 -0.5625 0.09375l0.09375 -0.703125q0.078125 0.015625 0.125 0.015625q0.5 0 0.90625 -0.265625q0.40625 -0.265625 0.40625 -0.8125q0 -0.4375 -0.296875 -0.71875q-0.296875 -0.28125 -0.765625 -0.28125q-0.453125 0 -0.765625 0.296875q-0.29687405 0.28125 -0.39062405 0.859375l-0.796875 -0.140625q0.15625 -0.796875 0.65625 -1.234375q0.51562405 -0.4375 1.281249 -0.4375q0.53125 0 0.96875 0.234375q0.453125 0.21875 0.6875 0.609375q0.234375 0.390625 0.234375 0.828125q0 0.421875 -0.234375 0.765625q-0.21875 0.34375 -0.65625 0.546875q0.578125 0.125 0.890625 0.546875q0.3125 0.40625 0.3125 1.03125q0 0.84375 -0.625 1.4375q-0.609375 0.578125 -1.546875 0.578125q-0.84375 0 -1.406249 -0.5q-0.5625 -0.5 -0.640625 -1.3125z" fill-rule="nonzero"></path><path fill="#000000" d="m26.097506 93.108604l0.46875 0l-1.984375 12.359375l-3.15625 -6.484375l-1.25 0.578125l-0.21875 -0.40625l1.90625 -0.953125l2.578125 5.21875l1.65625 -10.3125zm3.6898499 14.59375q-0.953125 -1.1875 -1.609375 -2.78125q-0.65625 -1.609375 -0.65625 -3.328125q0 -1.5 0.5 -2.890625q0.5625 -1.609375 1.765625 -3.203125l0.8125 0q-0.765625 1.328125 -1.015625 1.890625q-0.390625 0.875 -0.609375 1.828125q-0.265625 1.1875 -0.265625 2.390625q0 3.046875 1.890625 6.09375l-0.8125 0zm2.4071217 -2.734375l0 -9.3125l4.125 0q1.25 0 1.890625 0.265625q0.65625 0.25 1.046875 0.890625q0.390625 0.625 0.390625 1.390625q0 0.984375 -0.65625 1.671875q-0.640625 0.671875 -1.96875 0.859375q0.484375 0.234375 0.734375 0.46875q0.546875 0.484375 1.03125 1.234375l1.609375 2.53125l-1.546875 0l-1.234375 -1.9375q-0.53125 -0.84375 -0.890625 -1.28125q-0.34375 -0.4375 -0.625 -0.609375q-0.265625 -0.1875 -0.546875 -0.265625q-0.21875 -0.03125 -0.6875 -0.03125l-1.4375 0l0 4.125l-1.234375 0zm1.234375 -5.203125l2.65625 0q0.84375 0 1.3125 -0.171875q0.484375 -0.171875 0.71875 -0.546875q0.25 -0.390625 0.25 -0.84375q0 -0.65625 -0.484375 -1.078125q-0.46875 -0.4375 -1.5 -0.4375l-2.953125 0l0 3.078125zm7.3751526 5.359375l2.703125 -9.625l0.90625 0l-2.6875 9.625l-0.921875 0zm4.5623627 -0.15625l0 -6.734375l1.03125 0l0 0.953125q0.734375 -1.109375 2.140625 -1.109375q0.609375 0 1.109375 0.21875q0.515625 0.21875 0.765625 0.578125q0.265625 0.34375 0.359375 0.84375q0.0625 0.3125 0.0625 1.109375l0 4.140625l-1.140625 0l0 -4.09375q0 -0.703125 -0.140625 -1.046875q-0.125 -0.34375 -0.46875 -0.546875q-0.328125 -0.21875 -0.78125 -0.21875q-0.734375 0 -1.265625 0.46875q-0.53125 0.453125 -0.53125 1.75l0 3.6875l-1.140625 0zm8.162476 2.734375l-0.828125 0q1.90625 -3.046875 1.90625 -6.09375q0 -1.203125 -0.28125 -2.375q-0.203125 -0.953125 -0.59375 -1.828125q-0.25 -0.5625 -1.03125 -1.90625l0.828125 0q1.1875 1.59375 1.765625 3.203125q0.484375 1.390625 0.484375 2.890625q0 1.71875 -0.65625 3.328125q-0.65625 1.59375 -1.59375 2.78125z" fill-rule="nonzero"></path></g></svg>

