<?xml version="1.0" standalone="yes"?>

<svg version="1.1" viewBox="0.0 0.0 309.3307086614173 256.09448818897636" fill="none" stroke="none" stroke-linecap="square" stroke-miterlimit="10" xmlns="http://www.w3.org/2000/svg" xmlns:xlink="http://www.w3.org/1999/xlink"><clipPath id="p.0"><path d="m0 0l309.33072 0l0 256.09448l-309.33072 0l0 -256.09448z" clip-rule="nonzero"></path></clipPath><g clip-path="url(#p.0)"><path fill="#000000" fill-opacity="0.0" d="m0 0l309.33072 0l0 256.09448l-309.33072 0z" fill-rule="evenodd"></path><path fill="#4a86e8" d="m117.05249 61.14173l43.86615 0l0 43.866142l-43.86615 0z" fill-rule="evenodd"></path><path fill="#3b6bb9" d="m160.91864 61.14173l14.62204 -14.622047l0 43.866142l-14.62204 14.622047z" fill-rule="evenodd"></path><path fill="#6e9eec" d="m117.05249 61.14173l14.622055 -14.622047l43.866135 0l-14.62204 14.622047z" fill-rule="evenodd"></path><path fill="#000000" fill-opacity="0.0" d="m117.05249 61.14173l14.622055 -14.622047l43.866135 0l0 43.866142l-14.62204 14.622047l-43.86615 0zm0 0l43.86615 0l14.62204 -14.622047m-14.62204 14.622047l0 43.866142" fill-rule="evenodd"></path><path stroke="#000000" stroke-width="1.0" stroke-linejoin="round" stroke-linecap="butt" d="m117.05249 61.14173l14.622055 -14.622047l43.866135 0l0 43.866142l-14.62204 14.622047l-43.86615 0zm0 0l43.86615 0l14.62204 -14.622047m-14.62204 14.622047l0 43.866142" fill-rule="evenodd"></path><path fill="#d9ead3" d="m102.46457 75.72966l43.866135 0l0 43.866142l-43.866135 0z" fill-rule="evenodd"></path><path fill="#adbba8" d="m146.3307 75.72966l14.622055 -14.622047l0 43.866142l-14.622055 14.622047z" fill-rule="evenodd"></path><path fill="#e0eedb" d="m102.46457 75.72966l14.622047 -14.622047l43.866142 0l-14.622055 14.622047z" fill-rule="evenodd"></path><path fill="#000000" fill-opacity="0.0" d="m102.46457 75.72966l14.622047 -14.622047l43.866142 0l0 43.866142l-14.622055 14.622047l-43.866135 0zm0 0l43.866135 0l14.622055 -14.622047m-14.622055 14.622047l0 43.866142" fill-rule="evenodd"></path><path stroke="#000000" stroke-width="1.0" stroke-linejoin="round" stroke-linecap="butt" d="m102.46457 75.72966l14.622047 -14.622047l43.866142 0l0 43.866142l-14.622055 14.622047l-43.866135 0zm0 0l43.866135 0l14.622055 -14.622047m-14.622055 14.622047l0 43.866142" fill-rule="evenodd"></path><path fill="#d9ead3" d="m88.27821 90.03937l43.86615 0l0 43.86615l-43.86615 0z" fill-rule="evenodd"></path><path fill="#adbba8" d="m132.14436 90.03937l14.62204 -14.622047l0 43.866142l-14.62204 14.622055z" fill-rule="evenodd"></path><path fill="#e0eedb" d="m88.27821 90.03937l14.622047 -14.622047l43.866142 0l-14.62204 14.622047z" fill-rule="evenodd"></path><path fill="#000000" fill-opacity="0.0" d="m88.27821 90.03937l14.622047 -14.622047l43.866142 0l0 43.866142l-14.62204 14.622055l-43.86615 0zm0 0l43.86615 0l14.62204 -14.622047m-14.62204 14.622047l0 43.86615" fill-rule="evenodd"></path><path stroke="#000000" stroke-width="1.0" stroke-linejoin="round" stroke-linecap="butt" d="m88.27821 90.03937l14.622047 -14.622047l43.866142 0l0 43.866142l-14.62204 14.622055l-43.86615 0zm0 0l43.86615 0l14.62204 -14.622047m-14.62204 14.622047l0 43.86615" fill-rule="evenodd"></path><path fill="#d9ead3" d="m73.52493 104.62992l43.866142 0l0 43.866142l-43.866142 0z" fill-rule="evenodd"></path><path fill="#adbba8" d="m117.391075 104.62992l14.622047 -14.622047l0 43.866135l-14.622047 14.622055z" fill-rule="evenodd"></path><path fill="#e0eedb" d="m73.52493 104.62992l14.622047 -14.622047l43.866142 0l-14.622047 14.622047z" fill-rule="evenodd"></path><path fill="#000000" fill-opacity="0.0" d="m73.52493 104.62992l14.622047 -14.622047l43.866142 0l0 43.866135l-14.622047 14.622055l-43.866142 0zm0 0l43.866142 0l14.622047 -14.622047m-14.622047 14.622047l0 43.866142" fill-rule="evenodd"></path><path stroke="#000000" stroke-width="1.0" stroke-linejoin="round" stroke-linecap="butt" d="m73.52493 104.62992l14.622047 -14.622047l43.866142 0l0 43.866135l-14.622047 14.622055l-43.866142 0zm0 0l43.866142 0l14.622047 -14.622047m-14.622047 14.622047l0 43.866142" fill-rule="evenodd"></path><path fill="#ff0000" d="m160.98163 61.14173l43.866135 0l0 43.866142l-43.866135 0z" fill-rule="evenodd"></path><path fill="#cb0000" d="m204.84776 61.14173l14.622055 -14.622047l0 43.866142l-14.622055 14.622047z" fill-rule="evenodd"></path><path fill="#ff3333" d="m160.98163 61.14173l14.62204 -14.622047l43.86615 0l-14.622055 14.622047z" fill-rule="evenodd"></path><path fill="#000000" fill-opacity="0.0" d="m160.98163 61.14173l14.62204 -14.622047l43.86615 0l0 43.866142l-14.622055 14.622047l-43.866135 0zm0 0l43.866135 0l14.622055 -14.622047m-14.622055 14.622047l0 43.866142" fill-rule="evenodd"></path><path stroke="#000000" stroke-width="1.0" stroke-linejoin="round" stroke-linecap="butt" d="m160.98163 61.14173l14.62204 -14.622047l43.86615 0l0 43.866142l-14.622055 14.622047l-43.866135 0zm0 0l43.866135 0l14.622055 -14.622047m-14.622055 14.622047l0 43.866142" fill-rule="evenodd"></path><path fill="#d9ead3" d="m146.3937 75.72966l43.866135 0l0 43.866142l-43.866135 0z" fill-rule="evenodd"></path><path fill="#adbba8" d="m190.25984 75.72966l14.622055 -14.622047l0 43.866142l-14.622055 14.622047z" fill-rule="evenodd"></path><path fill="#e0eedb" d="m146.3937 75.72966l14.62204 -14.622047l43.86615 0l-14.622055 14.622047z" fill-rule="evenodd"></path><path fill="#000000" fill-opacity="0.0" d="m146.3937 75.72966l14.62204 -14.622047l43.86615 0l0 43.866142l-14.622055 14.622047l-43.866135 0zm0 0l43.866135 0l14.622055 -14.622047m-14.622055 14.622047l0 43.866142" fill-rule="evenodd"></path><path stroke="#000000" stroke-width="1.0" stroke-linejoin="round" stroke-linecap="butt" d="m146.3937 75.72966l14.62204 -14.622047l43.86615 0l0 43.866142l-14.622055 14.622047l-43.866135 0zm0 0l43.866135 0l14.622055 -14.622047m-14.622055 14.622047l0 43.866142" fill-rule="evenodd"></path><path fill="#d9ead3" d="m132.20735 90.03937l43.866135 0l0 43.86615l-43.866135 0z" fill-rule="evenodd"></path><path fill="#adbba8" d="m176.07349 90.03937l14.622055 -14.622047l0 43.866142l-14.622055 14.622055z" fill-rule="evenodd"></path><path fill="#e0eedb" d="m132.20735 90.03937l14.62204 -14.622047l43.86615 0l-14.622055 14.622047z" fill-rule="evenodd"></path><path fill="#000000" fill-opacity="0.0" d="m132.20735 90.03937l14.62204 -14.622047l43.86615 0l0 43.866142l-14.622055 14.622055l-43.866135 0zm0 0l43.866135 0l14.622055 -14.622047m-14.622055 14.622047l0 43.86615" fill-rule="evenodd"></path><path stroke="#000000" stroke-width="1.0" stroke-linejoin="round" stroke-linecap="butt" d="m132.20735 90.03937l14.62204 -14.622047l43.86615 0l0 43.866142l-14.622055 14.622055l-43.866135 0zm0 0l43.866135 0l14.622055 -14.622047m-14.622055 14.622047l0 43.86615" fill-rule="evenodd"></path><path fill="#9900ff" d="m189.92126 32.240158l43.866135 0l0 43.866142l-43.866135 0z" fill-rule="evenodd"></path><path fill="#7a00cb" d="m233.7874 32.240158l14.622055 -14.622047l0 43.866142l-14.622055 14.622047z" fill-rule="evenodd"></path><path fill="#ad33ff" d="m189.92126 32.240158l14.62204 -14.622047l43.86615 0l-14.622055 14.622047z" fill-rule="evenodd"></path><path fill="#000000" fill-opacity="0.0" d="m189.92126 32.240158l14.62204 -14.622047l43.86615 0l0 43.866142l-14.622055 14.622047l-43.866135 0zm0 0l43.866135 0l14.622055 -14.622047m-14.622055 14.622047l0 43.866142" fill-rule="evenodd"></path><path stroke="#000000" stroke-width="1.0" stroke-linejoin="round" stroke-linecap="butt" d="m189.92126 32.240158l14.62204 -14.622047l43.86615 0l0 43.866142l-14.622055 14.622047l-43.866135 0zm0 0l43.866135 0l14.622055 -14.622047m-14.622055 14.622047l0 43.866142" fill-rule="evenodd"></path><path fill="#d9ead3" d="m175.73491 46.54987l43.866135 0l0 43.86614l-43.866135 0z" fill-rule="evenodd"></path><path fill="#adbba8" d="m219.60104 46.54987l14.622055 -14.622047l0 43.86614l-14.622055 14.622047z" fill-rule="evenodd"></path><path fill="#e0eedb" d="m175.73491 46.54987l14.62204 -14.622047l43.86615 0l-14.622055 14.622047z" fill-rule="evenodd"></path><path fill="#000000" fill-opacity="0.0" d="m175.73491 46.54987l14.62204 -14.622047l43.86615 0l0 43.86614l-14.622055 14.622047l-43.866135 0zm0 0l43.866135 0l14.622055 -14.622047m-14.622055 14.622047l0 43.86614" fill-rule="evenodd"></path><path stroke="#000000" stroke-width="1.0" stroke-linejoin="round" stroke-linecap="butt" d="m175.73491 46.54987l14.62204 -14.622047l43.86615 0l0 43.86614l-14.622055 14.622047l-43.866135 0zm0 0l43.866135 0l14.622055 -14.622047m-14.622055 14.622047l0 43.86614" fill-rule="evenodd"></path><path fill="#000000" fill-opacity="0.0" d="m160.98163 61.14042l43.866135 0l0 43.866142l-43.866135 0z" fill-rule="evenodd"></path><path fill="#000000" fill-opacity="0.0" d="m204.84776 61.14042l14.622055 -14.622047l0 43.866142l-14.622055 14.622047z" fill-rule="evenodd"></path><path fill="#000000" fill-opacity="0.0" d="m160.98163 61.14042l14.62204 -14.622047l43.86615 0l-14.622055 14.622047z" fill-rule="evenodd"></path><path fill="#000000" fill-opacity="0.0" d="m160.98163 61.14042l14.62204 -14.622047l43.86615 0l0 43.866142l-14.622055 14.622047l-43.866135 0zm0 0l43.866135 0l14.622055 -14.622047m-14.622055 14.622047l0 43.866142" fill-rule="evenodd"></path><path fill="#000000" fill-opacity="0.2" d="m204.84776 61.14042l14.622055 -14.622047l0 43.866142l-14.622055 14.622047z" fill-rule="evenodd"></path><path fill="#ffffff" fill-opacity="0.2" d="m160.98163 61.14042l14.62204 -14.622047l43.86615 0l-14.622055 14.622047z" fill-rule="evenodd"></path><path stroke="#000000" stroke-width="1.0" stroke-linejoin="round" stroke-linecap="butt" d="m160.98163 61.14042l14.62204 -14.622047l43.86615 0l0 43.866142l-14.622055 14.622047l-43.866135 0zm0 0l43.866135 0l14.622055 -14.622047m-14.622055 14.622047l0 43.866142" fill-rule="evenodd"></path><path fill="#d9ead3" d="m248.43832 17.652231l43.86615 0l0 43.866142l-43.86615 0z" fill-rule="evenodd"></path><path fill="#adbba8" d="m292.30447 17.652231l14.62204 -14.622047l0 43.866142l-14.62204 14.622047z" fill-rule="evenodd"></path><path fill="#e0eedb" d="m248.43832 17.652231l14.62204 -14.622047l43.86615 0l-14.62204 14.622047z" fill-rule="evenodd"></path><path fill="#000000" fill-opacity="0.0" d="m248.43832 17.652231l14.62204 -14.622047l43.86615 0l0 43.866142l-14.62204 14.622047l-43.86615 0zm0 0l43.86615 0l14.62204 -14.622047m-14.62204 14.622047l0 43.866142" fill-rule="evenodd"></path><path stroke="#000000" stroke-width="1.0" stroke-linejoin="round" stroke-linecap="butt" d="m248.43832 17.652231l14.62204 -14.622047l43.86615 0l0 43.866142l-14.62204 14.622047l-43.86615 0zm0 0l43.86615 0l14.62204 -14.622047m-14.62204 14.622047l0 43.866142" fill-rule="evenodd"></path><path fill="#d9ead3" d="m233.85039 32.240158l43.866135 0l0 43.866142l-43.866135 0z" fill-rule="evenodd"></path><path fill="#adbba8" d="m277.71652 32.240158l14.62207 -14.622047l0 43.866142l-14.62207 14.622047z" fill-rule="evenodd"></path><path fill="#e0eedb" d="m233.85039 32.240158l14.622055 -14.622047l43.86615 0l-14.62207 14.622047z" fill-rule="evenodd"></path><path fill="#000000" fill-opacity="0.0" d="m233.85039 32.240158l14.622055 -14.622047l43.86615 0l0 43.866142l-14.62207 14.622047l-43.866135 0zm0 0l43.866135 0l14.62207 -14.622047m-14.62207 14.622047l0 43.866142" fill-rule="evenodd"></path><path stroke="#000000" stroke-width="1.0" stroke-linejoin="round" stroke-linecap="butt" d="m233.85039 32.240158l14.622055 -14.622047l43.86615 0l0 43.866142l-14.62207 14.622047l-43.866135 0zm0 0l43.866135 0l14.62207 -14.622047m-14.62207 14.622047l0 43.866142" fill-rule="evenodd"></path><path fill="#d9ead3" d="m219.66405 46.54987l43.866135 0l0 43.86614l-43.866135 0z" fill-rule="evenodd"></path><path fill="#adbba8" d="m263.53018 46.54987l14.62204 -14.622047l0 43.86614l-14.62204 14.622047z" fill-rule="evenodd"></path><path fill="#e0eedb" d="m219.66405 46.54987l14.62204 -14.622047l43.866135 0l-14.62204 14.622047z" fill-rule="evenodd"></path><path fill="#000000" fill-opacity="0.0" d="m219.66405 46.54987l14.62204 -14.622047l43.866135 0l0 43.86614l-14.62204 14.622047l-43.866135 0zm0 0l43.866135 0l14.62204 -14.622047m-14.62204 14.622047l0 43.86614" fill-rule="evenodd"></path><path stroke="#000000" stroke-width="1.0" stroke-linejoin="round" stroke-linecap="butt" d="m219.66405 46.54987l14.62204 -14.622047l43.866135 0l0 43.86614l-14.62204 14.622047l-43.866135 0zm0 0l43.866135 0l14.62204 -14.622047m-14.62204 14.622047l0 43.86614" fill-rule="evenodd"></path><path fill="#d9ead3" d="m204.91077 61.14042l43.866135 0l0 43.866142l-43.866135 0z" fill-rule="evenodd"></path><path fill="#adbba8" d="m248.7769 61.14042l14.622055 -14.622047l0 43.866142l-14.622055 14.622047z" fill-rule="evenodd"></path><path fill="#e0eedb" d="m204.91077 61.14042l14.62204 -14.622047l43.86615 0l-14.622055 14.622047z" fill-rule="evenodd"></path><path fill="#000000" fill-opacity="0.0" d="m204.91077 61.14042l14.62204 -14.622047l43.86615 0l0 43.866142l-14.622055 14.622047l-43.866135 0zm0 0l43.866135 0l14.622055 -14.622047m-14.622055 14.622047l0 43.866142" fill-rule="evenodd"></path><path stroke="#000000" stroke-width="1.0" stroke-linejoin="round" stroke-linecap="butt" d="m204.91077 61.14042l14.62204 -14.622047l43.86615 0l0 43.866142l-14.622055 14.622047l-43.866135 0zm0 0l43.866135 0l14.622055 -14.622047m-14.622055 14.622047l0 43.866142" fill-rule="evenodd"></path><path fill="#000000" fill-opacity="0.0" d="m-4.0131235 -2.007874l63.968502 0l0 26.960629l-63.968502 0z" fill-rule="evenodd"></path><path fill="#000000" d="m9.4243765 28.912125q-1.375 -1.75 -2.328125 -4.078125q-0.953125 -2.34375 -0.953125 -4.84375q0 -2.21875 0.703125 -4.234376q0.84375 -2.34375 2.578125 -4.671875l1.203125 0q-1.125 1.921875 -1.484375 2.75q-0.5625 1.28125 -0.890625 2.671876q-0.40625 1.734375 -0.40625 3.484375q0 4.46875 2.78125 8.921875l-1.203125 0zm2.681427 -15.812501l0 -1.609375l8.796876 0l0 1.296875q-1.296875 1.375 -2.578125 3.671876q-1.265625 2.296875 -1.96875 4.71875q-0.50000095 1.703125 -0.64062595 3.734375l-1.71875 0q0.03125 -1.609375 0.625 -3.875q0.609375 -2.28125 1.734376 -4.390625q1.140625 -2.109376 2.40625 -3.546876l-6.656251 0zm11.813218 15.812501l-1.1875 0q2.765625 -4.453125 2.765625 -8.921875q0 -1.734375 -0.390625 -3.453125q-0.328125 -1.390626 -0.890625 -2.671876q-0.359375 -0.84375 -1.484375 -2.78125l1.1875 0q1.75 2.328125 2.578125 4.671875q0.71875 2.015626 0.71875 4.234376q0 2.5 -0.96875 4.84375q-0.953125 2.328125 -2.328125 4.078125z" fill-rule="nonzero"></path><path fill="#000000" fill-opacity="0.0" d="m73.296585 61.49475l175.3937 0l0 192.77953l-175.3937 0z" fill-rule="evenodd"></path><path fill="#000000" fill-opacity="0.0" d="m248.69029 61.49475l58.464554 -58.46457l0 192.77953l-58.464554 58.46457z" fill-rule="evenodd"></path><path fill="#000000" fill-opacity="0.0" d="m73.296585 61.49475l58.46457 -58.46457l175.39369 0l-58.464554 58.46457z" fill-rule="evenodd"></path><path fill="#000000" fill-opacity="0.0" d="m73.296585 61.49475l58.46457 -58.46457l175.39369 0l0 192.77953l-58.464554 58.46457l-175.3937 0zm0 0l175.3937 0l58.464554 -58.46457m-58.464554 58.46457l0 192.77953" fill-rule="evenodd"></path><path fill="#000000" fill-opacity="0.2" d="m248.69029 61.49475l58.464554 -58.46457l0 192.77953l-58.464554 58.46457z" fill-rule="evenodd"></path><path fill="#ffffff" fill-opacity="0.2" d="m73.296585 61.49475l58.46457 -58.46457l175.39369 0l-58.464554 58.46457z" fill-rule="evenodd"></path><path stroke="#000000" stroke-width="1.0" stroke-linejoin="round" stroke-linecap="butt" d="m73.296585 61.49475l58.46457 -58.46457l175.39369 0l0 192.77953l-58.464554 58.46457l-175.3937 0zm0 0l175.3937 0l58.464554 -58.46457m-58.464554 58.46457l0 192.77953" fill-rule="evenodd"></path></g></svg>

