<?xml version="1.0" standalone="yes"?>

<svg version="1.1" viewBox="0.0 0.0 309.3307086614173 256.09448818897636" fill="none" stroke="none" stroke-linecap="square" stroke-miterlimit="10" xmlns="http://www.w3.org/2000/svg" xmlns:xlink="http://www.w3.org/1999/xlink"><clipPath id="p.0"><path d="m0 0l309.33072 0l0 256.09448l-309.33072 0l0 -256.09448z" clip-rule="nonzero"></path></clipPath><g clip-path="url(#p.0)"><path fill="#000000" fill-opacity="0.0" d="m0 0l309.33072 0l0 256.09448l-309.33072 0z" fill-rule="evenodd"></path><path fill="#00ff00" d="m116.509186 81.65223l43.86615 0l0 43.866142l-43.86615 0z" fill-rule="evenodd"></path><path fill="#00cb00" d="m160.37534 81.65223l14.62204 -14.622047l0 43.866142l-14.62204 14.622047z" fill-rule="evenodd"></path><path fill="#33ff33" d="m116.509186 81.65223l14.622055 -14.622047l43.866135 0l-14.62204 14.622047z" fill-rule="evenodd"></path><path fill="#000000" fill-opacity="0.0" d="m116.509186 81.65223l14.622055 -14.622047l43.866135 0l0 43.866142l-14.62204 14.622047l-43.86615 0zm0 0l43.86615 0l14.62204 -14.622047m-14.62204 14.622047l0 43.866142" fill-rule="evenodd"></path><path stroke="#000000" stroke-width="1.0" stroke-linejoin="round" stroke-linecap="butt" d="m116.509186 81.65223l14.622055 -14.622047l43.866135 0l0 43.866142l-14.62204 14.622047l-43.86615 0zm0 0l43.86615 0l14.62204 -14.622047m-14.62204 14.622047l0 43.866142" fill-rule="evenodd"></path><path fill="#d9ead3" d="m101.92126 96.24016l43.866142 0l0 43.866135l-43.866142 0z" fill-rule="evenodd"></path><path fill="#adbba8" d="m145.7874 96.24016l14.622055 -14.622047l0 43.866142l-14.622055 14.62204z" fill-rule="evenodd"></path><path fill="#e0eedb" d="m101.92126 96.24016l14.622047 -14.622047l43.86615 0l-14.622055 14.622047z" fill-rule="evenodd"></path><path fill="#000000" fill-opacity="0.0" d="m101.92126 96.24016l14.622047 -14.622047l43.86615 0l0 43.866142l-14.622055 14.62204l-43.866142 0zm0 0l43.866142 0l14.622055 -14.622047m-14.622055 14.622047l0 43.866135" fill-rule="evenodd"></path><path stroke="#000000" stroke-width="1.0" stroke-linejoin="round" stroke-linecap="butt" d="m101.92126 96.24016l14.622047 -14.622047l43.86615 0l0 43.866142l-14.622055 14.62204l-43.866142 0zm0 0l43.866142 0l14.622055 -14.622047m-14.622055 14.622047l0 43.866135" fill-rule="evenodd"></path><path fill="#d9ead3" d="m87.73491 110.549866l43.866135 0l0 43.86615l-43.866135 0z" fill-rule="evenodd"></path><path fill="#adbba8" d="m131.60104 110.549866l14.622055 -14.622047l0 43.866142l-14.622055 14.622055z" fill-rule="evenodd"></path><path fill="#e0eedb" d="m87.73491 110.549866l14.622047 -14.622047l43.866142 0l-14.622055 14.622047z" fill-rule="evenodd"></path><path fill="#000000" fill-opacity="0.0" d="m87.73491 110.549866l14.622047 -14.622047l43.866142 0l0 43.866142l-14.622055 14.622055l-43.866135 0zm0 0l43.866135 0l14.622055 -14.622047m-14.622055 14.622047l0 43.86615" fill-rule="evenodd"></path><path stroke="#000000" stroke-width="1.0" stroke-linejoin="round" stroke-linecap="butt" d="m87.73491 110.549866l14.622047 -14.622047l43.866142 0l0 43.866142l-14.622055 14.622055l-43.866135 0zm0 0l43.866135 0l14.622055 -14.622047m-14.622055 14.622047l0 43.86615" fill-rule="evenodd"></path><path fill="#d9ead3" d="m72.98163 125.14042l43.866142 0l0 43.866142l-43.866142 0z" fill-rule="evenodd"></path><path fill="#adbba8" d="m116.84777 125.14042l14.622047 -14.622047l0 43.86615l-14.622047 14.62204z" fill-rule="evenodd"></path><path fill="#e0eedb" d="m72.98163 125.14042l14.622047 -14.622047l43.866142 0l-14.622047 14.622047z" fill-rule="evenodd"></path><path fill="#000000" fill-opacity="0.0" d="m72.98163 125.14042l14.622047 -14.622047l43.866142 0l0 43.86615l-14.622047 14.62204l-43.866142 0zm0 0l43.866142 0l14.622047 -14.622047m-14.622047 14.622047l0 43.866142" fill-rule="evenodd"></path><path stroke="#000000" stroke-width="1.0" stroke-linejoin="round" stroke-linecap="butt" d="m72.98163 125.14042l14.622047 -14.622047l43.866142 0l0 43.86615l-14.622047 14.62204l-43.866142 0zm0 0l43.866142 0l14.622047 -14.622047m-14.622047 14.622047l0 43.866142" fill-rule="evenodd"></path><path fill="#d9ead3" d="m160.43832 81.65223l43.866135 0l0 43.866142l-43.866135 0z" fill-rule="evenodd"></path><path fill="#adbba8" d="m204.30446 81.65223l14.622055 -14.622047l0 43.866142l-14.622055 14.622047z" fill-rule="evenodd"></path><path fill="#e0eedb" d="m160.43832 81.65223l14.62204 -14.622047l43.86615 0l-14.622055 14.622047z" fill-rule="evenodd"></path><path fill="#000000" fill-opacity="0.0" d="m160.43832 81.65223l14.62204 -14.622047l43.86615 0l0 43.866142l-14.622055 14.622047l-43.866135 0zm0 0l43.866135 0l14.622055 -14.622047m-14.622055 14.622047l0 43.866142" fill-rule="evenodd"></path><path stroke="#000000" stroke-width="1.0" stroke-linejoin="round" stroke-linecap="butt" d="m160.43832 81.65223l14.62204 -14.622047l43.86615 0l0 43.866142l-14.622055 14.622047l-43.866135 0zm0 0l43.866135 0l14.622055 -14.622047m-14.622055 14.622047l0 43.866142" fill-rule="evenodd"></path><path fill="#d9ead3" d="m145.85039 96.24016l43.86615 0l0 43.866135l-43.86615 0z" fill-rule="evenodd"></path><path fill="#adbba8" d="m189.71654 96.24016l14.62204 -14.622047l0 43.866142l-14.62204 14.62204z" fill-rule="evenodd"></path><path fill="#e0eedb" d="m145.85039 96.24016l14.622055 -14.622047l43.866135 0l-14.62204 14.622047z" fill-rule="evenodd"></path><path fill="#000000" fill-opacity="0.0" d="m145.85039 96.24016l14.622055 -14.622047l43.866135 0l0 43.866142l-14.62204 14.62204l-43.86615 0zm0 0l43.86615 0l14.62204 -14.622047m-14.62204 14.622047l0 43.866135" fill-rule="evenodd"></path><path stroke="#000000" stroke-width="1.0" stroke-linejoin="round" stroke-linecap="butt" d="m145.85039 96.24016l14.622055 -14.622047l43.866135 0l0 43.866142l-14.62204 14.62204l-43.86615 0zm0 0l43.86615 0l14.62204 -14.622047m-14.62204 14.622047l0 43.866135" fill-rule="evenodd"></path><path fill="#d9ead3" d="m131.66405 110.549866l43.866135 0l0 43.86615l-43.866135 0z" fill-rule="evenodd"></path><path fill="#adbba8" d="m175.53018 110.549866l14.622055 -14.622047l0 43.866142l-14.622055 14.622055z" fill-rule="evenodd"></path><path fill="#e0eedb" d="m131.66405 110.549866l14.62204 -14.622047l43.86615 0l-14.622055 14.622047z" fill-rule="evenodd"></path><path fill="#000000" fill-opacity="0.0" d="m131.66405 110.549866l14.62204 -14.622047l43.86615 0l0 43.866142l-14.622055 14.622055l-43.866135 0zm0 0l43.866135 0l14.622055 -14.622047m-14.622055 14.622047l0 43.86615" fill-rule="evenodd"></path><path stroke="#000000" stroke-width="1.0" stroke-linejoin="round" stroke-linecap="butt" d="m131.66405 110.549866l14.62204 -14.622047l43.86615 0l0 43.866142l-14.622055 14.622055l-43.866135 0zm0 0l43.866135 0l14.622055 -14.622047m-14.622055 14.622047l0 43.86615" fill-rule="evenodd"></path><path fill="#d9ead3" d="m116.91076 125.14042l43.866142 0l0 43.866142l-43.866142 0z" fill-rule="evenodd"></path><path fill="#adbba8" d="m160.7769 125.14042l14.622055 -14.622047l0 43.86615l-14.622055 14.62204z" fill-rule="evenodd"></path><path fill="#e0eedb" d="m116.91076 125.14042l14.622047 -14.622047l43.86615 0l-14.622055 14.622047z" fill-rule="evenodd"></path><path fill="#000000" fill-opacity="0.0" d="m116.91076 125.14042l14.622047 -14.622047l43.86615 0l0 43.86615l-14.622055 14.62204l-43.866142 0zm0 0l43.866142 0l14.622055 -14.622047m-14.622055 14.622047l0 43.866142" fill-rule="evenodd"></path><path stroke="#000000" stroke-width="1.0" stroke-linejoin="round" stroke-linecap="butt" d="m116.91076 125.14042l14.622047 -14.622047l43.86615 0l0 43.86615l-14.622055 14.62204l-43.866142 0zm0 0l43.866142 0l14.622055 -14.622047m-14.622055 14.622047l0 43.866142" fill-rule="evenodd"></path><path fill="#d9ead3" d="m204.41733 81.65223l43.866135 0l0 43.866142l-43.866135 0z" fill-rule="evenodd"></path><path fill="#adbba8" d="m248.28346 81.65223l14.622055 -14.622047l0 43.866142l-14.622055 14.622047z" fill-rule="evenodd"></path><path fill="#e0eedb" d="m204.41733 81.65223l14.62204 -14.622047l43.86615 0l-14.622055 14.622047z" fill-rule="evenodd"></path><path fill="#000000" fill-opacity="0.0" d="m204.41733 81.65223l14.62204 -14.622047l43.86615 0l0 43.866142l-14.622055 14.622047l-43.866135 0zm0 0l43.866135 0l14.622055 -14.622047m-14.622055 14.622047l0 43.866142" fill-rule="evenodd"></path><path stroke="#000000" stroke-width="1.0" stroke-linejoin="round" stroke-linecap="butt" d="m204.41733 81.65223l14.62204 -14.622047l43.86615 0l0 43.866142l-14.622055 14.622047l-43.866135 0zm0 0l43.866135 0l14.622055 -14.622047m-14.622055 14.622047l0 43.866142" fill-rule="evenodd"></path><path fill="#d9ead3" d="m189.82939 96.24016l43.86615 0l0 43.866135l-43.86615 0z" fill-rule="evenodd"></path><path fill="#adbba8" d="m233.69554 96.24016l14.62204 -14.622047l0 43.866142l-14.62204 14.62204z" fill-rule="evenodd"></path><path fill="#e0eedb" d="m189.82939 96.24016l14.622055 -14.622047l43.866135 0l-14.62204 14.622047z" fill-rule="evenodd"></path><path fill="#000000" fill-opacity="0.0" d="m189.82939 96.24016l14.622055 -14.622047l43.866135 0l0 43.866142l-14.62204 14.62204l-43.86615 0zm0 0l43.86615 0l14.62204 -14.622047m-14.62204 14.622047l0 43.866135" fill-rule="evenodd"></path><path stroke="#000000" stroke-width="1.0" stroke-linejoin="round" stroke-linecap="butt" d="m189.82939 96.24016l14.622055 -14.622047l43.866135 0l0 43.866142l-14.62204 14.62204l-43.86615 0zm0 0l43.86615 0l14.62204 -14.622047m-14.62204 14.622047l0 43.866135" fill-rule="evenodd"></path><path fill="#d9ead3" d="m175.64305 110.549866l43.866135 0l0 43.86615l-43.866135 0z" fill-rule="evenodd"></path><path fill="#adbba8" d="m219.50919 110.549866l14.622055 -14.622047l0 43.866142l-14.622055 14.622055z" fill-rule="evenodd"></path><path fill="#e0eedb" d="m175.64305 110.549866l14.62204 -14.622047l43.86615 0l-14.622055 14.622047z" fill-rule="evenodd"></path><path fill="#000000" fill-opacity="0.0" d="m175.64305 110.549866l14.62204 -14.622047l43.86615 0l0 43.866142l-14.622055 14.622055l-43.866135 0zm0 0l43.866135 0l14.622055 -14.622047m-14.622055 14.622047l0 43.86615" fill-rule="evenodd"></path><path stroke="#000000" stroke-width="1.0" stroke-linejoin="round" stroke-linecap="butt" d="m175.64305 110.549866l14.62204 -14.622047l43.86615 0l0 43.866142l-14.622055 14.622055l-43.866135 0zm0 0l43.866135 0l14.622055 -14.622047m-14.622055 14.622047l0 43.86615" fill-rule="evenodd"></path><path fill="#d9ead3" d="m160.88977 125.14042l43.866135 0l0 43.866142l-43.866135 0z" fill-rule="evenodd"></path><path fill="#adbba8" d="m204.7559 125.14042l14.622055 -14.622047l0 43.86615l-14.622055 14.62204z" fill-rule="evenodd"></path><path fill="#e0eedb" d="m160.88977 125.14042l14.62204 -14.622047l43.86615 0l-14.622055 14.622047z" fill-rule="evenodd"></path><path fill="#000000" fill-opacity="0.0" d="m160.88977 125.14042l14.62204 -14.622047l43.86615 0l0 43.86615l-14.622055 14.62204l-43.866135 0zm0 0l43.866135 0l14.622055 -14.622047m-14.622055 14.622047l0 43.866142" fill-rule="evenodd"></path><path stroke="#000000" stroke-width="1.0" stroke-linejoin="round" stroke-linecap="butt" d="m160.88977 125.14042l14.62204 -14.622047l43.86615 0l0 43.86615l-14.622055 14.62204l-43.866135 0zm0 0l43.866135 0l14.622055 -14.622047m-14.622055 14.622047l0 43.866142" fill-rule="evenodd"></path><path fill="#d9ead3" d="m248.34645 81.65223l43.866135 0l0 43.866142l-43.866135 0z" fill-rule="evenodd"></path><path fill="#adbba8" d="m292.2126 81.65223l14.62207 -14.622047l0 43.866142l-14.62207 14.622047z" fill-rule="evenodd"></path><path fill="#e0eedb" d="m248.34645 81.65223l14.622055 -14.622047l43.86615 0l-14.62207 14.622047z" fill-rule="evenodd"></path><path fill="#000000" fill-opacity="0.0" d="m248.34645 81.65223l14.622055 -14.622047l43.86615 0l0 43.866142l-14.62207 14.622047l-43.866135 0zm0 0l43.866135 0l14.62207 -14.622047m-14.62207 14.622047l0 43.866142" fill-rule="evenodd"></path><path stroke="#000000" stroke-width="1.0" stroke-linejoin="round" stroke-linecap="butt" d="m248.34645 81.65223l14.622055 -14.622047l43.86615 0l0 43.866142l-14.62207 14.622047l-43.866135 0zm0 0l43.866135 0l14.62207 -14.622047m-14.62207 14.622047l0 43.866142" fill-rule="evenodd"></path><path fill="#d9ead3" d="m233.75853 96.24016l43.866135 0l0 43.866135l-43.866135 0z" fill-rule="evenodd"></path><path fill="#adbba8" d="m277.62466 96.24016l14.62204 -14.622047l0 43.866142l-14.62204 14.62204z" fill-rule="evenodd"></path><path fill="#e0eedb" d="m233.75853 96.24016l14.622055 -14.622047l43.86612 0l-14.62204 14.622047z" fill-rule="evenodd"></path><path fill="#000000" fill-opacity="0.0" d="m233.75853 96.24016l14.622055 -14.622047l43.86612 0l0 43.866142l-14.62204 14.62204l-43.866135 0zm0 0l43.866135 0l14.62204 -14.622047m-14.62204 14.622047l0 43.866135" fill-rule="evenodd"></path><path stroke="#000000" stroke-width="1.0" stroke-linejoin="round" stroke-linecap="butt" d="m233.75853 96.24016l14.622055 -14.622047l43.86612 0l0 43.866142l-14.62204 14.62204l-43.866135 0zm0 0l43.866135 0l14.62204 -14.622047m-14.62204 14.622047l0 43.866135" fill-rule="evenodd"></path><path fill="#d9ead3" d="m219.57217 110.549866l43.86615 0l0 43.86615l-43.86615 0z" fill-rule="evenodd"></path><path fill="#adbba8" d="m263.43832 110.549866l14.62204 -14.622047l0 43.866142l-14.62204 14.622055z" fill-rule="evenodd"></path><path fill="#e0eedb" d="m219.57217 110.549866l14.622055 -14.622047l43.866135 0l-14.62204 14.622047z" fill-rule="evenodd"></path><path fill="#000000" fill-opacity="0.0" d="m219.57217 110.549866l14.622055 -14.622047l43.866135 0l0 43.866142l-14.62204 14.622055l-43.86615 0zm0 0l43.86615 0l14.62204 -14.622047m-14.62204 14.622047l0 43.86615" fill-rule="evenodd"></path><path stroke="#000000" stroke-width="1.0" stroke-linejoin="round" stroke-linecap="butt" d="m219.57217 110.549866l14.622055 -14.622047l43.866135 0l0 43.866142l-14.62204 14.622055l-43.86615 0zm0 0l43.86615 0l14.62204 -14.622047m-14.62204 14.622047l0 43.86615" fill-rule="evenodd"></path><path fill="#d9ead3" d="m204.8189 125.14042l43.86615 0l0 43.866142l-43.86615 0z" fill-rule="evenodd"></path><path fill="#adbba8" d="m248.68504 125.14042l14.622055 -14.622047l0 43.86615l-14.622055 14.62204z" fill-rule="evenodd"></path><path fill="#e0eedb" d="m204.8189 125.14042l14.622055 -14.622047l43.86615 0l-14.622055 14.622047z" fill-rule="evenodd"></path><path fill="#000000" fill-opacity="0.0" d="m204.8189 125.14042l14.622055 -14.622047l43.86615 0l0 43.86615l-14.622055 14.62204l-43.86615 0zm0 0l43.86615 0l14.622055 -14.622047m-14.622055 14.622047l0 43.866142" fill-rule="evenodd"></path><path stroke="#000000" stroke-width="1.0" stroke-linejoin="round" stroke-linecap="butt" d="m204.8189 125.14042l14.622055 -14.622047l43.86615 0l0 43.86615l-14.622055 14.62204l-43.86615 0zm0 0l43.86615 0l14.622055 -14.622047m-14.622055 14.622047l0 43.866142" fill-rule="evenodd"></path><path fill="#000000" fill-opacity="0.0" d="m67.64042 125.15092l0 44.000008" fill-rule="evenodd"></path><path stroke="#000000" stroke-width="1.0" stroke-linejoin="round" stroke-linecap="butt" d="m67.64042 131.15092l0 32.0" fill-rule="evenodd"></path><path fill="#000000" stroke="#000000" stroke-width="1.0" stroke-linecap="butt" d="m69.29215 131.15092l-1.6517334 -4.538101l-1.6517334 4.538101z" fill-rule="evenodd"></path><path fill="#000000" stroke="#000000" stroke-width="1.0" stroke-linecap="butt" d="m65.988686 163.15092l1.6517334 4.538086l1.6517334 -4.538086z" fill-rule="evenodd"></path><path fill="#000000" fill-opacity="0.0" d="m-9.139108 125.15092l83.37008 0l0 30.740166l-83.37008 0z" fill-rule="evenodd"></path><path fill="#000000" d="m7.5015173 152.07092l0 -1.25q-0.9375 1.46875 -2.75 1.46875q-1.171875 0 -2.171875 -0.640625q-0.9843749 -0.65625 -1.5312499 -1.8125q-0.53125 -1.171875 -0.53125 -2.6875q0 -1.46875 0.484375 -2.671875q0.5 -1.203125 1.4687499 -1.84375q0.984375 -0.640625 2.203125 -0.640625q0.890625 0 1.578125 0.375q0.703125 0.375 1.140625 0.984375l0 -4.875l1.65625 0l0 13.59375l-1.546875 0zm-5.28125 -4.921875q0 1.890625 0.796875 2.828125q0.8125 0.9375 1.890625 0.9375q1.09375 0 1.859375 -0.890625q0.765625 -0.890625 0.765625 -2.734375q0 -2.015625 -0.78125 -2.953125q-0.78125 -0.953125 -1.921875 -0.953125q-1.109375 0 -1.859375 0.90625q-0.75 0.90625 -0.75 2.859375zm13.777771 1.984375l1.656251 -0.265625q0.140625 1.0 0.765625 1.53125q0.640625 0.515625 1.78125 0.515625q1.15625 0 1.703125 -0.46875q0.5625 -0.46875 0.5625 -1.09375q0 -0.5625 -0.484375 -0.890625q-0.34375 -0.21875 -1.703125 -0.5625q-1.84375 -0.46875 -2.5625 -0.796875q-0.703125 -0.34375 -1.078125 -0.9375q-0.359375 -0.609375 -0.359375 -1.328125q0 -0.65625 0.296875 -1.21875q0.3125 -0.5625 0.828125 -0.9375q0.390625 -0.28125 1.0625 -0.484375q0.671875 -0.203125 1.4375 -0.203125q1.171875 0 2.046875 0.34375q0.875 0.328125 1.28125 0.90625q0.421875 0.5625 0.578125 1.515625l-1.625 0.21875q-0.109375 -0.75 -0.65625 -1.171875q-0.53125 -0.4375 -1.5 -0.4375q-1.15625 0 -1.640625 0.390625q-0.484375 0.375 -0.484375 0.875q0 0.328125 0.203125 0.59375q0.203125 0.265625 0.640625 0.4375q0.25 0.09375 1.46875 0.4375q1.765625 0.46875 2.46875 0.765625q0.703125 0.296875 1.09375 0.875q0.40625 0.578125 0.40625 1.4375q0 0.828125 -0.484375 1.578125q-0.484375 0.734375 -1.40625 1.140625q-0.921875 0.390625 -2.078125 0.390625q-1.921875 0 -2.9375 -0.796875q-1.0 -0.796875 -1.281251 -2.359375zm9.968751 2.9375l0 -13.59375l1.671875 0l0 13.59375l-1.671875 0zm4.191696 -11.6875l0 -1.90625l1.671875 0l0 1.90625l-1.671875 0zm0 11.6875l0 -9.859375l1.671875 0l0 9.859375l-1.671875 0zm10.566696 -3.609375l1.640625 0.21875q-0.265625 1.6875 -1.375 2.65625q-1.109375 0.953125 -2.734375 0.953125q-2.015625 0 -3.25 -1.3125q-1.21875 -1.328125 -1.21875 -3.796875q0 -1.59375 0.515625 -2.78125q0.53125 -1.203125 1.609375 -1.796875q1.09375 -0.609375 2.359375 -0.609375q1.609375 0 2.625 0.8125q1.015625 0.8125 1.3125 2.3125l-1.625 0.25q-0.234375 -1.0 -0.828125 -1.5q-0.59375 -0.5 -1.421875 -0.5q-1.265625 0 -2.0625 0.90625q-0.78125 0.90625 -0.78125 2.859375q0 1.984375 0.765625 2.890625q0.765625 0.890625 1.984375 0.890625q0.984375 0 1.640625 -0.59375q0.65625 -0.609375 0.84375 -1.859375zm9.640625 0.4375l1.71875 0.21875q-0.40625 1.5 -1.515625 2.34375q-1.09375 0.828125 -2.8125 0.828125q-2.15625 0 -3.421875 -1.328125q-1.265625 -1.328125 -1.265625 -3.734375q0 -2.484375 1.265625 -3.859375q1.28125 -1.375 3.328125 -1.375q1.984375 0 3.234375 1.34375q1.25 1.34375 1.25 3.796875q0 0.140625 -0.015625 0.4375l-7.34375 0q0.09375 1.625 0.921875 2.484375q0.828125 0.859375 2.0625 0.859375q0.90625 0 1.546875 -0.46875q0.65625 -0.484375 1.046875 -1.546875zm-5.484375 -2.703125l5.5 0q-0.109375 -1.234375 -0.625 -1.859375q-0.796875 -0.96875 -2.078125 -0.96875q-1.140625 0 -1.9375 0.78125q-0.78125 0.765625 -0.859375 2.046875zm8.438217 2.9375l1.65625 -0.265625q0.140625 1.0 0.765625 1.53125q0.640625 0.515625 1.78125 0.515625q1.15625 0 1.703125 -0.46875q0.5625 -0.46875 0.5625 -1.09375q0 -0.5625 -0.484375 -0.890625q-0.34375 -0.21875 -1.703125 -0.5625q-1.84375 -0.46875 -2.5625 -0.796875q-0.703125 -0.34375 -1.078125 -0.9375q-0.359375 -0.609375 -0.359375 -1.328125q0 -0.65625 0.296875 -1.21875q0.3125 -0.5625 0.828125 -0.9375q0.390625 -0.28125 1.0625 -0.484375q0.671875 -0.203125 1.4375 -0.203125q1.171875 0 2.046875 0.34375q0.875 0.328125 1.28125 0.90625q0.421875 0.5625 0.578125 1.515625l-1.625 0.21875q-0.109375 -0.75 -0.65625 -1.171875q-0.53125 -0.4375 -1.5 -0.4375q-1.15625 0 -1.640625 0.390625q-0.484375 0.375 -0.484375 0.875q0 0.328125 0.203125 0.59375q0.203125 0.265625 0.640625 0.4375q0.25 0.09375 1.46875 0.4375q1.765625 0.46875 2.46875 0.765625q0.703125 0.296875 1.09375 0.875q0.40625 0.578125 0.40625 1.4375q0 0.828125 -0.484375 1.578125q-0.484375 0.734375 -1.40625 1.140625q-0.921875 0.390625 -2.078125 0.390625q-1.921875 0 -2.9375 -0.796875q-1.0 -0.796875 -1.28125 -2.359375z" fill-rule="nonzero"></path><path fill="#000000" fill-opacity="0.0" d="m67.64042 169.14961l83.37008 0l0 30.740158l-83.37008 0z" fill-rule="evenodd"></path><path fill="#000000" d="m84.281044 196.06961l0 -1.25q-0.9375 1.46875 -2.75 1.46875q-1.171875 0 -2.171875 -0.640625q-0.984375 -0.65625 -1.53125 -1.8125q-0.53125 -1.171875 -0.53125 -2.6875q0 -1.46875 0.484375 -2.671875q0.5 -1.203125 1.46875 -1.84375q0.984375 -0.640625 2.203125 -0.640625q0.890625 0 1.578125 0.375q0.703125 0.375 1.140625 0.984375l0 -4.875l1.65625 0l0 13.59375l-1.546875 0zm-5.28125 -4.921875q0 1.890625 0.796875 2.828125q0.8125 0.9375 1.890625 0.9375q1.09375 0 1.859375 -0.890625q0.765625 -0.890625 0.765625 -2.734375q0 -2.015625 -0.78125 -2.953125q-0.78125 -0.953125 -1.921875 -0.953125q-1.109375 0 -1.859375 0.90625q-0.75 0.90625 -0.75 2.859375zm14.434021 4.921875l0 -9.859375l1.5 0l0 1.5q0.578125 -1.046875 1.0625 -1.375q0.484375 -0.34375 1.078125 -0.34375q0.84375 0 1.71875 0.546875l-0.578125 1.546875q-0.609375 -0.359375 -1.234375 -0.359375q-0.546875 0 -0.984375 0.328125q-0.421875 0.328125 -0.609375 0.90625q-0.28125 0.890625 -0.28125 1.953125l0 5.15625l-1.671875 0zm5.603302 -4.921875q0 -2.734375 1.53125 -4.0625q1.265625 -1.09375 3.09375 -1.09375q2.03125 0 3.3125 1.34375q1.296875 1.328125 1.296875 3.671875q0 1.90625 -0.578125 3.0q-0.5625 1.078125 -1.65625 1.6875q-1.078125 0.59375 -2.375 0.59375q-2.0625 0 -3.34375 -1.328125q-1.28125 -1.328125 -1.28125 -3.8125zm1.71875 0q0 1.890625 0.828125 2.828125q0.828125 0.9375 2.078125 0.9375q1.25 0 2.0625 -0.9375q0.828125 -0.953125 0.828125 -2.890625q0 -1.828125 -0.828125 -2.765625q-0.828125 -0.9375 -2.0625 -0.9375q-1.25 0 -2.078125 0.9375q-0.828125 0.9375 -0.828125 2.828125zm11.110092 4.921875l-3.015625 -9.859375l1.71875 0l1.5625 5.6875l0.59375 2.125q0.03125 -0.15625 0.5 -2.03125l1.578125 -5.78125l1.71875 0l1.46875 5.71875l0.484375 1.890625l0.578125 -1.90625l1.6875 -5.703125l1.625 0l-3.078125 9.859375l-1.734375 0l-1.578125 -5.90625l-0.375 -1.671875l-2.0 7.578125l-1.734375 0zm10.972946 -2.9375l1.65625 -0.265625q0.140625 1.0 0.765625 1.53125q0.640625 0.515625 1.78125 0.515625q1.1562576 0 1.7031326 -0.46875q0.5625 -0.46875 0.5625 -1.09375q0 -0.5625 -0.484375 -0.890625q-0.34375 -0.21875 -1.7031326 -0.5625q-1.84375 -0.46875 -2.5625 -0.796875q-0.703125 -0.34375 -1.078125 -0.9375q-0.359375 -0.609375 -0.359375 -1.328125q0 -0.65625 0.296875 -1.21875q0.3125 -0.5625 0.828125 -0.9375q0.390625 -0.28125 1.0625 -0.484375q0.671875 -0.203125 1.4375 -0.203125q1.171875 0 2.0468826 0.34375q0.875 0.328125 1.28125 0.90625q0.421875 0.5625 0.578125 1.515625l-1.625 0.21875q-0.109375 -0.75 -0.65625 -1.171875q-0.5312576 -0.4375 -1.5000076 -0.4375q-1.15625 0 -1.640625 0.390625q-0.484375 0.375 -0.484375 0.875q0 0.328125 0.203125 0.59375q0.203125 0.265625 0.640625 0.4375q0.25 0.09375 1.46875 0.4375q1.7656326 0.46875 2.4687576 0.765625q0.703125 0.296875 1.09375 0.875q0.40625 0.578125 0.40625 1.4375q0 0.828125 -0.484375 1.578125q-0.484375 0.734375 -1.40625 1.140625q-0.921875 0.390625 -2.0781326 0.390625q-1.921875 0 -2.9375 -0.796875q-1.0 -0.796875 -1.28125 -2.359375z" fill-rule="nonzero"></path><path fill="#000000" fill-opacity="0.0" d="m116.98163 175.44751l-44.0 0" fill-rule="evenodd"></path><path stroke="#000000" stroke-width="1.0" stroke-linejoin="round" stroke-linecap="butt" d="m110.98163 175.44751l-32.0 0" fill-rule="evenodd"></path><path fill="#000000" stroke="#000000" stroke-width="1.0" stroke-linecap="butt" d="m110.98163 177.09924l4.5380936 -1.6517334l-4.5380936 -1.6517334z" fill-rule="evenodd"></path><path fill="#000000" stroke="#000000" stroke-width="1.0" stroke-linecap="butt" d="m78.98163 173.79578l-4.538101 1.6517334l4.538101 1.6517334z" fill-rule="evenodd"></path><path fill="#000000" fill-opacity="0.0" d="m-4.0131235 -2.007874l44.0 0l0 26.960629l-44.0 0z" fill-rule="evenodd"></path><path fill="#000000" d="m9.4243765 28.912125q-1.375 -1.75 -2.328125 -4.078125q-0.953125 -2.34375 -0.953125 -4.84375q0 -2.21875 0.703125 -4.234376q0.84375 -2.34375 2.578125 -4.671875l1.203125 0q-1.125 1.921875 -1.484375 2.75q-0.5625 1.28125 -0.890625 2.671876q-0.40625 1.734375 -0.40625 3.484375q0 4.46875 2.78125 8.921875l-1.203125 0zm2.572052 -7.59375l1.671875 -0.21875q0.28125 1.421875 0.96875 2.046875q0.703125 0.625 1.687501 0.625q1.1875 0 2.0 -0.8125q0.8125 -0.828125 0.8125 -2.03125q0 -1.140625 -0.765625 -1.890625q-0.75 -0.75 -1.90625 -0.75q-0.46875095 0 -1.171876 0.1875l0.1875 -1.46875q0.15625 0.015625 0.265625 0.015625q1.062501 0 1.906251 -0.546875q0.859375 -0.56250095 0.859375 -1.718751q0 -0.921875 -0.625 -1.515625q-0.609375 -0.609375 -1.59375 -0.609375q-0.96875095 0 -1.625001 0.609375q-0.640625 0.609375 -0.828125 1.84375l-1.671875 -0.296875q0.296875 -1.6875 1.375 -2.609375q1.09375 -0.921875 2.718751 -0.921875q1.109375 0 2.046875 0.484375q0.9375 0.46875 1.421875 1.296875q0.5 0.828125 0.5 1.75q0 0.890625 -0.46875 1.609376q-0.46875 0.71875 -1.40625 1.15625q1.21875 0.265625 1.875 1.15625q0.671875 0.875 0.671875 2.1875q0 1.78125 -1.296875 3.015625q-1.296875 1.234375 -3.28125 1.234375q-1.796876 0 -2.984376 -1.0625q-1.171875 -1.0625 -1.34375 -2.765625zm11.922593 7.59375l-1.1875 0q2.765625 -4.453125 2.765625 -8.921875q0 -1.734375 -0.390625 -3.453125q-0.328125 -1.390626 -0.890625 -2.671876q-0.359375 -0.84375 -1.484375 -2.78125l1.1875 0q1.75 2.328125 2.578125 4.671875q0.71875 2.015626 0.71875 4.234376q0 2.5 -0.96875 4.84375q-0.953125 2.328125 -2.328125 4.078125z" fill-rule="nonzero"></path><path fill="#000000" fill-opacity="0.0" d="m116.91076 70.44226l-36.53543 38.551178" fill-rule="evenodd"></path><path stroke="#000000" stroke-width="1.0" stroke-linejoin="round" stroke-linecap="butt" d="m116.91076 70.44226l-32.408173 34.196213" fill-rule="evenodd"></path><path fill="#000000" stroke="#000000" stroke-width="1.0" stroke-linecap="butt" d="m83.30371 103.50228l-1.9227753 4.430069l4.320526 -2.157692z" fill-rule="evenodd"></path><path fill="#000000" fill-opacity="0.0" d="m136.84776 52.37664l93.51181 0.40945053" fill-rule="evenodd"></path><path stroke="#000000" stroke-width="1.0" stroke-linejoin="round" stroke-linecap="butt" d="m136.84776 52.37664l87.51187 0.3831749" fill-rule="evenodd"></path><path fill="#000000" stroke="#000000" stroke-width="1.0" stroke-linecap="butt" d="m224.3524 54.411533l4.545288 -1.6318436l-4.5308228 -1.6715889z" fill-rule="evenodd"></path><path fill="#000000" fill-opacity="0.0" d="m-9.139108 21.17323l231.2126 0l0 26.960629l-231.2126 0z" fill-rule="evenodd"></path><path fill="#000000" d="m1.5171424 48.093227l0 -8.546875l-1.484375 0l0 -1.3125l1.484375 0l0 -1.046875q0 -0.984375 0.171875 -1.46875q0.234375 -0.65625 0.8437499 -1.046875q0.609375 -0.40625 1.703125 -0.40625q0.703125 0 1.5625 0.15625l-0.25 1.46875q-0.515625 -0.09375 -0.984375 -0.09375q-0.765625 0 -1.078125 0.328125q-0.3125 0.3125 -0.3125 1.203125l0 0.90625l1.921875 0l0 1.3125l-1.921875 0l0 8.546875l-1.6562499 0z" fill-rule="nonzero"></path><path fill="#000000" d="m5.841071 47.718227l0 -1.21875l1.0625 0l0 1.21875l-1.0625 0zm0 7.375l0 -6.21875l1.0625 0l0 6.21875l-1.0625 0z" fill-rule="nonzero"></path><path fill="#000000" d="m17.83862 40.093227l-8.968751 0l0 -1.5625l8.968751 0l0 1.5625zm0 4.125l-8.968751 0l0 -1.546875l8.968751 0l0 1.546875zm7.9418335 3.875l-1.671875 0l0 -10.640625q-0.59375 0.578125 -1.578125 1.15625q-0.984375 0.5625 -1.765625 0.859375l0 -1.625q1.40625 -0.65625 2.453125 -1.59375q1.046875 -0.9375 1.484375 -1.8125l1.078125 0l0 13.65625z" fill-rule="nonzero"></path><path fill="#000000" fill-opacity="0.0" d="m72.98163 61.49475l175.3937 0l0 192.77953l-175.3937 0z" fill-rule="evenodd"></path><path fill="#000000" fill-opacity="0.0" d="m248.37534 61.49475l58.46457 -58.46457l0 192.77953l-58.46457 58.46457z" fill-rule="evenodd"></path><path fill="#000000" fill-opacity="0.0" d="m72.98163 61.49475l58.46457 -58.46457l175.3937 0l-58.46457 58.46457z" fill-rule="evenodd"></path><path fill="#000000" fill-opacity="0.0" d="m72.98163 61.49475l58.46457 -58.46457l175.3937 0l0 192.77953l-58.46457 58.46457l-175.3937 0zm0 0l175.3937 0l58.46457 -58.46457m-58.46457 58.46457l0 192.77953" fill-rule="evenodd"></path><path fill="#000000" fill-opacity="0.2" d="m248.37534 61.49475l58.46457 -58.46457l0 192.77953l-58.46457 58.46457z" fill-rule="evenodd"></path><path fill="#ffffff" fill-opacity="0.2" d="m72.98163 61.49475l58.46457 -58.46457l175.3937 0l-58.46457 58.46457z" fill-rule="evenodd"></path><path stroke="#000000" stroke-width="1.0" stroke-linejoin="round" stroke-linecap="butt" d="m72.98163 61.49475l58.46457 -58.46457l175.3937 0l0 192.77953l-58.46457 58.46457l-175.3937 0zm0 0l175.3937 0l58.46457 -58.46457m-58.46457 58.46457l0 192.77953" fill-rule="evenodd"></path></g></svg>

