<?xml version="1.0" standalone="yes"?>

<svg version="1.1" viewBox="0.0 0.0 309.3307086614173 256.09448818897636" fill="none" stroke="none" stroke-linecap="square" stroke-miterlimit="10" xmlns="http://www.w3.org/2000/svg" xmlns:xlink="http://www.w3.org/1999/xlink"><clipPath id="p.0"><path d="m0 0l309.33072 0l0 256.09448l-309.33072 0l0 -256.09448z" clip-rule="nonzero"></path></clipPath><g clip-path="url(#p.0)"><path fill="#000000" fill-opacity="0.0" d="m0 0l309.33072 0l0 256.09448l-309.33072 0z" fill-rule="evenodd"></path><path fill="#9900ff" d="m101.92126 32.240158l43.866142 0l0 43.866142l-43.866142 0z" fill-rule="evenodd"></path><path fill="#7a00cb" d="m145.7874 32.240158l14.622055 -14.622047l0 43.866142l-14.622055 14.622047z" fill-rule="evenodd"></path><path fill="#ad33ff" d="m101.92126 32.240158l14.622047 -14.622047l43.86615 0l-14.622055 14.622047z" fill-rule="evenodd"></path><path fill="#000000" fill-opacity="0.0" d="m101.92126 32.240158l14.622047 -14.622047l43.86615 0l0 43.866142l-14.622055 14.622047l-43.866142 0zm0 0l43.866142 0l14.622055 -14.622047m-14.622055 14.622047l0 43.866142" fill-rule="evenodd"></path><path stroke="#000000" stroke-width="1.0" stroke-linejoin="round" stroke-linecap="butt" d="m101.92126 32.240158l14.622047 -14.622047l43.86615 0l0 43.866142l-14.622055 14.622047l-43.866142 0zm0 0l43.866142 0l14.622055 -14.622047m-14.622055 14.622047l0 43.866142" fill-rule="evenodd"></path><path fill="#d9ead3" d="m87.73491 46.54987l43.866135 0l0 43.86614l-43.866135 0z" fill-rule="evenodd"></path><path fill="#adbba8" d="m131.60104 46.54987l14.622055 -14.622047l0 43.86614l-14.622055 14.622047z" fill-rule="evenodd"></path><path fill="#e0eedb" d="m87.73491 46.54987l14.622047 -14.622047l43.866142 0l-14.622055 14.622047z" fill-rule="evenodd"></path><path fill="#000000" fill-opacity="0.0" d="m87.73491 46.54987l14.622047 -14.622047l43.866142 0l0 43.86614l-14.622055 14.622047l-43.866135 0zm0 0l43.866135 0l14.622055 -14.622047m-14.622055 14.622047l0 43.86614" fill-rule="evenodd"></path><path stroke="#000000" stroke-width="1.0" stroke-linejoin="round" stroke-linecap="butt" d="m87.73491 46.54987l14.622047 -14.622047l43.866142 0l0 43.86614l-14.622055 14.622047l-43.866135 0zm0 0l43.866135 0l14.622055 -14.622047m-14.622055 14.622047l0 43.86614" fill-rule="evenodd"></path><path fill="#d9ead3" d="m72.98163 61.14042l43.866142 0l0 43.866142l-43.866142 0z" fill-rule="evenodd"></path><path fill="#adbba8" d="m116.84777 61.14042l14.622047 -14.622047l0 43.866142l-14.622047 14.622047z" fill-rule="evenodd"></path><path fill="#e0eedb" d="m72.98163 61.14042l14.622047 -14.622047l43.866142 0l-14.622047 14.622047z" fill-rule="evenodd"></path><path fill="#000000" fill-opacity="0.0" d="m72.98163 61.14042l14.622047 -14.622047l43.866142 0l0 43.866142l-14.622047 14.622047l-43.866142 0zm0 0l43.866142 0l14.622047 -14.622047m-14.622047 14.622047l0 43.866142" fill-rule="evenodd"></path><path stroke="#000000" stroke-width="1.0" stroke-linejoin="round" stroke-linecap="butt" d="m72.98163 61.14042l14.622047 -14.622047l43.866142 0l0 43.866142l-14.622047 14.622047l-43.866142 0zm0 0l43.866142 0l14.622047 -14.622047m-14.622047 14.622047l0 43.866142" fill-rule="evenodd"></path><path fill="#ff0000" d="m160.40945 17.653543l43.866135 0l0 43.866142l-43.866135 0z" fill-rule="evenodd"></path><path fill="#cb0000" d="m204.27559 17.653543l14.622055 -14.622047l0 43.866142l-14.622055 14.622047z" fill-rule="evenodd"></path><path fill="#ff3333" d="m160.40945 17.653543l14.62204 -14.622047l43.86615 0l-14.622055 14.622047z" fill-rule="evenodd"></path><path fill="#000000" fill-opacity="0.0" d="m160.40945 17.653543l14.62204 -14.622047l43.86615 0l0 43.866142l-14.622055 14.622047l-43.866135 0zm0 0l43.866135 0l14.622055 -14.622047m-14.622055 14.622047l0 43.866142" fill-rule="evenodd"></path><path stroke="#000000" stroke-width="1.0" stroke-linejoin="round" stroke-linecap="butt" d="m160.40945 17.653543l14.62204 -14.622047l43.86615 0l0 43.866142l-14.622055 14.622047l-43.866135 0zm0 0l43.866135 0l14.622055 -14.622047m-14.622055 14.622047l0 43.866142" fill-rule="evenodd"></path><path fill="#d9ead3" d="m146.2231 31.963255l43.866135 0l0 43.866142l-43.866135 0z" fill-rule="evenodd"></path><path fill="#adbba8" d="m190.08923 31.963255l14.622055 -14.622047l0 43.866142l-14.622055 14.622051z" fill-rule="evenodd"></path><path fill="#e0eedb" d="m146.2231 31.963255l14.62204 -14.622047l43.86615 0l-14.622055 14.622047z" fill-rule="evenodd"></path><path fill="#000000" fill-opacity="0.0" d="m146.2231 31.963255l14.62204 -14.622047l43.86615 0l0 43.866142l-14.622055 14.622051l-43.866135 0zm0 0l43.866135 0l14.622055 -14.622047m-14.622055 14.622047l0 43.866142" fill-rule="evenodd"></path><path stroke="#000000" stroke-width="1.0" stroke-linejoin="round" stroke-linecap="butt" d="m146.2231 31.963255l14.62204 -14.622047l43.86615 0l0 43.866142l-14.622055 14.622051l-43.866135 0zm0 0l43.866135 0l14.622055 -14.622047m-14.622055 14.622047l0 43.866142" fill-rule="evenodd"></path><path fill="#d9ead3" d="m131.46982 46.553806l43.866135 0l0 43.86614l-43.866135 0z" fill-rule="evenodd"></path><path fill="#adbba8" d="m175.33595 46.553806l14.622055 -14.622047l0 43.86614l-14.622055 14.622047z" fill-rule="evenodd"></path><path fill="#e0eedb" d="m131.46982 46.553806l14.62204 -14.622047l43.86615 0l-14.622055 14.622047z" fill-rule="evenodd"></path><path fill="#000000" fill-opacity="0.0" d="m131.46982 46.553806l14.62204 -14.622047l43.86615 0l0 43.86614l-14.622055 14.622047l-43.866135 0zm0 0l43.866135 0l14.622055 -14.622047m-14.622055 14.622047l0 43.86614" fill-rule="evenodd"></path><path stroke="#000000" stroke-width="1.0" stroke-linejoin="round" stroke-linecap="butt" d="m131.46982 46.553806l14.62204 -14.622047l43.86615 0l0 43.86614l-14.622055 14.622047l-43.866135 0zm0 0l43.866135 0l14.622055 -14.622047m-14.622055 14.622047l0 43.86614" fill-rule="evenodd"></path><path fill="#000000" fill-opacity="0.0" d="m-4.0131235 -2.007874l63.968502 0l0 26.960629l-63.968502 0z" fill-rule="evenodd"></path><path fill="#000000" d="m9.4243765 28.912125q-1.375 -1.75 -2.328125 -4.078125q-0.953125 -2.34375 -0.953125 -4.84375q0 -2.21875 0.703125 -4.234376q0.84375 -2.34375 2.578125 -4.671875l1.203125 0q-1.125 1.921875 -1.484375 2.75q-0.5625 1.28125 -0.890625 2.671876q-0.40625 1.734375 -0.40625 3.484375q0 4.46875 2.78125 8.921875l-1.203125 0zm7.915803 -4.0l0 -3.25l-5.906251 0l0 -1.53125l6.218751 -8.812501l1.359375 0l0 8.812501l1.84375 0l0 1.53125l-1.84375 0l0 3.25l-1.671875 0zm0 -4.78125l0 -6.140626l-4.250001 6.140626l4.250001 0zm6.578842 8.78125l-1.1875 0q2.765625 -4.453125 2.765625 -8.921875q0 -1.734375 -0.390625 -3.453125q-0.328125 -1.390626 -0.890625 -2.671876q-0.359375 -0.84375 -1.484375 -2.78125l1.1875 0q1.75 2.328125 2.578125 4.671875q0.71875 2.015626 0.71875 4.234376q0 2.5 -0.96875 4.84375q-0.953125 2.328125 -2.328125 4.078125z" fill-rule="nonzero"></path><path fill="#000000" fill-opacity="0.0" d="m72.98163 61.49475l175.3937 0l0 192.77953l-175.3937 0z" fill-rule="evenodd"></path><path fill="#000000" fill-opacity="0.0" d="m248.37534 61.49475l58.46457 -58.46457l0 192.77953l-58.46457 58.46457z" fill-rule="evenodd"></path><path fill="#000000" fill-opacity="0.0" d="m72.98163 61.49475l58.46457 -58.46457l175.3937 0l-58.46457 58.46457z" fill-rule="evenodd"></path><path fill="#000000" fill-opacity="0.0" d="m72.98163 61.49475l58.46457 -58.46457l175.3937 0l0 192.77953l-58.46457 58.46457l-175.3937 0zm0 0l175.3937 0l58.46457 -58.46457m-58.46457 58.46457l0 192.77953" fill-rule="evenodd"></path><path fill="#000000" fill-opacity="0.2" d="m248.37534 61.49475l58.46457 -58.46457l0 192.77953l-58.46457 58.46457z" fill-rule="evenodd"></path><path fill="#ffffff" fill-opacity="0.2" d="m72.98163 61.49475l58.46457 -58.46457l175.3937 0l-58.46457 58.46457z" fill-rule="evenodd"></path><path stroke="#000000" stroke-width="1.0" stroke-linejoin="round" stroke-linecap="butt" d="m72.98163 61.49475l58.46457 -58.46457l175.3937 0l0 192.77953l-58.46457 58.46457l-175.3937 0zm0 0l175.3937 0l58.46457 -58.46457m-58.46457 58.46457l0 192.77953" fill-rule="evenodd"></path><path fill="#000000" fill-opacity="0.0" d="m-7.1968503 21.170603l231.2126 0l0 26.96063l-231.2126 0z" fill-rule="evenodd"></path><path fill="#000000" d="m3.4593997 48.090603l0 -8.546875l-1.4843751 0l0 -1.3125l1.4843751 0l0 -1.046875q0 -0.984375 0.171875 -1.46875q0.234375 -0.65625 0.84375 -1.046875q0.609375 -0.40625 1.703125 -0.40625q0.703125 0 1.5625 0.15625l-0.25 1.46875q-0.515625 -0.09375 -0.984375 -0.09375q-0.765625 0 -1.078125 0.328125q-0.3125 0.3125 -0.3125 1.203125l0 0.90625l1.921875 0l0 1.3125l-1.921875 0l0 8.546875l-1.65625 0z" fill-rule="nonzero"></path><path fill="#000000" d="m7.7833285 47.715603l0 -1.21875l1.0624995 0l0 1.21875l-1.0624995 0zm0 7.375l0 -6.21875l1.0624995 0l0 6.21875l-1.0624995 0z" fill-rule="nonzero"></path><path fill="#000000" d="m19.780876 40.090603l-8.968751 0l0 -1.5625l8.968751 0l0 1.5625zm0 4.125l-8.968751 0l0 -1.546875l8.968751 0l0 1.546875zm10.4262085 2.265625l0 1.609375l-8.984375 0q-0.015625 -0.609375 0.1875 -1.15625q0.34375 -0.921875 1.09375 -1.8125q0.765625 -0.890625 2.1875 -2.0625q2.21875 -1.8125 3.0 -2.875q0.78125 -1.0625 0.78125 -2.015625q0 -0.984375 -0.71875 -1.671875q-0.703125 -0.6875 -1.84375 -0.6875q-1.203125 0 -1.9375 0.734375q-0.71875 0.71875 -0.71875 2.0l-1.71875 -0.171875q0.171875 -1.921875 1.328125 -2.921875q1.15625 -1.015625 3.09375 -1.015625q1.953125 0 3.09375 1.09375q1.140625 1.078125 1.140625 2.6875q0 0.8125 -0.34375 1.609375q-0.328125 0.78125 -1.109375 1.65625q-0.765625 0.859375 -2.5625 2.390625q-1.5 1.265625 -1.9375 1.71875q-0.421875 0.4375 -0.703125 0.890625l6.671875 0zm8.453842 1.609375l0 -1.25q-0.9375 1.46875 -2.75 1.46875q-1.171875 0 -2.171875 -0.640625q-0.984375 -0.65625 -1.53125 -1.8125q-0.53125 -1.171875 -0.53125 -2.6875q0 -1.46875 0.484375 -2.671875q0.5 -1.203125 1.46875 -1.84375q0.984375 -0.640625 2.203125 -0.640625q0.890625 0 1.578125 0.375q0.703125 0.375 1.140625 0.984375l0 -4.875l1.65625 0l0 13.59375l-1.546875 0zm-5.28125 -4.921875q0 1.890625 0.796875 2.828125q0.8125 0.9375 1.890625 0.9375q1.09375 0 1.859375 -0.890625q0.765625 -0.890625 0.765625 -2.734375q0 -2.015625 -0.78125 -2.953125q-0.78125 -0.953125 -1.921875 -0.953125q-1.109375 0 -1.859375 0.90625q-0.75 0.90625 -0.75 2.859375z" fill-rule="nonzero"></path><path fill="#000000" d="m47.442894 40.074978l0 1.015625l-5.6875 0q0 -0.375 0.125 -0.734375q0.21875 -0.578125 0.6875 -1.140625q0.484375 -0.5625 1.390625 -1.296875q1.40625 -1.15625 1.890625 -1.828125q0.5 -0.671875 0.5 -1.265625q0 -0.625 -0.453125 -1.046875q-0.453125 -0.4375 -1.171875 -0.4375q-0.765625 0 -1.21875 0.453125q-0.453125 0.453125 -0.46875 1.265625l-1.078125 -0.109375q0.109375 -1.21875 0.828125 -1.84375q0.734375 -0.640625 1.96875 -0.640625q1.234375 0 1.953125 0.6875q0.71875 0.6875 0.71875 1.703125q0 0.515625 -0.21875 1.015625q-0.203125 0.484375 -0.703125 1.046875q-0.484375 0.546875 -1.609375 1.5q-0.953125 0.796875 -1.234375 1.09375q-0.265625 0.28125 -0.4375 0.5625l4.21875 0z" fill-rule="nonzero"></path><path fill="#000000" d="m48.922432 44.012478l0 -1.6875l5.125 0l0 1.6875l-5.125 0zm13.243923 4.078125l0 -1.25q-0.9375 1.46875 -2.75 1.46875q-1.171875 0 -2.171875 -0.640625q-0.9843712 -0.65625 -1.5312462 -1.8125q-0.53125 -1.171875 -0.53125 -2.6875q0 -1.46875 0.484375 -2.671875q0.5 -1.203125 1.4687462 -1.84375q0.984375 -0.640625 2.203125 -0.640625q0.890625 0 1.578125 0.375q0.703125 0.375 1.140625 0.984375l0 -4.875l1.65625 0l0 13.59375l-1.546875 0zm-5.28125 -4.921875q0 1.890625 0.796875 2.828125q0.8125 0.9375 1.890625 0.9375q1.09375 0 1.859375 -0.890625q0.765625 -0.890625 0.765625 -2.734375q0 -2.015625 -0.78125 -2.953125q-0.78125 -0.953125 -1.921875 -0.953125q-1.109375 0 -1.859375 0.90625q-0.75 0.90625 -0.75 2.859375z" fill-rule="nonzero"></path></g></svg>

