<?xml version="1.0" standalone="yes"?>

<svg version="1.1" viewBox="0.0 0.0 309.3307086614173 256.09448818897636" fill="none" stroke="none" stroke-linecap="square" stroke-miterlimit="10" xmlns="http://www.w3.org/2000/svg" xmlns:xlink="http://www.w3.org/1999/xlink"><clipPath id="p.0"><path d="m0 0l309.33072 0l0 256.09448l-309.33072 0l0 -256.09448z" clip-rule="nonzero"></path></clipPath><g clip-path="url(#p.0)"><path fill="#000000" fill-opacity="0.0" d="m0 0l309.33072 0l0 256.09448l-309.33072 0z" fill-rule="evenodd"></path><path fill="#d9d9d9" fill-opacity="0.8314" d="m116.51181 150.20998l43.86615 0l0 43.866135l-43.86615 0z" fill-rule="evenodd"></path><path fill="#adadad" fill-opacity="0.8314" d="m160.37796 150.20998l14.62204 -14.622055l0 43.86615l-14.62204 14.62204z" fill-rule="evenodd"></path><path fill="#e0e0e0" fill-opacity="0.8314" d="m116.51181 150.20998l14.622055 -14.622055l43.866135 0l-14.62204 14.622055z" fill-rule="evenodd"></path><path fill="#000000" fill-opacity="0.0" d="m116.51181 150.20998l14.622055 -14.622055l43.866135 0l0 43.86615l-14.62204 14.62204l-43.86615 0zm0 0l43.86615 0l14.62204 -14.622055m-14.62204 14.622055l0 43.866135" fill-rule="evenodd"></path><path stroke="#000000" stroke-width="1.0" stroke-linejoin="round" stroke-linecap="butt" stroke-dasharray="1.0,3.0" d="m116.51181 150.20998l14.622055 -14.622055l43.866135 0l0 43.86615l-14.62204 14.62204l-43.86615 0zm0 0l43.86615 0l14.62204 -14.622055m-14.62204 14.622055l0 43.866135" fill-rule="evenodd"></path><path fill="#d9d9d9" fill-opacity="0.8314" d="m101.92388 164.7979l43.866142 0l0 43.86615l-43.866142 0z" fill-rule="evenodd"></path><path fill="#adadad" fill-opacity="0.8314" d="m145.79002 164.7979l14.622055 -14.62204l0 43.866135l-14.622055 14.622055z" fill-rule="evenodd"></path><path fill="#e0e0e0" fill-opacity="0.8314" d="m101.92388 164.7979l14.622047 -14.62204l43.86615 0l-14.622055 14.62204z" fill-rule="evenodd"></path><path fill="#000000" fill-opacity="0.0" d="m101.92388 164.7979l14.622047 -14.62204l43.86615 0l0 43.866135l-14.622055 14.622055l-43.866142 0zm0 0l43.866142 0l14.622055 -14.62204m-14.622055 14.62204l0 43.86615" fill-rule="evenodd"></path><path stroke="#000000" stroke-width="1.0" stroke-linejoin="round" stroke-linecap="butt" stroke-dasharray="1.0,3.0" d="m101.92388 164.7979l14.622047 -14.62204l43.86615 0l0 43.866135l-14.622055 14.622055l-43.866142 0zm0 0l43.866142 0l14.622055 -14.62204m-14.622055 14.62204l0 43.86615" fill-rule="evenodd"></path><path fill="#d9d9d9" fill-opacity="0.8314" d="m87.73753 179.1076l43.866135 0l0 43.86615l-43.866135 0z" fill-rule="evenodd"></path><path fill="#adadad" fill-opacity="0.8314" d="m131.60367 179.1076l14.622055 -14.62204l0 43.866135l-14.622055 14.622055z" fill-rule="evenodd"></path><path fill="#e0e0e0" fill-opacity="0.8314" d="m87.73753 179.1076l14.622047 -14.62204l43.866142 0l-14.622055 14.62204z" fill-rule="evenodd"></path><path fill="#000000" fill-opacity="0.0" d="m87.73753 179.1076l14.622047 -14.62204l43.866142 0l0 43.866135l-14.622055 14.622055l-43.866135 0zm0 0l43.866135 0l14.622055 -14.62204m-14.622055 14.62204l0 43.86615" fill-rule="evenodd"></path><path stroke="#000000" stroke-width="1.0" stroke-linejoin="round" stroke-linecap="butt" stroke-dasharray="1.0,3.0" d="m87.73753 179.1076l14.622047 -14.62204l43.866142 0l0 43.866135l-14.622055 14.622055l-43.866135 0zm0 0l43.866135 0l14.622055 -14.62204m-14.622055 14.62204l0 43.86615" fill-rule="evenodd"></path><path fill="#d9d9d9" fill-opacity="0.8314" d="m72.98425 193.69817l43.866142 0l0 43.866135l-43.866142 0z" fill-rule="evenodd"></path><path fill="#adadad" fill-opacity="0.8314" d="m116.850395 193.69817l14.622047 -14.622055l0 43.86615l-14.622047 14.62204z" fill-rule="evenodd"></path><path fill="#e0e0e0" fill-opacity="0.8314" d="m72.98425 193.69817l14.622047 -14.622055l43.866142 0l-14.622047 14.622055z" fill-rule="evenodd"></path><path fill="#000000" fill-opacity="0.0" d="m72.98425 193.69817l14.622047 -14.622055l43.866142 0l0 43.86615l-14.622047 14.62204l-43.866142 0zm0 0l43.866142 0l14.622047 -14.622055m-14.622047 14.622055l0 43.866135" fill-rule="evenodd"></path><path stroke="#000000" stroke-width="1.0" stroke-linejoin="round" stroke-linecap="butt" stroke-dasharray="1.0,3.0" d="m72.98425 193.69817l14.622047 -14.622055l43.866142 0l0 43.86615l-14.622047 14.62204l-43.866142 0zm0 0l43.866142 0l14.622047 -14.622055m-14.622047 14.622055l0 43.866135" fill-rule="evenodd"></path><path fill="#d9d9d9" fill-opacity="0.8314" d="m160.44095 150.20998l43.866135 0l0 43.866135l-43.866135 0z" fill-rule="evenodd"></path><path fill="#adadad" fill-opacity="0.8314" d="m204.30708 150.20998l14.622055 -14.622055l0 43.86615l-14.622055 14.62204z" fill-rule="evenodd"></path><path fill="#e0e0e0" fill-opacity="0.8314" d="m160.44095 150.20998l14.62204 -14.622055l43.86615 0l-14.622055 14.622055z" fill-rule="evenodd"></path><path fill="#000000" fill-opacity="0.0" d="m160.44095 150.20998l14.62204 -14.622055l43.86615 0l0 43.86615l-14.622055 14.62204l-43.866135 0zm0 0l43.866135 0l14.622055 -14.622055m-14.622055 14.622055l0 43.866135" fill-rule="evenodd"></path><path stroke="#000000" stroke-width="1.0" stroke-linejoin="round" stroke-linecap="butt" stroke-dasharray="1.0,3.0" d="m160.44095 150.20998l14.62204 -14.622055l43.86615 0l0 43.86615l-14.622055 14.62204l-43.866135 0zm0 0l43.866135 0l14.622055 -14.622055m-14.622055 14.622055l0 43.866135" fill-rule="evenodd"></path><path fill="#d9d9d9" fill-opacity="0.8314" d="m145.85301 164.7979l43.86615 0l0 43.86615l-43.86615 0z" fill-rule="evenodd"></path><path fill="#adadad" fill-opacity="0.8314" d="m189.71916 164.7979l14.62204 -14.62204l0 43.866135l-14.62204 14.622055z" fill-rule="evenodd"></path><path fill="#e0e0e0" fill-opacity="0.8314" d="m145.85301 164.7979l14.622055 -14.62204l43.866135 0l-14.62204 14.62204z" fill-rule="evenodd"></path><path fill="#000000" fill-opacity="0.0" d="m145.85301 164.7979l14.622055 -14.62204l43.866135 0l0 43.866135l-14.62204 14.622055l-43.86615 0zm0 0l43.86615 0l14.62204 -14.62204m-14.62204 14.62204l0 43.86615" fill-rule="evenodd"></path><path stroke="#000000" stroke-width="1.0" stroke-linejoin="round" stroke-linecap="butt" stroke-dasharray="1.0,3.0" d="m145.85301 164.7979l14.622055 -14.62204l43.866135 0l0 43.866135l-14.62204 14.622055l-43.86615 0zm0 0l43.86615 0l14.62204 -14.62204m-14.62204 14.62204l0 43.86615" fill-rule="evenodd"></path><path fill="#d9d9d9" fill-opacity="0.8314" d="m131.66667 179.1076l43.866135 0l0 43.86615l-43.866135 0z" fill-rule="evenodd"></path><path fill="#adadad" fill-opacity="0.8314" d="m175.5328 179.1076l14.622055 -14.62204l0 43.866135l-14.622055 14.622055z" fill-rule="evenodd"></path><path fill="#e0e0e0" fill-opacity="0.8314" d="m131.66667 179.1076l14.62204 -14.62204l43.86615 0l-14.622055 14.62204z" fill-rule="evenodd"></path><path fill="#000000" fill-opacity="0.0" d="m131.66667 179.1076l14.62204 -14.62204l43.86615 0l0 43.866135l-14.622055 14.622055l-43.866135 0zm0 0l43.866135 0l14.622055 -14.62204m-14.622055 14.62204l0 43.86615" fill-rule="evenodd"></path><path stroke="#000000" stroke-width="1.0" stroke-linejoin="round" stroke-linecap="butt" stroke-dasharray="1.0,3.0" d="m131.66667 179.1076l14.62204 -14.62204l43.86615 0l0 43.866135l-14.622055 14.622055l-43.866135 0zm0 0l43.866135 0l14.622055 -14.62204m-14.622055 14.62204l0 43.86615" fill-rule="evenodd"></path><path fill="#d9d9d9" fill-opacity="0.8314" d="m116.91338 193.69817l43.866142 0l0 43.866135l-43.866142 0z" fill-rule="evenodd"></path><path fill="#adadad" fill-opacity="0.8314" d="m160.77953 193.69817l14.622055 -14.622055l0 43.86615l-14.622055 14.62204z" fill-rule="evenodd"></path><path fill="#e0e0e0" fill-opacity="0.8314" d="m116.91338 193.69817l14.622047 -14.622055l43.86615 0l-14.622055 14.622055z" fill-rule="evenodd"></path><path fill="#000000" fill-opacity="0.0" d="m116.91338 193.69817l14.622047 -14.622055l43.86615 0l0 43.86615l-14.622055 14.62204l-43.866142 0zm0 0l43.866142 0l14.622055 -14.622055m-14.622055 14.622055l0 43.866135" fill-rule="evenodd"></path><path stroke="#000000" stroke-width="1.0" stroke-linejoin="round" stroke-linecap="butt" stroke-dasharray="1.0,3.0" d="m116.91338 193.69817l14.622047 -14.622055l43.86615 0l0 43.86615l-14.622055 14.62204l-43.866142 0zm0 0l43.866142 0l14.622055 -14.622055m-14.622055 14.622055l0 43.866135" fill-rule="evenodd"></path><path fill="#d9d9d9" fill-opacity="0.8314" d="m204.41995 150.20998l43.866135 0l0 43.866135l-43.866135 0z" fill-rule="evenodd"></path><path fill="#adadad" fill-opacity="0.8314" d="m248.28609 150.20998l14.622055 -14.622055l0 43.86615l-14.622055 14.62204z" fill-rule="evenodd"></path><path fill="#e0e0e0" fill-opacity="0.8314" d="m204.41995 150.20998l14.62204 -14.622055l43.86615 0l-14.622055 14.622055z" fill-rule="evenodd"></path><path fill="#000000" fill-opacity="0.0" d="m204.41995 150.20998l14.62204 -14.622055l43.86615 0l0 43.86615l-14.622055 14.62204l-43.866135 0zm0 0l43.866135 0l14.622055 -14.622055m-14.622055 14.622055l0 43.866135" fill-rule="evenodd"></path><path stroke="#000000" stroke-width="1.0" stroke-linejoin="round" stroke-linecap="butt" stroke-dasharray="1.0,3.0" d="m204.41995 150.20998l14.62204 -14.622055l43.86615 0l0 43.86615l-14.622055 14.62204l-43.866135 0zm0 0l43.866135 0l14.622055 -14.622055m-14.622055 14.622055l0 43.866135" fill-rule="evenodd"></path><path fill="#d9d9d9" fill-opacity="0.8314" d="m189.83202 164.7979l43.86615 0l0 43.86615l-43.86615 0z" fill-rule="evenodd"></path><path fill="#adadad" fill-opacity="0.8314" d="m233.69817 164.7979l14.62204 -14.62204l0 43.866135l-14.62204 14.622055z" fill-rule="evenodd"></path><path fill="#e0e0e0" fill-opacity="0.8314" d="m189.83202 164.7979l14.622055 -14.62204l43.866135 0l-14.62204 14.62204z" fill-rule="evenodd"></path><path fill="#000000" fill-opacity="0.0" d="m189.83202 164.7979l14.622055 -14.62204l43.866135 0l0 43.866135l-14.62204 14.622055l-43.86615 0zm0 0l43.86615 0l14.62204 -14.62204m-14.62204 14.62204l0 43.86615" fill-rule="evenodd"></path><path stroke="#000000" stroke-width="1.0" stroke-linejoin="round" stroke-linecap="butt" stroke-dasharray="1.0,3.0" d="m189.83202 164.7979l14.622055 -14.62204l43.866135 0l0 43.866135l-14.62204 14.622055l-43.86615 0zm0 0l43.86615 0l14.62204 -14.62204m-14.62204 14.62204l0 43.86615" fill-rule="evenodd"></path><path fill="#d9d9d9" fill-opacity="0.8314" d="m175.64568 179.1076l43.866135 0l0 43.86615l-43.866135 0z" fill-rule="evenodd"></path><path fill="#adadad" fill-opacity="0.8314" d="m219.51181 179.1076l14.622055 -14.62204l0 43.866135l-14.622055 14.622055z" fill-rule="evenodd"></path><path fill="#e0e0e0" fill-opacity="0.8314" d="m175.64568 179.1076l14.62204 -14.62204l43.86615 0l-14.622055 14.62204z" fill-rule="evenodd"></path><path fill="#000000" fill-opacity="0.0" d="m175.64568 179.1076l14.62204 -14.62204l43.86615 0l0 43.866135l-14.622055 14.622055l-43.866135 0zm0 0l43.866135 0l14.622055 -14.62204m-14.622055 14.62204l0 43.86615" fill-rule="evenodd"></path><path stroke="#000000" stroke-width="1.0" stroke-linejoin="round" stroke-linecap="butt" stroke-dasharray="1.0,3.0" d="m175.64568 179.1076l14.62204 -14.62204l43.86615 0l0 43.866135l-14.622055 14.622055l-43.866135 0zm0 0l43.866135 0l14.622055 -14.62204m-14.622055 14.62204l0 43.86615" fill-rule="evenodd"></path><path fill="#d9d9d9" fill-opacity="0.8314" d="m160.8924 193.69817l43.866135 0l0 43.866135l-43.866135 0z" fill-rule="evenodd"></path><path fill="#adadad" fill-opacity="0.8314" d="m204.75853 193.69817l14.622055 -14.622055l0 43.86615l-14.622055 14.62204z" fill-rule="evenodd"></path><path fill="#e0e0e0" fill-opacity="0.8314" d="m160.8924 193.69817l14.62204 -14.622055l43.86615 0l-14.622055 14.622055z" fill-rule="evenodd"></path><path fill="#000000" fill-opacity="0.0" d="m160.8924 193.69817l14.62204 -14.622055l43.86615 0l0 43.86615l-14.622055 14.62204l-43.866135 0zm0 0l43.866135 0l14.622055 -14.622055m-14.622055 14.622055l0 43.866135" fill-rule="evenodd"></path><path stroke="#000000" stroke-width="1.0" stroke-linejoin="round" stroke-linecap="butt" stroke-dasharray="1.0,3.0" d="m160.8924 193.69817l14.62204 -14.622055l43.86615 0l0 43.86615l-14.622055 14.62204l-43.866135 0zm0 0l43.866135 0l14.622055 -14.622055m-14.622055 14.622055l0 43.866135" fill-rule="evenodd"></path><path fill="#d9d9d9" fill-opacity="0.8314" d="m248.34908 150.20998l43.866135 0l0 43.866135l-43.866135 0z" fill-rule="evenodd"></path><path fill="#adadad" fill-opacity="0.8314" d="m292.2152 150.20998l14.62207 -14.622055l0 43.86615l-14.62207 14.62204z" fill-rule="evenodd"></path><path fill="#e0e0e0" fill-opacity="0.8314" d="m248.34908 150.20998l14.622055 -14.622055l43.86615 0l-14.62207 14.622055z" fill-rule="evenodd"></path><path fill="#000000" fill-opacity="0.0" d="m248.34908 150.20998l14.622055 -14.622055l43.86615 0l0 43.86615l-14.62207 14.62204l-43.866135 0zm0 0l43.866135 0l14.62207 -14.622055m-14.62207 14.622055l0 43.866135" fill-rule="evenodd"></path><path stroke="#000000" stroke-width="1.0" stroke-linejoin="round" stroke-linecap="butt" stroke-dasharray="1.0,3.0" d="m248.34908 150.20998l14.622055 -14.622055l43.86615 0l0 43.86615l-14.62207 14.62204l-43.866135 0zm0 0l43.866135 0l14.62207 -14.622055m-14.62207 14.622055l0 43.866135" fill-rule="evenodd"></path><path fill="#d9d9d9" fill-opacity="0.8314" d="m233.76115 164.7979l43.866135 0l0 43.86615l-43.866135 0z" fill-rule="evenodd"></path><path fill="#adadad" fill-opacity="0.8314" d="m277.6273 164.7979l14.62204 -14.62204l0 43.866135l-14.62204 14.622055z" fill-rule="evenodd"></path><path fill="#e0e0e0" fill-opacity="0.8314" d="m233.76115 164.7979l14.622055 -14.62204l43.86612 0l-14.62204 14.62204z" fill-rule="evenodd"></path><path fill="#000000" fill-opacity="0.0" d="m233.76115 164.7979l14.622055 -14.62204l43.86612 0l0 43.866135l-14.62204 14.622055l-43.866135 0zm0 0l43.866135 0l14.62204 -14.62204m-14.62204 14.62204l0 43.86615" fill-rule="evenodd"></path><path stroke="#000000" stroke-width="1.0" stroke-linejoin="round" stroke-linecap="butt" stroke-dasharray="1.0,3.0" d="m233.76115 164.7979l14.622055 -14.62204l43.86612 0l0 43.866135l-14.62204 14.622055l-43.866135 0zm0 0l43.866135 0l14.62204 -14.62204m-14.62204 14.62204l0 43.86615" fill-rule="evenodd"></path><path fill="#d9d9d9" fill-opacity="0.8314" d="m219.5748 179.1076l43.86615 0l0 43.86615l-43.86615 0z" fill-rule="evenodd"></path><path fill="#adadad" fill-opacity="0.8314" d="m263.44095 179.1076l14.62204 -14.62204l0 43.866135l-14.62204 14.622055z" fill-rule="evenodd"></path><path fill="#e0e0e0" fill-opacity="0.8314" d="m219.5748 179.1076l14.622055 -14.62204l43.866135 0l-14.62204 14.62204z" fill-rule="evenodd"></path><path fill="#000000" fill-opacity="0.0" d="m219.5748 179.1076l14.622055 -14.62204l43.866135 0l0 43.866135l-14.62204 14.622055l-43.86615 0zm0 0l43.86615 0l14.62204 -14.62204m-14.62204 14.62204l0 43.86615" fill-rule="evenodd"></path><path stroke="#000000" stroke-width="1.0" stroke-linejoin="round" stroke-linecap="butt" stroke-dasharray="1.0,3.0" d="m219.5748 179.1076l14.622055 -14.62204l43.866135 0l0 43.866135l-14.62204 14.622055l-43.86615 0zm0 0l43.86615 0l14.62204 -14.62204m-14.62204 14.62204l0 43.86615" fill-rule="evenodd"></path><path fill="#d9d9d9" fill-opacity="0.8314" d="m204.82152 193.69817l43.86615 0l0 43.866135l-43.86615 0z" fill-rule="evenodd"></path><path fill="#adadad" fill-opacity="0.8314" d="m248.68767 193.69817l14.622055 -14.622055l0 43.86615l-14.622055 14.62204z" fill-rule="evenodd"></path><path fill="#e0e0e0" fill-opacity="0.8314" d="m204.82152 193.69817l14.622055 -14.622055l43.86615 0l-14.622055 14.622055z" fill-rule="evenodd"></path><path fill="#000000" fill-opacity="0.0" d="m204.82152 193.69817l14.622055 -14.622055l43.86615 0l0 43.86615l-14.622055 14.62204l-43.86615 0zm0 0l43.86615 0l14.622055 -14.622055m-14.622055 14.622055l0 43.866135" fill-rule="evenodd"></path><path stroke="#000000" stroke-width="1.0" stroke-linejoin="round" stroke-linecap="butt" stroke-dasharray="1.0,3.0" d="m204.82152 193.69817l14.622055 -14.622055l43.86615 0l0 43.86615l-14.622055 14.62204l-43.86615 0zm0 0l43.86615 0l14.622055 -14.622055m-14.622055 14.622055l0 43.866135" fill-rule="evenodd"></path><path fill="#d9d9d9" fill-opacity="0.8314" d="m116.51181 106.220474l43.86615 0l0 43.866135l-43.86615 0z" fill-rule="evenodd"></path><path fill="#adadad" fill-opacity="0.8314" d="m160.37796 106.220474l14.62204 -14.622047l0 43.866142l-14.62204 14.62204z" fill-rule="evenodd"></path><path fill="#e0e0e0" fill-opacity="0.8314" d="m116.51181 106.220474l14.622055 -14.622047l43.866135 0l-14.62204 14.622047z" fill-rule="evenodd"></path><path fill="#000000" fill-opacity="0.0" d="m116.51181 106.220474l14.622055 -14.622047l43.866135 0l0 43.866142l-14.62204 14.62204l-43.86615 0zm0 0l43.86615 0l14.62204 -14.622047m-14.62204 14.622047l0 43.866135" fill-rule="evenodd"></path><path stroke="#000000" stroke-width="1.0" stroke-linejoin="round" stroke-linecap="butt" stroke-dasharray="1.0,3.0" d="m116.51181 106.220474l14.622055 -14.622047l43.866135 0l0 43.866142l-14.62204 14.62204l-43.86615 0zm0 0l43.86615 0l14.62204 -14.622047m-14.62204 14.622047l0 43.866135" fill-rule="evenodd"></path><path fill="#d9d9d9" fill-opacity="0.8314" d="m101.92388 120.808395l43.866142 0l0 43.86615l-43.866142 0z" fill-rule="evenodd"></path><path fill="#adadad" fill-opacity="0.8314" d="m145.79002 120.808395l14.622055 -14.622047l0 43.866142l-14.622055 14.622055z" fill-rule="evenodd"></path><path fill="#e0e0e0" fill-opacity="0.8314" d="m101.92388 120.808395l14.622047 -14.622047l43.86615 0l-14.622055 14.622047z" fill-rule="evenodd"></path><path fill="#000000" fill-opacity="0.0" d="m101.92388 120.808395l14.622047 -14.622047l43.86615 0l0 43.866142l-14.622055 14.622055l-43.866142 0zm0 0l43.866142 0l14.622055 -14.622047m-14.622055 14.622047l0 43.86615" fill-rule="evenodd"></path><path stroke="#000000" stroke-width="1.0" stroke-linejoin="round" stroke-linecap="butt" stroke-dasharray="1.0,3.0" d="m101.92388 120.808395l14.622047 -14.622047l43.86615 0l0 43.866142l-14.622055 14.622055l-43.866142 0zm0 0l43.866142 0l14.622055 -14.622047m-14.622055 14.622047l0 43.86615" fill-rule="evenodd"></path><path fill="#d9d9d9" fill-opacity="0.8314" d="m87.73753 135.1181l43.866135 0l0 43.86615l-43.866135 0z" fill-rule="evenodd"></path><path fill="#adadad" fill-opacity="0.8314" d="m131.60367 135.1181l14.622055 -14.62204l0 43.866135l-14.622055 14.622055z" fill-rule="evenodd"></path><path fill="#e0e0e0" fill-opacity="0.8314" d="m87.73753 135.1181l14.622047 -14.62204l43.866142 0l-14.622055 14.62204z" fill-rule="evenodd"></path><path fill="#000000" fill-opacity="0.0" d="m87.73753 135.1181l14.622047 -14.62204l43.866142 0l0 43.866135l-14.622055 14.622055l-43.866135 0zm0 0l43.866135 0l14.622055 -14.62204m-14.622055 14.62204l0 43.86615" fill-rule="evenodd"></path><path stroke="#000000" stroke-width="1.0" stroke-linejoin="round" stroke-linecap="butt" stroke-dasharray="1.0,3.0" d="m87.73753 135.1181l14.622047 -14.62204l43.866142 0l0 43.866135l-14.622055 14.622055l-43.866135 0zm0 0l43.866135 0l14.622055 -14.62204m-14.622055 14.62204l0 43.86615" fill-rule="evenodd"></path><path fill="#d9d9d9" fill-opacity="0.8314" d="m72.98425 149.70866l43.866142 0l0 43.866135l-43.866142 0z" fill-rule="evenodd"></path><path fill="#adadad" fill-opacity="0.8314" d="m116.850395 149.70866l14.622047 -14.622055l0 43.86615l-14.622047 14.62204z" fill-rule="evenodd"></path><path fill="#e0e0e0" fill-opacity="0.8314" d="m72.98425 149.70866l14.622047 -14.622055l43.866142 0l-14.622047 14.622055z" fill-rule="evenodd"></path><path fill="#000000" fill-opacity="0.0" d="m72.98425 149.70866l14.622047 -14.622055l43.866142 0l0 43.86615l-14.622047 14.62204l-43.866142 0zm0 0l43.866142 0l14.622047 -14.622055m-14.622047 14.622055l0 43.866135" fill-rule="evenodd"></path><path stroke="#000000" stroke-width="1.0" stroke-linejoin="round" stroke-linecap="butt" stroke-dasharray="1.0,3.0" d="m72.98425 149.70866l14.622047 -14.622055l43.866142 0l0 43.86615l-14.622047 14.62204l-43.866142 0zm0 0l43.866142 0l14.622047 -14.622055m-14.622047 14.622055l0 43.866135" fill-rule="evenodd"></path><path fill="#d9d9d9" fill-opacity="0.8314" d="m160.44095 106.220474l43.866135 0l0 43.866135l-43.866135 0z" fill-rule="evenodd"></path><path fill="#adadad" fill-opacity="0.8314" d="m204.30708 106.220474l14.622055 -14.622047l0 43.866142l-14.622055 14.62204z" fill-rule="evenodd"></path><path fill="#e0e0e0" fill-opacity="0.8314" d="m160.44095 106.220474l14.62204 -14.622047l43.86615 0l-14.622055 14.622047z" fill-rule="evenodd"></path><path fill="#000000" fill-opacity="0.0" d="m160.44095 106.220474l14.62204 -14.622047l43.86615 0l0 43.866142l-14.622055 14.62204l-43.866135 0zm0 0l43.866135 0l14.622055 -14.622047m-14.622055 14.622047l0 43.866135" fill-rule="evenodd"></path><path stroke="#000000" stroke-width="1.0" stroke-linejoin="round" stroke-linecap="butt" stroke-dasharray="1.0,3.0" d="m160.44095 106.220474l14.62204 -14.622047l43.86615 0l0 43.866142l-14.622055 14.62204l-43.866135 0zm0 0l43.866135 0l14.622055 -14.622047m-14.622055 14.622047l0 43.866135" fill-rule="evenodd"></path><path fill="#d9d9d9" fill-opacity="0.8314" d="m145.85301 120.808395l43.86615 0l0 43.86615l-43.86615 0z" fill-rule="evenodd"></path><path fill="#adadad" fill-opacity="0.8314" d="m189.71916 120.808395l14.62204 -14.622047l0 43.866142l-14.62204 14.622055z" fill-rule="evenodd"></path><path fill="#e0e0e0" fill-opacity="0.8314" d="m145.85301 120.808395l14.622055 -14.622047l43.866135 0l-14.62204 14.622047z" fill-rule="evenodd"></path><path fill="#000000" fill-opacity="0.0" d="m145.85301 120.808395l14.622055 -14.622047l43.866135 0l0 43.866142l-14.62204 14.622055l-43.86615 0zm0 0l43.86615 0l14.62204 -14.622047m-14.62204 14.622047l0 43.86615" fill-rule="evenodd"></path><path stroke="#000000" stroke-width="1.0" stroke-linejoin="round" stroke-linecap="butt" stroke-dasharray="1.0,3.0" d="m145.85301 120.808395l14.622055 -14.622047l43.866135 0l0 43.866142l-14.62204 14.622055l-43.86615 0zm0 0l43.86615 0l14.62204 -14.622047m-14.62204 14.622047l0 43.86615" fill-rule="evenodd"></path><path fill="#d9d9d9" fill-opacity="0.8314" d="m131.66667 135.1181l43.866135 0l0 43.86615l-43.866135 0z" fill-rule="evenodd"></path><path fill="#adadad" fill-opacity="0.8314" d="m175.5328 135.1181l14.622055 -14.62204l0 43.866135l-14.622055 14.622055z" fill-rule="evenodd"></path><path fill="#e0e0e0" fill-opacity="0.8314" d="m131.66667 135.1181l14.62204 -14.62204l43.86615 0l-14.622055 14.62204z" fill-rule="evenodd"></path><path fill="#000000" fill-opacity="0.0" d="m131.66667 135.1181l14.62204 -14.62204l43.86615 0l0 43.866135l-14.622055 14.622055l-43.866135 0zm0 0l43.866135 0l14.622055 -14.62204m-14.622055 14.62204l0 43.86615" fill-rule="evenodd"></path><path stroke="#000000" stroke-width="1.0" stroke-linejoin="round" stroke-linecap="butt" stroke-dasharray="1.0,3.0" d="m131.66667 135.1181l14.62204 -14.62204l43.86615 0l0 43.866135l-14.622055 14.622055l-43.866135 0zm0 0l43.866135 0l14.622055 -14.62204m-14.622055 14.62204l0 43.86615" fill-rule="evenodd"></path><path fill="#d9d9d9" fill-opacity="0.8314" d="m116.91338 149.70866l43.866142 0l0 43.866135l-43.866142 0z" fill-rule="evenodd"></path><path fill="#adadad" fill-opacity="0.8314" d="m160.77953 149.70866l14.622055 -14.622055l0 43.86615l-14.622055 14.62204z" fill-rule="evenodd"></path><path fill="#e0e0e0" fill-opacity="0.8314" d="m116.91338 149.70866l14.622047 -14.622055l43.86615 0l-14.622055 14.622055z" fill-rule="evenodd"></path><path fill="#000000" fill-opacity="0.0" d="m116.91338 149.70866l14.622047 -14.622055l43.86615 0l0 43.86615l-14.622055 14.62204l-43.866142 0zm0 0l43.866142 0l14.622055 -14.622055m-14.622055 14.622055l0 43.866135" fill-rule="evenodd"></path><path stroke="#000000" stroke-width="1.0" stroke-linejoin="round" stroke-linecap="butt" stroke-dasharray="1.0,3.0" d="m116.91338 149.70866l14.622047 -14.622055l43.86615 0l0 43.86615l-14.622055 14.62204l-43.866142 0zm0 0l43.866142 0l14.622055 -14.622055m-14.622055 14.622055l0 43.866135" fill-rule="evenodd"></path><path fill="#d9d9d9" fill-opacity="0.8314" d="m204.41995 106.220474l43.866135 0l0 43.866135l-43.866135 0z" fill-rule="evenodd"></path><path fill="#adadad" fill-opacity="0.8314" d="m248.28609 106.220474l14.622055 -14.622047l0 43.866142l-14.622055 14.62204z" fill-rule="evenodd"></path><path fill="#e0e0e0" fill-opacity="0.8314" d="m204.41995 106.220474l14.62204 -14.622047l43.86615 0l-14.622055 14.622047z" fill-rule="evenodd"></path><path fill="#000000" fill-opacity="0.0" d="m204.41995 106.220474l14.62204 -14.622047l43.86615 0l0 43.866142l-14.622055 14.62204l-43.866135 0zm0 0l43.866135 0l14.622055 -14.622047m-14.622055 14.622047l0 43.866135" fill-rule="evenodd"></path><path stroke="#000000" stroke-width="1.0" stroke-linejoin="round" stroke-linecap="butt" stroke-dasharray="1.0,3.0" d="m204.41995 106.220474l14.62204 -14.622047l43.86615 0l0 43.866142l-14.622055 14.62204l-43.866135 0zm0 0l43.866135 0l14.622055 -14.622047m-14.622055 14.622047l0 43.866135" fill-rule="evenodd"></path><path fill="#d9d9d9" fill-opacity="0.8314" d="m189.83202 120.808395l43.86615 0l0 43.86615l-43.86615 0z" fill-rule="evenodd"></path><path fill="#adadad" fill-opacity="0.8314" d="m233.69817 120.808395l14.62204 -14.622047l0 43.866142l-14.62204 14.622055z" fill-rule="evenodd"></path><path fill="#e0e0e0" fill-opacity="0.8314" d="m189.83202 120.808395l14.622055 -14.622047l43.866135 0l-14.62204 14.622047z" fill-rule="evenodd"></path><path fill="#000000" fill-opacity="0.0" d="m189.83202 120.808395l14.622055 -14.622047l43.866135 0l0 43.866142l-14.62204 14.622055l-43.86615 0zm0 0l43.86615 0l14.62204 -14.622047m-14.62204 14.622047l0 43.86615" fill-rule="evenodd"></path><path stroke="#000000" stroke-width="1.0" stroke-linejoin="round" stroke-linecap="butt" stroke-dasharray="1.0,3.0" d="m189.83202 120.808395l14.622055 -14.622047l43.866135 0l0 43.866142l-14.62204 14.622055l-43.86615 0zm0 0l43.86615 0l14.62204 -14.622047m-14.62204 14.622047l0 43.86615" fill-rule="evenodd"></path><path fill="#d9d9d9" fill-opacity="0.8314" d="m175.64568 135.1181l43.866135 0l0 43.86615l-43.866135 0z" fill-rule="evenodd"></path><path fill="#adadad" fill-opacity="0.8314" d="m219.51181 135.1181l14.622055 -14.62204l0 43.866135l-14.622055 14.622055z" fill-rule="evenodd"></path><path fill="#e0e0e0" fill-opacity="0.8314" d="m175.64568 135.1181l14.62204 -14.62204l43.86615 0l-14.622055 14.62204z" fill-rule="evenodd"></path><path fill="#000000" fill-opacity="0.0" d="m175.64568 135.1181l14.62204 -14.62204l43.86615 0l0 43.866135l-14.622055 14.622055l-43.866135 0zm0 0l43.866135 0l14.622055 -14.62204m-14.622055 14.62204l0 43.86615" fill-rule="evenodd"></path><path stroke="#000000" stroke-width="1.0" stroke-linejoin="round" stroke-linecap="butt" stroke-dasharray="1.0,3.0" d="m175.64568 135.1181l14.62204 -14.62204l43.86615 0l0 43.866135l-14.622055 14.622055l-43.866135 0zm0 0l43.866135 0l14.622055 -14.62204m-14.622055 14.62204l0 43.86615" fill-rule="evenodd"></path><path fill="#d9d9d9" fill-opacity="0.8314" d="m160.8924 149.70866l43.866135 0l0 43.866135l-43.866135 0z" fill-rule="evenodd"></path><path fill="#adadad" fill-opacity="0.8314" d="m204.75853 149.70866l14.622055 -14.622055l0 43.86615l-14.622055 14.62204z" fill-rule="evenodd"></path><path fill="#e0e0e0" fill-opacity="0.8314" d="m160.8924 149.70866l14.62204 -14.622055l43.86615 0l-14.622055 14.622055z" fill-rule="evenodd"></path><path fill="#000000" fill-opacity="0.0" d="m160.8924 149.70866l14.62204 -14.622055l43.86615 0l0 43.86615l-14.622055 14.62204l-43.866135 0zm0 0l43.866135 0l14.622055 -14.622055m-14.622055 14.622055l0 43.866135" fill-rule="evenodd"></path><path stroke="#000000" stroke-width="1.0" stroke-linejoin="round" stroke-linecap="butt" stroke-dasharray="1.0,3.0" d="m160.8924 149.70866l14.62204 -14.622055l43.86615 0l0 43.86615l-14.622055 14.62204l-43.866135 0zm0 0l43.866135 0l14.622055 -14.622055m-14.622055 14.622055l0 43.866135" fill-rule="evenodd"></path><path fill="#d9d9d9" fill-opacity="0.8314" d="m248.34908 106.220474l43.866135 0l0 43.866135l-43.866135 0z" fill-rule="evenodd"></path><path fill="#adadad" fill-opacity="0.8314" d="m292.2152 106.220474l14.62207 -14.622047l0 43.866142l-14.62207 14.62204z" fill-rule="evenodd"></path><path fill="#e0e0e0" fill-opacity="0.8314" d="m248.34908 106.220474l14.622055 -14.622047l43.86615 0l-14.62207 14.622047z" fill-rule="evenodd"></path><path fill="#000000" fill-opacity="0.0" d="m248.34908 106.220474l14.622055 -14.622047l43.86615 0l0 43.866142l-14.62207 14.62204l-43.866135 0zm0 0l43.866135 0l14.62207 -14.622047m-14.62207 14.622047l0 43.866135" fill-rule="evenodd"></path><path stroke="#000000" stroke-width="1.0" stroke-linejoin="round" stroke-linecap="butt" stroke-dasharray="1.0,3.0" d="m248.34908 106.220474l14.622055 -14.622047l43.86615 0l0 43.866142l-14.62207 14.62204l-43.866135 0zm0 0l43.866135 0l14.62207 -14.622047m-14.62207 14.622047l0 43.866135" fill-rule="evenodd"></path><path fill="#d9d9d9" fill-opacity="0.8314" d="m233.76115 120.808395l43.866135 0l0 43.86615l-43.866135 0z" fill-rule="evenodd"></path><path fill="#adadad" fill-opacity="0.8314" d="m277.6273 120.808395l14.62204 -14.622047l0 43.866142l-14.62204 14.622055z" fill-rule="evenodd"></path><path fill="#e0e0e0" fill-opacity="0.8314" d="m233.76115 120.808395l14.622055 -14.622047l43.86612 0l-14.62204 14.622047z" fill-rule="evenodd"></path><path fill="#000000" fill-opacity="0.0" d="m233.76115 120.808395l14.622055 -14.622047l43.86612 0l0 43.866142l-14.62204 14.622055l-43.866135 0zm0 0l43.866135 0l14.62204 -14.622047m-14.62204 14.622047l0 43.86615" fill-rule="evenodd"></path><path stroke="#000000" stroke-width="1.0" stroke-linejoin="round" stroke-linecap="butt" stroke-dasharray="1.0,3.0" d="m233.76115 120.808395l14.622055 -14.622047l43.86612 0l0 43.866142l-14.62204 14.622055l-43.866135 0zm0 0l43.866135 0l14.62204 -14.622047m-14.62204 14.622047l0 43.86615" fill-rule="evenodd"></path><path fill="#d9d9d9" fill-opacity="0.8314" d="m219.5748 135.1181l43.86615 0l0 43.86615l-43.86615 0z" fill-rule="evenodd"></path><path fill="#adadad" fill-opacity="0.8314" d="m263.44095 135.1181l14.62204 -14.62204l0 43.866135l-14.62204 14.622055z" fill-rule="evenodd"></path><path fill="#e0e0e0" fill-opacity="0.8314" d="m219.5748 135.1181l14.622055 -14.62204l43.866135 0l-14.62204 14.62204z" fill-rule="evenodd"></path><path fill="#000000" fill-opacity="0.0" d="m219.5748 135.1181l14.622055 -14.62204l43.866135 0l0 43.866135l-14.62204 14.622055l-43.86615 0zm0 0l43.86615 0l14.62204 -14.62204m-14.62204 14.62204l0 43.86615" fill-rule="evenodd"></path><path stroke="#000000" stroke-width="1.0" stroke-linejoin="round" stroke-linecap="butt" stroke-dasharray="1.0,3.0" d="m219.5748 135.1181l14.622055 -14.62204l43.866135 0l0 43.866135l-14.62204 14.622055l-43.86615 0zm0 0l43.86615 0l14.62204 -14.62204m-14.62204 14.62204l0 43.86615" fill-rule="evenodd"></path><path fill="#d9d9d9" fill-opacity="0.8314" d="m204.82152 149.70866l43.86615 0l0 43.866135l-43.86615 0z" fill-rule="evenodd"></path><path fill="#adadad" fill-opacity="0.8314" d="m248.68767 149.70866l14.622055 -14.622055l0 43.86615l-14.622055 14.62204z" fill-rule="evenodd"></path><path fill="#e0e0e0" fill-opacity="0.8314" d="m204.82152 149.70866l14.622055 -14.622055l43.86615 0l-14.622055 14.622055z" fill-rule="evenodd"></path><path fill="#000000" fill-opacity="0.0" d="m204.82152 149.70866l14.622055 -14.622055l43.86615 0l0 43.86615l-14.622055 14.62204l-43.86615 0zm0 0l43.86615 0l14.622055 -14.622055m-14.622055 14.622055l0 43.866135" fill-rule="evenodd"></path><path stroke="#000000" stroke-width="1.0" stroke-linejoin="round" stroke-linecap="butt" stroke-dasharray="1.0,3.0" d="m204.82152 149.70866l14.622055 -14.622055l43.86615 0l0 43.86615l-14.622055 14.62204l-43.86615 0zm0 0l43.86615 0l14.622055 -14.622055m-14.622055 14.622055l0 43.866135" fill-rule="evenodd"></path><path fill="#000000" fill-opacity="0.0" d="m72.98163 61.49598l175.3937 0l0 176.05511l-175.3937 0z" fill-rule="evenodd"></path><path fill="#000000" fill-opacity="0.0" d="m248.37534 61.49598l58.46457 -58.464565l0 176.05511l-58.46457 58.46457z" fill-rule="evenodd"></path><path fill="#000000" fill-opacity="0.0" d="m72.98163 61.49598l58.46457 -58.464565l175.3937 0l-58.46457 58.464565z" fill-rule="evenodd"></path><path fill="#000000" fill-opacity="0.0" d="m72.98163 61.49598l58.46457 -58.464565l175.3937 0l0 176.05511l-58.46457 58.46457l-175.3937 0zm0 0l175.3937 0l58.46457 -58.464565m-58.46457 58.464565l0 176.05511" fill-rule="evenodd"></path><path fill="#000000" fill-opacity="0.2" d="m248.37534 61.49598l58.46457 -58.464565l0 176.05511l-58.46457 58.46457z" fill-rule="evenodd"></path><path fill="#ffffff" fill-opacity="0.2" d="m72.98163 61.49598l58.46457 -58.464565l175.3937 0l-58.46457 58.464565z" fill-rule="evenodd"></path><path stroke="#000000" stroke-width="1.0" stroke-linejoin="round" stroke-linecap="butt" d="m72.98163 61.49598l58.46457 -58.464565l175.3937 0l0 176.05511l-58.46457 58.46457l-175.3937 0zm0 0l175.3937 0l58.46457 -58.464565m-58.46457 58.464565l0 176.05511" fill-rule="evenodd"></path><path fill="#00ff00" d="m116.51181 61.64173l43.86615 0l0 43.866142l-43.86615 0z" fill-rule="evenodd"></path><path fill="#00cb00" d="m160.37796 61.64173l14.62204 -14.622047l0 43.866142l-14.62204 14.622047z" fill-rule="evenodd"></path><path fill="#33ff33" d="m116.51181 61.64173l14.622055 -14.622047l43.866135 0l-14.62204 14.622047z" fill-rule="evenodd"></path><path fill="#000000" fill-opacity="0.0" d="m116.51181 61.64173l14.622055 -14.622047l43.866135 0l0 43.866142l-14.62204 14.622047l-43.86615 0zm0 0l43.86615 0l14.62204 -14.622047m-14.62204 14.622047l0 43.866142" fill-rule="evenodd"></path><path stroke="#000000" stroke-width="1.0" stroke-linejoin="round" stroke-linecap="butt" d="m116.51181 61.64173l14.622055 -14.622047l43.866135 0l0 43.866142l-14.62204 14.622047l-43.86615 0zm0 0l43.86615 0l14.62204 -14.622047m-14.62204 14.622047l0 43.866142" fill-rule="evenodd"></path><path fill="#d9ead3" d="m101.92388 76.22966l43.866142 0l0 43.866142l-43.866142 0z" fill-rule="evenodd"></path><path fill="#adbba8" d="m145.79002 76.22966l14.622055 -14.622047l0 43.866142l-14.622055 14.622047z" fill-rule="evenodd"></path><path fill="#e0eedb" d="m101.92388 76.22966l14.622047 -14.622047l43.86615 0l-14.622055 14.622047z" fill-rule="evenodd"></path><path fill="#000000" fill-opacity="0.0" d="m101.92388 76.22966l14.622047 -14.622047l43.86615 0l0 43.866142l-14.622055 14.622047l-43.866142 0zm0 0l43.866142 0l14.622055 -14.622047m-14.622055 14.622047l0 43.866142" fill-rule="evenodd"></path><path stroke="#000000" stroke-width="1.0" stroke-linejoin="round" stroke-linecap="butt" d="m101.92388 76.22966l14.622047 -14.622047l43.86615 0l0 43.866142l-14.622055 14.622047l-43.866142 0zm0 0l43.866142 0l14.622055 -14.622047m-14.622055 14.622047l0 43.866142" fill-rule="evenodd"></path><path fill="#d9ead3" d="m87.73753 90.53937l43.866135 0l0 43.86615l-43.866135 0z" fill-rule="evenodd"></path><path fill="#adbba8" d="m131.60367 90.53937l14.622055 -14.622047l0 43.866142l-14.622055 14.622055z" fill-rule="evenodd"></path><path fill="#e0eedb" d="m87.73753 90.53937l14.622047 -14.622047l43.866142 0l-14.622055 14.622047z" fill-rule="evenodd"></path><path fill="#000000" fill-opacity="0.0" d="m87.73753 90.53937l14.622047 -14.622047l43.866142 0l0 43.866142l-14.622055 14.622055l-43.866135 0zm0 0l43.866135 0l14.622055 -14.622047m-14.622055 14.622047l0 43.86615" fill-rule="evenodd"></path><path stroke="#000000" stroke-width="1.0" stroke-linejoin="round" stroke-linecap="butt" d="m87.73753 90.53937l14.622047 -14.622047l43.866142 0l0 43.866142l-14.622055 14.622055l-43.866135 0zm0 0l43.866135 0l14.622055 -14.622047m-14.622055 14.622047l0 43.86615" fill-rule="evenodd"></path><path fill="#d9ead3" d="m72.98425 105.12992l43.866142 0l0 43.866142l-43.866142 0z" fill-rule="evenodd"></path><path fill="#adbba8" d="m116.850395 105.12992l14.622047 -14.622047l0 43.866135l-14.622047 14.622055z" fill-rule="evenodd"></path><path fill="#e0eedb" d="m72.98425 105.12992l14.622047 -14.622047l43.866142 0l-14.622047 14.622047z" fill-rule="evenodd"></path><path fill="#000000" fill-opacity="0.0" d="m72.98425 105.12992l14.622047 -14.622047l43.866142 0l0 43.866135l-14.622047 14.622055l-43.866142 0zm0 0l43.866142 0l14.622047 -14.622047m-14.622047 14.622047l0 43.866142" fill-rule="evenodd"></path><path stroke="#000000" stroke-width="1.0" stroke-linejoin="round" stroke-linecap="butt" d="m72.98425 105.12992l14.622047 -14.622047l43.866142 0l0 43.866135l-14.622047 14.622055l-43.866142 0zm0 0l43.866142 0l14.622047 -14.622047m-14.622047 14.622047l0 43.866142" fill-rule="evenodd"></path><path fill="#d9ead3" d="m160.44095 61.64173l43.866135 0l0 43.866142l-43.866135 0z" fill-rule="evenodd"></path><path fill="#adbba8" d="m204.30708 61.64173l14.622055 -14.622047l0 43.866142l-14.622055 14.622047z" fill-rule="evenodd"></path><path fill="#e0eedb" d="m160.44095 61.64173l14.62204 -14.622047l43.86615 0l-14.622055 14.622047z" fill-rule="evenodd"></path><path fill="#000000" fill-opacity="0.0" d="m160.44095 61.64173l14.62204 -14.622047l43.86615 0l0 43.866142l-14.622055 14.622047l-43.866135 0zm0 0l43.866135 0l14.622055 -14.622047m-14.622055 14.622047l0 43.866142" fill-rule="evenodd"></path><path stroke="#000000" stroke-width="1.0" stroke-linejoin="round" stroke-linecap="butt" d="m160.44095 61.64173l14.62204 -14.622047l43.86615 0l0 43.866142l-14.622055 14.622047l-43.866135 0zm0 0l43.866135 0l14.622055 -14.622047m-14.622055 14.622047l0 43.866142" fill-rule="evenodd"></path><path fill="#d9ead3" d="m145.85301 76.22966l43.86615 0l0 43.866142l-43.86615 0z" fill-rule="evenodd"></path><path fill="#adbba8" d="m189.71916 76.22966l14.62204 -14.622047l0 43.866142l-14.62204 14.622047z" fill-rule="evenodd"></path><path fill="#e0eedb" d="m145.85301 76.22966l14.622055 -14.622047l43.866135 0l-14.62204 14.622047z" fill-rule="evenodd"></path><path fill="#000000" fill-opacity="0.0" d="m145.85301 76.22966l14.622055 -14.622047l43.866135 0l0 43.866142l-14.62204 14.622047l-43.86615 0zm0 0l43.86615 0l14.62204 -14.622047m-14.62204 14.622047l0 43.866142" fill-rule="evenodd"></path><path stroke="#000000" stroke-width="1.0" stroke-linejoin="round" stroke-linecap="butt" d="m145.85301 76.22966l14.622055 -14.622047l43.866135 0l0 43.866142l-14.62204 14.622047l-43.86615 0zm0 0l43.86615 0l14.62204 -14.622047m-14.62204 14.622047l0 43.866142" fill-rule="evenodd"></path><path fill="#d9ead3" d="m131.66667 90.53937l43.866135 0l0 43.86615l-43.866135 0z" fill-rule="evenodd"></path><path fill="#adbba8" d="m175.5328 90.53937l14.622055 -14.622047l0 43.866142l-14.622055 14.622055z" fill-rule="evenodd"></path><path fill="#e0eedb" d="m131.66667 90.53937l14.62204 -14.622047l43.86615 0l-14.622055 14.622047z" fill-rule="evenodd"></path><path fill="#000000" fill-opacity="0.0" d="m131.66667 90.53937l14.62204 -14.622047l43.86615 0l0 43.866142l-14.622055 14.622055l-43.866135 0zm0 0l43.866135 0l14.622055 -14.622047m-14.622055 14.622047l0 43.86615" fill-rule="evenodd"></path><path stroke="#000000" stroke-width="1.0" stroke-linejoin="round" stroke-linecap="butt" d="m131.66667 90.53937l14.62204 -14.622047l43.86615 0l0 43.866142l-14.622055 14.622055l-43.866135 0zm0 0l43.866135 0l14.622055 -14.622047m-14.622055 14.622047l0 43.86615" fill-rule="evenodd"></path><path fill="#d9ead3" d="m116.91338 105.12992l43.866142 0l0 43.866142l-43.866142 0z" fill-rule="evenodd"></path><path fill="#adbba8" d="m160.77953 105.12992l14.622055 -14.622047l0 43.866135l-14.622055 14.622055z" fill-rule="evenodd"></path><path fill="#e0eedb" d="m116.91338 105.12992l14.622047 -14.622047l43.86615 0l-14.622055 14.622047z" fill-rule="evenodd"></path><path fill="#000000" fill-opacity="0.0" d="m116.91338 105.12992l14.622047 -14.622047l43.86615 0l0 43.866135l-14.622055 14.622055l-43.866142 0zm0 0l43.866142 0l14.622055 -14.622047m-14.622055 14.622047l0 43.866142" fill-rule="evenodd"></path><path stroke="#000000" stroke-width="1.0" stroke-linejoin="round" stroke-linecap="butt" d="m116.91338 105.12992l14.622047 -14.622047l43.86615 0l0 43.866135l-14.622055 14.622055l-43.866142 0zm0 0l43.866142 0l14.622055 -14.622047m-14.622055 14.622047l0 43.866142" fill-rule="evenodd"></path><path fill="#d9ead3" d="m204.41995 61.64173l43.866135 0l0 43.866142l-43.866135 0z" fill-rule="evenodd"></path><path fill="#adbba8" d="m248.28609 61.64173l14.622055 -14.622047l0 43.866142l-14.622055 14.622047z" fill-rule="evenodd"></path><path fill="#e0eedb" d="m204.41995 61.64173l14.62204 -14.622047l43.86615 0l-14.622055 14.622047z" fill-rule="evenodd"></path><path fill="#000000" fill-opacity="0.0" d="m204.41995 61.64173l14.62204 -14.622047l43.86615 0l0 43.866142l-14.622055 14.622047l-43.866135 0zm0 0l43.866135 0l14.622055 -14.622047m-14.622055 14.622047l0 43.866142" fill-rule="evenodd"></path><path stroke="#000000" stroke-width="1.0" stroke-linejoin="round" stroke-linecap="butt" d="m204.41995 61.64173l14.62204 -14.622047l43.86615 0l0 43.866142l-14.622055 14.622047l-43.866135 0zm0 0l43.866135 0l14.622055 -14.622047m-14.622055 14.622047l0 43.866142" fill-rule="evenodd"></path><path fill="#d9ead3" d="m189.83202 76.22966l43.86615 0l0 43.866142l-43.86615 0z" fill-rule="evenodd"></path><path fill="#adbba8" d="m233.69817 76.22966l14.62204 -14.622047l0 43.866142l-14.62204 14.622047z" fill-rule="evenodd"></path><path fill="#e0eedb" d="m189.83202 76.22966l14.622055 -14.622047l43.866135 0l-14.62204 14.622047z" fill-rule="evenodd"></path><path fill="#000000" fill-opacity="0.0" d="m189.83202 76.22966l14.622055 -14.622047l43.866135 0l0 43.866142l-14.62204 14.622047l-43.86615 0zm0 0l43.86615 0l14.62204 -14.622047m-14.62204 14.622047l0 43.866142" fill-rule="evenodd"></path><path stroke="#000000" stroke-width="1.0" stroke-linejoin="round" stroke-linecap="butt" d="m189.83202 76.22966l14.622055 -14.622047l43.866135 0l0 43.866142l-14.62204 14.622047l-43.86615 0zm0 0l43.86615 0l14.62204 -14.622047m-14.62204 14.622047l0 43.866142" fill-rule="evenodd"></path><path fill="#d9ead3" d="m175.64568 90.53937l43.866135 0l0 43.86615l-43.866135 0z" fill-rule="evenodd"></path><path fill="#adbba8" d="m219.51181 90.53937l14.622055 -14.622047l0 43.866142l-14.622055 14.622055z" fill-rule="evenodd"></path><path fill="#e0eedb" d="m175.64568 90.53937l14.62204 -14.622047l43.86615 0l-14.622055 14.622047z" fill-rule="evenodd"></path><path fill="#000000" fill-opacity="0.0" d="m175.64568 90.53937l14.62204 -14.622047l43.86615 0l0 43.866142l-14.622055 14.622055l-43.866135 0zm0 0l43.866135 0l14.622055 -14.622047m-14.622055 14.622047l0 43.86615" fill-rule="evenodd"></path><path stroke="#000000" stroke-width="1.0" stroke-linejoin="round" stroke-linecap="butt" d="m175.64568 90.53937l14.62204 -14.622047l43.86615 0l0 43.866142l-14.622055 14.622055l-43.866135 0zm0 0l43.866135 0l14.622055 -14.622047m-14.622055 14.622047l0 43.86615" fill-rule="evenodd"></path><path fill="#d9ead3" d="m160.8924 105.12992l43.866135 0l0 43.866142l-43.866135 0z" fill-rule="evenodd"></path><path fill="#adbba8" d="m204.75853 105.12992l14.622055 -14.622047l0 43.866135l-14.622055 14.622055z" fill-rule="evenodd"></path><path fill="#e0eedb" d="m160.8924 105.12992l14.62204 -14.622047l43.86615 0l-14.622055 14.622047z" fill-rule="evenodd"></path><path fill="#000000" fill-opacity="0.0" d="m160.8924 105.12992l14.62204 -14.622047l43.86615 0l0 43.866135l-14.622055 14.622055l-43.866135 0zm0 0l43.866135 0l14.622055 -14.622047m-14.622055 14.622047l0 43.866142" fill-rule="evenodd"></path><path stroke="#000000" stroke-width="1.0" stroke-linejoin="round" stroke-linecap="butt" d="m160.8924 105.12992l14.62204 -14.622047l43.86615 0l0 43.866135l-14.622055 14.622055l-43.866135 0zm0 0l43.866135 0l14.622055 -14.622047m-14.622055 14.622047l0 43.866142" fill-rule="evenodd"></path><path fill="#d9ead3" d="m248.34908 61.64173l43.866135 0l0 43.866142l-43.866135 0z" fill-rule="evenodd"></path><path fill="#adbba8" d="m292.2152 61.64173l14.62207 -14.622047l0 43.866142l-14.62207 14.622047z" fill-rule="evenodd"></path><path fill="#e0eedb" d="m248.34908 61.64173l14.622055 -14.622047l43.86615 0l-14.62207 14.622047z" fill-rule="evenodd"></path><path fill="#000000" fill-opacity="0.0" d="m248.34908 61.64173l14.622055 -14.622047l43.86615 0l0 43.866142l-14.62207 14.622047l-43.866135 0zm0 0l43.866135 0l14.62207 -14.622047m-14.62207 14.622047l0 43.866142" fill-rule="evenodd"></path><path stroke="#000000" stroke-width="1.0" stroke-linejoin="round" stroke-linecap="butt" d="m248.34908 61.64173l14.622055 -14.622047l43.86615 0l0 43.866142l-14.62207 14.622047l-43.866135 0zm0 0l43.866135 0l14.62207 -14.622047m-14.62207 14.622047l0 43.866142" fill-rule="evenodd"></path><path fill="#d9ead3" d="m233.76115 76.22966l43.866135 0l0 43.866142l-43.866135 0z" fill-rule="evenodd"></path><path fill="#adbba8" d="m277.6273 76.22966l14.62204 -14.622047l0 43.866142l-14.62204 14.622047z" fill-rule="evenodd"></path><path fill="#e0eedb" d="m233.76115 76.22966l14.622055 -14.622047l43.86612 0l-14.62204 14.622047z" fill-rule="evenodd"></path><path fill="#000000" fill-opacity="0.0" d="m233.76115 76.22966l14.622055 -14.622047l43.86612 0l0 43.866142l-14.62204 14.622047l-43.866135 0zm0 0l43.866135 0l14.62204 -14.622047m-14.62204 14.622047l0 43.866142" fill-rule="evenodd"></path><path stroke="#000000" stroke-width="1.0" stroke-linejoin="round" stroke-linecap="butt" d="m233.76115 76.22966l14.622055 -14.622047l43.86612 0l0 43.866142l-14.62204 14.622047l-43.866135 0zm0 0l43.866135 0l14.62204 -14.622047m-14.62204 14.622047l0 43.866142" fill-rule="evenodd"></path><path fill="#d9ead3" d="m219.5748 90.53937l43.86615 0l0 43.86615l-43.86615 0z" fill-rule="evenodd"></path><path fill="#adbba8" d="m263.44095 90.53937l14.62204 -14.622047l0 43.866142l-14.62204 14.622055z" fill-rule="evenodd"></path><path fill="#e0eedb" d="m219.5748 90.53937l14.622055 -14.622047l43.866135 0l-14.62204 14.622047z" fill-rule="evenodd"></path><path fill="#000000" fill-opacity="0.0" d="m219.5748 90.53937l14.622055 -14.622047l43.866135 0l0 43.866142l-14.62204 14.622055l-43.86615 0zm0 0l43.86615 0l14.62204 -14.622047m-14.62204 14.622047l0 43.86615" fill-rule="evenodd"></path><path stroke="#000000" stroke-width="1.0" stroke-linejoin="round" stroke-linecap="butt" d="m219.5748 90.53937l14.622055 -14.622047l43.866135 0l0 43.866142l-14.62204 14.622055l-43.86615 0zm0 0l43.86615 0l14.62204 -14.622047m-14.62204 14.622047l0 43.86615" fill-rule="evenodd"></path><path fill="#d9ead3" d="m204.82152 105.12992l43.86615 0l0 43.866142l-43.86615 0z" fill-rule="evenodd"></path><path fill="#adbba8" d="m248.68767 105.12992l14.622055 -14.622047l0 43.866135l-14.622055 14.622055z" fill-rule="evenodd"></path><path fill="#e0eedb" d="m204.82152 105.12992l14.622055 -14.622047l43.86615 0l-14.622055 14.622047z" fill-rule="evenodd"></path><path fill="#000000" fill-opacity="0.0" d="m204.82152 105.12992l14.622055 -14.622047l43.86615 0l0 43.866135l-14.622055 14.622055l-43.86615 0zm0 0l43.86615 0l14.622055 -14.622047m-14.622055 14.622047l0 43.866142" fill-rule="evenodd"></path><path stroke="#000000" stroke-width="1.0" stroke-linejoin="round" stroke-linecap="butt" d="m204.82152 105.12992l14.622055 -14.622047l43.86615 0l0 43.866135l-14.622055 14.622055l-43.86615 0zm0 0l43.86615 0l14.622055 -14.622047m-14.622055 14.622047l0 43.866142" fill-rule="evenodd"></path><path fill="#00ff00" d="m116.51181 17.652231l43.86615 0l0 43.866142l-43.86615 0z" fill-rule="evenodd"></path><path fill="#00cb00" d="m160.37796 17.652231l14.62204 -14.622047l0 43.866142l-14.62204 14.622047z" fill-rule="evenodd"></path><path fill="#33ff33" d="m116.51181 17.652231l14.622055 -14.622047l43.866135 0l-14.62204 14.622047z" fill-rule="evenodd"></path><path fill="#000000" fill-opacity="0.0" d="m116.51181 17.652231l14.622055 -14.622047l43.866135 0l0 43.866142l-14.62204 14.622047l-43.86615 0zm0 0l43.86615 0l14.62204 -14.622047m-14.62204 14.622047l0 43.866142" fill-rule="evenodd"></path><path stroke="#000000" stroke-width="1.0" stroke-linejoin="round" stroke-linecap="butt" d="m116.51181 17.652231l14.622055 -14.622047l43.866135 0l0 43.866142l-14.62204 14.622047l-43.86615 0zm0 0l43.86615 0l14.62204 -14.622047m-14.62204 14.622047l0 43.866142" fill-rule="evenodd"></path><path fill="#d9ead3" d="m101.92388 32.240158l43.866142 0l0 43.866142l-43.866142 0z" fill-rule="evenodd"></path><path fill="#adbba8" d="m145.79002 32.240158l14.622055 -14.622047l0 43.866142l-14.622055 14.622047z" fill-rule="evenodd"></path><path fill="#e0eedb" d="m101.92388 32.240158l14.622047 -14.622047l43.86615 0l-14.622055 14.622047z" fill-rule="evenodd"></path><path fill="#000000" fill-opacity="0.0" d="m101.92388 32.240158l14.622047 -14.622047l43.86615 0l0 43.866142l-14.622055 14.622047l-43.866142 0zm0 0l43.866142 0l14.622055 -14.622047m-14.622055 14.622047l0 43.866142" fill-rule="evenodd"></path><path stroke="#000000" stroke-width="1.0" stroke-linejoin="round" stroke-linecap="butt" d="m101.92388 32.240158l14.622047 -14.622047l43.86615 0l0 43.866142l-14.622055 14.622047l-43.866142 0zm0 0l43.866142 0l14.622055 -14.622047m-14.622055 14.622047l0 43.866142" fill-rule="evenodd"></path><path fill="#d9ead3" d="m87.73753 46.54987l43.866135 0l0 43.86614l-43.866135 0z" fill-rule="evenodd"></path><path fill="#adbba8" d="m131.60367 46.54987l14.622055 -14.622047l0 43.86614l-14.622055 14.622047z" fill-rule="evenodd"></path><path fill="#e0eedb" d="m87.73753 46.54987l14.622047 -14.622047l43.866142 0l-14.622055 14.622047z" fill-rule="evenodd"></path><path fill="#000000" fill-opacity="0.0" d="m87.73753 46.54987l14.622047 -14.622047l43.866142 0l0 43.86614l-14.622055 14.622047l-43.866135 0zm0 0l43.866135 0l14.622055 -14.622047m-14.622055 14.622047l0 43.86614" fill-rule="evenodd"></path><path stroke="#000000" stroke-width="1.0" stroke-linejoin="round" stroke-linecap="butt" d="m87.73753 46.54987l14.622047 -14.622047l43.866142 0l0 43.86614l-14.622055 14.622047l-43.866135 0zm0 0l43.866135 0l14.622055 -14.622047m-14.622055 14.622047l0 43.86614" fill-rule="evenodd"></path><path fill="#d9ead3" d="m72.98425 61.14042l43.866142 0l0 43.866142l-43.866142 0z" fill-rule="evenodd"></path><path fill="#adbba8" d="m116.850395 61.14042l14.622047 -14.622047l0 43.866142l-14.622047 14.622047z" fill-rule="evenodd"></path><path fill="#e0eedb" d="m72.98425 61.14042l14.622047 -14.622047l43.866142 0l-14.622047 14.622047z" fill-rule="evenodd"></path><path fill="#000000" fill-opacity="0.0" d="m72.98425 61.14042l14.622047 -14.622047l43.866142 0l0 43.866142l-14.622047 14.622047l-43.866142 0zm0 0l43.866142 0l14.622047 -14.622047m-14.622047 14.622047l0 43.866142" fill-rule="evenodd"></path><path stroke="#000000" stroke-width="1.0" stroke-linejoin="round" stroke-linecap="butt" d="m72.98425 61.14042l14.622047 -14.622047l43.866142 0l0 43.866142l-14.622047 14.622047l-43.866142 0zm0 0l43.866142 0l14.622047 -14.622047m-14.622047 14.622047l0 43.866142" fill-rule="evenodd"></path><path fill="#d9ead3" d="m160.44095 17.652231l43.866135 0l0 43.866142l-43.866135 0z" fill-rule="evenodd"></path><path fill="#adbba8" d="m204.30708 17.652231l14.622055 -14.622047l0 43.866142l-14.622055 14.622047z" fill-rule="evenodd"></path><path fill="#e0eedb" d="m160.44095 17.652231l14.62204 -14.622047l43.86615 0l-14.622055 14.622047z" fill-rule="evenodd"></path><path fill="#000000" fill-opacity="0.0" d="m160.44095 17.652231l14.62204 -14.622047l43.86615 0l0 43.866142l-14.622055 14.622047l-43.866135 0zm0 0l43.866135 0l14.622055 -14.622047m-14.622055 14.622047l0 43.866142" fill-rule="evenodd"></path><path stroke="#000000" stroke-width="1.0" stroke-linejoin="round" stroke-linecap="butt" d="m160.44095 17.652231l14.62204 -14.622047l43.86615 0l0 43.866142l-14.622055 14.622047l-43.866135 0zm0 0l43.866135 0l14.622055 -14.622047m-14.622055 14.622047l0 43.866142" fill-rule="evenodd"></path><path fill="#d9ead3" d="m145.85301 32.240158l43.86615 0l0 43.866142l-43.86615 0z" fill-rule="evenodd"></path><path fill="#adbba8" d="m189.71916 32.240158l14.62204 -14.622047l0 43.866142l-14.62204 14.622047z" fill-rule="evenodd"></path><path fill="#e0eedb" d="m145.85301 32.240158l14.622055 -14.622047l43.866135 0l-14.62204 14.622047z" fill-rule="evenodd"></path><path fill="#000000" fill-opacity="0.0" d="m145.85301 32.240158l14.622055 -14.622047l43.866135 0l0 43.866142l-14.62204 14.622047l-43.86615 0zm0 0l43.86615 0l14.62204 -14.622047m-14.62204 14.622047l0 43.866142" fill-rule="evenodd"></path><path stroke="#000000" stroke-width="1.0" stroke-linejoin="round" stroke-linecap="butt" d="m145.85301 32.240158l14.622055 -14.622047l43.866135 0l0 43.866142l-14.62204 14.622047l-43.86615 0zm0 0l43.86615 0l14.62204 -14.622047m-14.62204 14.622047l0 43.866142" fill-rule="evenodd"></path><path fill="#d9ead3" d="m131.66667 46.54987l43.866135 0l0 43.86614l-43.866135 0z" fill-rule="evenodd"></path><path fill="#adbba8" d="m175.5328 46.54987l14.622055 -14.622047l0 43.86614l-14.622055 14.622047z" fill-rule="evenodd"></path><path fill="#e0eedb" d="m131.66667 46.54987l14.62204 -14.622047l43.86615 0l-14.622055 14.622047z" fill-rule="evenodd"></path><path fill="#000000" fill-opacity="0.0" d="m131.66667 46.54987l14.62204 -14.622047l43.86615 0l0 43.86614l-14.622055 14.622047l-43.866135 0zm0 0l43.866135 0l14.622055 -14.622047m-14.622055 14.622047l0 43.86614" fill-rule="evenodd"></path><path stroke="#000000" stroke-width="1.0" stroke-linejoin="round" stroke-linecap="butt" d="m131.66667 46.54987l14.62204 -14.622047l43.86615 0l0 43.86614l-14.622055 14.622047l-43.866135 0zm0 0l43.866135 0l14.622055 -14.622047m-14.622055 14.622047l0 43.86614" fill-rule="evenodd"></path><path fill="#d9ead3" d="m116.91338 61.14042l43.866142 0l0 43.866142l-43.866142 0z" fill-rule="evenodd"></path><path fill="#adbba8" d="m160.77953 61.14042l14.622055 -14.622047l0 43.866142l-14.622055 14.622047z" fill-rule="evenodd"></path><path fill="#e0eedb" d="m116.91338 61.14042l14.622047 -14.622047l43.86615 0l-14.622055 14.622047z" fill-rule="evenodd"></path><path fill="#000000" fill-opacity="0.0" d="m116.91338 61.14042l14.622047 -14.622047l43.86615 0l0 43.866142l-14.622055 14.622047l-43.866142 0zm0 0l43.866142 0l14.622055 -14.622047m-14.622055 14.622047l0 43.866142" fill-rule="evenodd"></path><path stroke="#000000" stroke-width="1.0" stroke-linejoin="round" stroke-linecap="butt" d="m116.91338 61.14042l14.622047 -14.622047l43.86615 0l0 43.866142l-14.622055 14.622047l-43.866142 0zm0 0l43.866142 0l14.622055 -14.622047m-14.622055 14.622047l0 43.866142" fill-rule="evenodd"></path><path fill="#d9ead3" d="m204.41995 17.652231l43.866135 0l0 43.866142l-43.866135 0z" fill-rule="evenodd"></path><path fill="#adbba8" d="m248.28609 17.652231l14.622055 -14.622047l0 43.866142l-14.622055 14.622047z" fill-rule="evenodd"></path><path fill="#e0eedb" d="m204.41995 17.652231l14.62204 -14.622047l43.86615 0l-14.622055 14.622047z" fill-rule="evenodd"></path><path fill="#000000" fill-opacity="0.0" d="m204.41995 17.652231l14.62204 -14.622047l43.86615 0l0 43.866142l-14.622055 14.622047l-43.866135 0zm0 0l43.866135 0l14.622055 -14.622047m-14.622055 14.622047l0 43.866142" fill-rule="evenodd"></path><path stroke="#000000" stroke-width="1.0" stroke-linejoin="round" stroke-linecap="butt" d="m204.41995 17.652231l14.62204 -14.622047l43.86615 0l0 43.866142l-14.622055 14.622047l-43.866135 0zm0 0l43.866135 0l14.622055 -14.622047m-14.622055 14.622047l0 43.866142" fill-rule="evenodd"></path><path fill="#d9ead3" d="m189.83202 32.240158l43.86615 0l0 43.866142l-43.86615 0z" fill-rule="evenodd"></path><path fill="#adbba8" d="m233.69817 32.240158l14.62204 -14.622047l0 43.866142l-14.62204 14.622047z" fill-rule="evenodd"></path><path fill="#e0eedb" d="m189.83202 32.240158l14.622055 -14.622047l43.866135 0l-14.62204 14.622047z" fill-rule="evenodd"></path><path fill="#000000" fill-opacity="0.0" d="m189.83202 32.240158l14.622055 -14.622047l43.866135 0l0 43.866142l-14.62204 14.622047l-43.86615 0zm0 0l43.86615 0l14.62204 -14.622047m-14.62204 14.622047l0 43.866142" fill-rule="evenodd"></path><path stroke="#000000" stroke-width="1.0" stroke-linejoin="round" stroke-linecap="butt" d="m189.83202 32.240158l14.622055 -14.622047l43.866135 0l0 43.866142l-14.62204 14.622047l-43.86615 0zm0 0l43.86615 0l14.62204 -14.622047m-14.62204 14.622047l0 43.866142" fill-rule="evenodd"></path><path fill="#d9ead3" d="m175.64568 46.54987l43.866135 0l0 43.86614l-43.866135 0z" fill-rule="evenodd"></path><path fill="#adbba8" d="m219.51181 46.54987l14.622055 -14.622047l0 43.86614l-14.622055 14.622047z" fill-rule="evenodd"></path><path fill="#e0eedb" d="m175.64568 46.54987l14.62204 -14.622047l43.86615 0l-14.622055 14.622047z" fill-rule="evenodd"></path><path fill="#000000" fill-opacity="0.0" d="m175.64568 46.54987l14.62204 -14.622047l43.86615 0l0 43.86614l-14.622055 14.622047l-43.866135 0zm0 0l43.866135 0l14.622055 -14.622047m-14.622055 14.622047l0 43.86614" fill-rule="evenodd"></path><path stroke="#000000" stroke-width="1.0" stroke-linejoin="round" stroke-linecap="butt" d="m175.64568 46.54987l14.62204 -14.622047l43.86615 0l0 43.86614l-14.622055 14.622047l-43.866135 0zm0 0l43.866135 0l14.622055 -14.622047m-14.622055 14.622047l0 43.86614" fill-rule="evenodd"></path><path fill="#d9ead3" d="m160.8924 61.14042l43.866135 0l0 43.866142l-43.866135 0z" fill-rule="evenodd"></path><path fill="#adbba8" d="m204.75853 61.14042l14.622055 -14.622047l0 43.866142l-14.622055 14.622047z" fill-rule="evenodd"></path><path fill="#e0eedb" d="m160.8924 61.14042l14.62204 -14.622047l43.86615 0l-14.622055 14.622047z" fill-rule="evenodd"></path><path fill="#000000" fill-opacity="0.0" d="m160.8924 61.14042l14.62204 -14.622047l43.86615 0l0 43.866142l-14.622055 14.622047l-43.866135 0zm0 0l43.866135 0l14.622055 -14.622047m-14.622055 14.622047l0 43.866142" fill-rule="evenodd"></path><path stroke="#000000" stroke-width="1.0" stroke-linejoin="round" stroke-linecap="butt" d="m160.8924 61.14042l14.62204 -14.622047l43.86615 0l0 43.866142l-14.622055 14.622047l-43.866135 0zm0 0l43.866135 0l14.622055 -14.622047m-14.622055 14.622047l0 43.866142" fill-rule="evenodd"></path><path fill="#d9ead3" d="m248.34908 17.652231l43.866135 0l0 43.866142l-43.866135 0z" fill-rule="evenodd"></path><path fill="#adbba8" d="m292.2152 17.652231l14.62207 -14.622047l0 43.866142l-14.62207 14.622047z" fill-rule="evenodd"></path><path fill="#e0eedb" d="m248.34908 17.652231l14.622055 -14.622047l43.86615 0l-14.62207 14.622047z" fill-rule="evenodd"></path><path fill="#000000" fill-opacity="0.0" d="m248.34908 17.652231l14.622055 -14.622047l43.86615 0l0 43.866142l-14.62207 14.622047l-43.866135 0zm0 0l43.866135 0l14.62207 -14.622047m-14.62207 14.622047l0 43.866142" fill-rule="evenodd"></path><path stroke="#000000" stroke-width="1.0" stroke-linejoin="round" stroke-linecap="butt" d="m248.34908 17.652231l14.622055 -14.622047l43.86615 0l0 43.866142l-14.62207 14.622047l-43.866135 0zm0 0l43.866135 0l14.62207 -14.622047m-14.62207 14.622047l0 43.866142" fill-rule="evenodd"></path><path fill="#d9ead3" d="m233.76115 32.240158l43.866135 0l0 43.866142l-43.866135 0z" fill-rule="evenodd"></path><path fill="#adbba8" d="m277.6273 32.240158l14.62204 -14.622047l0 43.866142l-14.62204 14.622047z" fill-rule="evenodd"></path><path fill="#e0eedb" d="m233.76115 32.240158l14.622055 -14.622047l43.86612 0l-14.62204 14.622047z" fill-rule="evenodd"></path><path fill="#000000" fill-opacity="0.0" d="m233.76115 32.240158l14.622055 -14.622047l43.86612 0l0 43.866142l-14.62204 14.622047l-43.866135 0zm0 0l43.866135 0l14.62204 -14.622047m-14.62204 14.622047l0 43.866142" fill-rule="evenodd"></path><path stroke="#000000" stroke-width="1.0" stroke-linejoin="round" stroke-linecap="butt" d="m233.76115 32.240158l14.622055 -14.622047l43.86612 0l0 43.866142l-14.62204 14.622047l-43.866135 0zm0 0l43.866135 0l14.62204 -14.622047m-14.62204 14.622047l0 43.866142" fill-rule="evenodd"></path><path fill="#d9ead3" d="m219.5748 46.54987l43.86615 0l0 43.86614l-43.86615 0z" fill-rule="evenodd"></path><path fill="#adbba8" d="m263.44095 46.54987l14.62204 -14.622047l0 43.86614l-14.62204 14.622047z" fill-rule="evenodd"></path><path fill="#e0eedb" d="m219.5748 46.54987l14.622055 -14.622047l43.866135 0l-14.62204 14.622047z" fill-rule="evenodd"></path><path fill="#000000" fill-opacity="0.0" d="m219.5748 46.54987l14.622055 -14.622047l43.866135 0l0 43.86614l-14.62204 14.622047l-43.86615 0zm0 0l43.86615 0l14.62204 -14.622047m-14.62204 14.622047l0 43.86614" fill-rule="evenodd"></path><path stroke="#000000" stroke-width="1.0" stroke-linejoin="round" stroke-linecap="butt" d="m219.5748 46.54987l14.622055 -14.622047l43.866135 0l0 43.86614l-14.62204 14.622047l-43.86615 0zm0 0l43.86615 0l14.62204 -14.622047m-14.62204 14.622047l0 43.86614" fill-rule="evenodd"></path><path fill="#d9ead3" d="m204.82152 61.14042l43.86615 0l0 43.866142l-43.86615 0z" fill-rule="evenodd"></path><path fill="#adbba8" d="m248.68767 61.14042l14.622055 -14.622047l0 43.866142l-14.622055 14.622047z" fill-rule="evenodd"></path><path fill="#e0eedb" d="m204.82152 61.14042l14.622055 -14.622047l43.86615 0l-14.622055 14.622047z" fill-rule="evenodd"></path><path fill="#000000" fill-opacity="0.0" d="m204.82152 61.14042l14.622055 -14.622047l43.86615 0l0 43.866142l-14.622055 14.622047l-43.86615 0zm0 0l43.86615 0l14.622055 -14.622047m-14.622055 14.622047l0 43.866142" fill-rule="evenodd"></path><path stroke="#000000" stroke-width="1.0" stroke-linejoin="round" stroke-linecap="butt" d="m204.82152 61.14042l14.622055 -14.622047l43.86615 0l0 43.866142l-14.622055 14.622047l-43.86615 0zm0 0l43.86615 0l14.622055 -14.622047m-14.622055 14.622047l0 43.866142" fill-rule="evenodd"></path><path fill="#000000" fill-opacity="0.0" d="m-4.0131235 -2.007874l44.0 0l0 26.960629l-44.0 0z" fill-rule="evenodd"></path><path fill="#000000" d="m9.4243765 28.912125q-1.375 -1.75 -2.328125 -4.078125q-0.953125 -2.34375 -0.953125 -4.84375q0 -2.21875 0.703125 -4.234376q0.84375 -2.34375 2.578125 -4.671875l1.203125 0q-1.125 1.921875 -1.484375 2.75q-0.5625 1.28125 -0.890625 2.671876q-0.40625 1.734375 -0.40625 3.484375q0 4.46875 2.78125 8.921875l-1.203125 0zm2.572052 -7.59375l1.671875 -0.21875q0.28125 1.421875 0.96875 2.046875q0.703125 0.625 1.687501 0.625q1.1875 0 2.0 -0.8125q0.8125 -0.828125 0.8125 -2.03125q0 -1.140625 -0.765625 -1.890625q-0.75 -0.75 -1.90625 -0.75q-0.46875095 0 -1.171876 0.1875l0.1875 -1.46875q0.15625 0.015625 0.265625 0.015625q1.062501 0 1.906251 -0.546875q0.859375 -0.56250095 0.859375 -1.718751q0 -0.921875 -0.625 -1.515625q-0.609375 -0.609375 -1.59375 -0.609375q-0.96875095 0 -1.625001 0.609375q-0.640625 0.609375 -0.828125 1.84375l-1.671875 -0.296875q0.296875 -1.6875 1.375 -2.609375q1.09375 -0.921875 2.718751 -0.921875q1.109375 0 2.046875 0.484375q0.9375 0.46875 1.421875 1.296875q0.5 0.828125 0.5 1.75q0 0.890625 -0.46875 1.609376q-0.46875 0.71875 -1.40625 1.15625q1.21875 0.265625 1.875 1.15625q0.671875 0.875 0.671875 2.1875q0 1.78125 -1.296875 3.015625q-1.296875 1.234375 -3.28125 1.234375q-1.796876 0 -2.984376 -1.0625q-1.171875 -1.0625 -1.34375 -2.765625zm11.922593 7.59375l-1.1875 0q2.765625 -4.453125 2.765625 -8.921875q0 -1.734375 -0.390625 -3.453125q-0.328125 -1.390626 -0.890625 -2.671876q-0.359375 -0.84375 -1.484375 -2.78125l1.1875 0q1.75 2.328125 2.578125 4.671875q0.71875 2.015626 0.71875 4.234376q0 2.5 -0.96875 4.84375q-0.953125 2.328125 -2.328125 4.078125z" fill-rule="nonzero"></path><path fill="#000000" fill-opacity="0.0" d="m-9.139108 21.17323l231.2126 0l0 26.960629l-231.2126 0z" fill-rule="evenodd"></path><path fill="#000000" d="m1.5171424 48.093227l0 -8.546875l-1.484375 0l0 -1.3125l1.484375 0l0 -1.046875q0 -0.984375 0.171875 -1.46875q0.234375 -0.65625 0.8437499 -1.046875q0.609375 -0.40625 1.703125 -0.40625q0.703125 0 1.5625 0.15625l-0.25 1.46875q-0.515625 -0.09375 -0.984375 -0.09375q-0.765625 0 -1.078125 0.328125q-0.3125 0.3125 -0.3125 1.203125l0 0.90625l1.921875 0l0 1.3125l-1.921875 0l0 8.546875l-1.6562499 0z" fill-rule="nonzero"></path><path fill="#000000" d="m5.841071 47.718227l0 -1.21875l1.0625 0l0 1.21875l-1.0625 0zm0 7.375l0 -6.21875l1.0625 0l0 6.21875l-1.0625 0z" fill-rule="nonzero"></path><path fill="#000000" d="m17.83862 40.093227l-8.968751 0l0 -1.5625l8.968751 0l0 1.5625zm0 4.125l-8.968751 0l0 -1.546875l8.968751 0l0 1.546875zm7.9418335 3.875l-1.671875 0l0 -10.640625q-0.59375 0.578125 -1.578125 1.15625q-0.984375 0.5625 -1.765625 0.859375l0 -1.625q1.40625 -0.65625 2.453125 -1.59375q1.046875 -0.9375 1.484375 -1.8125l1.078125 0l0 13.65625z" fill-rule="nonzero"></path></g></svg>

