<?xml version="1.0" standalone="yes"?>

<svg version="1.1" viewBox="0.0 0.0 309.3307086614173 256.09448818897636" fill="none" stroke="none" stroke-linecap="square" stroke-miterlimit="10" xmlns="http://www.w3.org/2000/svg" xmlns:xlink="http://www.w3.org/1999/xlink"><clipPath id="p.0"><path d="m0 0l309.33072 0l0 256.09448l-309.33072 0l0 -256.09448z" clip-rule="nonzero"></path></clipPath><g clip-path="url(#p.0)"><path fill="#000000" fill-opacity="0.0" d="m0 0l309.33072 0l0 256.09448l-309.33072 0z" fill-rule="evenodd"></path><path fill="#4a86e8" d="m117.05249 61.14173l43.86615 0l0 43.866142l-43.86615 0z" fill-rule="evenodd"></path><path fill="#3b6bb9" d="m160.91864 61.14173l14.62204 -14.622047l0 43.866142l-14.62204 14.622047z" fill-rule="evenodd"></path><path fill="#6e9eec" d="m117.05249 61.14173l14.622055 -14.622047l43.866135 0l-14.62204 14.622047z" fill-rule="evenodd"></path><path fill="#000000" fill-opacity="0.0" d="m117.05249 61.14173l14.622055 -14.622047l43.866135 0l0 43.866142l-14.62204 14.622047l-43.86615 0zm0 0l43.86615 0l14.62204 -14.622047m-14.62204 14.622047l0 43.866142" fill-rule="evenodd"></path><path stroke="#000000" stroke-width="1.0" stroke-linejoin="round" stroke-linecap="butt" d="m117.05249 61.14173l14.622055 -14.622047l43.866135 0l0 43.866142l-14.62204 14.622047l-43.86615 0zm0 0l43.86615 0l14.62204 -14.622047m-14.62204 14.622047l0 43.866142" fill-rule="evenodd"></path><path fill="#d9ead3" d="m102.46457 75.72966l43.866135 0l0 43.866142l-43.866135 0z" fill-rule="evenodd"></path><path fill="#adbba8" d="m146.3307 75.72966l14.622055 -14.622047l0 43.866142l-14.622055 14.622047z" fill-rule="evenodd"></path><path fill="#e0eedb" d="m102.46457 75.72966l14.622047 -14.622047l43.866142 0l-14.622055 14.622047z" fill-rule="evenodd"></path><path fill="#000000" fill-opacity="0.0" d="m102.46457 75.72966l14.622047 -14.622047l43.866142 0l0 43.866142l-14.622055 14.622047l-43.866135 0zm0 0l43.866135 0l14.622055 -14.622047m-14.622055 14.622047l0 43.866142" fill-rule="evenodd"></path><path stroke="#000000" stroke-width="1.0" stroke-linejoin="round" stroke-linecap="butt" d="m102.46457 75.72966l14.622047 -14.622047l43.866142 0l0 43.866142l-14.622055 14.622047l-43.866135 0zm0 0l43.866135 0l14.622055 -14.622047m-14.622055 14.622047l0 43.866142" fill-rule="evenodd"></path><path fill="#d9ead3" d="m88.27821 90.03937l43.86615 0l0 43.86615l-43.86615 0z" fill-rule="evenodd"></path><path fill="#adbba8" d="m132.14436 90.03937l14.62204 -14.622047l0 43.866142l-14.62204 14.622055z" fill-rule="evenodd"></path><path fill="#e0eedb" d="m88.27821 90.03937l14.622047 -14.622047l43.866142 0l-14.62204 14.622047z" fill-rule="evenodd"></path><path fill="#000000" fill-opacity="0.0" d="m88.27821 90.03937l14.622047 -14.622047l43.866142 0l0 43.866142l-14.62204 14.622055l-43.86615 0zm0 0l43.86615 0l14.62204 -14.622047m-14.62204 14.622047l0 43.86615" fill-rule="evenodd"></path><path stroke="#000000" stroke-width="1.0" stroke-linejoin="round" stroke-linecap="butt" d="m88.27821 90.03937l14.622047 -14.622047l43.866142 0l0 43.866142l-14.62204 14.622055l-43.86615 0zm0 0l43.86615 0l14.62204 -14.622047m-14.62204 14.622047l0 43.86615" fill-rule="evenodd"></path><path fill="#d9ead3" d="m73.52493 104.62992l43.866142 0l0 43.866142l-43.866142 0z" fill-rule="evenodd"></path><path fill="#adbba8" d="m117.391075 104.62992l14.622047 -14.622047l0 43.866135l-14.622047 14.622055z" fill-rule="evenodd"></path><path fill="#e0eedb" d="m73.52493 104.62992l14.622047 -14.622047l43.866142 0l-14.622047 14.622047z" fill-rule="evenodd"></path><path fill="#000000" fill-opacity="0.0" d="m73.52493 104.62992l14.622047 -14.622047l43.866142 0l0 43.866135l-14.622047 14.622055l-43.866142 0zm0 0l43.866142 0l14.622047 -14.622047m-14.622047 14.622047l0 43.866142" fill-rule="evenodd"></path><path stroke="#000000" stroke-width="1.0" stroke-linejoin="round" stroke-linecap="butt" d="m73.52493 104.62992l14.622047 -14.622047l43.866142 0l0 43.866135l-14.622047 14.622055l-43.866142 0zm0 0l43.866142 0l14.622047 -14.622047m-14.622047 14.622047l0 43.866142" fill-rule="evenodd"></path><path fill="#4a86e8" d="m247.69292 17.652231l43.866135 0l0 43.866142l-43.866135 0z" fill-rule="evenodd"></path><path fill="#3b6bb9" d="m291.55905 17.652231l14.62204 -14.622047l0 43.866142l-14.62204 14.622047z" fill-rule="evenodd"></path><path fill="#6e9eec" d="m247.69292 17.652231l14.622055 -14.622047l43.86612 0l-14.62204 14.622047z" fill-rule="evenodd"></path><path fill="#000000" fill-opacity="0.0" d="m247.69292 17.652231l14.622055 -14.622047l43.86612 0l0 43.866142l-14.62204 14.622047l-43.866135 0zm0 0l43.866135 0l14.62204 -14.622047m-14.62204 14.622047l0 43.866142" fill-rule="evenodd"></path><path stroke="#000000" stroke-width="1.0" stroke-linejoin="round" stroke-linecap="butt" d="m247.69292 17.652231l14.622055 -14.622047l43.86612 0l0 43.866142l-14.62204 14.622047l-43.866135 0zm0 0l43.866135 0l14.62204 -14.622047m-14.62204 14.622047l0 43.866142" fill-rule="evenodd"></path><path fill="#d9ead3" d="m233.85039 32.240158l43.866135 0l0 43.866142l-43.866135 0z" fill-rule="evenodd"></path><path fill="#adbba8" d="m277.71652 32.240158l14.62207 -14.622047l0 43.866142l-14.62207 14.622047z" fill-rule="evenodd"></path><path fill="#e0eedb" d="m233.85039 32.240158l14.622055 -14.622047l43.86615 0l-14.62207 14.622047z" fill-rule="evenodd"></path><path fill="#000000" fill-opacity="0.0" d="m233.85039 32.240158l14.622055 -14.622047l43.86615 0l0 43.866142l-14.62207 14.622047l-43.866135 0zm0 0l43.866135 0l14.62207 -14.622047m-14.62207 14.622047l0 43.866142" fill-rule="evenodd"></path><path stroke="#000000" stroke-width="1.0" stroke-linejoin="round" stroke-linecap="butt" d="m233.85039 32.240158l14.622055 -14.622047l43.86615 0l0 43.866142l-14.62207 14.622047l-43.866135 0zm0 0l43.866135 0l14.62207 -14.622047m-14.62207 14.622047l0 43.866142" fill-rule="evenodd"></path><path fill="#d9ead3" d="m219.66405 46.54987l43.866135 0l0 43.86614l-43.866135 0z" fill-rule="evenodd"></path><path fill="#adbba8" d="m263.53018 46.54987l14.62204 -14.622047l0 43.86614l-14.62204 14.622047z" fill-rule="evenodd"></path><path fill="#e0eedb" d="m219.66405 46.54987l14.62204 -14.622047l43.866135 0l-14.62204 14.622047z" fill-rule="evenodd"></path><path fill="#000000" fill-opacity="0.0" d="m219.66405 46.54987l14.62204 -14.622047l43.866135 0l0 43.86614l-14.62204 14.622047l-43.866135 0zm0 0l43.866135 0l14.62204 -14.622047m-14.62204 14.622047l0 43.86614" fill-rule="evenodd"></path><path stroke="#000000" stroke-width="1.0" stroke-linejoin="round" stroke-linecap="butt" d="m219.66405 46.54987l14.62204 -14.622047l43.866135 0l0 43.86614l-14.62204 14.622047l-43.866135 0zm0 0l43.866135 0l14.62204 -14.622047m-14.62204 14.622047l0 43.86614" fill-rule="evenodd"></path><path fill="#d9ead3" d="m204.91077 61.14042l43.866135 0l0 43.866142l-43.866135 0z" fill-rule="evenodd"></path><path fill="#adbba8" d="m248.7769 61.14042l14.622055 -14.622047l0 43.866142l-14.622055 14.622047z" fill-rule="evenodd"></path><path fill="#e0eedb" d="m204.91077 61.14042l14.62204 -14.622047l43.86615 0l-14.622055 14.622047z" fill-rule="evenodd"></path><path fill="#000000" fill-opacity="0.0" d="m204.91077 61.14042l14.62204 -14.622047l43.86615 0l0 43.866142l-14.622055 14.622047l-43.866135 0zm0 0l43.866135 0l14.622055 -14.622047m-14.622055 14.622047l0 43.866142" fill-rule="evenodd"></path><path stroke="#000000" stroke-width="1.0" stroke-linejoin="round" stroke-linecap="butt" d="m204.91077 61.14042l14.62204 -14.622047l43.86615 0l0 43.866142l-14.622055 14.622047l-43.866135 0zm0 0l43.866135 0l14.622055 -14.622047m-14.622055 14.622047l0 43.866142" fill-rule="evenodd"></path><path fill="#000000" fill-opacity="0.0" d="m-4.0131235 -2.007874l63.968502 0l0 26.960629l-63.968502 0z" fill-rule="evenodd"></path><path fill="#000000" d="m9.4243765 28.912125q-1.375 -1.75 -2.328125 -4.078125q-0.953125 -2.34375 -0.953125 -4.84375q0 -2.21875 0.703125 -4.234376q0.84375 -2.34375 2.578125 -4.671875l1.203125 0q-1.125 1.921875 -1.484375 2.75q-0.5625 1.28125 -0.890625 2.671876q-0.40625 1.734375 -0.40625 3.484375q0 4.46875 2.78125 8.921875l-1.203125 0zm11.337678 -5.609375l0 1.609375l-8.984376 0q-0.015625 -0.609375 0.1875 -1.15625q0.34375 -0.921875 1.09375 -1.8125q0.765625 -0.890625 2.1875 -2.0625q2.218751 -1.8125 3.000001 -2.875q0.78125 -1.062501 0.78125 -2.015626q0 -0.984375 -0.71875 -1.671875q-0.703125 -0.6875 -1.84375 -0.6875q-1.203126 0 -1.937501 0.734375q-0.71875 0.71875 -0.71875 2.0l-1.71875 -0.171875q0.171875 -1.921875 1.328125 -2.921875q1.15625 -1.015625 3.093751 -1.015625q1.953125 0 3.09375 1.09375q1.140625 1.078125 1.140625 2.6875q0 0.8125 -0.34375 1.609376q-0.328125 0.78125 -1.109375 1.65625q-0.765625 0.859375 -2.5625 2.390625q-1.500001 1.265625 -1.937501 1.71875q-0.421875 0.4375 -0.703125 0.890625l6.671876 0zm1.4225922 -2.46875l0 -1.6875l5.125 0l0 1.6875l-5.125 0zm8.400177 4.078125l-1.546875 0l0 -13.593751l1.65625 0l0 4.843751q1.0625 -1.328126 2.703125 -1.328126q0.90625 0 1.71875 0.375q0.8125 0.359375 1.328125 1.031251q0.53125 0.65625 0.828125 1.59375q0.296875 0.9375 0.296875 2.0q0 2.53125 -1.25 3.921875q-1.25 1.375 -3.0 1.375q-1.75 0 -2.734375 -1.453125l0 1.234375zm-0.015625 -5.0q0 1.765625 0.46875 2.5625q0.796875 1.28125 2.140625 1.28125q1.09375 0 1.890625 -0.9375q0.796875 -0.953125 0.796875 -2.84375q0 -1.921875 -0.765625 -2.84375q-0.765625 -0.921875 -1.84375 -0.921875q-1.09375 0 -1.890625 0.953125q-0.796875 0.953125 -0.796875 2.75zm9.938217 9.0l-1.1875 0q2.765625 -4.453125 2.765625 -8.921875q0 -1.734375 -0.390625 -3.453125q-0.328125 -1.390626 -0.890625 -2.671876q-0.359375 -0.84375 -1.484375 -2.78125l1.1875 0q1.75 2.328125 2.578125 4.671875q0.71875 2.015626 0.71875 4.234376q0 2.5 -0.96875 4.84375q-0.953125 2.328125 -2.328125 4.078125z" fill-rule="nonzero"></path><path fill="#000000" fill-opacity="0.0" d="m73.296585 61.49475l175.3937 0l0 192.77953l-175.3937 0z" fill-rule="evenodd"></path><path fill="#000000" fill-opacity="0.0" d="m248.69029 61.49475l58.464554 -58.46457l0 192.77953l-58.464554 58.46457z" fill-rule="evenodd"></path><path fill="#000000" fill-opacity="0.0" d="m73.296585 61.49475l58.46457 -58.46457l175.39369 0l-58.464554 58.46457z" fill-rule="evenodd"></path><path fill="#000000" fill-opacity="0.0" d="m73.296585 61.49475l58.46457 -58.46457l175.39369 0l0 192.77953l-58.464554 58.46457l-175.3937 0zm0 0l175.3937 0l58.464554 -58.46457m-58.464554 58.46457l0 192.77953" fill-rule="evenodd"></path><path fill="#000000" fill-opacity="0.2" d="m248.69029 61.49475l58.464554 -58.46457l0 192.77953l-58.464554 58.46457z" fill-rule="evenodd"></path><path fill="#ffffff" fill-opacity="0.2" d="m73.296585 61.49475l58.46457 -58.46457l175.39369 0l-58.464554 58.46457z" fill-rule="evenodd"></path><path stroke="#000000" stroke-width="1.0" stroke-linejoin="round" stroke-linecap="butt" d="m73.296585 61.49475l58.46457 -58.46457l175.39369 0l0 192.77953l-58.464554 58.46457l-175.3937 0zm0 0l175.3937 0l58.464554 -58.46457m-58.464554 58.46457l0 192.77953" fill-rule="evenodd"></path><path fill="#000000" fill-opacity="0.0" d="m-8.0 21.17323l83.874016 0l0 26.960629l-83.874016 0z" fill-rule="evenodd"></path><path fill="#000000" d="m2.65625 48.093227l0 -8.546875l-1.484375 0l0 -1.3125l1.484375 0l0 -1.046875q0 -0.984375 0.171875 -1.46875q0.234375 -0.65625 0.84375 -1.046875q0.609375 -0.40625 1.703125 -0.40625q0.703125 0 1.5625 0.15625l-0.25 1.46875q-0.515625 -0.09375 -0.984375 -0.09375q-0.765625 0 -1.078125 0.328125q-0.3125 0.3125 -0.3125 1.203125l0 0.90625l1.921875 0l0 1.3125l-1.921875 0l0 8.546875l-1.65625 0z" fill-rule="nonzero"></path><path fill="#000000" d="m6.980179 47.718227l0 -1.21875l1.0625 0l0 1.21875l-1.0625 0zm0 7.375l0 -6.21875l1.0625 0l0 6.21875l-1.0625 0z" fill-rule="nonzero"></path><path fill="#000000" d="m18.977726 40.093227l-8.96875 0l0 -1.5625l8.96875 0l0 1.5625zm0 4.125l-8.96875 0l0 -1.546875l8.96875 0l0 1.546875zm10.4262085 2.265625l0 1.609375l-8.984375 0q-0.015625 -0.609375 0.1875 -1.15625q0.34375 -0.921875 1.09375 -1.8125q0.765625 -0.890625 2.1875 -2.0625q2.21875 -1.8125 3.0 -2.875q0.78125 -1.0625 0.78125 -2.015625q0 -0.984375 -0.71875 -1.671875q-0.703125 -0.6875 -1.84375 -0.6875q-1.203125 0 -1.9375 0.734375q-0.71875 0.71875 -0.71875 2.0l-1.71875 -0.171875q0.171875 -1.921875 1.328125 -2.921875q1.15625 -1.015625 3.09375 -1.015625q1.953125 0 3.09375 1.09375q1.140625 1.078125 1.140625 2.6875q0 0.8125 -0.34375 1.609375q-0.328125 0.78125 -1.109375 1.65625q-0.765625 0.859375 -2.5625 2.390625q-1.5 1.265625 -1.9375 1.71875q-0.421875 0.4375 -0.703125 0.890625l6.671875 0zm8.453842 1.609375l0 -1.25q-0.9375 1.46875 -2.75 1.46875q-1.171875 0 -2.171875 -0.640625q-0.984375 -0.65625 -1.53125 -1.8125q-0.53125 -1.171875 -0.53125 -2.6875q0 -1.46875 0.484375 -2.671875q0.5 -1.203125 1.46875 -1.84375q0.984375 -0.640625 2.203125 -0.640625q0.890625 0 1.578125 0.375q0.703125 0.375 1.140625 0.984375l0 -4.875l1.65625 0l0 13.59375l-1.546875 0zm-5.28125 -4.921875q0 1.890625 0.796875 2.828125q0.8125 0.9375 1.890625 0.9375q1.09375 0 1.859375 -0.890625q0.765625 -0.890625 0.765625 -2.734375q0 -2.015625 -0.78125 -2.953125q-0.78125 -0.953125 -1.921875 -0.953125q-1.109375 0 -1.859375 0.90625q-0.75 0.90625 -0.75 2.859375zm8.625717 0.84375l0 -1.6875l5.125 0l0 1.6875l-5.125 0zm12.681427 4.078125l-1.671875 0l0 -10.640625q-0.59375 0.578125 -1.578125 1.15625q-0.984375 0.5625 -1.765625 0.859375l0 -1.625q1.40625 -0.65625 2.453125 -1.59375q1.046875 -0.9375 1.484375 -1.8125l1.078125 0l0 13.65625z" fill-rule="nonzero"></path></g></svg>

