<?xml version="1.0" standalone="yes"?>

<svg version="1.1" viewBox="0.0 0.0 309.3307086614173 256.09448818897636" fill="none" stroke="none" stroke-linecap="square" stroke-miterlimit="10" xmlns="http://www.w3.org/2000/svg" xmlns:xlink="http://www.w3.org/1999/xlink"><clipPath id="p.0"><path d="m0 0l309.33072 0l0 256.09448l-309.33072 0l0 -256.09448z" clip-rule="nonzero"></path></clipPath><g clip-path="url(#p.0)"><path fill="#000000" fill-opacity="0.0" d="m0 0l309.33072 0l0 256.09448l-309.33072 0z" fill-rule="evenodd"></path><path fill="#d9ead3" d="m116.509186 17.652231l43.86615 0l0 43.866142l-43.86615 0z" fill-rule="evenodd"></path><path fill="#adbba8" d="m160.37534 17.652231l14.62204 -14.622047l0 43.866142l-14.62204 14.622047z" fill-rule="evenodd"></path><path fill="#e0eedb" d="m116.509186 17.652231l14.622055 -14.622047l43.866135 0l-14.62204 14.622047z" fill-rule="evenodd"></path><path fill="#000000" fill-opacity="0.0" d="m116.509186 17.652231l14.622055 -14.622047l43.866135 0l0 43.866142l-14.62204 14.622047l-43.86615 0zm0 0l43.86615 0l14.62204 -14.622047m-14.62204 14.622047l0 43.866142" fill-rule="evenodd"></path><path stroke="#000000" stroke-width="1.0" stroke-linejoin="round" stroke-linecap="butt" d="m116.509186 17.652231l14.622055 -14.622047l43.866135 0l0 43.866142l-14.62204 14.622047l-43.86615 0zm0 0l43.86615 0l14.62204 -14.622047m-14.62204 14.622047l0 43.866142" fill-rule="evenodd"></path><path fill="#d9ead3" d="m101.92126 32.240158l43.866142 0l0 43.866142l-43.866142 0z" fill-rule="evenodd"></path><path fill="#adbba8" d="m145.7874 32.240158l14.622055 -14.622047l0 43.866142l-14.622055 14.622047z" fill-rule="evenodd"></path><path fill="#e0eedb" d="m101.92126 32.240158l14.622047 -14.622047l43.86615 0l-14.622055 14.622047z" fill-rule="evenodd"></path><path fill="#000000" fill-opacity="0.0" d="m101.92126 32.240158l14.622047 -14.622047l43.86615 0l0 43.866142l-14.622055 14.622047l-43.866142 0zm0 0l43.866142 0l14.622055 -14.622047m-14.622055 14.622047l0 43.866142" fill-rule="evenodd"></path><path stroke="#000000" stroke-width="1.0" stroke-linejoin="round" stroke-linecap="butt" d="m101.92126 32.240158l14.622047 -14.622047l43.86615 0l0 43.866142l-14.622055 14.622047l-43.866142 0zm0 0l43.866142 0l14.622055 -14.622047m-14.622055 14.622047l0 43.866142" fill-rule="evenodd"></path><path fill="#d9ead3" d="m87.73491 46.54987l43.866135 0l0 43.86614l-43.866135 0z" fill-rule="evenodd"></path><path fill="#adbba8" d="m131.60104 46.54987l14.622055 -14.622047l0 43.86614l-14.622055 14.622047z" fill-rule="evenodd"></path><path fill="#e0eedb" d="m87.73491 46.54987l14.622047 -14.622047l43.866142 0l-14.622055 14.622047z" fill-rule="evenodd"></path><path fill="#000000" fill-opacity="0.0" d="m87.73491 46.54987l14.622047 -14.622047l43.866142 0l0 43.86614l-14.622055 14.622047l-43.866135 0zm0 0l43.866135 0l14.622055 -14.622047m-14.622055 14.622047l0 43.86614" fill-rule="evenodd"></path><path stroke="#000000" stroke-width="1.0" stroke-linejoin="round" stroke-linecap="butt" d="m87.73491 46.54987l14.622047 -14.622047l43.866142 0l0 43.86614l-14.622055 14.622047l-43.866135 0zm0 0l43.866135 0l14.622055 -14.622047m-14.622055 14.622047l0 43.86614" fill-rule="evenodd"></path><path fill="#d9ead3" d="m72.98163 61.14042l43.866142 0l0 43.866142l-43.866142 0z" fill-rule="evenodd"></path><path fill="#adbba8" d="m116.84777 61.14042l14.622047 -14.622047l0 43.866142l-14.622047 14.622047z" fill-rule="evenodd"></path><path fill="#e0eedb" d="m72.98163 61.14042l14.622047 -14.622047l43.866142 0l-14.622047 14.622047z" fill-rule="evenodd"></path><path fill="#000000" fill-opacity="0.0" d="m72.98163 61.14042l14.622047 -14.622047l43.866142 0l0 43.866142l-14.622047 14.622047l-43.866142 0zm0 0l43.866142 0l14.622047 -14.622047m-14.622047 14.622047l0 43.866142" fill-rule="evenodd"></path><path stroke="#000000" stroke-width="1.0" stroke-linejoin="round" stroke-linecap="butt" d="m72.98163 61.14042l14.622047 -14.622047l43.866142 0l0 43.866142l-14.622047 14.622047l-43.866142 0zm0 0l43.866142 0l14.622047 -14.622047m-14.622047 14.622047l0 43.866142" fill-rule="evenodd"></path><path fill="#d9ead3" d="m160.43832 17.652231l43.866135 0l0 43.866142l-43.866135 0z" fill-rule="evenodd"></path><path fill="#adbba8" d="m204.30446 17.652231l14.622055 -14.622047l0 43.866142l-14.622055 14.622047z" fill-rule="evenodd"></path><path fill="#e0eedb" d="m160.43832 17.652231l14.62204 -14.622047l43.86615 0l-14.622055 14.622047z" fill-rule="evenodd"></path><path fill="#000000" fill-opacity="0.0" d="m160.43832 17.652231l14.62204 -14.622047l43.86615 0l0 43.866142l-14.622055 14.622047l-43.866135 0zm0 0l43.866135 0l14.622055 -14.622047m-14.622055 14.622047l0 43.866142" fill-rule="evenodd"></path><path stroke="#000000" stroke-width="1.0" stroke-linejoin="round" stroke-linecap="butt" d="m160.43832 17.652231l14.62204 -14.622047l43.86615 0l0 43.866142l-14.622055 14.622047l-43.866135 0zm0 0l43.866135 0l14.622055 -14.622047m-14.622055 14.622047l0 43.866142" fill-rule="evenodd"></path><path fill="#d9ead3" d="m145.85039 32.240158l43.86615 0l0 43.866142l-43.86615 0z" fill-rule="evenodd"></path><path fill="#adbba8" d="m189.71654 32.240158l14.62204 -14.622047l0 43.866142l-14.62204 14.622047z" fill-rule="evenodd"></path><path fill="#e0eedb" d="m145.85039 32.240158l14.622055 -14.622047l43.866135 0l-14.62204 14.622047z" fill-rule="evenodd"></path><path fill="#000000" fill-opacity="0.0" d="m145.85039 32.240158l14.622055 -14.622047l43.866135 0l0 43.866142l-14.62204 14.622047l-43.86615 0zm0 0l43.86615 0l14.62204 -14.622047m-14.62204 14.622047l0 43.866142" fill-rule="evenodd"></path><path stroke="#000000" stroke-width="1.0" stroke-linejoin="round" stroke-linecap="butt" d="m145.85039 32.240158l14.622055 -14.622047l43.866135 0l0 43.866142l-14.62204 14.622047l-43.86615 0zm0 0l43.86615 0l14.62204 -14.622047m-14.62204 14.622047l0 43.866142" fill-rule="evenodd"></path><path fill="#d9ead3" d="m131.66405 46.54987l43.866135 0l0 43.86614l-43.866135 0z" fill-rule="evenodd"></path><path fill="#adbba8" d="m175.53018 46.54987l14.622055 -14.622047l0 43.86614l-14.622055 14.622047z" fill-rule="evenodd"></path><path fill="#e0eedb" d="m131.66405 46.54987l14.62204 -14.622047l43.86615 0l-14.622055 14.622047z" fill-rule="evenodd"></path><path fill="#000000" fill-opacity="0.0" d="m131.66405 46.54987l14.62204 -14.622047l43.86615 0l0 43.86614l-14.622055 14.622047l-43.866135 0zm0 0l43.866135 0l14.622055 -14.622047m-14.622055 14.622047l0 43.86614" fill-rule="evenodd"></path><path stroke="#000000" stroke-width="1.0" stroke-linejoin="round" stroke-linecap="butt" d="m131.66405 46.54987l14.62204 -14.622047l43.86615 0l0 43.86614l-14.622055 14.622047l-43.866135 0zm0 0l43.866135 0l14.622055 -14.622047m-14.622055 14.622047l0 43.86614" fill-rule="evenodd"></path><path fill="#d9ead3" d="m116.91076 61.14042l43.866142 0l0 43.866142l-43.866142 0z" fill-rule="evenodd"></path><path fill="#adbba8" d="m160.7769 61.14042l14.622055 -14.622047l0 43.866142l-14.622055 14.622047z" fill-rule="evenodd"></path><path fill="#e0eedb" d="m116.91076 61.14042l14.622047 -14.622047l43.86615 0l-14.622055 14.622047z" fill-rule="evenodd"></path><path fill="#000000" fill-opacity="0.0" d="m116.91076 61.14042l14.622047 -14.622047l43.86615 0l0 43.866142l-14.622055 14.622047l-43.866142 0zm0 0l43.866142 0l14.622055 -14.622047m-14.622055 14.622047l0 43.866142" fill-rule="evenodd"></path><path stroke="#000000" stroke-width="1.0" stroke-linejoin="round" stroke-linecap="butt" d="m116.91076 61.14042l14.622047 -14.622047l43.86615 0l0 43.866142l-14.622055 14.622047l-43.866142 0zm0 0l43.866142 0l14.622055 -14.622047m-14.622055 14.622047l0 43.866142" fill-rule="evenodd"></path><path fill="#000000" fill-opacity="0.0" d="m72.98163 61.49475l175.3937 0l0 192.77953l-175.3937 0z" fill-rule="evenodd"></path><path fill="#000000" fill-opacity="0.0" d="m248.37534 61.49475l58.46457 -58.46457l0 192.77953l-58.46457 58.46457z" fill-rule="evenodd"></path><path fill="#000000" fill-opacity="0.0" d="m72.98163 61.49475l58.46457 -58.46457l175.3937 0l-58.46457 58.46457z" fill-rule="evenodd"></path><path fill="#000000" fill-opacity="0.0" d="m72.98163 61.49475l58.46457 -58.46457l175.3937 0l0 192.77953l-58.46457 58.46457l-175.3937 0zm0 0l175.3937 0l58.46457 -58.46457m-58.46457 58.46457l0 192.77953" fill-rule="evenodd"></path><path fill="#000000" fill-opacity="0.2" d="m248.37534 61.49475l58.46457 -58.46457l0 192.77953l-58.46457 58.46457z" fill-rule="evenodd"></path><path fill="#ffffff" fill-opacity="0.2" d="m72.98163 61.49475l58.46457 -58.46457l175.3937 0l-58.46457 58.46457z" fill-rule="evenodd"></path><path stroke="#000000" stroke-width="1.0" stroke-linejoin="round" stroke-linecap="butt" d="m72.98163 61.49475l58.46457 -58.46457l175.3937 0l0 192.77953l-58.46457 58.46457l-175.3937 0zm0 0l175.3937 0l58.46457 -58.46457m-58.46457 58.46457l0 192.77953" fill-rule="evenodd"></path></g></svg>

