<?xml version="1.0" standalone="yes"?>

<svg version="1.1" viewBox="0.0 0.0 309.3307086614173 256.09448818897636" fill="none" stroke="none" stroke-linecap="square" stroke-miterlimit="10" xmlns="http://www.w3.org/2000/svg" xmlns:xlink="http://www.w3.org/1999/xlink"><clipPath id="p.0"><path d="m0 0l309.33072 0l0 256.09448l-309.33072 0l0 -256.09448z" clip-rule="nonzero"></path></clipPath><g clip-path="url(#p.0)"><path fill="#000000" fill-opacity="0.0" d="m0 0l309.33072 0l0 256.09448l-309.33072 0z" fill-rule="evenodd"></path><path fill="#4a86e8" d="m113.86352 124.2126l43.866142 0l0 43.866135l-43.866142 0z" fill-rule="evenodd"></path><path fill="#3b6bb9" d="m157.72966 124.2126l14.62204 -14.622047l0 43.866142l-14.62204 14.62204z" fill-rule="evenodd"></path><path fill="#6e9eec" d="m113.86352 124.2126l14.622047 -14.622047l43.866135 0l-14.62204 14.622047z" fill-rule="evenodd"></path><path fill="#000000" fill-opacity="0.0" d="m113.86352 124.2126l14.622047 -14.622047l43.866135 0l0 43.866142l-14.62204 14.62204l-43.866142 0zm0 0l43.866142 0l14.62204 -14.622047m-14.62204 14.622047l0 43.866135" fill-rule="evenodd"></path><path stroke="#000000" stroke-width="1.0" stroke-linejoin="round" stroke-linecap="butt" d="m113.86352 124.2126l14.622047 -14.622047l43.866135 0l0 43.866142l-14.62204 14.62204l-43.866142 0zm0 0l43.866142 0l14.62204 -14.622047m-14.62204 14.622047l0 43.866135" fill-rule="evenodd"></path><path fill="#d9ead3" d="m157.85826 124.2126l43.86615 0l0 43.866135l-43.86615 0z" fill-rule="evenodd"></path><path fill="#adbba8" d="m201.72441 124.2126l14.62204 -14.622047l0 43.866142l-14.62204 14.62204z" fill-rule="evenodd"></path><path fill="#e0eedb" d="m157.85826 124.2126l14.622055 -14.622047l43.866135 0l-14.62204 14.622047z" fill-rule="evenodd"></path><path fill="#000000" fill-opacity="0.0" d="m157.85826 124.2126l14.622055 -14.622047l43.866135 0l0 43.866142l-14.62204 14.62204l-43.86615 0zm0 0l43.86615 0l14.62204 -14.622047m-14.62204 14.622047l0 43.866135" fill-rule="evenodd"></path><path stroke="#000000" stroke-width="1.0" stroke-linejoin="round" stroke-linecap="butt" d="m157.85826 124.2126l14.622055 -14.622047l43.866135 0l0 43.866142l-14.62204 14.62204l-43.86615 0zm0 0l43.86615 0l14.62204 -14.622047m-14.62204 14.622047l0 43.866135" fill-rule="evenodd"></path><path fill="#d9ead3" d="m201.86351 124.2126l43.86615 0l0 43.866135l-43.86615 0z" fill-rule="evenodd"></path><path fill="#adbba8" d="m245.72966 124.2126l14.622055 -14.622047l0 43.866142l-14.622055 14.62204z" fill-rule="evenodd"></path><path fill="#e0eedb" d="m201.86351 124.2126l14.622055 -14.622047l43.86615 0l-14.622055 14.622047z" fill-rule="evenodd"></path><path fill="#000000" fill-opacity="0.0" d="m201.86351 124.2126l14.622055 -14.622047l43.86615 0l0 43.866142l-14.622055 14.62204l-43.86615 0zm0 0l43.86615 0l14.622055 -14.622047m-14.622055 14.622047l0 43.866135" fill-rule="evenodd"></path><path stroke="#000000" stroke-width="1.0" stroke-linejoin="round" stroke-linecap="butt" d="m201.86351 124.2126l14.622055 -14.622047l43.86615 0l0 43.866142l-14.622055 14.62204l-43.86615 0zm0 0l43.86615 0l14.622055 -14.622047m-14.622055 14.622047l0 43.866135" fill-rule="evenodd"></path><path fill="#d9ead3" d="m245.87927 124.2126l43.86612 0l0 43.866135l-43.86612 0z" fill-rule="evenodd"></path><path fill="#adbba8" d="m289.7454 124.2126l14.62207 -14.622047l0 43.866142l-14.62207 14.62204z" fill-rule="evenodd"></path><path fill="#e0eedb" d="m245.87927 124.2126l14.62204 -14.622047l43.86615 0l-14.62207 14.622047z" fill-rule="evenodd"></path><path fill="#000000" fill-opacity="0.0" d="m245.87927 124.2126l14.62204 -14.622047l43.86615 0l0 43.866142l-14.62207 14.62204l-43.86612 0zm0 0l43.86612 0l14.62207 -14.622047m-14.62207 14.622047l0 43.866135" fill-rule="evenodd"></path><path stroke="#000000" stroke-width="1.0" stroke-linejoin="round" stroke-linecap="butt" d="m245.87927 124.2126l14.62204 -14.622047l43.86615 0l0 43.866142l-14.62207 14.62204l-43.86612 0zm0 0l43.86612 0l14.62207 -14.622047m-14.62207 14.622047l0 43.866135" fill-rule="evenodd"></path><path fill="#d9d9d9" fill-opacity="0.8346" d="m98.808395 138.65355l43.86615 0l0 43.866135l-43.86615 0z" fill-rule="evenodd"></path><path fill="#adadad" fill-opacity="0.8346" d="m142.67455 138.65355l14.62204 -14.622055l0 43.86615l-14.62204 14.62204z" fill-rule="evenodd"></path><path fill="#e0e0e0" fill-opacity="0.8346" d="m98.808395 138.65355l14.622047 -14.622055l43.866142 0l-14.62204 14.622055z" fill-rule="evenodd"></path><path fill="#000000" fill-opacity="0.0" d="m98.808395 138.65355l14.622047 -14.622055l43.866142 0l0 43.86615l-14.62204 14.62204l-43.86615 0zm0 0l43.86615 0l14.62204 -14.622055m-14.62204 14.622055l0 43.866135" fill-rule="evenodd"></path><path stroke="#000000" stroke-width="1.0" stroke-linejoin="round" stroke-linecap="butt" stroke-dasharray="1.0,3.0" d="m98.808395 138.65355l14.622047 -14.622055l43.866142 0l0 43.86615l-14.62204 14.62204l-43.86615 0zm0 0l43.86615 0l14.62204 -14.622055m-14.62204 14.622055l0 43.866135" fill-rule="evenodd"></path><path fill="#d9d9d9" fill-opacity="0.8346" d="m142.80315 138.65355l43.86615 0l0 43.866135l-43.86615 0z" fill-rule="evenodd"></path><path fill="#adadad" fill-opacity="0.8346" d="m186.6693 138.65355l14.62204 -14.622055l0 43.86615l-14.62204 14.62204z" fill-rule="evenodd"></path><path fill="#e0e0e0" fill-opacity="0.8346" d="m142.80315 138.65355l14.622055 -14.622055l43.866135 0l-14.62204 14.622055z" fill-rule="evenodd"></path><path fill="#000000" fill-opacity="0.0" d="m142.80315 138.65355l14.622055 -14.622055l43.866135 0l0 43.86615l-14.62204 14.62204l-43.86615 0zm0 0l43.86615 0l14.62204 -14.622055m-14.62204 14.622055l0 43.866135" fill-rule="evenodd"></path><path stroke="#000000" stroke-width="1.0" stroke-linejoin="round" stroke-linecap="butt" stroke-dasharray="1.0,3.0" d="m142.80315 138.65355l14.622055 -14.622055l43.866135 0l0 43.86615l-14.62204 14.62204l-43.86615 0zm0 0l43.86615 0l14.62204 -14.622055m-14.62204 14.622055l0 43.866135" fill-rule="evenodd"></path><path fill="#d9d9d9" fill-opacity="0.8346" d="m186.8084 138.65355l43.86615 0l0 43.866135l-43.86615 0z" fill-rule="evenodd"></path><path fill="#adadad" fill-opacity="0.8346" d="m230.67455 138.65355l14.62204 -14.622055l0 43.86615l-14.62204 14.62204z" fill-rule="evenodd"></path><path fill="#e0e0e0" fill-opacity="0.8346" d="m186.8084 138.65355l14.622055 -14.622055l43.866135 0l-14.62204 14.622055z" fill-rule="evenodd"></path><path fill="#000000" fill-opacity="0.0" d="m186.8084 138.65355l14.622055 -14.622055l43.866135 0l0 43.86615l-14.62204 14.62204l-43.86615 0zm0 0l43.86615 0l14.62204 -14.622055m-14.62204 14.622055l0 43.866135" fill-rule="evenodd"></path><path stroke="#000000" stroke-width="1.0" stroke-linejoin="round" stroke-linecap="butt" stroke-dasharray="1.0,3.0" d="m186.8084 138.65355l14.622055 -14.622055l43.866135 0l0 43.86615l-14.62204 14.62204l-43.86615 0zm0 0l43.86615 0l14.62204 -14.622055m-14.62204 14.622055l0 43.866135" fill-rule="evenodd"></path><path fill="#d9d9d9" fill-opacity="0.8346" d="m230.82414 138.65355l43.866135 0l0 43.866135l-43.866135 0z" fill-rule="evenodd"></path><path fill="#adadad" fill-opacity="0.8346" d="m274.69028 138.65355l14.62207 -14.622055l0 43.86615l-14.62207 14.62204z" fill-rule="evenodd"></path><path fill="#e0e0e0" fill-opacity="0.8346" d="m230.82414 138.65355l14.622055 -14.622055l43.86615 0l-14.62207 14.622055z" fill-rule="evenodd"></path><path fill="#000000" fill-opacity="0.0" d="m230.82414 138.65355l14.622055 -14.622055l43.86615 0l0 43.86615l-14.62207 14.62204l-43.866135 0zm0 0l43.866135 0l14.62207 -14.622055m-14.62207 14.622055l0 43.866135" fill-rule="evenodd"></path><path stroke="#000000" stroke-width="1.0" stroke-linejoin="round" stroke-linecap="butt" stroke-dasharray="1.0,3.0" d="m230.82414 138.65355l14.622055 -14.622055l43.86615 0l0 43.86615l-14.62207 14.62204l-43.866135 0zm0 0l43.866135 0l14.62207 -14.622055m-14.62207 14.622055l0 43.866135" fill-rule="evenodd"></path><path fill="#d9d9d9" fill-opacity="0.8346" d="m84.62205 152.74278l43.866142 0l0 43.866135l-43.866142 0z" fill-rule="evenodd"></path><path fill="#adadad" fill-opacity="0.8346" d="m128.48819 152.74278l14.62204 -14.622055l0 43.86615l-14.62204 14.62204z" fill-rule="evenodd"></path><path fill="#e0e0e0" fill-opacity="0.8346" d="m84.62205 152.74278l14.622047 -14.622055l43.866135 0l-14.62204 14.622055z" fill-rule="evenodd"></path><path fill="#000000" fill-opacity="0.0" d="m84.62205 152.74278l14.622047 -14.622055l43.866135 0l0 43.86615l-14.62204 14.62204l-43.866142 0zm0 0l43.866142 0l14.62204 -14.622055m-14.62204 14.622055l0 43.866135" fill-rule="evenodd"></path><path stroke="#000000" stroke-width="1.0" stroke-linejoin="round" stroke-linecap="butt" stroke-dasharray="1.0,3.0" d="m84.62205 152.74278l14.622047 -14.622055l43.866135 0l0 43.86615l-14.62204 14.62204l-43.866142 0zm0 0l43.866142 0l14.62204 -14.622055m-14.62204 14.622055l0 43.866135" fill-rule="evenodd"></path><path fill="#d9d9d9" fill-opacity="0.8346" d="m128.61679 152.74278l43.86615 0l0 43.866135l-43.86615 0z" fill-rule="evenodd"></path><path fill="#adadad" fill-opacity="0.8346" d="m172.48294 152.74278l14.62204 -14.622055l0 43.86615l-14.62204 14.62204z" fill-rule="evenodd"></path><path fill="#e0e0e0" fill-opacity="0.8346" d="m128.61679 152.74278l14.622055 -14.622055l43.866135 0l-14.62204 14.622055z" fill-rule="evenodd"></path><path fill="#000000" fill-opacity="0.0" d="m128.61679 152.74278l14.622055 -14.622055l43.866135 0l0 43.86615l-14.62204 14.62204l-43.86615 0zm0 0l43.86615 0l14.62204 -14.622055m-14.62204 14.622055l0 43.866135" fill-rule="evenodd"></path><path stroke="#000000" stroke-width="1.0" stroke-linejoin="round" stroke-linecap="butt" stroke-dasharray="1.0,3.0" d="m128.61679 152.74278l14.622055 -14.622055l43.866135 0l0 43.86615l-14.62204 14.62204l-43.86615 0zm0 0l43.86615 0l14.62204 -14.622055m-14.62204 14.622055l0 43.866135" fill-rule="evenodd"></path><path fill="#d9d9d9" fill-opacity="0.8346" d="m172.62204 152.74278l43.86615 0l0 43.866135l-43.86615 0z" fill-rule="evenodd"></path><path fill="#adadad" fill-opacity="0.8346" d="m216.48819 152.74278l14.62204 -14.622055l0 43.86615l-14.62204 14.62204z" fill-rule="evenodd"></path><path fill="#e0e0e0" fill-opacity="0.8346" d="m172.62204 152.74278l14.622055 -14.622055l43.866135 0l-14.62204 14.622055z" fill-rule="evenodd"></path><path fill="#000000" fill-opacity="0.0" d="m172.62204 152.74278l14.622055 -14.622055l43.866135 0l0 43.86615l-14.62204 14.62204l-43.86615 0zm0 0l43.86615 0l14.62204 -14.622055m-14.62204 14.622055l0 43.866135" fill-rule="evenodd"></path><path stroke="#000000" stroke-width="1.0" stroke-linejoin="round" stroke-linecap="butt" stroke-dasharray="1.0,3.0" d="m172.62204 152.74278l14.622055 -14.622055l43.866135 0l0 43.86615l-14.62204 14.62204l-43.86615 0zm0 0l43.86615 0l14.62204 -14.622055m-14.62204 14.622055l0 43.866135" fill-rule="evenodd"></path><path fill="#d9d9d9" fill-opacity="0.8346" d="m216.6378 152.74278l43.866135 0l0 43.866135l-43.866135 0z" fill-rule="evenodd"></path><path fill="#adadad" fill-opacity="0.8346" d="m260.50394 152.74278l14.62204 -14.622055l0 43.86615l-14.62204 14.62204z" fill-rule="evenodd"></path><path fill="#e0e0e0" fill-opacity="0.8346" d="m216.6378 152.74278l14.62204 -14.622055l43.866135 0l-14.62204 14.622055z" fill-rule="evenodd"></path><path fill="#000000" fill-opacity="0.0" d="m216.6378 152.74278l14.62204 -14.622055l43.866135 0l0 43.86615l-14.62204 14.62204l-43.866135 0zm0 0l43.866135 0l14.62204 -14.622055m-14.62204 14.622055l0 43.866135" fill-rule="evenodd"></path><path stroke="#000000" stroke-width="1.0" stroke-linejoin="round" stroke-linecap="butt" stroke-dasharray="1.0,3.0" d="m216.6378 152.74278l14.62204 -14.622055l43.866135 0l0 43.86615l-14.62204 14.62204l-43.866135 0zm0 0l43.866135 0l14.62204 -14.622055m-14.62204 14.622055l0 43.866135" fill-rule="evenodd"></path><path fill="#000000" fill-opacity="0.0" d="m-8.0 21.17323l83.874016 0l0 26.960629l-83.874016 0z" fill-rule="evenodd"></path><path fill="#000000" d="m2.453125 48.093227l0 -13.59375l1.84375 0l7.140625 10.671875l0 -10.671875l1.71875 0l0 13.59375l-1.84375 0l-7.140625 -10.6875l0 10.6875l-1.71875 0zm22.051071 -8.0l-8.96875 0l0 -1.5625l8.96875 0l0 1.5625zm0 4.125l-8.96875 0l0 -1.546875l8.96875 0l0 1.546875zm10.4262085 2.265625l0 1.609375l-8.984375 0q-0.015625 -0.609375 0.1875 -1.15625q0.34375 -0.921875 1.09375 -1.8125q0.765625 -0.890625 2.1875 -2.0625q2.21875 -1.8125 3.0 -2.875q0.78125 -1.0625 0.78125 -2.015625q0 -0.984375 -0.71875 -1.671875q-0.703125 -0.6875 -1.84375 -0.6875q-1.203125 0 -1.9375 0.734375q-0.71875 0.71875 -0.71875 2.0l-1.71875 -0.171875q0.171875 -1.921875 1.328125 -2.921875q1.15625 -1.015625 3.09375 -1.015625q1.953125 0 3.09375 1.09375q1.140625 1.078125 1.140625 2.6875q0 0.8125 -0.34375 1.609375q-0.328125 0.78125 -1.109375 1.65625q-0.765625 0.859375 -2.5625 2.390625q-1.5 1.265625 -1.9375 1.71875q-0.421875 0.4375 -0.703125 0.890625l6.671875 0zm8.453842 1.609375l0 -1.25q-0.9375 1.46875 -2.75 1.46875q-1.171875 0 -2.171875 -0.640625q-0.984375 -0.65625 -1.53125 -1.8125q-0.53125 -1.171875 -0.53125 -2.6875q0 -1.46875 0.484375 -2.671875q0.5 -1.203125 1.46875 -1.84375q0.984375 -0.640625 2.203125 -0.640625q0.890625 0 1.578125 0.375q0.703125 0.375 1.140625 0.984375l0 -4.875l1.65625 0l0 13.59375l-1.546875 0zm-5.28125 -4.921875q0 1.890625 0.796875 2.828125q0.8125 0.9375 1.890625 0.9375q1.09375 0 1.859375 -0.890625q0.765625 -0.890625 0.765625 -2.734375q0 -2.015625 -0.78125 -2.953125q-0.78125 -0.953125 -1.921875 -0.953125q-1.109375 0 -1.859375 0.90625q-0.75 0.90625 -0.75 2.859375zm8.625717 0.84375l0 -1.6875l5.125 0l0 1.6875l-5.125 0zm12.681427 4.078125l-1.671875 0l0 -10.640625q-0.59375 0.578125 -1.578125 1.15625q-0.984375 0.5625 -1.765625 0.859375l0 -1.625q1.40625 -0.65625 2.453125 -1.59375q1.046875 -0.9375 1.484375 -1.8125l1.078125 0l0 13.65625z" fill-rule="nonzero"></path><path fill="#d9d9d9" fill-opacity="0.8346" d="m98.808395 94.75328l43.86615 0l0 43.866135l-43.86615 0z" fill-rule="evenodd"></path><path fill="#adadad" fill-opacity="0.8346" d="m142.67455 94.75328l14.62204 -14.622047l0 43.866142l-14.62204 14.62204z" fill-rule="evenodd"></path><path fill="#e0e0e0" fill-opacity="0.8346" d="m98.808395 94.75328l14.622047 -14.622047l43.866142 0l-14.62204 14.622047z" fill-rule="evenodd"></path><path fill="#000000" fill-opacity="0.0" d="m98.808395 94.75328l14.622047 -14.622047l43.866142 0l0 43.866142l-14.62204 14.62204l-43.86615 0zm0 0l43.86615 0l14.62204 -14.622047m-14.62204 14.622047l0 43.866135" fill-rule="evenodd"></path><path stroke="#000000" stroke-width="1.0" stroke-linejoin="round" stroke-linecap="butt" stroke-dasharray="1.0,3.0" d="m98.808395 94.75328l14.622047 -14.622047l43.866142 0l0 43.866142l-14.62204 14.62204l-43.86615 0zm0 0l43.86615 0l14.62204 -14.622047m-14.62204 14.622047l0 43.866135" fill-rule="evenodd"></path><path fill="#d9d9d9" fill-opacity="0.8346" d="m84.62205 109.062996l43.866142 0l0 43.866142l-43.866142 0z" fill-rule="evenodd"></path><path fill="#adadad" fill-opacity="0.8346" d="m128.48819 109.062996l14.62204 -14.622047l0 43.866135l-14.62204 14.622055z" fill-rule="evenodd"></path><path fill="#e0e0e0" fill-opacity="0.8346" d="m84.62205 109.062996l14.622047 -14.622047l43.866135 0l-14.62204 14.622047z" fill-rule="evenodd"></path><path fill="#000000" fill-opacity="0.0" d="m84.62205 109.062996l14.622047 -14.622047l43.866135 0l0 43.866135l-14.62204 14.622055l-43.866142 0zm0 0l43.866142 0l14.62204 -14.622047m-14.62204 14.622047l0 43.866142" fill-rule="evenodd"></path><path stroke="#000000" stroke-width="1.0" stroke-linejoin="round" stroke-linecap="butt" stroke-dasharray="1.0,3.0" d="m84.62205 109.062996l14.622047 -14.622047l43.866135 0l0 43.866135l-14.62204 14.622055l-43.866142 0zm0 0l43.866142 0l14.62204 -14.622047m-14.62204 14.622047l0 43.866142" fill-rule="evenodd"></path><path fill="#4a86e8" d="m69.86877 123.65354l43.866142 0l0 43.866142l-43.866142 0z" fill-rule="evenodd"></path><path fill="#3b6bb9" d="m113.73491 123.65354l14.62204 -14.622047l0 43.86615l-14.62204 14.62204z" fill-rule="evenodd"></path><path fill="#6e9eec" d="m69.86877 123.65354l14.622047 -14.622047l43.866135 0l-14.62204 14.622047z" fill-rule="evenodd"></path><path fill="#000000" fill-opacity="0.0" d="m69.86877 123.65354l14.622047 -14.622047l43.866135 0l0 43.86615l-14.62204 14.62204l-43.866142 0zm0 0l43.866142 0l14.62204 -14.622047m-14.62204 14.622047l0 43.866142" fill-rule="evenodd"></path><path stroke="#000000" stroke-width="1.0" stroke-linejoin="round" stroke-linecap="butt" d="m69.86877 123.65354l14.622047 -14.622047l43.866135 0l0 43.86615l-14.62204 14.62204l-43.866142 0zm0 0l43.866142 0l14.62204 -14.622047m-14.62204 14.622047l0 43.866142" fill-rule="evenodd"></path><path fill="#d9d9d9" fill-opacity="0.8346" d="m142.80315 94.75328l43.86615 0l0 43.866135l-43.86615 0z" fill-rule="evenodd"></path><path fill="#adadad" fill-opacity="0.8346" d="m186.6693 94.75328l14.62204 -14.622047l0 43.866142l-14.62204 14.62204z" fill-rule="evenodd"></path><path fill="#e0e0e0" fill-opacity="0.8346" d="m142.80315 94.75328l14.622055 -14.622047l43.866135 0l-14.62204 14.622047z" fill-rule="evenodd"></path><path fill="#000000" fill-opacity="0.0" d="m142.80315 94.75328l14.622055 -14.622047l43.866135 0l0 43.866142l-14.62204 14.62204l-43.86615 0zm0 0l43.86615 0l14.62204 -14.622047m-14.62204 14.622047l0 43.866135" fill-rule="evenodd"></path><path stroke="#000000" stroke-width="1.0" stroke-linejoin="round" stroke-linecap="butt" stroke-dasharray="1.0,3.0" d="m142.80315 94.75328l14.622055 -14.622047l43.866135 0l0 43.866142l-14.62204 14.62204l-43.86615 0zm0 0l43.86615 0l14.62204 -14.622047m-14.62204 14.622047l0 43.866135" fill-rule="evenodd"></path><path fill="#d9d9d9" fill-opacity="0.8346" d="m128.61679 109.062996l43.86615 0l0 43.866142l-43.86615 0z" fill-rule="evenodd"></path><path fill="#adadad" fill-opacity="0.8346" d="m172.48294 109.062996l14.62204 -14.622047l0 43.866135l-14.62204 14.622055z" fill-rule="evenodd"></path><path fill="#e0e0e0" fill-opacity="0.8346" d="m128.61679 109.062996l14.622055 -14.622047l43.866135 0l-14.62204 14.622047z" fill-rule="evenodd"></path><path fill="#000000" fill-opacity="0.0" d="m128.61679 109.062996l14.622055 -14.622047l43.866135 0l0 43.866135l-14.62204 14.622055l-43.86615 0zm0 0l43.86615 0l14.62204 -14.622047m-14.62204 14.622047l0 43.866142" fill-rule="evenodd"></path><path stroke="#000000" stroke-width="1.0" stroke-linejoin="round" stroke-linecap="butt" stroke-dasharray="1.0,3.0" d="m128.61679 109.062996l14.622055 -14.622047l43.866135 0l0 43.866135l-14.62204 14.622055l-43.86615 0zm0 0l43.86615 0l14.62204 -14.622047m-14.62204 14.622047l0 43.866142" fill-rule="evenodd"></path><path fill="#d9ead3" d="m113.86352 123.65354l43.866142 0l0 43.866142l-43.866142 0z" fill-rule="evenodd"></path><path fill="#adbba8" d="m157.72966 123.65354l14.62204 -14.622047l0 43.86615l-14.62204 14.62204z" fill-rule="evenodd"></path><path fill="#e0eedb" d="m113.86352 123.65354l14.622047 -14.622047l43.866135 0l-14.62204 14.622047z" fill-rule="evenodd"></path><path fill="#000000" fill-opacity="0.0" d="m113.86352 123.65354l14.622047 -14.622047l43.866135 0l0 43.86615l-14.62204 14.62204l-43.866142 0zm0 0l43.866142 0l14.62204 -14.622047m-14.62204 14.622047l0 43.866142" fill-rule="evenodd"></path><path stroke="#000000" stroke-width="1.0" stroke-linejoin="round" stroke-linecap="butt" d="m113.86352 123.65354l14.622047 -14.622047l43.866135 0l0 43.86615l-14.62204 14.62204l-43.866142 0zm0 0l43.866142 0l14.62204 -14.622047m-14.62204 14.622047l0 43.866142" fill-rule="evenodd"></path><path fill="#d9d9d9" fill-opacity="0.8346" d="m186.8084 94.75328l43.86615 0l0 43.866135l-43.86615 0z" fill-rule="evenodd"></path><path fill="#adadad" fill-opacity="0.8346" d="m230.67455 94.75328l14.62204 -14.622047l0 43.866142l-14.62204 14.62204z" fill-rule="evenodd"></path><path fill="#e0e0e0" fill-opacity="0.8346" d="m186.8084 94.75328l14.622055 -14.622047l43.866135 0l-14.62204 14.622047z" fill-rule="evenodd"></path><path fill="#000000" fill-opacity="0.0" d="m186.8084 94.75328l14.622055 -14.622047l43.866135 0l0 43.866142l-14.62204 14.62204l-43.86615 0zm0 0l43.86615 0l14.62204 -14.622047m-14.62204 14.622047l0 43.866135" fill-rule="evenodd"></path><path stroke="#000000" stroke-width="1.0" stroke-linejoin="round" stroke-linecap="butt" stroke-dasharray="1.0,3.0" d="m186.8084 94.75328l14.622055 -14.622047l43.866135 0l0 43.866142l-14.62204 14.62204l-43.86615 0zm0 0l43.86615 0l14.62204 -14.622047m-14.62204 14.622047l0 43.866135" fill-rule="evenodd"></path><path fill="#d9d9d9" fill-opacity="0.8346" d="m172.62204 109.062996l43.86615 0l0 43.866142l-43.86615 0z" fill-rule="evenodd"></path><path fill="#adadad" fill-opacity="0.8346" d="m216.48819 109.062996l14.62204 -14.622047l0 43.866135l-14.62204 14.622055z" fill-rule="evenodd"></path><path fill="#e0e0e0" fill-opacity="0.8346" d="m172.62204 109.062996l14.622055 -14.622047l43.866135 0l-14.62204 14.622047z" fill-rule="evenodd"></path><path fill="#000000" fill-opacity="0.0" d="m172.62204 109.062996l14.622055 -14.622047l43.866135 0l0 43.866135l-14.62204 14.622055l-43.86615 0zm0 0l43.86615 0l14.62204 -14.622047m-14.62204 14.622047l0 43.866142" fill-rule="evenodd"></path><path stroke="#000000" stroke-width="1.0" stroke-linejoin="round" stroke-linecap="butt" stroke-dasharray="1.0,3.0" d="m172.62204 109.062996l14.622055 -14.622047l43.866135 0l0 43.866135l-14.62204 14.622055l-43.86615 0zm0 0l43.86615 0l14.62204 -14.622047m-14.62204 14.622047l0 43.866142" fill-rule="evenodd"></path><path fill="#d9ead3" d="m157.86876 123.65354l43.86615 0l0 43.866142l-43.86615 0z" fill-rule="evenodd"></path><path fill="#adbba8" d="m201.73491 123.65354l14.62204 -14.622047l0 43.86615l-14.62204 14.62204z" fill-rule="evenodd"></path><path fill="#e0eedb" d="m157.86876 123.65354l14.622055 -14.622047l43.866135 0l-14.62204 14.622047z" fill-rule="evenodd"></path><path fill="#000000" fill-opacity="0.0" d="m157.86876 123.65354l14.622055 -14.622047l43.866135 0l0 43.86615l-14.62204 14.62204l-43.86615 0zm0 0l43.86615 0l14.62204 -14.622047m-14.62204 14.622047l0 43.866142" fill-rule="evenodd"></path><path stroke="#000000" stroke-width="1.0" stroke-linejoin="round" stroke-linecap="butt" d="m157.86876 123.65354l14.622055 -14.622047l43.866135 0l0 43.86615l-14.62204 14.62204l-43.86615 0zm0 0l43.86615 0l14.62204 -14.622047m-14.62204 14.622047l0 43.866142" fill-rule="evenodd"></path><path fill="#d9d9d9" fill-opacity="0.8346" d="m230.82414 94.75328l43.866135 0l0 43.866135l-43.866135 0z" fill-rule="evenodd"></path><path fill="#adadad" fill-opacity="0.8346" d="m274.69028 94.75328l14.62207 -14.622047l0 43.866142l-14.62207 14.62204z" fill-rule="evenodd"></path><path fill="#e0e0e0" fill-opacity="0.8346" d="m230.82414 94.75328l14.622055 -14.622047l43.86615 0l-14.62207 14.622047z" fill-rule="evenodd"></path><path fill="#000000" fill-opacity="0.0" d="m230.82414 94.75328l14.622055 -14.622047l43.86615 0l0 43.866142l-14.62207 14.62204l-43.866135 0zm0 0l43.866135 0l14.62207 -14.622047m-14.62207 14.622047l0 43.866135" fill-rule="evenodd"></path><path stroke="#000000" stroke-width="1.0" stroke-linejoin="round" stroke-linecap="butt" stroke-dasharray="1.0,3.0" d="m230.82414 94.75328l14.622055 -14.622047l43.86615 0l0 43.866142l-14.62207 14.62204l-43.866135 0zm0 0l43.866135 0l14.62207 -14.622047m-14.62207 14.622047l0 43.866135" fill-rule="evenodd"></path><path fill="#d9d9d9" fill-opacity="0.8346" d="m216.6378 109.062996l43.866135 0l0 43.866142l-43.866135 0z" fill-rule="evenodd"></path><path fill="#adadad" fill-opacity="0.8346" d="m260.50394 109.062996l14.62204 -14.622047l0 43.866135l-14.62204 14.622055z" fill-rule="evenodd"></path><path fill="#e0e0e0" fill-opacity="0.8346" d="m216.6378 109.062996l14.62204 -14.622047l43.866135 0l-14.62204 14.622047z" fill-rule="evenodd"></path><path fill="#000000" fill-opacity="0.0" d="m216.6378 109.062996l14.62204 -14.622047l43.866135 0l0 43.866135l-14.62204 14.622055l-43.866135 0zm0 0l43.866135 0l14.62204 -14.622047m-14.62204 14.622047l0 43.866142" fill-rule="evenodd"></path><path stroke="#000000" stroke-width="1.0" stroke-linejoin="round" stroke-linecap="butt" stroke-dasharray="1.0,3.0" d="m216.6378 109.062996l14.62204 -14.622047l43.866135 0l0 43.866135l-14.62204 14.622055l-43.866135 0zm0 0l43.866135 0l14.62204 -14.622047m-14.62204 14.622047l0 43.866142" fill-rule="evenodd"></path><path fill="#d9ead3" d="m201.88452 123.65354l43.866135 0l0 43.866142l-43.866135 0z" fill-rule="evenodd"></path><path fill="#adbba8" d="m245.75066 123.65354l14.622055 -14.622047l0 43.86615l-14.622055 14.62204z" fill-rule="evenodd"></path><path fill="#e0eedb" d="m201.88452 123.65354l14.62204 -14.622047l43.86615 0l-14.622055 14.622047z" fill-rule="evenodd"></path><path fill="#000000" fill-opacity="0.0" d="m201.88452 123.65354l14.62204 -14.622047l43.86615 0l0 43.86615l-14.622055 14.62204l-43.866135 0zm0 0l43.866135 0l14.622055 -14.622047m-14.622055 14.622047l0 43.866142" fill-rule="evenodd"></path><path stroke="#000000" stroke-width="1.0" stroke-linejoin="round" stroke-linecap="butt" d="m201.88452 123.65354l14.62204 -14.622047l43.86615 0l0 43.86615l-14.622055 14.62204l-43.866135 0zm0 0l43.866135 0l14.622055 -14.622047m-14.622055 14.622047l0 43.866142" fill-rule="evenodd"></path><path fill="#000000" fill-opacity="0.0" d="m70.04199 80.03928l175.3937 0l0 176.05511l-175.3937 0z" fill-rule="evenodd"></path><path fill="#000000" fill-opacity="0.0" d="m245.4357 80.03928l58.46457 -58.46456l0 176.05511l-58.46457 58.464554z" fill-rule="evenodd"></path><path fill="#000000" fill-opacity="0.0" d="m70.04199 80.03928l58.46457 -58.46456l175.3937 0l-58.46457 58.46456z" fill-rule="evenodd"></path><path fill="#000000" fill-opacity="0.0" d="m70.04199 80.03928l58.46457 -58.46456l175.3937 0l0 176.05511l-58.46457 58.464554l-175.3937 0zm0 0l175.3937 0l58.46457 -58.46456m-58.46457 58.46456l0 176.05511" fill-rule="evenodd"></path><path fill="#000000" fill-opacity="0.2" d="m245.4357 80.03928l58.46457 -58.46456l0 176.05511l-58.46457 58.464554z" fill-rule="evenodd"></path><path fill="#ffffff" fill-opacity="0.2" d="m70.04199 80.03928l58.46457 -58.46456l175.3937 0l-58.46457 58.46456z" fill-rule="evenodd"></path><path stroke="#000000" stroke-width="1.0" stroke-linejoin="round" stroke-linecap="butt" d="m70.04199 80.03928l58.46457 -58.46456l175.3937 0l0 176.05511l-58.46457 58.464554l-175.3937 0zm0 0l175.3937 0l58.46457 -58.46456m-58.46457 58.46456l0 176.05511" fill-rule="evenodd"></path></g></svg>

